G04 EAGLE Gerber RS-274X export*
G75*
%MOMM*%
%FSLAX34Y34*%
%LPD*%
%INBottom Copper*%
%IPPOS*%
%AMOC8*
5,1,8,0,0,1.08239X$1,22.5*%
G01*
%ADD10C,0.076200*%
%ADD11C,0.101600*%
%ADD12P,2.336880X8X202.500000*%
%ADD13C,1.320800*%
%ADD14C,2.095500*%
%ADD15C,1.524000*%
%ADD16C,1.422400*%
%ADD17C,0.756400*%
%ADD18C,0.406400*%
%ADD19C,0.304800*%

G36*
X821458Y227842D02*
X821458Y227842D01*
X821477Y227840D01*
X821579Y227862D01*
X821681Y227879D01*
X821698Y227888D01*
X821718Y227892D01*
X821807Y227945D01*
X821898Y227994D01*
X821912Y228008D01*
X821929Y228018D01*
X821996Y228097D01*
X822068Y228172D01*
X822076Y228190D01*
X822089Y228205D01*
X822128Y228301D01*
X822171Y228395D01*
X822173Y228415D01*
X822181Y228433D01*
X822199Y228600D01*
X822199Y584200D01*
X822196Y584220D01*
X822198Y584239D01*
X822176Y584341D01*
X822160Y584443D01*
X822150Y584460D01*
X822146Y584480D01*
X822093Y584569D01*
X822044Y584660D01*
X822030Y584674D01*
X822020Y584691D01*
X821941Y584758D01*
X821866Y584830D01*
X821848Y584838D01*
X821833Y584851D01*
X821737Y584890D01*
X821643Y584933D01*
X821623Y584935D01*
X821605Y584943D01*
X821438Y584961D01*
X158242Y584961D01*
X158222Y584958D01*
X158203Y584960D01*
X158101Y584938D01*
X157999Y584922D01*
X157982Y584912D01*
X157962Y584908D01*
X157873Y584855D01*
X157782Y584806D01*
X157768Y584792D01*
X157751Y584782D01*
X157684Y584703D01*
X157612Y584628D01*
X157604Y584610D01*
X157591Y584595D01*
X157552Y584499D01*
X157509Y584405D01*
X157507Y584385D01*
X157499Y584367D01*
X157481Y584200D01*
X157481Y357032D01*
X157492Y356961D01*
X157494Y356890D01*
X157512Y356841D01*
X157520Y356789D01*
X157554Y356726D01*
X157579Y356659D01*
X157611Y356618D01*
X157636Y356572D01*
X157687Y356523D01*
X157732Y356467D01*
X157776Y356438D01*
X157814Y356402D01*
X157879Y356372D01*
X157939Y356334D01*
X157990Y356321D01*
X158037Y356299D01*
X158108Y356291D01*
X158178Y356273D01*
X158230Y356278D01*
X158281Y356272D01*
X158352Y356287D01*
X158423Y356293D01*
X158471Y356313D01*
X158522Y356324D01*
X158583Y356361D01*
X158649Y356389D01*
X158705Y356434D01*
X158733Y356450D01*
X158748Y356468D01*
X158780Y356494D01*
X159937Y357650D01*
X169996Y357650D01*
X171112Y356534D01*
X171112Y352203D01*
X170411Y350989D01*
X170396Y350948D01*
X170372Y350911D01*
X170352Y350834D01*
X170324Y350759D01*
X170323Y350715D01*
X170312Y350673D01*
X170318Y350593D01*
X170315Y350513D01*
X170328Y350471D01*
X170331Y350428D01*
X170362Y350354D01*
X170385Y350278D01*
X170410Y350242D01*
X170427Y350201D01*
X170518Y350088D01*
X170526Y350076D01*
X170529Y350074D01*
X170532Y350070D01*
X171112Y349491D01*
X171112Y344779D01*
X169792Y343459D01*
X169745Y343394D01*
X169692Y343335D01*
X169674Y343295D01*
X169648Y343259D01*
X169625Y343183D01*
X169593Y343110D01*
X169589Y343066D01*
X169576Y343024D01*
X169578Y342944D01*
X169571Y342865D01*
X169581Y342822D01*
X169582Y342778D01*
X169609Y342703D01*
X169628Y342626D01*
X169651Y342588D01*
X169666Y342547D01*
X169716Y342485D01*
X169758Y342417D01*
X169802Y342378D01*
X169820Y342355D01*
X169844Y342340D01*
X169882Y342304D01*
X170515Y341844D01*
X171318Y339376D01*
X170516Y336907D01*
X168416Y335382D01*
X166130Y335382D01*
X166110Y335379D01*
X166091Y335381D01*
X165989Y335359D01*
X165887Y335342D01*
X165870Y335333D01*
X165850Y335328D01*
X165761Y335275D01*
X165670Y335227D01*
X165656Y335212D01*
X165639Y335202D01*
X165572Y335124D01*
X165501Y335049D01*
X165492Y335031D01*
X165479Y335015D01*
X165440Y334919D01*
X165397Y334825D01*
X165395Y334806D01*
X165387Y334787D01*
X165369Y334620D01*
X165369Y332534D01*
X164996Y332162D01*
X164984Y332145D01*
X164969Y332133D01*
X164913Y332046D01*
X164852Y331962D01*
X164847Y331943D01*
X164836Y331926D01*
X164810Y331825D01*
X164780Y331727D01*
X164781Y331707D01*
X164776Y331687D01*
X164784Y331584D01*
X164786Y331481D01*
X164793Y331462D01*
X164795Y331442D01*
X164835Y331347D01*
X164871Y331250D01*
X164883Y331234D01*
X164891Y331216D01*
X164996Y331085D01*
X165026Y331055D01*
X165027Y331054D01*
X165070Y331011D01*
X165111Y330982D01*
X165180Y330916D01*
X165198Y330908D01*
X165213Y330895D01*
X165256Y330877D01*
X165270Y330868D01*
X165312Y330854D01*
X165403Y330812D01*
X165423Y330810D01*
X165441Y330803D01*
X165503Y330796D01*
X165505Y330795D01*
X165507Y330795D01*
X165608Y330784D01*
X173128Y330784D01*
X174245Y329668D01*
X174245Y328089D01*
X173134Y326978D01*
X173122Y326962D01*
X173107Y326950D01*
X173051Y326863D01*
X172990Y326779D01*
X172985Y326760D01*
X172974Y326743D01*
X172949Y326642D01*
X172918Y326544D01*
X172919Y326524D01*
X172914Y326504D01*
X172922Y326401D01*
X172924Y326298D01*
X172931Y326279D01*
X172933Y326259D01*
X172973Y326164D01*
X173009Y326067D01*
X173021Y326051D01*
X173029Y326033D01*
X173134Y325902D01*
X174245Y324791D01*
X174245Y323212D01*
X173789Y322757D01*
X173777Y322740D01*
X173762Y322728D01*
X173732Y322682D01*
X173713Y322662D01*
X173699Y322632D01*
X173645Y322557D01*
X173639Y322538D01*
X173629Y322521D01*
X173603Y322421D01*
X173573Y322322D01*
X173573Y322302D01*
X173569Y322282D01*
X173577Y322179D01*
X173579Y322076D01*
X173586Y322057D01*
X173588Y322037D01*
X173628Y321942D01*
X173664Y321845D01*
X173676Y321829D01*
X173684Y321811D01*
X173789Y321680D01*
X174245Y321224D01*
X174245Y319123D01*
X173128Y318007D01*
X171794Y318007D01*
X171683Y317989D01*
X171571Y317974D01*
X171562Y317969D01*
X171551Y317967D01*
X171452Y317914D01*
X171351Y317865D01*
X171343Y317857D01*
X171334Y317852D01*
X171257Y317770D01*
X171177Y317691D01*
X171172Y317681D01*
X171165Y317674D01*
X171117Y317572D01*
X171067Y317471D01*
X171065Y317460D01*
X171061Y317451D01*
X171049Y317339D01*
X171033Y317227D01*
X171035Y317214D01*
X171034Y317206D01*
X171039Y317181D01*
X171056Y317061D01*
X171247Y316297D01*
X170434Y314943D01*
X169620Y314740D01*
X169539Y314705D01*
X169454Y314677D01*
X169426Y314656D01*
X169395Y314642D01*
X169329Y314583D01*
X169257Y314530D01*
X169237Y314501D01*
X169212Y314478D01*
X169168Y314401D01*
X169117Y314328D01*
X169108Y314294D01*
X169091Y314264D01*
X169074Y314177D01*
X169049Y314092D01*
X169051Y314057D01*
X169044Y314022D01*
X169056Y313934D01*
X169060Y313846D01*
X169074Y313803D01*
X169077Y313779D01*
X169091Y313750D01*
X169112Y313686D01*
X169208Y313476D01*
X169209Y313464D01*
X169112Y313250D01*
X169089Y313164D01*
X169058Y313081D01*
X169057Y313046D01*
X169048Y313012D01*
X169053Y312924D01*
X169050Y312835D01*
X169060Y312802D01*
X169063Y312767D01*
X169096Y312685D01*
X169122Y312600D01*
X169142Y312571D01*
X169155Y312539D01*
X169213Y312472D01*
X169264Y312399D01*
X169292Y312379D01*
X169315Y312352D01*
X169391Y312307D01*
X169463Y312255D01*
X169505Y312239D01*
X169526Y312226D01*
X169557Y312220D01*
X169620Y312196D01*
X170434Y311993D01*
X171247Y310639D01*
X170864Y309107D01*
X170412Y308836D01*
X170402Y308828D01*
X170389Y308822D01*
X170308Y308748D01*
X170224Y308677D01*
X170217Y308666D01*
X170207Y308657D01*
X170154Y308561D01*
X170097Y308467D01*
X170094Y308454D01*
X170088Y308442D01*
X170068Y308334D01*
X170044Y308227D01*
X170045Y308213D01*
X170043Y308200D01*
X170058Y308092D01*
X170070Y307982D01*
X170075Y307970D01*
X170077Y307957D01*
X170144Y307803D01*
X171112Y306127D01*
X171112Y301797D01*
X169795Y300480D01*
X169749Y300415D01*
X169695Y300356D01*
X169677Y300316D01*
X169651Y300280D01*
X169628Y300204D01*
X169596Y300131D01*
X169592Y300087D01*
X169579Y300045D01*
X169581Y299965D01*
X169574Y299886D01*
X169584Y299843D01*
X169585Y299799D01*
X169613Y299724D01*
X169631Y299647D01*
X169655Y299609D01*
X169670Y299568D01*
X169719Y299506D01*
X169762Y299438D01*
X169805Y299399D01*
X169824Y299376D01*
X169847Y299361D01*
X169886Y299325D01*
X170515Y298868D01*
X171318Y296399D01*
X170516Y293931D01*
X169307Y293053D01*
X169296Y293042D01*
X169282Y293034D01*
X169210Y292954D01*
X169134Y292878D01*
X169127Y292864D01*
X169116Y292852D01*
X169073Y292754D01*
X169026Y292657D01*
X169024Y292641D01*
X169017Y292627D01*
X169008Y292520D01*
X168994Y292413D01*
X168997Y292398D01*
X168995Y292382D01*
X169020Y292277D01*
X169041Y292172D01*
X169049Y292158D01*
X169053Y292143D01*
X169109Y292052D01*
X169163Y291958D01*
X169175Y291948D01*
X169183Y291934D01*
X169307Y291821D01*
X170515Y290943D01*
X171318Y288475D01*
X170516Y286006D01*
X169916Y285571D01*
X169911Y285565D01*
X169904Y285561D01*
X169824Y285478D01*
X169743Y285396D01*
X169740Y285389D01*
X169734Y285383D01*
X169686Y285278D01*
X169635Y285175D01*
X169634Y285167D01*
X169631Y285160D01*
X169618Y285045D01*
X169603Y284931D01*
X169604Y284923D01*
X169603Y284915D01*
X169628Y284802D01*
X169650Y284690D01*
X169654Y284683D01*
X169656Y284675D01*
X169715Y284576D01*
X169772Y284476D01*
X169778Y284471D01*
X169782Y284464D01*
X169869Y284389D01*
X169955Y284312D01*
X169963Y284309D01*
X169969Y284304D01*
X170076Y284261D01*
X170182Y284216D01*
X170190Y284215D01*
X170197Y284212D01*
X170364Y284194D01*
X173128Y284194D01*
X174245Y283077D01*
X174245Y281498D01*
X173128Y280382D01*
X171873Y280382D01*
X171854Y280379D01*
X171834Y280381D01*
X171733Y280359D01*
X171631Y280342D01*
X171613Y280333D01*
X171593Y280329D01*
X171504Y280276D01*
X171413Y280227D01*
X171399Y280213D01*
X171382Y280203D01*
X171315Y280124D01*
X171244Y280049D01*
X171235Y280031D01*
X171222Y280016D01*
X171184Y279920D01*
X171140Y279826D01*
X171138Y279806D01*
X171131Y279788D01*
X171112Y279621D01*
X171112Y278747D01*
X170182Y277136D01*
X170086Y277080D01*
X170049Y277050D01*
X170006Y277027D01*
X169954Y276972D01*
X169895Y276924D01*
X169870Y276884D01*
X169837Y276849D01*
X169805Y276780D01*
X169765Y276716D01*
X169753Y276670D01*
X169733Y276626D01*
X169725Y276551D01*
X169707Y276477D01*
X169711Y276429D01*
X169706Y276382D01*
X169722Y276307D01*
X169729Y276232D01*
X169748Y276188D01*
X169758Y276141D01*
X169797Y276076D01*
X169828Y276007D01*
X169860Y275971D01*
X169885Y275930D01*
X169942Y275881D01*
X169993Y275825D01*
X170035Y275801D01*
X170072Y275770D01*
X170142Y275742D01*
X170208Y275705D01*
X170255Y275696D01*
X170300Y275678D01*
X170428Y275664D01*
X170450Y275660D01*
X170456Y275661D01*
X170466Y275660D01*
X171705Y275660D01*
X174903Y273336D01*
X175068Y272829D01*
X175102Y272762D01*
X175128Y272690D01*
X175158Y272653D01*
X175180Y272610D01*
X175235Y272557D01*
X175282Y272498D01*
X175322Y272472D01*
X175357Y272439D01*
X175425Y272406D01*
X175489Y272365D01*
X175535Y272354D01*
X175579Y272333D01*
X175654Y272324D01*
X175727Y272305D01*
X175775Y272309D01*
X175823Y272303D01*
X175897Y272319D01*
X175973Y272324D01*
X176017Y272343D01*
X176064Y272353D01*
X176129Y272391D01*
X176199Y272421D01*
X176250Y272461D01*
X176276Y272477D01*
X176293Y272496D01*
X176330Y272526D01*
X177190Y273386D01*
X177216Y273422D01*
X177248Y273451D01*
X177287Y273521D01*
X177334Y273586D01*
X177347Y273628D01*
X177368Y273666D01*
X177383Y273745D01*
X177406Y273821D01*
X177405Y273865D01*
X177413Y273908D01*
X177402Y273987D01*
X177400Y274067D01*
X177385Y274108D01*
X177379Y274151D01*
X177320Y274285D01*
X177316Y274298D01*
X177313Y274301D01*
X177311Y274305D01*
X176275Y276100D01*
X176275Y280048D01*
X176682Y280454D01*
X176694Y280471D01*
X176709Y280483D01*
X176765Y280570D01*
X176826Y280654D01*
X176831Y280673D01*
X176842Y280690D01*
X176867Y280791D01*
X176898Y280889D01*
X176897Y280909D01*
X176902Y280929D01*
X176894Y281032D01*
X176892Y281135D01*
X176885Y281154D01*
X176883Y281174D01*
X176843Y281269D01*
X176807Y281366D01*
X176795Y281382D01*
X176787Y281400D01*
X176682Y281531D01*
X176275Y281938D01*
X176275Y288738D01*
X177492Y289955D01*
X177493Y289955D01*
X177595Y290009D01*
X177600Y290015D01*
X177607Y290019D01*
X177685Y290104D01*
X177764Y290187D01*
X177767Y290194D01*
X177773Y290200D01*
X177819Y290306D01*
X177868Y290410D01*
X177869Y290418D01*
X177872Y290426D01*
X177882Y290541D01*
X177895Y290655D01*
X177893Y290663D01*
X177894Y290671D01*
X177867Y290783D01*
X177843Y290895D01*
X177838Y290902D01*
X177837Y290910D01*
X177776Y291007D01*
X177716Y291106D01*
X177710Y291111D01*
X177706Y291118D01*
X177582Y291231D01*
X176950Y291691D01*
X176043Y294482D01*
X176950Y297273D01*
X179324Y298998D01*
X181896Y298998D01*
X182259Y298998D01*
X183138Y298360D01*
X183159Y298349D01*
X183177Y298333D01*
X183268Y298294D01*
X183357Y298249D01*
X183381Y298246D01*
X183403Y298236D01*
X183502Y298228D01*
X183601Y298214D01*
X183624Y298219D01*
X183648Y298217D01*
X183745Y298241D01*
X183843Y298259D01*
X183864Y298271D01*
X183887Y298277D01*
X184033Y298360D01*
X184193Y298476D01*
X186595Y298476D01*
X186788Y298476D01*
X188888Y296950D01*
X189690Y294482D01*
X188888Y292013D01*
X186788Y290488D01*
X186595Y290488D01*
X184193Y290488D01*
X184033Y290604D01*
X184011Y290615D01*
X183993Y290631D01*
X183902Y290670D01*
X183813Y290714D01*
X183789Y290718D01*
X183767Y290727D01*
X183668Y290735D01*
X183569Y290749D01*
X183546Y290745D01*
X183522Y290747D01*
X183425Y290722D01*
X183328Y290704D01*
X183307Y290693D01*
X183283Y290687D01*
X183138Y290604D01*
X182259Y289965D01*
X181896Y289965D01*
X180697Y289965D01*
X180626Y289954D01*
X180554Y289952D01*
X180505Y289934D01*
X180454Y289926D01*
X180391Y289892D01*
X180323Y289867D01*
X180283Y289835D01*
X180237Y289811D01*
X180187Y289759D01*
X180131Y289714D01*
X180103Y289670D01*
X180067Y289632D01*
X180037Y289567D01*
X179998Y289507D01*
X179986Y289456D01*
X179964Y289409D01*
X179956Y289338D01*
X179938Y289268D01*
X179942Y289216D01*
X179937Y289165D01*
X179952Y289095D01*
X179957Y289023D01*
X179978Y288975D01*
X179989Y288924D01*
X180026Y288863D01*
X180054Y288797D01*
X180087Y288756D01*
X180087Y288005D01*
X180090Y287985D01*
X180088Y287965D01*
X180110Y287864D01*
X180126Y287762D01*
X180136Y287744D01*
X180140Y287725D01*
X180193Y287636D01*
X180242Y287545D01*
X180256Y287531D01*
X180266Y287514D01*
X180345Y287446D01*
X180420Y287375D01*
X180438Y287367D01*
X180453Y287354D01*
X180549Y287315D01*
X180643Y287272D01*
X180663Y287269D01*
X180681Y287262D01*
X180848Y287243D01*
X187431Y287243D01*
X187460Y287248D01*
X187515Y287248D01*
X188193Y287323D01*
X188253Y287290D01*
X188302Y287280D01*
X188348Y287262D01*
X188350Y287262D01*
X188822Y286790D01*
X188845Y286773D01*
X188885Y286734D01*
X189418Y286307D01*
X189436Y286241D01*
X189464Y286200D01*
X189483Y286155D01*
X189485Y286153D01*
X189485Y285486D01*
X189489Y285457D01*
X189489Y285402D01*
X189549Y284869D01*
X189576Y284772D01*
X189597Y284674D01*
X189609Y284654D01*
X189615Y284632D01*
X189672Y284549D01*
X189723Y284462D01*
X189740Y284448D01*
X189753Y284429D01*
X189833Y284368D01*
X189910Y284303D01*
X189931Y284294D01*
X189949Y284280D01*
X190045Y284248D01*
X190138Y284211D01*
X190166Y284208D01*
X190182Y284202D01*
X190215Y284202D01*
X190305Y284192D01*
X191830Y284192D01*
X191924Y284208D01*
X192019Y284216D01*
X192045Y284227D01*
X192073Y284232D01*
X192157Y284276D01*
X192244Y284315D01*
X192265Y284334D01*
X192290Y284347D01*
X192356Y284416D01*
X192426Y284480D01*
X192440Y284505D01*
X192459Y284525D01*
X192500Y284612D01*
X192546Y284695D01*
X192551Y284723D01*
X192563Y284748D01*
X192573Y284843D01*
X192591Y284937D01*
X192587Y284965D01*
X192590Y284993D01*
X192570Y285086D01*
X192556Y285180D01*
X192542Y285213D01*
X192538Y285233D01*
X192521Y285261D01*
X192489Y285334D01*
X191515Y287021D01*
X191515Y291351D01*
X192240Y292075D01*
X192251Y292092D01*
X192267Y292104D01*
X192323Y292191D01*
X192383Y292275D01*
X192389Y292294D01*
X192400Y292311D01*
X192425Y292411D01*
X192456Y292510D01*
X192455Y292530D01*
X192460Y292549D01*
X192452Y292652D01*
X192449Y292756D01*
X192442Y292775D01*
X192441Y292795D01*
X192400Y292890D01*
X192365Y292987D01*
X192352Y293003D01*
X192345Y293021D01*
X192240Y293152D01*
X191515Y293876D01*
X191515Y295455D01*
X192632Y296571D01*
X195975Y296571D01*
X195995Y296575D01*
X196015Y296572D01*
X196116Y296594D01*
X196218Y296611D01*
X196235Y296620D01*
X196255Y296625D01*
X196344Y296678D01*
X196435Y296726D01*
X196449Y296741D01*
X196466Y296751D01*
X196533Y296830D01*
X196605Y296905D01*
X196613Y296923D01*
X196626Y296938D01*
X196665Y297034D01*
X196708Y297128D01*
X196710Y297147D01*
X196718Y297166D01*
X196736Y297333D01*
X196736Y298588D01*
X197853Y299704D01*
X200476Y299704D01*
X201592Y298588D01*
X201592Y293876D01*
X200272Y292556D01*
X200225Y292491D01*
X200172Y292432D01*
X200154Y292392D01*
X200128Y292356D01*
X200105Y292280D01*
X200073Y292207D01*
X200069Y292163D01*
X200056Y292121D01*
X200058Y292042D01*
X200051Y291962D01*
X200061Y291919D01*
X200062Y291875D01*
X200089Y291800D01*
X200108Y291723D01*
X200131Y291686D01*
X200146Y291644D01*
X200196Y291582D01*
X200238Y291515D01*
X200282Y291475D01*
X200300Y291452D01*
X200324Y291437D01*
X200362Y291402D01*
X200995Y290942D01*
X201798Y288473D01*
X200996Y286005D01*
X200366Y285547D01*
X200361Y285542D01*
X200355Y285539D01*
X200306Y285487D01*
X200248Y285441D01*
X200224Y285404D01*
X200193Y285372D01*
X200189Y285364D01*
X200185Y285361D01*
X200158Y285301D01*
X200115Y285234D01*
X200104Y285191D01*
X200084Y285151D01*
X200083Y285140D01*
X200082Y285137D01*
X200078Y285100D01*
X200074Y285073D01*
X200055Y284995D01*
X200058Y284951D01*
X200052Y284907D01*
X200055Y284894D01*
X200055Y284893D01*
X200059Y284875D01*
X200068Y284829D01*
X200074Y284750D01*
X200091Y284710D01*
X200100Y284666D01*
X200107Y284653D01*
X200112Y284645D01*
X200139Y284597D01*
X200170Y284524D01*
X200207Y284478D01*
X200221Y284452D01*
X200233Y284442D01*
X200241Y284435D01*
X200242Y284434D01*
X200275Y284393D01*
X201592Y283076D01*
X201592Y278745D01*
X200662Y277134D01*
X200660Y277133D01*
X200569Y277058D01*
X200475Y276984D01*
X200473Y276980D01*
X200470Y276977D01*
X200407Y276878D01*
X200342Y276777D01*
X200341Y276773D01*
X200339Y276769D01*
X200311Y276653D01*
X200282Y276538D01*
X200283Y276534D01*
X200282Y276530D01*
X200292Y276410D01*
X200301Y276293D01*
X200303Y276289D01*
X200303Y276285D01*
X200351Y276176D01*
X200398Y276067D01*
X200401Y276063D01*
X200402Y276060D01*
X200411Y276049D01*
X200503Y275936D01*
X201592Y274846D01*
X201592Y270516D01*
X200662Y268905D01*
X200063Y268559D01*
X200020Y268524D01*
X199971Y268496D01*
X199925Y268446D01*
X199873Y268403D01*
X199843Y268356D01*
X199805Y268315D01*
X199778Y268252D01*
X199742Y268195D01*
X199729Y268141D01*
X199706Y268089D01*
X199700Y268022D01*
X199685Y267956D01*
X199689Y267900D01*
X199684Y267844D01*
X199700Y267778D01*
X199706Y267711D01*
X199729Y267660D01*
X199742Y267605D01*
X199778Y267548D01*
X199805Y267485D01*
X199843Y267444D01*
X199872Y267397D01*
X199950Y267326D01*
X199971Y267303D01*
X199982Y267297D01*
X199996Y267284D01*
X200995Y266558D01*
X201798Y264089D01*
X200996Y261621D01*
X199497Y260532D01*
X199492Y260527D01*
X199485Y260523D01*
X199406Y260439D01*
X199324Y260358D01*
X199321Y260350D01*
X199315Y260345D01*
X199266Y260239D01*
X199216Y260137D01*
X199215Y260129D01*
X199212Y260122D01*
X199199Y260007D01*
X199184Y259893D01*
X199186Y259885D01*
X199185Y259877D01*
X199209Y259765D01*
X199231Y259651D01*
X199235Y259645D01*
X199237Y259637D01*
X199296Y259538D01*
X199353Y259438D01*
X199359Y259432D01*
X199363Y259426D01*
X199451Y259351D01*
X199537Y259274D01*
X199544Y259271D01*
X199550Y259266D01*
X199657Y259222D01*
X199763Y259177D01*
X199771Y259177D01*
X199778Y259174D01*
X199945Y259155D01*
X203608Y259155D01*
X204725Y258039D01*
X204725Y256460D01*
X203608Y255344D01*
X202166Y255344D01*
X202055Y255326D01*
X201944Y255311D01*
X201934Y255306D01*
X201923Y255304D01*
X201824Y255251D01*
X201723Y255202D01*
X201715Y255194D01*
X201706Y255189D01*
X201629Y255107D01*
X201549Y255028D01*
X201544Y255018D01*
X201537Y255011D01*
X201489Y254909D01*
X201439Y254808D01*
X201438Y254797D01*
X201433Y254788D01*
X201421Y254676D01*
X201405Y254564D01*
X201407Y254551D01*
X201406Y254543D01*
X201411Y254518D01*
X201428Y254398D01*
X201727Y253202D01*
X200914Y251849D01*
X200100Y251645D01*
X200019Y251610D01*
X199934Y251582D01*
X199906Y251562D01*
X199875Y251548D01*
X199809Y251489D01*
X199737Y251435D01*
X199717Y251407D01*
X199692Y251383D01*
X199648Y251306D01*
X199597Y251233D01*
X199588Y251200D01*
X199571Y251169D01*
X199554Y251082D01*
X199529Y250997D01*
X199531Y250962D01*
X199524Y250928D01*
X199536Y250840D01*
X199540Y250751D01*
X199554Y250709D01*
X199557Y250684D01*
X199571Y250656D01*
X199592Y250592D01*
X199688Y250381D01*
X199689Y250369D01*
X199592Y250155D01*
X199569Y250070D01*
X199538Y249986D01*
X199537Y249951D01*
X199528Y249918D01*
X199533Y249829D01*
X199530Y249740D01*
X199540Y249707D01*
X199543Y249672D01*
X199576Y249590D01*
X199602Y249505D01*
X199622Y249476D01*
X199635Y249444D01*
X199693Y249377D01*
X199744Y249304D01*
X199772Y249284D01*
X199795Y249258D01*
X199871Y249212D01*
X199943Y249160D01*
X199985Y249144D01*
X200006Y249132D01*
X200037Y249125D01*
X200100Y249102D01*
X200914Y248898D01*
X201727Y247544D01*
X201344Y246013D01*
X201144Y245893D01*
X201058Y245820D01*
X200970Y245750D01*
X200964Y245741D01*
X200956Y245734D01*
X200898Y245638D01*
X200837Y245543D01*
X200835Y245533D01*
X200829Y245523D01*
X200805Y245413D01*
X200777Y245304D01*
X200778Y245294D01*
X200776Y245283D01*
X200788Y245171D01*
X200796Y245059D01*
X200800Y245049D01*
X200802Y245039D01*
X200849Y244936D01*
X200893Y244833D01*
X200901Y244823D01*
X200904Y244815D01*
X200922Y244797D01*
X200997Y244702D01*
X201592Y244107D01*
X201592Y242528D01*
X200831Y241768D01*
X200820Y241752D01*
X200804Y241739D01*
X200748Y241652D01*
X200688Y241568D01*
X200682Y241549D01*
X200671Y241532D01*
X200646Y241432D01*
X200615Y241333D01*
X200616Y241313D01*
X200611Y241294D01*
X200619Y241191D01*
X200622Y241087D01*
X200629Y241068D01*
X200630Y241048D01*
X200671Y240954D01*
X200706Y240856D01*
X200719Y240840D01*
X200726Y240822D01*
X200831Y240691D01*
X201592Y239930D01*
X201592Y238352D01*
X200476Y237235D01*
X194057Y237235D01*
X192446Y238166D01*
X191515Y239777D01*
X191515Y244107D01*
X192632Y245224D01*
X193185Y245224D01*
X193268Y245237D01*
X193353Y245242D01*
X193389Y245257D01*
X193428Y245263D01*
X193502Y245303D01*
X193581Y245335D01*
X193611Y245360D01*
X193645Y245378D01*
X193703Y245440D01*
X193767Y245495D01*
X193787Y245528D01*
X193814Y245557D01*
X193850Y245634D01*
X193893Y245706D01*
X193902Y245744D01*
X193918Y245780D01*
X193927Y245864D01*
X193945Y245947D01*
X193941Y245985D01*
X193945Y246024D01*
X193927Y246107D01*
X193918Y246191D01*
X193901Y246226D01*
X193893Y246265D01*
X193849Y246337D01*
X193814Y246414D01*
X193787Y246442D01*
X193767Y246476D01*
X193702Y246531D01*
X193644Y246592D01*
X193600Y246618D01*
X193580Y246636D01*
X193552Y246647D01*
X193500Y246678D01*
X192853Y246972D01*
X192825Y246979D01*
X192723Y247017D01*
X192191Y247150D01*
X192190Y247152D01*
X192120Y247225D01*
X192055Y247302D01*
X192036Y247314D01*
X192020Y247330D01*
X191916Y247392D01*
X191722Y247910D01*
X191707Y247936D01*
X191662Y248035D01*
X191380Y248505D01*
X191380Y248507D01*
X191383Y248608D01*
X191391Y248709D01*
X191386Y248730D01*
X191386Y248753D01*
X191356Y248870D01*
X191586Y249375D01*
X191593Y249403D01*
X191631Y249505D01*
X191802Y250189D01*
X191810Y250290D01*
X191825Y250392D01*
X191821Y250418D01*
X191822Y250434D01*
X191815Y250465D01*
X191802Y250558D01*
X191631Y251242D01*
X191619Y251269D01*
X191586Y251372D01*
X191359Y251872D01*
X191359Y251873D01*
X191373Y251973D01*
X191393Y252073D01*
X191390Y252095D01*
X191393Y252117D01*
X191377Y252237D01*
X191662Y252712D01*
X191673Y252740D01*
X191722Y252836D01*
X191915Y253350D01*
X191916Y253351D01*
X191997Y253412D01*
X192081Y253468D01*
X192095Y253485D01*
X192113Y253499D01*
X192186Y253595D01*
X192723Y253730D01*
X192751Y253741D01*
X192808Y253760D01*
X192813Y253761D01*
X192817Y253763D01*
X192854Y253775D01*
X193353Y254002D01*
X193354Y254001D01*
X193430Y253991D01*
X193444Y253986D01*
X193467Y253985D01*
X193554Y253968D01*
X193576Y253971D01*
X193598Y253967D01*
X193672Y253977D01*
X193689Y253977D01*
X193708Y253982D01*
X193764Y253990D01*
X193778Y253993D01*
X193789Y253998D01*
X193798Y253999D01*
X193846Y254023D01*
X193850Y254024D01*
X193925Y254047D01*
X193962Y254073D01*
X194004Y254091D01*
X194063Y254143D01*
X194127Y254188D01*
X194153Y254225D01*
X194187Y254255D01*
X194226Y254323D01*
X194272Y254386D01*
X194286Y254429D01*
X194308Y254469D01*
X194323Y254546D01*
X194347Y254620D01*
X194346Y254666D01*
X194355Y254711D01*
X194345Y254788D01*
X194343Y254866D01*
X194328Y254909D01*
X194322Y254954D01*
X194288Y255024D01*
X194261Y255098D01*
X194233Y255134D01*
X194213Y255175D01*
X194158Y255230D01*
X194110Y255292D01*
X194061Y255328D01*
X194040Y255349D01*
X194016Y255361D01*
X193975Y255391D01*
X192446Y256274D01*
X191515Y257886D01*
X191515Y259605D01*
X192303Y260393D01*
X192350Y260458D01*
X192403Y260517D01*
X192421Y260557D01*
X192447Y260593D01*
X192470Y260669D01*
X192502Y260742D01*
X192506Y260786D01*
X192519Y260828D01*
X192517Y260908D01*
X192524Y260987D01*
X192514Y261030D01*
X192513Y261074D01*
X192486Y261149D01*
X192467Y261226D01*
X192444Y261264D01*
X192429Y261305D01*
X192379Y261367D01*
X192337Y261435D01*
X192293Y261474D01*
X192275Y261497D01*
X192251Y261512D01*
X192213Y261548D01*
X192112Y261621D01*
X191310Y264089D01*
X192112Y266558D01*
X193111Y267284D01*
X193150Y267324D01*
X193196Y267356D01*
X193236Y267410D01*
X193284Y267459D01*
X193309Y267509D01*
X193342Y267554D01*
X193362Y267618D01*
X193392Y267680D01*
X193400Y267735D01*
X193417Y267788D01*
X193416Y267856D01*
X193424Y267923D01*
X193414Y267978D01*
X193413Y268034D01*
X193390Y268098D01*
X193377Y268165D01*
X193350Y268213D01*
X193331Y268266D01*
X193289Y268319D01*
X193255Y268378D01*
X193214Y268416D01*
X193179Y268460D01*
X193095Y268522D01*
X193072Y268542D01*
X193060Y268547D01*
X193044Y268559D01*
X192343Y268964D01*
X192302Y268979D01*
X192265Y269003D01*
X192188Y269022D01*
X192113Y269051D01*
X192069Y269052D01*
X192027Y269063D01*
X191947Y269057D01*
X191867Y269060D01*
X191825Y269047D01*
X191781Y269044D01*
X191708Y269013D01*
X191631Y268990D01*
X191595Y268965D01*
X191555Y268948D01*
X191441Y268856D01*
X191430Y268849D01*
X191428Y268846D01*
X191424Y268843D01*
X191078Y268496D01*
X190246Y268496D01*
X190226Y268493D01*
X190207Y268495D01*
X190105Y268473D01*
X190003Y268457D01*
X189986Y268447D01*
X189966Y268443D01*
X189877Y268390D01*
X189786Y268342D01*
X189772Y268327D01*
X189755Y268317D01*
X189688Y268238D01*
X189616Y268163D01*
X189608Y268145D01*
X189595Y268130D01*
X189556Y268034D01*
X189513Y267940D01*
X189511Y267920D01*
X189503Y267902D01*
X189485Y267735D01*
X189485Y266715D01*
X188368Y265599D01*
X187740Y265599D01*
X187693Y265591D01*
X187645Y265593D01*
X187572Y265572D01*
X187498Y265559D01*
X187455Y265537D01*
X187409Y265523D01*
X187347Y265480D01*
X187280Y265444D01*
X187247Y265410D01*
X187208Y265382D01*
X187163Y265321D01*
X187111Y265266D01*
X187091Y265222D01*
X187062Y265184D01*
X187039Y265112D01*
X187007Y265043D01*
X187002Y264995D01*
X186987Y264949D01*
X186989Y264874D01*
X186980Y264798D01*
X186990Y264752D01*
X186991Y264704D01*
X187016Y264632D01*
X187032Y264558D01*
X187057Y264517D01*
X187073Y264472D01*
X187120Y264412D01*
X187159Y264347D01*
X187195Y264316D01*
X187225Y264278D01*
X187328Y264202D01*
X187346Y264187D01*
X187352Y264184D01*
X187360Y264179D01*
X188275Y263650D01*
X189485Y261554D01*
X189485Y256944D01*
X188349Y255809D01*
X188322Y255801D01*
X188247Y255788D01*
X188205Y255766D01*
X188159Y255752D01*
X188097Y255709D01*
X188030Y255673D01*
X187997Y255638D01*
X187957Y255611D01*
X187912Y255550D01*
X187860Y255495D01*
X187840Y255451D01*
X187812Y255413D01*
X187789Y255340D01*
X187757Y255272D01*
X187751Y255224D01*
X187737Y255178D01*
X187738Y255103D01*
X187730Y255027D01*
X187740Y254980D01*
X187740Y254932D01*
X187766Y254861D01*
X187782Y254787D01*
X187806Y254746D01*
X187822Y254701D01*
X187869Y254641D01*
X187908Y254576D01*
X187944Y254545D01*
X187974Y254507D01*
X188078Y254430D01*
X188095Y254416D01*
X188101Y254413D01*
X188109Y254407D01*
X188345Y254272D01*
X189485Y252297D01*
X189485Y249555D01*
X187593Y246955D01*
X187570Y246948D01*
X187512Y246907D01*
X187448Y246874D01*
X187412Y246837D01*
X187369Y246807D01*
X187327Y246749D01*
X187277Y246698D01*
X187254Y246650D01*
X187223Y246608D01*
X187202Y246540D01*
X187171Y246476D01*
X187164Y246424D01*
X187149Y246374D01*
X187150Y246303D01*
X187141Y246232D01*
X187151Y246180D01*
X187152Y246128D01*
X187176Y246061D01*
X187190Y245991D01*
X187217Y245946D01*
X187234Y245896D01*
X187278Y245840D01*
X187314Y245778D01*
X187354Y245744D01*
X187386Y245703D01*
X187478Y245635D01*
X187499Y245616D01*
X187509Y245612D01*
X187521Y245603D01*
X188345Y245128D01*
X189485Y243153D01*
X189485Y240411D01*
X187601Y237821D01*
X186078Y237328D01*
X185327Y237085D01*
X183921Y237803D01*
X183399Y239415D01*
X183398Y239422D01*
X183404Y239518D01*
X183397Y239544D01*
X183396Y239571D01*
X183364Y239662D01*
X183338Y239755D01*
X183323Y239778D01*
X183314Y239803D01*
X183255Y239879D01*
X183201Y239959D01*
X183179Y239975D01*
X183163Y239996D01*
X183082Y240050D01*
X183005Y240109D01*
X182980Y240117D01*
X182958Y240132D01*
X182864Y240156D01*
X182772Y240188D01*
X182746Y240188D01*
X182720Y240195D01*
X182623Y240188D01*
X182526Y240188D01*
X182501Y240180D01*
X182474Y240178D01*
X182385Y240141D01*
X182293Y240111D01*
X182265Y240092D01*
X182247Y240084D01*
X182222Y240063D01*
X182154Y240017D01*
X179497Y237759D01*
X179483Y237742D01*
X179452Y237717D01*
X178933Y237198D01*
X178919Y237196D01*
X178875Y237173D01*
X178135Y237233D01*
X178112Y237231D01*
X178073Y237235D01*
X177339Y237235D01*
X177327Y237244D01*
X177280Y237258D01*
X176799Y237825D01*
X176782Y237839D01*
X176757Y237870D01*
X176238Y238389D01*
X176236Y238403D01*
X176213Y238447D01*
X176273Y239187D01*
X176271Y239210D01*
X176275Y239249D01*
X176275Y245151D01*
X176897Y245773D01*
X176962Y245864D01*
X177030Y245953D01*
X177034Y245964D01*
X177040Y245973D01*
X177073Y246079D01*
X177109Y246186D01*
X177109Y246197D01*
X177113Y246208D01*
X177110Y246320D01*
X177110Y246432D01*
X177107Y246442D01*
X177106Y246454D01*
X177068Y246559D01*
X177032Y246665D01*
X177025Y246676D01*
X177022Y246685D01*
X177005Y246705D01*
X176938Y246804D01*
X176799Y246969D01*
X176782Y246983D01*
X176757Y247014D01*
X176238Y247533D01*
X176236Y247547D01*
X176213Y247591D01*
X176273Y248331D01*
X176271Y248354D01*
X176275Y248393D01*
X176275Y254295D01*
X177061Y255082D01*
X177073Y255098D01*
X177089Y255110D01*
X177145Y255197D01*
X177205Y255281D01*
X177211Y255300D01*
X177222Y255317D01*
X177247Y255417D01*
X177277Y255516D01*
X177277Y255536D01*
X177282Y255556D01*
X177274Y255659D01*
X177271Y255762D01*
X177264Y255781D01*
X177263Y255801D01*
X177222Y255896D01*
X177187Y255993D01*
X177174Y256009D01*
X177166Y256027D01*
X177061Y256158D01*
X176275Y256944D01*
X176275Y259240D01*
X176275Y261554D01*
X177485Y263650D01*
X178400Y264179D01*
X178437Y264209D01*
X178480Y264231D01*
X178532Y264286D01*
X178591Y264334D01*
X178616Y264375D01*
X178649Y264410D01*
X178681Y264479D01*
X178721Y264543D01*
X178732Y264589D01*
X178753Y264633D01*
X178761Y264708D01*
X178779Y264782D01*
X178774Y264830D01*
X178780Y264877D01*
X178764Y264951D01*
X178757Y265027D01*
X178738Y265071D01*
X178728Y265118D01*
X178689Y265183D01*
X178658Y265252D01*
X178626Y265288D01*
X178601Y265329D01*
X178544Y265378D01*
X178493Y265434D01*
X178451Y265457D01*
X178414Y265489D01*
X178344Y265517D01*
X178278Y265554D01*
X178231Y265563D01*
X178186Y265581D01*
X178058Y265595D01*
X178036Y265599D01*
X178030Y265598D01*
X178020Y265599D01*
X177392Y265599D01*
X176338Y266653D01*
X176276Y266697D01*
X176221Y266749D01*
X176177Y266768D01*
X176138Y266797D01*
X176066Y266819D01*
X175997Y266850D01*
X175949Y266855D01*
X175903Y266869D01*
X175827Y266867D01*
X175752Y266874D01*
X175705Y266864D01*
X175657Y266863D01*
X175586Y266837D01*
X175512Y266820D01*
X175471Y266795D01*
X175426Y266778D01*
X175367Y266731D01*
X175302Y266691D01*
X175272Y266654D01*
X175234Y266624D01*
X175193Y266561D01*
X175145Y266503D01*
X175118Y266444D01*
X175101Y266417D01*
X175095Y266392D01*
X175075Y266350D01*
X174903Y265818D01*
X171705Y263495D01*
X169945Y263495D01*
X169937Y263493D01*
X169929Y263494D01*
X169815Y263473D01*
X169702Y263455D01*
X169695Y263451D01*
X169687Y263450D01*
X169587Y263394D01*
X169485Y263340D01*
X169479Y263334D01*
X169472Y263330D01*
X169395Y263245D01*
X169315Y263161D01*
X169312Y263154D01*
X169307Y263148D01*
X169260Y263043D01*
X169212Y262938D01*
X169211Y262930D01*
X169208Y262923D01*
X169197Y262808D01*
X169185Y262694D01*
X169186Y262686D01*
X169186Y262678D01*
X169212Y262566D01*
X169237Y262453D01*
X169241Y262447D01*
X169243Y262439D01*
X169305Y262340D01*
X169363Y262242D01*
X169369Y262237D01*
X169373Y262230D01*
X169497Y262117D01*
X170515Y261378D01*
X171318Y258909D01*
X170741Y257134D01*
X170738Y257119D01*
X170732Y257104D01*
X170720Y256998D01*
X170704Y256891D01*
X170706Y256876D01*
X170705Y256860D01*
X170727Y256755D01*
X170746Y256649D01*
X170754Y256635D01*
X170757Y256619D01*
X170812Y256527D01*
X170863Y256433D01*
X170875Y256422D01*
X170883Y256408D01*
X170965Y256338D01*
X171043Y256265D01*
X171058Y256259D01*
X171070Y256248D01*
X171170Y256208D01*
X171268Y256164D01*
X171283Y256162D01*
X171298Y256156D01*
X171465Y256138D01*
X173128Y256138D01*
X174245Y255022D01*
X174245Y254815D01*
X174245Y253730D01*
X174245Y252606D01*
X174245Y252605D01*
X174245Y252272D01*
X172211Y250238D01*
X171355Y250238D01*
X171265Y250223D01*
X171174Y250216D01*
X171144Y250204D01*
X171112Y250198D01*
X171032Y250156D01*
X170948Y250120D01*
X170916Y250094D01*
X170895Y250083D01*
X170873Y250060D01*
X170817Y250015D01*
X170295Y249493D01*
X170270Y249458D01*
X170237Y249428D01*
X170198Y249359D01*
X170152Y249294D01*
X170139Y249252D01*
X170118Y249214D01*
X170103Y249135D01*
X170079Y249059D01*
X170081Y249015D01*
X170073Y248972D01*
X170084Y248893D01*
X170086Y248813D01*
X170101Y248772D01*
X170107Y248728D01*
X170165Y248595D01*
X170170Y248582D01*
X170172Y248579D01*
X170174Y248575D01*
X171112Y246950D01*
X171112Y242330D01*
X171115Y242310D01*
X171113Y242291D01*
X171135Y242189D01*
X171152Y242087D01*
X171161Y242070D01*
X171165Y242050D01*
X171219Y241961D01*
X171267Y241870D01*
X171281Y241856D01*
X171292Y241839D01*
X171370Y241772D01*
X171445Y241701D01*
X171463Y241692D01*
X171478Y241679D01*
X171575Y241640D01*
X171668Y241597D01*
X171688Y241595D01*
X171707Y241587D01*
X171873Y241569D01*
X173128Y241569D01*
X174245Y240452D01*
X174245Y238352D01*
X173128Y237235D01*
X171028Y237235D01*
X170919Y237343D01*
X170903Y237355D01*
X170891Y237371D01*
X170804Y237427D01*
X170720Y237487D01*
X170701Y237493D01*
X170684Y237504D01*
X170583Y237529D01*
X170485Y237559D01*
X170465Y237559D01*
X170445Y237564D01*
X170342Y237556D01*
X170239Y237553D01*
X170220Y237546D01*
X170200Y237545D01*
X170105Y237504D01*
X170084Y237496D01*
X162152Y237496D01*
X161035Y238613D01*
X161035Y240191D01*
X161711Y240868D01*
X161723Y240884D01*
X161739Y240896D01*
X161795Y240983D01*
X161855Y241067D01*
X161861Y241086D01*
X161872Y241103D01*
X161897Y241204D01*
X161927Y241302D01*
X161927Y241322D01*
X161932Y241342D01*
X161924Y241445D01*
X161921Y241548D01*
X161914Y241567D01*
X161913Y241587D01*
X161872Y241682D01*
X161836Y241779D01*
X161824Y241795D01*
X161816Y241813D01*
X161711Y241944D01*
X161035Y242620D01*
X161035Y244199D01*
X161796Y244960D01*
X161808Y244976D01*
X161823Y244988D01*
X161879Y245076D01*
X161940Y245159D01*
X161945Y245178D01*
X161956Y245195D01*
X161982Y245296D01*
X162012Y245395D01*
X162011Y245414D01*
X162016Y245434D01*
X162008Y245537D01*
X162006Y245640D01*
X161999Y245659D01*
X161997Y245679D01*
X161957Y245774D01*
X161921Y245871D01*
X161909Y245887D01*
X161901Y245905D01*
X161796Y246036D01*
X161035Y246797D01*
X161035Y248376D01*
X161986Y249327D01*
X161998Y249343D01*
X162013Y249355D01*
X162070Y249443D01*
X162130Y249527D01*
X162136Y249546D01*
X162146Y249562D01*
X162172Y249663D01*
X162202Y249762D01*
X162202Y249782D01*
X162207Y249801D01*
X162198Y249904D01*
X162196Y250008D01*
X162189Y250026D01*
X162187Y250046D01*
X162147Y250141D01*
X162111Y250239D01*
X162099Y250254D01*
X162091Y250272D01*
X161986Y250403D01*
X161035Y251354D01*
X161035Y252933D01*
X162152Y254050D01*
X162580Y254050D01*
X162588Y254051D01*
X162596Y254050D01*
X162709Y254071D01*
X162823Y254089D01*
X162830Y254093D01*
X162838Y254094D01*
X162939Y254151D01*
X163040Y254204D01*
X163046Y254210D01*
X163053Y254214D01*
X163131Y254300D01*
X163210Y254383D01*
X163213Y254390D01*
X163218Y254396D01*
X163264Y254501D01*
X163313Y254606D01*
X163314Y254614D01*
X163317Y254621D01*
X163328Y254736D01*
X163340Y254850D01*
X163339Y254858D01*
X163339Y254866D01*
X163312Y254978D01*
X163288Y255091D01*
X163284Y255097D01*
X163282Y255105D01*
X163221Y255203D01*
X163162Y255302D01*
X163156Y255307D01*
X163151Y255314D01*
X163027Y255427D01*
X161632Y256441D01*
X160830Y258909D01*
X161632Y261378D01*
X163252Y262555D01*
X163298Y262601D01*
X163350Y262639D01*
X163384Y262688D01*
X163425Y262730D01*
X163454Y262788D01*
X163491Y262841D01*
X163508Y262898D01*
X163534Y262951D01*
X163542Y263015D01*
X163560Y263077D01*
X163558Y263136D01*
X163566Y263195D01*
X163553Y263258D01*
X163551Y263322D01*
X163530Y263378D01*
X163519Y263436D01*
X163487Y263492D01*
X163464Y263552D01*
X163426Y263598D01*
X163397Y263650D01*
X163349Y263693D01*
X163308Y263743D01*
X163238Y263792D01*
X163213Y263814D01*
X163196Y263821D01*
X163170Y263839D01*
X161184Y264926D01*
X159576Y267436D01*
X159473Y268924D01*
X159419Y269711D01*
X160456Y270902D01*
X161912Y271002D01*
X162021Y271028D01*
X162132Y271051D01*
X162141Y271056D01*
X162151Y271059D01*
X162247Y271118D01*
X162344Y271175D01*
X162351Y271183D01*
X162360Y271188D01*
X162432Y271275D01*
X162506Y271360D01*
X162510Y271370D01*
X162517Y271378D01*
X162557Y271483D01*
X162600Y271587D01*
X162601Y271598D01*
X162605Y271608D01*
X162609Y271720D01*
X162617Y271833D01*
X162615Y271845D01*
X162615Y271853D01*
X162608Y271878D01*
X162583Y271997D01*
X162436Y272449D01*
X163081Y274433D01*
X163711Y274891D01*
X163751Y274931D01*
X163796Y274963D01*
X163837Y275018D01*
X163884Y275066D01*
X163909Y275116D01*
X163942Y275161D01*
X163963Y275226D01*
X163993Y275287D01*
X164000Y275342D01*
X164017Y275395D01*
X164016Y275463D01*
X164025Y275531D01*
X164014Y275585D01*
X164013Y275641D01*
X163991Y275705D01*
X163978Y275772D01*
X163950Y275821D01*
X163931Y275873D01*
X163889Y275927D01*
X163856Y275986D01*
X163814Y276023D01*
X163780Y276067D01*
X163695Y276129D01*
X163672Y276149D01*
X163661Y276154D01*
X163645Y276166D01*
X161966Y277136D01*
X161035Y278747D01*
X161035Y283077D01*
X162154Y284196D01*
X162223Y284292D01*
X162294Y284388D01*
X162295Y284392D01*
X162297Y284395D01*
X162332Y284509D01*
X162368Y284622D01*
X162368Y284626D01*
X162370Y284630D01*
X162367Y284748D01*
X162365Y284868D01*
X162363Y284872D01*
X162363Y284876D01*
X162322Y284989D01*
X162283Y285100D01*
X162280Y285103D01*
X162279Y285107D01*
X162205Y285199D01*
X162131Y285294D01*
X162127Y285297D01*
X162125Y285299D01*
X162114Y285307D01*
X161996Y285393D01*
X161966Y285411D01*
X161035Y287022D01*
X161035Y291352D01*
X161938Y292255D01*
X161964Y292291D01*
X161996Y292320D01*
X162035Y292390D01*
X162081Y292455D01*
X162094Y292497D01*
X162116Y292535D01*
X162130Y292613D01*
X162154Y292690D01*
X162153Y292734D01*
X162161Y292777D01*
X162150Y292856D01*
X162147Y292936D01*
X162132Y292977D01*
X162126Y293020D01*
X162068Y293153D01*
X162063Y293167D01*
X162061Y293169D01*
X162059Y293174D01*
X161035Y294947D01*
X161035Y299277D01*
X161139Y299381D01*
X161181Y299439D01*
X161230Y299491D01*
X161252Y299538D01*
X161282Y299581D01*
X161304Y299649D01*
X161334Y299714D01*
X161340Y299766D01*
X161355Y299816D01*
X161353Y299887D01*
X161361Y299959D01*
X161350Y300009D01*
X161348Y300062D01*
X161324Y300129D01*
X161309Y300199D01*
X161282Y300244D01*
X161264Y300293D01*
X161219Y300349D01*
X161182Y300410D01*
X161143Y300444D01*
X161110Y300485D01*
X161050Y300523D01*
X160996Y300570D01*
X160947Y300589D01*
X160903Y300618D01*
X160834Y300635D01*
X160767Y300662D01*
X160696Y300670D01*
X160665Y300678D01*
X160642Y300676D01*
X160601Y300680D01*
X159019Y300680D01*
X158780Y300919D01*
X158722Y300961D01*
X158670Y301010D01*
X158623Y301032D01*
X158581Y301063D01*
X158512Y301084D01*
X158447Y301114D01*
X158395Y301120D01*
X158345Y301135D01*
X158274Y301133D01*
X158203Y301141D01*
X158152Y301130D01*
X158100Y301129D01*
X158032Y301104D01*
X157962Y301089D01*
X157917Y301062D01*
X157869Y301044D01*
X157813Y300999D01*
X157751Y300963D01*
X157717Y300923D01*
X157677Y300891D01*
X157638Y300830D01*
X157591Y300776D01*
X157572Y300727D01*
X157544Y300684D01*
X157526Y300614D01*
X157499Y300548D01*
X157491Y300476D01*
X157483Y300445D01*
X157485Y300422D01*
X157481Y300381D01*
X157481Y228600D01*
X157484Y228580D01*
X157482Y228561D01*
X157504Y228459D01*
X157520Y228357D01*
X157530Y228340D01*
X157534Y228320D01*
X157587Y228231D01*
X157636Y228140D01*
X157650Y228126D01*
X157660Y228109D01*
X157739Y228042D01*
X157814Y227971D01*
X157832Y227962D01*
X157847Y227949D01*
X157943Y227910D01*
X158037Y227867D01*
X158057Y227865D01*
X158075Y227857D01*
X158242Y227839D01*
X821438Y227839D01*
X821458Y227842D01*
G37*
%LPC*%
G36*
X361022Y279173D02*
X361022Y279173D01*
X357913Y282282D01*
X357913Y284441D01*
X357899Y284532D01*
X357891Y284622D01*
X357879Y284652D01*
X357874Y284684D01*
X357831Y284765D01*
X357795Y284849D01*
X357769Y284881D01*
X357758Y284902D01*
X357735Y284924D01*
X357690Y284980D01*
X288543Y354127D01*
X288543Y414771D01*
X288529Y414862D01*
X288521Y414952D01*
X288509Y414982D01*
X288504Y415014D01*
X288461Y415095D01*
X288425Y415179D01*
X288399Y415211D01*
X288388Y415232D01*
X288365Y415254D01*
X288320Y415310D01*
X253268Y450362D01*
X253252Y450373D01*
X253240Y450389D01*
X253152Y450445D01*
X253069Y450505D01*
X253050Y450511D01*
X253033Y450522D01*
X252932Y450547D01*
X252833Y450578D01*
X252814Y450577D01*
X252794Y450582D01*
X252691Y450574D01*
X252588Y450571D01*
X252569Y450564D01*
X252549Y450563D01*
X252454Y450523D01*
X252357Y450487D01*
X252341Y450474D01*
X252323Y450467D01*
X252192Y450362D01*
X247620Y445790D01*
X245313Y443483D01*
X205996Y443483D01*
X205881Y443464D01*
X205765Y443447D01*
X205759Y443445D01*
X205753Y443444D01*
X205651Y443389D01*
X205546Y443336D01*
X205541Y443331D01*
X205536Y443328D01*
X205456Y443244D01*
X205373Y443160D01*
X205370Y443154D01*
X205366Y443150D01*
X205358Y443133D01*
X205292Y443013D01*
X204934Y442148D01*
X202504Y439718D01*
X199330Y438403D01*
X181670Y438403D01*
X178496Y439718D01*
X176066Y442148D01*
X174751Y445322D01*
X174751Y448758D01*
X176066Y451932D01*
X178496Y454362D01*
X181670Y455677D01*
X199330Y455677D01*
X202504Y454362D01*
X204934Y451932D01*
X205292Y451067D01*
X205354Y450967D01*
X205414Y450867D01*
X205419Y450863D01*
X205422Y450858D01*
X205513Y450783D01*
X205601Y450707D01*
X205607Y450705D01*
X205612Y450701D01*
X205720Y450659D01*
X205829Y450615D01*
X205837Y450614D01*
X205841Y450613D01*
X205859Y450612D01*
X205996Y450597D01*
X242051Y450597D01*
X242142Y450611D01*
X242232Y450619D01*
X242262Y450631D01*
X242294Y450636D01*
X242375Y450679D01*
X242459Y450715D01*
X242491Y450741D01*
X242512Y450752D01*
X242534Y450775D01*
X242590Y450820D01*
X250220Y458450D01*
X250273Y458524D01*
X250333Y458594D01*
X250345Y458624D01*
X250364Y458650D01*
X250391Y458737D01*
X250425Y458822D01*
X250429Y458863D01*
X250436Y458885D01*
X250435Y458917D01*
X250443Y458989D01*
X250443Y491446D01*
X250424Y491561D01*
X250407Y491677D01*
X250405Y491683D01*
X250404Y491689D01*
X250349Y491792D01*
X250296Y491897D01*
X250291Y491901D01*
X250288Y491907D01*
X250204Y491986D01*
X250120Y492069D01*
X250114Y492072D01*
X250110Y492076D01*
X250093Y492084D01*
X249973Y492150D01*
X248820Y492627D01*
X246247Y495200D01*
X244855Y498561D01*
X244855Y517439D01*
X246247Y520800D01*
X248820Y523373D01*
X252181Y524765D01*
X255819Y524765D01*
X259180Y523373D01*
X261753Y520800D01*
X263145Y517439D01*
X263145Y498561D01*
X261753Y495200D01*
X259180Y492627D01*
X258027Y492150D01*
X257927Y492088D01*
X257827Y492028D01*
X257823Y492023D01*
X257818Y492020D01*
X257743Y491929D01*
X257667Y491841D01*
X257665Y491835D01*
X257661Y491831D01*
X257619Y491722D01*
X257575Y491613D01*
X257574Y491606D01*
X257573Y491601D01*
X257572Y491583D01*
X257557Y491446D01*
X257557Y456449D01*
X257571Y456358D01*
X257579Y456268D01*
X257591Y456238D01*
X257596Y456206D01*
X257639Y456125D01*
X257675Y456041D01*
X257701Y456009D01*
X257712Y455988D01*
X257735Y455966D01*
X257780Y455910D01*
X295657Y418033D01*
X295657Y357389D01*
X295671Y357298D01*
X295679Y357208D01*
X295691Y357178D01*
X295696Y357146D01*
X295739Y357065D01*
X295775Y356981D01*
X295801Y356949D01*
X295812Y356928D01*
X295835Y356906D01*
X295880Y356850D01*
X362682Y290048D01*
X362698Y290037D01*
X362710Y290021D01*
X362798Y289965D01*
X362881Y289905D01*
X362900Y289899D01*
X362917Y289888D01*
X363018Y289863D01*
X363117Y289832D01*
X363136Y289833D01*
X363156Y289828D01*
X363259Y289836D01*
X363362Y289839D01*
X363381Y289846D01*
X363401Y289847D01*
X363496Y289887D01*
X363593Y289923D01*
X363609Y289936D01*
X363627Y289943D01*
X363758Y290048D01*
X425247Y351537D01*
X555193Y351537D01*
X577830Y328900D01*
X577904Y328847D01*
X577974Y328787D01*
X578004Y328775D01*
X578030Y328756D01*
X578117Y328729D01*
X578202Y328695D01*
X578243Y328691D01*
X578265Y328684D01*
X578297Y328685D01*
X578369Y328677D01*
X634012Y328677D01*
X634032Y328680D01*
X634051Y328678D01*
X634153Y328700D01*
X634255Y328716D01*
X634272Y328726D01*
X634292Y328730D01*
X634381Y328783D01*
X634472Y328832D01*
X634486Y328846D01*
X634503Y328856D01*
X634570Y328935D01*
X634642Y329010D01*
X634650Y329028D01*
X634663Y329043D01*
X634702Y329139D01*
X634745Y329233D01*
X634747Y329253D01*
X634755Y329271D01*
X634773Y329438D01*
X634773Y329858D01*
X637882Y332967D01*
X642278Y332967D01*
X645387Y329858D01*
X645387Y325462D01*
X642278Y322353D01*
X640119Y322353D01*
X640028Y322339D01*
X639938Y322331D01*
X639908Y322319D01*
X639876Y322314D01*
X639795Y322271D01*
X639711Y322235D01*
X639679Y322209D01*
X639658Y322198D01*
X639636Y322175D01*
X639580Y322130D01*
X639013Y321563D01*
X575107Y321563D01*
X552470Y344200D01*
X552396Y344253D01*
X552326Y344313D01*
X552296Y344325D01*
X552270Y344344D01*
X552183Y344371D01*
X552098Y344405D01*
X552057Y344409D01*
X552035Y344416D01*
X552003Y344415D01*
X551931Y344423D01*
X428509Y344423D01*
X428418Y344409D01*
X428328Y344401D01*
X428298Y344389D01*
X428266Y344384D01*
X428185Y344341D01*
X428101Y344305D01*
X428069Y344279D01*
X428048Y344268D01*
X428026Y344245D01*
X427970Y344200D01*
X368750Y284980D01*
X368697Y284906D01*
X368637Y284836D01*
X368625Y284806D01*
X368606Y284780D01*
X368579Y284693D01*
X368545Y284608D01*
X368541Y284567D01*
X368534Y284545D01*
X368535Y284513D01*
X368527Y284441D01*
X368527Y282282D01*
X365418Y279173D01*
X361022Y279173D01*
G37*
%LPD*%
%LPC*%
G36*
X615022Y296953D02*
X615022Y296953D01*
X611913Y300062D01*
X611913Y304458D01*
X615022Y307567D01*
X619418Y307567D01*
X620945Y306040D01*
X621019Y305987D01*
X621089Y305927D01*
X621119Y305915D01*
X621145Y305896D01*
X621232Y305869D01*
X621317Y305835D01*
X621358Y305831D01*
X621380Y305824D01*
X621412Y305825D01*
X621483Y305817D01*
X658611Y305817D01*
X658702Y305831D01*
X658792Y305839D01*
X658822Y305851D01*
X658854Y305856D01*
X658935Y305899D01*
X659019Y305935D01*
X659051Y305961D01*
X659072Y305972D01*
X659094Y305995D01*
X659150Y306040D01*
X742980Y389870D01*
X743033Y389944D01*
X743093Y390014D01*
X743105Y390044D01*
X743124Y390070D01*
X743151Y390157D01*
X743185Y390242D01*
X743189Y390283D01*
X743196Y390305D01*
X743195Y390337D01*
X743203Y390409D01*
X743203Y480877D01*
X743189Y480967D01*
X743181Y481058D01*
X743169Y481087D01*
X743164Y481119D01*
X743121Y481200D01*
X743085Y481284D01*
X743059Y481316D01*
X743048Y481337D01*
X743025Y481359D01*
X742980Y481415D01*
X741453Y482942D01*
X741453Y487338D01*
X744562Y490447D01*
X748958Y490447D01*
X752067Y487338D01*
X752067Y482942D01*
X750540Y481415D01*
X750487Y481341D01*
X750427Y481271D01*
X750415Y481241D01*
X750396Y481215D01*
X750369Y481128D01*
X750335Y481043D01*
X750331Y481002D01*
X750324Y480980D01*
X750325Y480948D01*
X750317Y480877D01*
X750317Y387147D01*
X661873Y298703D01*
X621483Y298703D01*
X621393Y298689D01*
X621302Y298681D01*
X621273Y298669D01*
X621241Y298664D01*
X621160Y298621D01*
X621076Y298585D01*
X621044Y298559D01*
X621023Y298548D01*
X621001Y298525D01*
X620945Y298480D01*
X619418Y296953D01*
X615022Y296953D01*
G37*
%LPD*%
%LPC*%
G36*
X328002Y243613D02*
X328002Y243613D01*
X324893Y246722D01*
X324893Y251118D01*
X328002Y254227D01*
X332398Y254227D01*
X333925Y252700D01*
X333999Y252647D01*
X334069Y252587D01*
X334099Y252575D01*
X334125Y252556D01*
X334212Y252529D01*
X334297Y252495D01*
X334338Y252491D01*
X334360Y252484D01*
X334392Y252485D01*
X334463Y252477D01*
X463031Y252477D01*
X463122Y252491D01*
X463212Y252499D01*
X463242Y252511D01*
X463274Y252516D01*
X463355Y252559D01*
X463439Y252595D01*
X463471Y252621D01*
X463492Y252632D01*
X463514Y252655D01*
X463570Y252700D01*
X527870Y317000D01*
X527923Y317074D01*
X527983Y317144D01*
X527995Y317174D01*
X528014Y317200D01*
X528041Y317287D01*
X528075Y317372D01*
X528079Y317413D01*
X528086Y317435D01*
X528085Y317467D01*
X528093Y317539D01*
X528093Y319698D01*
X531202Y322807D01*
X535598Y322807D01*
X538707Y319698D01*
X538707Y315302D01*
X535598Y312193D01*
X533439Y312193D01*
X533348Y312179D01*
X533258Y312171D01*
X533228Y312159D01*
X533196Y312154D01*
X533115Y312111D01*
X533031Y312075D01*
X532999Y312049D01*
X532978Y312038D01*
X532956Y312015D01*
X532900Y311970D01*
X466293Y245363D01*
X334463Y245363D01*
X334373Y245349D01*
X334282Y245341D01*
X334253Y245329D01*
X334221Y245324D01*
X334140Y245281D01*
X334056Y245245D01*
X334024Y245219D01*
X334003Y245208D01*
X333989Y245194D01*
X333988Y245193D01*
X333978Y245182D01*
X333925Y245140D01*
X332398Y243613D01*
X328002Y243613D01*
G37*
%LPD*%
%LPC*%
G36*
X537007Y395223D02*
X537007Y395223D01*
X531360Y400870D01*
X531286Y400923D01*
X531216Y400983D01*
X531186Y400995D01*
X531160Y401014D01*
X531073Y401041D01*
X530988Y401075D01*
X530947Y401079D01*
X530925Y401086D01*
X530893Y401085D01*
X530821Y401093D01*
X528662Y401093D01*
X525553Y404202D01*
X525553Y408598D01*
X528662Y411707D01*
X533058Y411707D01*
X536167Y408598D01*
X536167Y406439D01*
X536181Y406348D01*
X536189Y406258D01*
X536201Y406228D01*
X536206Y406196D01*
X536249Y406115D01*
X536285Y406031D01*
X536311Y405999D01*
X536322Y405978D01*
X536345Y405956D01*
X536390Y405900D01*
X539730Y402560D01*
X539804Y402507D01*
X539874Y402447D01*
X539904Y402435D01*
X539930Y402416D01*
X540017Y402389D01*
X540102Y402355D01*
X540143Y402351D01*
X540165Y402344D01*
X540197Y402345D01*
X540269Y402337D01*
X557011Y402337D01*
X557102Y402351D01*
X557192Y402359D01*
X557222Y402371D01*
X557254Y402376D01*
X557335Y402419D01*
X557419Y402455D01*
X557451Y402481D01*
X557472Y402492D01*
X557494Y402515D01*
X557550Y402560D01*
X628447Y473457D01*
X643846Y473457D01*
X643961Y473476D01*
X644077Y473493D01*
X644083Y473495D01*
X644089Y473496D01*
X644192Y473551D01*
X644297Y473604D01*
X644301Y473609D01*
X644307Y473612D01*
X644386Y473696D01*
X644469Y473780D01*
X644472Y473786D01*
X644476Y473790D01*
X644484Y473807D01*
X644550Y473927D01*
X645027Y475080D01*
X647600Y477653D01*
X650961Y479045D01*
X669839Y479045D01*
X673200Y477653D01*
X675773Y475080D01*
X677165Y471719D01*
X677165Y468081D01*
X675773Y464720D01*
X673200Y462147D01*
X669839Y460755D01*
X650961Y460755D01*
X647600Y462147D01*
X645027Y464720D01*
X644550Y465873D01*
X644488Y465973D01*
X644428Y466073D01*
X644423Y466077D01*
X644420Y466082D01*
X644330Y466157D01*
X644241Y466233D01*
X644235Y466235D01*
X644231Y466239D01*
X644122Y466281D01*
X644013Y466325D01*
X644006Y466326D01*
X644001Y466327D01*
X643983Y466328D01*
X643846Y466343D01*
X631709Y466343D01*
X631618Y466329D01*
X631528Y466321D01*
X631498Y466309D01*
X631466Y466304D01*
X631385Y466261D01*
X631301Y466225D01*
X631269Y466199D01*
X631248Y466188D01*
X631226Y466165D01*
X631170Y466120D01*
X560273Y395223D01*
X537007Y395223D01*
G37*
%LPD*%
%LPC*%
G36*
X465162Y396013D02*
X465162Y396013D01*
X463635Y397540D01*
X463561Y397593D01*
X463491Y397653D01*
X463461Y397665D01*
X463435Y397684D01*
X463348Y397711D01*
X463263Y397745D01*
X463222Y397749D01*
X463200Y397756D01*
X463168Y397755D01*
X463097Y397763D01*
X369367Y397763D01*
X316250Y450880D01*
X316176Y450933D01*
X316106Y450993D01*
X316076Y451005D01*
X316050Y451024D01*
X315963Y451051D01*
X315878Y451085D01*
X315837Y451089D01*
X315815Y451096D01*
X315783Y451095D01*
X315711Y451103D01*
X296363Y451103D01*
X296273Y451089D01*
X296182Y451081D01*
X296153Y451069D01*
X296121Y451064D01*
X296040Y451021D01*
X295956Y450985D01*
X295924Y450959D01*
X295903Y450948D01*
X295881Y450925D01*
X295825Y450880D01*
X294298Y449353D01*
X289902Y449353D01*
X286793Y452462D01*
X286793Y456858D01*
X289902Y459967D01*
X294298Y459967D01*
X295825Y458440D01*
X295899Y458387D01*
X295969Y458327D01*
X295999Y458315D01*
X296025Y458296D01*
X296112Y458269D01*
X296197Y458235D01*
X296238Y458231D01*
X296260Y458224D01*
X296292Y458225D01*
X296363Y458217D01*
X318973Y458217D01*
X372090Y405100D01*
X372164Y405047D01*
X372234Y404987D01*
X372264Y404975D01*
X372290Y404956D01*
X372377Y404929D01*
X372462Y404895D01*
X372503Y404891D01*
X372525Y404884D01*
X372557Y404885D01*
X372629Y404877D01*
X463097Y404877D01*
X463187Y404891D01*
X463278Y404899D01*
X463307Y404911D01*
X463339Y404916D01*
X463420Y404959D01*
X463504Y404995D01*
X463536Y405021D01*
X463557Y405032D01*
X463579Y405055D01*
X463635Y405100D01*
X465162Y406627D01*
X469558Y406627D01*
X472667Y403518D01*
X472667Y399122D01*
X469558Y396013D01*
X465162Y396013D01*
G37*
%LPD*%
%LPC*%
G36*
X693762Y276633D02*
X693762Y276633D01*
X692235Y278160D01*
X692161Y278213D01*
X692091Y278273D01*
X692061Y278285D01*
X692035Y278304D01*
X691948Y278331D01*
X691863Y278365D01*
X691822Y278369D01*
X691800Y278376D01*
X691768Y278375D01*
X691697Y278383D01*
X572567Y278383D01*
X554220Y296730D01*
X554146Y296783D01*
X554076Y296843D01*
X554046Y296855D01*
X554020Y296874D01*
X553933Y296901D01*
X553848Y296935D01*
X553807Y296939D01*
X553785Y296946D01*
X553753Y296945D01*
X553681Y296953D01*
X551522Y296953D01*
X548413Y300062D01*
X548413Y304458D01*
X551522Y307567D01*
X555918Y307567D01*
X559027Y304458D01*
X559027Y302299D01*
X559041Y302208D01*
X559049Y302118D01*
X559061Y302088D01*
X559066Y302056D01*
X559109Y301975D01*
X559145Y301891D01*
X559171Y301859D01*
X559182Y301838D01*
X559205Y301816D01*
X559250Y301760D01*
X575290Y285720D01*
X575364Y285667D01*
X575434Y285607D01*
X575464Y285595D01*
X575490Y285576D01*
X575577Y285549D01*
X575662Y285515D01*
X575703Y285511D01*
X575725Y285504D01*
X575757Y285505D01*
X575829Y285497D01*
X691697Y285497D01*
X691787Y285511D01*
X691878Y285519D01*
X691907Y285531D01*
X691939Y285536D01*
X692020Y285579D01*
X692104Y285615D01*
X692136Y285641D01*
X692157Y285652D01*
X692179Y285675D01*
X692235Y285720D01*
X693762Y287247D01*
X698158Y287247D01*
X699685Y285720D01*
X699759Y285667D01*
X699829Y285607D01*
X699859Y285595D01*
X699885Y285576D01*
X699898Y285572D01*
X702057Y283413D01*
X702057Y280467D01*
X699884Y278294D01*
X699816Y278265D01*
X699784Y278239D01*
X699763Y278228D01*
X699741Y278205D01*
X699685Y278160D01*
X698158Y276633D01*
X693762Y276633D01*
G37*
%LPD*%
%LPC*%
G36*
X241135Y368998D02*
X241135Y368998D01*
X236724Y370825D01*
X233348Y374201D01*
X231520Y378613D01*
X231520Y383387D01*
X233348Y387799D01*
X236724Y391175D01*
X241135Y393002D01*
X266865Y393002D01*
X271276Y391175D01*
X274652Y387799D01*
X276480Y383387D01*
X276480Y378613D01*
X274652Y374201D01*
X271276Y370825D01*
X266865Y368998D01*
X241135Y368998D01*
G37*
%LPD*%
%LPC*%
G36*
X686142Y345213D02*
X686142Y345213D01*
X683033Y348322D01*
X683033Y352718D01*
X686142Y355827D01*
X688301Y355827D01*
X688392Y355841D01*
X688482Y355849D01*
X688512Y355861D01*
X688544Y355866D01*
X688625Y355909D01*
X688709Y355945D01*
X688741Y355971D01*
X688762Y355982D01*
X688784Y356005D01*
X688840Y356050D01*
X697260Y364470D01*
X697313Y364544D01*
X697373Y364614D01*
X697385Y364644D01*
X697404Y364670D01*
X697431Y364757D01*
X697465Y364842D01*
X697469Y364883D01*
X697476Y364905D01*
X697475Y364937D01*
X697483Y365009D01*
X697483Y458017D01*
X697469Y458107D01*
X697461Y458198D01*
X697449Y458227D01*
X697444Y458259D01*
X697401Y458340D01*
X697365Y458424D01*
X697339Y458456D01*
X697328Y458477D01*
X697305Y458499D01*
X697260Y458555D01*
X695733Y460082D01*
X695733Y464478D01*
X698842Y467587D01*
X703238Y467587D01*
X706347Y464478D01*
X706347Y460082D01*
X704820Y458555D01*
X704767Y458481D01*
X704707Y458411D01*
X704695Y458381D01*
X704676Y458355D01*
X704649Y458268D01*
X704615Y458183D01*
X704611Y458142D01*
X704604Y458120D01*
X704605Y458088D01*
X704597Y458017D01*
X704597Y361747D01*
X693870Y351020D01*
X693817Y350946D01*
X693757Y350876D01*
X693745Y350846D01*
X693726Y350820D01*
X693699Y350733D01*
X693665Y350648D01*
X693661Y350607D01*
X693654Y350585D01*
X693655Y350553D01*
X693647Y350481D01*
X693647Y348322D01*
X690538Y345213D01*
X686142Y345213D01*
G37*
%LPD*%
%LPC*%
G36*
X477862Y505233D02*
X477862Y505233D01*
X474753Y508342D01*
X474753Y512738D01*
X477862Y515847D01*
X482258Y515847D01*
X484293Y513812D01*
X484367Y513759D01*
X484437Y513699D01*
X484467Y513687D01*
X484493Y513668D01*
X484580Y513641D01*
X484665Y513607D01*
X484706Y513603D01*
X484728Y513596D01*
X484760Y513597D01*
X484831Y513589D01*
X491182Y513589D01*
X491272Y513603D01*
X491363Y513611D01*
X491393Y513623D01*
X491425Y513628D01*
X491505Y513671D01*
X491589Y513707D01*
X491621Y513733D01*
X491642Y513744D01*
X491664Y513767D01*
X491720Y513812D01*
X507268Y529360D01*
X507321Y529434D01*
X507381Y529503D01*
X507393Y529533D01*
X507412Y529560D01*
X507439Y529647D01*
X507473Y529731D01*
X507477Y529772D01*
X507484Y529795D01*
X507483Y529827D01*
X507491Y529898D01*
X507491Y544152D01*
X507472Y544266D01*
X507455Y544383D01*
X507453Y544388D01*
X507452Y544394D01*
X507397Y544497D01*
X507344Y544602D01*
X507339Y544606D01*
X507336Y544612D01*
X507252Y544692D01*
X507168Y544774D01*
X507162Y544778D01*
X507158Y544781D01*
X507141Y544789D01*
X507021Y544855D01*
X505935Y545305D01*
X503649Y547591D01*
X502411Y550579D01*
X502411Y567021D01*
X503649Y570009D01*
X505935Y572295D01*
X508923Y573533D01*
X512157Y573533D01*
X515145Y572295D01*
X517431Y570009D01*
X518669Y567021D01*
X518669Y550579D01*
X517431Y547591D01*
X515145Y545305D01*
X514059Y544855D01*
X513959Y544793D01*
X513859Y544733D01*
X513855Y544729D01*
X513850Y544725D01*
X513775Y544635D01*
X513699Y544547D01*
X513697Y544541D01*
X513693Y544536D01*
X513651Y544428D01*
X513607Y544318D01*
X513606Y544311D01*
X513605Y544306D01*
X513604Y544288D01*
X513589Y544152D01*
X513589Y527057D01*
X494023Y507491D01*
X484831Y507491D01*
X484741Y507477D01*
X484650Y507469D01*
X484621Y507457D01*
X484589Y507452D01*
X484508Y507409D01*
X484424Y507373D01*
X484392Y507347D01*
X484371Y507336D01*
X484349Y507313D01*
X484293Y507268D01*
X482258Y505233D01*
X477862Y505233D01*
G37*
%LPD*%
%LPC*%
G36*
X650961Y359155D02*
X650961Y359155D01*
X647600Y360547D01*
X645027Y363120D01*
X643635Y366481D01*
X643635Y370119D01*
X645027Y373480D01*
X647600Y376053D01*
X650961Y377445D01*
X669839Y377445D01*
X673200Y376053D01*
X675773Y373480D01*
X677165Y370119D01*
X677165Y366481D01*
X675773Y363120D01*
X673200Y360547D01*
X669839Y359155D01*
X650961Y359155D01*
G37*
%LPD*%
%LPC*%
G36*
X777961Y486155D02*
X777961Y486155D01*
X774600Y487547D01*
X772027Y490120D01*
X770635Y493481D01*
X770635Y497119D01*
X772027Y500480D01*
X774600Y503053D01*
X777961Y504445D01*
X796839Y504445D01*
X800200Y503053D01*
X802773Y500480D01*
X804165Y497119D01*
X804165Y493481D01*
X802773Y490120D01*
X800200Y487547D01*
X796839Y486155D01*
X777961Y486155D01*
G37*
%LPD*%
%LPC*%
G36*
X777961Y460755D02*
X777961Y460755D01*
X774600Y462147D01*
X772027Y464720D01*
X770635Y468081D01*
X770635Y471719D01*
X772027Y475080D01*
X774600Y477653D01*
X777961Y479045D01*
X796839Y479045D01*
X800200Y477653D01*
X802773Y475080D01*
X804165Y471719D01*
X804165Y468081D01*
X802773Y464720D01*
X800200Y462147D01*
X796839Y460755D01*
X777961Y460755D01*
G37*
%LPD*%
%LPC*%
G36*
X650961Y333755D02*
X650961Y333755D01*
X647600Y335147D01*
X645027Y337720D01*
X643635Y341081D01*
X643635Y344719D01*
X645027Y348080D01*
X647600Y350653D01*
X650961Y352045D01*
X669839Y352045D01*
X673200Y350653D01*
X675773Y348080D01*
X677165Y344719D01*
X677165Y341081D01*
X675773Y337720D01*
X673200Y335147D01*
X669839Y333755D01*
X650961Y333755D01*
G37*
%LPD*%
%LPC*%
G36*
X302981Y534415D02*
X302981Y534415D01*
X299620Y535807D01*
X297047Y538380D01*
X295655Y541741D01*
X295655Y560619D01*
X297047Y563980D01*
X299620Y566553D01*
X302981Y567945D01*
X306619Y567945D01*
X309980Y566553D01*
X312553Y563980D01*
X313945Y560619D01*
X313945Y541741D01*
X312553Y538380D01*
X309980Y535807D01*
X306619Y534415D01*
X302981Y534415D01*
G37*
%LPD*%
%LPC*%
G36*
X302981Y491235D02*
X302981Y491235D01*
X299620Y492627D01*
X297047Y495200D01*
X295655Y498561D01*
X295655Y517439D01*
X297047Y520800D01*
X299620Y523373D01*
X302981Y524765D01*
X306619Y524765D01*
X309980Y523373D01*
X312553Y520800D01*
X313945Y517439D01*
X313945Y498561D01*
X312553Y495200D01*
X309980Y492627D01*
X306619Y491235D01*
X302981Y491235D01*
G37*
%LPD*%
%LPC*%
G36*
X328381Y534415D02*
X328381Y534415D01*
X325020Y535807D01*
X322447Y538380D01*
X321055Y541741D01*
X321055Y560619D01*
X322447Y563980D01*
X325020Y566553D01*
X328381Y567945D01*
X332019Y567945D01*
X335380Y566553D01*
X337953Y563980D01*
X339345Y560619D01*
X339345Y541741D01*
X337953Y538380D01*
X335380Y535807D01*
X332019Y534415D01*
X328381Y534415D01*
G37*
%LPD*%
%LPC*%
G36*
X328381Y491235D02*
X328381Y491235D01*
X325020Y492627D01*
X322447Y495200D01*
X321055Y498561D01*
X321055Y517439D01*
X322447Y520800D01*
X325020Y523373D01*
X328381Y524765D01*
X332019Y524765D01*
X335380Y523373D01*
X337953Y520800D01*
X339345Y517439D01*
X339345Y498561D01*
X337953Y495200D01*
X335380Y492627D01*
X332019Y491235D01*
X328381Y491235D01*
G37*
%LPD*%
%LPC*%
G36*
X394421Y417575D02*
X394421Y417575D01*
X391060Y418967D01*
X388487Y421540D01*
X387095Y424901D01*
X387095Y443779D01*
X388487Y447140D01*
X391060Y449713D01*
X394421Y451105D01*
X398059Y451105D01*
X401420Y449713D01*
X403993Y447140D01*
X405385Y443779D01*
X405385Y424901D01*
X403993Y421540D01*
X401420Y418967D01*
X398059Y417575D01*
X394421Y417575D01*
G37*
%LPD*%
%LPC*%
G36*
X470621Y417575D02*
X470621Y417575D01*
X467260Y418967D01*
X464687Y421540D01*
X463295Y424901D01*
X463295Y443779D01*
X464687Y447140D01*
X467260Y449713D01*
X470621Y451105D01*
X474259Y451105D01*
X477620Y449713D01*
X480193Y447140D01*
X481585Y443779D01*
X481585Y424901D01*
X480193Y421540D01*
X477620Y418967D01*
X474259Y417575D01*
X470621Y417575D01*
G37*
%LPD*%
%LPC*%
G36*
X419821Y417575D02*
X419821Y417575D01*
X416460Y418967D01*
X413887Y421540D01*
X412495Y424901D01*
X412495Y443779D01*
X413887Y447140D01*
X416460Y449713D01*
X419821Y451105D01*
X423459Y451105D01*
X426820Y449713D01*
X429393Y447140D01*
X430785Y443779D01*
X430785Y424901D01*
X429393Y421540D01*
X426820Y418967D01*
X423459Y417575D01*
X419821Y417575D01*
G37*
%LPD*%
%LPC*%
G36*
X777961Y409955D02*
X777961Y409955D01*
X774600Y411347D01*
X772027Y413920D01*
X770635Y417281D01*
X770635Y420919D01*
X772027Y424280D01*
X774600Y426853D01*
X777961Y428245D01*
X796839Y428245D01*
X800200Y426853D01*
X802773Y424280D01*
X804165Y420919D01*
X804165Y417281D01*
X802773Y413920D01*
X800200Y411347D01*
X796839Y409955D01*
X777961Y409955D01*
G37*
%LPD*%
%LPC*%
G36*
X650961Y409955D02*
X650961Y409955D01*
X647600Y411347D01*
X645027Y413920D01*
X643635Y417281D01*
X643635Y420919D01*
X645027Y424280D01*
X647600Y426853D01*
X650961Y428245D01*
X669839Y428245D01*
X673200Y426853D01*
X675773Y424280D01*
X677165Y420919D01*
X677165Y417281D01*
X675773Y413920D01*
X673200Y411347D01*
X669839Y409955D01*
X650961Y409955D01*
G37*
%LPD*%
%LPC*%
G36*
X650961Y384555D02*
X650961Y384555D01*
X647600Y385947D01*
X645027Y388520D01*
X643635Y391881D01*
X643635Y395519D01*
X645027Y398880D01*
X647600Y401453D01*
X650961Y402845D01*
X669839Y402845D01*
X673200Y401453D01*
X675773Y398880D01*
X677165Y395519D01*
X677165Y391881D01*
X675773Y388520D01*
X673200Y385947D01*
X669839Y384555D01*
X650961Y384555D01*
G37*
%LPD*%
%LPC*%
G36*
X777961Y384555D02*
X777961Y384555D01*
X774600Y385947D01*
X772027Y388520D01*
X770635Y391881D01*
X770635Y395519D01*
X772027Y398880D01*
X774600Y401453D01*
X777961Y402845D01*
X796839Y402845D01*
X800200Y401453D01*
X802773Y398880D01*
X804165Y395519D01*
X804165Y391881D01*
X802773Y388520D01*
X800200Y385947D01*
X796839Y384555D01*
X777961Y384555D01*
G37*
%LPD*%
%LPC*%
G36*
X252181Y534415D02*
X252181Y534415D01*
X248820Y535807D01*
X246247Y538380D01*
X244855Y541741D01*
X244855Y560619D01*
X246247Y563980D01*
X248820Y566553D01*
X252181Y567945D01*
X255819Y567945D01*
X259180Y566553D01*
X261753Y563980D01*
X263145Y560619D01*
X263145Y541741D01*
X261753Y538380D01*
X259180Y535807D01*
X255819Y534415D01*
X252181Y534415D01*
G37*
%LPD*%
%LPC*%
G36*
X777961Y333755D02*
X777961Y333755D01*
X774600Y335147D01*
X772027Y337720D01*
X770635Y341081D01*
X770635Y344719D01*
X772027Y348080D01*
X774600Y350653D01*
X777961Y352045D01*
X796839Y352045D01*
X800200Y350653D01*
X802773Y348080D01*
X804165Y344719D01*
X804165Y341081D01*
X802773Y337720D01*
X800200Y335147D01*
X796839Y333755D01*
X777961Y333755D01*
G37*
%LPD*%
%LPC*%
G36*
X191587Y298500D02*
X191587Y298500D01*
X190471Y299616D01*
X190471Y305372D01*
X191431Y306331D01*
X191442Y306348D01*
X191458Y306360D01*
X191514Y306447D01*
X191574Y306531D01*
X191580Y306550D01*
X191591Y306567D01*
X191616Y306667D01*
X191647Y306766D01*
X191646Y306786D01*
X191651Y306806D01*
X191643Y306909D01*
X191640Y307012D01*
X191633Y307031D01*
X191632Y307051D01*
X191591Y307146D01*
X191556Y307243D01*
X191543Y307259D01*
X191536Y307277D01*
X191480Y307346D01*
X191476Y307375D01*
X191453Y307418D01*
X191513Y308159D01*
X191511Y308182D01*
X191515Y308221D01*
X191515Y314123D01*
X192276Y314884D01*
X192324Y314951D01*
X192327Y314954D01*
X192329Y314958D01*
X192334Y314964D01*
X192396Y315041D01*
X192405Y315064D01*
X192419Y315083D01*
X192448Y315178D01*
X192484Y315271D01*
X192484Y315295D01*
X192492Y315319D01*
X192489Y315418D01*
X192493Y315517D01*
X192486Y315546D01*
X192485Y315564D01*
X192474Y315595D01*
X192454Y315680D01*
X192150Y316524D01*
X191541Y318216D01*
X191531Y318909D01*
X191515Y320014D01*
X191499Y321192D01*
X192447Y322365D01*
X192498Y322455D01*
X192553Y322541D01*
X192558Y322561D01*
X192568Y322579D01*
X192588Y322680D01*
X192613Y322780D01*
X192611Y322800D01*
X192615Y322821D01*
X192602Y322923D01*
X192594Y323025D01*
X192586Y323044D01*
X192583Y323064D01*
X192538Y323157D01*
X192498Y323251D01*
X192482Y323271D01*
X192475Y323285D01*
X192452Y323308D01*
X192393Y323382D01*
X191515Y324260D01*
X191515Y325838D01*
X192385Y326708D01*
X192410Y326743D01*
X192443Y326773D01*
X192482Y326843D01*
X192528Y326907D01*
X192541Y326949D01*
X192562Y326988D01*
X192577Y327066D01*
X192601Y327143D01*
X192599Y327186D01*
X192607Y327229D01*
X192596Y327309D01*
X192594Y327388D01*
X192579Y327430D01*
X192573Y327473D01*
X192515Y327606D01*
X192510Y327619D01*
X192508Y327622D01*
X192506Y327627D01*
X191515Y329342D01*
X191515Y333672D01*
X192634Y334791D01*
X192703Y334887D01*
X192774Y334983D01*
X192775Y334987D01*
X192777Y334990D01*
X192812Y335104D01*
X192848Y335217D01*
X192848Y335221D01*
X192850Y335225D01*
X192847Y335345D01*
X192845Y335463D01*
X192843Y335467D01*
X192843Y335471D01*
X192802Y335584D01*
X192763Y335695D01*
X192760Y335698D01*
X192759Y335702D01*
X192685Y335794D01*
X192611Y335889D01*
X192607Y335892D01*
X192605Y335894D01*
X192594Y335902D01*
X192476Y335988D01*
X192446Y336006D01*
X191515Y337617D01*
X191515Y341947D01*
X192401Y342833D01*
X192427Y342869D01*
X192459Y342898D01*
X192498Y342968D01*
X192545Y343033D01*
X192558Y343075D01*
X192579Y343113D01*
X192594Y343192D01*
X192617Y343268D01*
X192616Y343312D01*
X192624Y343355D01*
X192613Y343434D01*
X192611Y343514D01*
X192596Y343555D01*
X192590Y343599D01*
X192531Y343732D01*
X192526Y343745D01*
X192524Y343748D01*
X192522Y343752D01*
X191515Y345496D01*
X191515Y349827D01*
X192632Y350943D01*
X203608Y350943D01*
X204725Y349827D01*
X204725Y348248D01*
X203608Y347131D01*
X202353Y347131D01*
X202334Y347128D01*
X202314Y347130D01*
X202213Y347108D01*
X202111Y347092D01*
X202093Y347082D01*
X202073Y347078D01*
X201984Y347025D01*
X201893Y346977D01*
X201879Y346962D01*
X201862Y346952D01*
X201795Y346873D01*
X201724Y346798D01*
X201715Y346780D01*
X201702Y346765D01*
X201664Y346669D01*
X201620Y346575D01*
X201618Y346555D01*
X201611Y346537D01*
X201592Y346370D01*
X201592Y345496D01*
X200662Y343885D01*
X200063Y343539D01*
X200020Y343504D01*
X199971Y343477D01*
X199925Y343426D01*
X199873Y343383D01*
X199843Y343336D01*
X199805Y343295D01*
X199778Y343233D01*
X199742Y343175D01*
X199729Y343121D01*
X199706Y343070D01*
X199700Y343002D01*
X199685Y342936D01*
X199689Y342880D01*
X199684Y342825D01*
X199700Y342759D01*
X199706Y342691D01*
X199729Y342640D01*
X199742Y342586D01*
X199778Y342528D01*
X199805Y342466D01*
X199843Y342424D01*
X199872Y342377D01*
X199950Y342306D01*
X199971Y342284D01*
X199982Y342278D01*
X199996Y342264D01*
X200995Y341538D01*
X201798Y339070D01*
X200996Y336601D01*
X200396Y336166D01*
X200391Y336160D01*
X200384Y336156D01*
X200304Y336073D01*
X200223Y335991D01*
X200220Y335984D01*
X200214Y335978D01*
X200166Y335873D01*
X200115Y335770D01*
X200114Y335762D01*
X200111Y335755D01*
X200098Y335640D01*
X200083Y335526D01*
X200084Y335518D01*
X200083Y335510D01*
X200108Y335398D01*
X200130Y335285D01*
X200134Y335278D01*
X200136Y335270D01*
X200195Y335171D01*
X200252Y335071D01*
X200258Y335066D01*
X200262Y335059D01*
X200349Y334984D01*
X200435Y334907D01*
X200443Y334904D01*
X200449Y334899D01*
X200556Y334856D01*
X200662Y334811D01*
X200670Y334810D01*
X200677Y334807D01*
X200844Y334789D01*
X203608Y334789D01*
X204725Y333672D01*
X204725Y332093D01*
X203608Y330977D01*
X202353Y330977D01*
X202334Y330974D01*
X202314Y330976D01*
X202213Y330954D01*
X202111Y330937D01*
X202093Y330928D01*
X202073Y330924D01*
X201984Y330871D01*
X201893Y330822D01*
X201879Y330808D01*
X201862Y330798D01*
X201795Y330719D01*
X201724Y330644D01*
X201715Y330626D01*
X201702Y330611D01*
X201664Y330515D01*
X201620Y330421D01*
X201618Y330401D01*
X201611Y330383D01*
X201592Y330216D01*
X201592Y329342D01*
X201024Y328358D01*
X200990Y328268D01*
X200950Y328182D01*
X200947Y328154D01*
X200937Y328128D01*
X200933Y328032D01*
X200923Y327937D01*
X200929Y327910D01*
X200928Y327882D01*
X200955Y327790D01*
X200975Y327697D01*
X200989Y327673D01*
X200997Y327646D01*
X201052Y327568D01*
X201101Y327486D01*
X201123Y327468D01*
X201139Y327445D01*
X201216Y327388D01*
X201288Y327326D01*
X201314Y327316D01*
X201337Y327299D01*
X201428Y327270D01*
X201516Y327234D01*
X201551Y327230D01*
X201571Y327224D01*
X201604Y327224D01*
X201683Y327216D01*
X203608Y327216D01*
X204725Y326099D01*
X204725Y323998D01*
X203608Y322882D01*
X201505Y322882D01*
X201449Y322873D01*
X201391Y322874D01*
X201328Y322853D01*
X201262Y322842D01*
X201212Y322816D01*
X201157Y322798D01*
X201104Y322758D01*
X201045Y322727D01*
X201006Y322686D01*
X200959Y322652D01*
X200921Y322597D01*
X200876Y322549D01*
X200852Y322497D01*
X200819Y322450D01*
X200800Y322386D01*
X200772Y322326D01*
X200766Y322269D01*
X200750Y322214D01*
X200752Y322147D01*
X200745Y322081D01*
X200757Y322025D01*
X200759Y321968D01*
X200790Y321872D01*
X200797Y321841D01*
X200804Y321829D01*
X200811Y321808D01*
X200902Y321606D01*
X201569Y320126D01*
X201576Y319606D01*
X201592Y318502D01*
X201608Y317397D01*
X201609Y317323D01*
X200927Y316479D01*
X200911Y316452D01*
X200889Y316429D01*
X200851Y316346D01*
X200805Y316266D01*
X200799Y316235D01*
X200786Y316206D01*
X200776Y316115D01*
X200758Y316024D01*
X200762Y315993D01*
X200759Y315961D01*
X200778Y315872D01*
X200790Y315780D01*
X200804Y315752D01*
X200811Y315721D01*
X200858Y315642D01*
X200899Y315560D01*
X200921Y315537D01*
X200937Y315510D01*
X201007Y315450D01*
X201072Y315385D01*
X201100Y315371D01*
X201124Y315350D01*
X201209Y315316D01*
X201292Y315274D01*
X201323Y315270D01*
X201352Y315258D01*
X201519Y315240D01*
X201610Y315240D01*
X203585Y314100D01*
X204725Y312125D01*
X204725Y309383D01*
X202841Y306793D01*
X201318Y306300D01*
X200567Y306057D01*
X199161Y306775D01*
X198639Y308387D01*
X198638Y308394D01*
X198644Y308490D01*
X198637Y308516D01*
X198636Y308543D01*
X198604Y308634D01*
X198578Y308727D01*
X198563Y308749D01*
X198554Y308775D01*
X198495Y308851D01*
X198441Y308931D01*
X198419Y308947D01*
X198403Y308968D01*
X198322Y309022D01*
X198245Y309080D01*
X198220Y309089D01*
X198198Y309104D01*
X198104Y309128D01*
X198012Y309160D01*
X197986Y309160D01*
X197960Y309166D01*
X197863Y309160D01*
X197766Y309160D01*
X197741Y309152D01*
X197714Y309150D01*
X197625Y309113D01*
X197533Y309083D01*
X197505Y309064D01*
X197487Y309056D01*
X197462Y309035D01*
X197394Y308989D01*
X194737Y306731D01*
X194723Y306713D01*
X194692Y306689D01*
X194367Y306364D01*
X194355Y306348D01*
X194340Y306335D01*
X194284Y306248D01*
X194223Y306164D01*
X194218Y306145D01*
X194207Y306128D01*
X194182Y306028D01*
X194151Y305929D01*
X194152Y305909D01*
X194147Y305890D01*
X194155Y305787D01*
X194157Y305683D01*
X194164Y305664D01*
X194166Y305644D01*
X194206Y305549D01*
X194242Y305452D01*
X194254Y305436D01*
X194262Y305418D01*
X194283Y305393D01*
X194283Y299616D01*
X193166Y298500D01*
X191587Y298500D01*
G37*
%LPD*%
%LPC*%
G36*
X181670Y413003D02*
X181670Y413003D01*
X178496Y414318D01*
X176066Y416748D01*
X174751Y419922D01*
X174751Y423358D01*
X176066Y426532D01*
X178496Y428962D01*
X181670Y430277D01*
X199330Y430277D01*
X202504Y428962D01*
X204934Y426532D01*
X206249Y423358D01*
X206249Y419922D01*
X204934Y416748D01*
X202504Y414318D01*
X199330Y413003D01*
X181670Y413003D01*
G37*
%LPD*%
%LPC*%
G36*
X548982Y256313D02*
X548982Y256313D01*
X545873Y259422D01*
X545873Y261581D01*
X545859Y261672D01*
X545851Y261762D01*
X545839Y261792D01*
X545834Y261824D01*
X545791Y261905D01*
X545755Y261989D01*
X545729Y262021D01*
X545718Y262042D01*
X545695Y262064D01*
X545650Y262120D01*
X532383Y275387D01*
X532383Y295457D01*
X532369Y295547D01*
X532361Y295638D01*
X532349Y295667D01*
X532344Y295699D01*
X532301Y295780D01*
X532265Y295864D01*
X532239Y295896D01*
X532228Y295917D01*
X532205Y295939D01*
X532160Y295995D01*
X530633Y297522D01*
X530633Y301918D01*
X533742Y305027D01*
X538138Y305027D01*
X541247Y301918D01*
X541247Y297522D01*
X539720Y295995D01*
X539667Y295921D01*
X539607Y295851D01*
X539595Y295821D01*
X539576Y295795D01*
X539549Y295708D01*
X539515Y295623D01*
X539511Y295582D01*
X539504Y295560D01*
X539505Y295528D01*
X539497Y295457D01*
X539497Y278649D01*
X539511Y278558D01*
X539519Y278468D01*
X539531Y278438D01*
X539536Y278406D01*
X539579Y278325D01*
X539615Y278241D01*
X539641Y278209D01*
X539652Y278188D01*
X539675Y278166D01*
X539720Y278110D01*
X550680Y267150D01*
X550754Y267097D01*
X550824Y267037D01*
X550854Y267025D01*
X550880Y267006D01*
X550967Y266979D01*
X551052Y266945D01*
X551093Y266941D01*
X551115Y266934D01*
X551147Y266935D01*
X551219Y266927D01*
X553378Y266927D01*
X556487Y263818D01*
X556487Y259422D01*
X553378Y256313D01*
X548982Y256313D01*
G37*
%LPD*%
%LPC*%
G36*
X601379Y527811D02*
X601379Y527811D01*
X598391Y529049D01*
X596105Y531335D01*
X594867Y534323D01*
X594867Y537557D01*
X596105Y540545D01*
X598391Y542831D01*
X601379Y544069D01*
X617821Y544069D01*
X620809Y542831D01*
X623095Y540545D01*
X624333Y537557D01*
X624333Y534323D01*
X623095Y531335D01*
X620809Y529049D01*
X617821Y527811D01*
X601379Y527811D01*
G37*
%LPD*%
%LPC*%
G36*
X483523Y544067D02*
X483523Y544067D01*
X480535Y545305D01*
X478249Y547591D01*
X477011Y550579D01*
X477011Y567021D01*
X478249Y570009D01*
X480535Y572295D01*
X483523Y573533D01*
X486757Y573533D01*
X489745Y572295D01*
X492031Y570009D01*
X493269Y567021D01*
X493269Y550579D01*
X492031Y547591D01*
X489745Y545305D01*
X486757Y544067D01*
X483523Y544067D01*
G37*
%LPD*%
%LPC*%
G36*
X455583Y503427D02*
X455583Y503427D01*
X452595Y504665D01*
X450309Y506951D01*
X449071Y509939D01*
X449071Y526381D01*
X450309Y529369D01*
X452595Y531655D01*
X455583Y532893D01*
X458817Y532893D01*
X461805Y531655D01*
X464091Y529369D01*
X465329Y526381D01*
X465329Y509939D01*
X464091Y506951D01*
X461805Y504665D01*
X458817Y503427D01*
X455583Y503427D01*
G37*
%LPD*%
%LPC*%
G36*
X430183Y503427D02*
X430183Y503427D01*
X427195Y504665D01*
X424909Y506951D01*
X423671Y509939D01*
X423671Y526381D01*
X424909Y529369D01*
X427195Y531655D01*
X430183Y532893D01*
X433417Y532893D01*
X436405Y531655D01*
X438691Y529369D01*
X439929Y526381D01*
X439929Y509939D01*
X438691Y506951D01*
X436405Y504665D01*
X433417Y503427D01*
X430183Y503427D01*
G37*
%LPD*%
%LPC*%
G36*
X601379Y502411D02*
X601379Y502411D01*
X598391Y503649D01*
X596105Y505935D01*
X594867Y508923D01*
X594867Y512157D01*
X596105Y515145D01*
X598391Y517431D01*
X601379Y518669D01*
X617821Y518669D01*
X620809Y517431D01*
X623095Y515145D01*
X624333Y512157D01*
X624333Y508923D01*
X623095Y505935D01*
X620809Y503649D01*
X617821Y502411D01*
X601379Y502411D01*
G37*
%LPD*%
%LPC*%
G36*
X665940Y489249D02*
X665940Y489249D01*
X665839Y489550D01*
X665805Y489616D01*
X665779Y489685D01*
X665748Y489724D01*
X665725Y489767D01*
X665671Y489819D01*
X665625Y489877D01*
X665583Y489903D01*
X665547Y489937D01*
X665480Y489969D01*
X665417Y490009D01*
X665369Y490021D01*
X665324Y490042D01*
X665250Y490050D01*
X665178Y490068D01*
X665129Y490064D01*
X665080Y490069D01*
X665007Y490054D01*
X664933Y490048D01*
X664888Y490028D01*
X664839Y490018D01*
X664776Y489980D01*
X664707Y489950D01*
X664655Y489908D01*
X664628Y489892D01*
X664612Y489873D01*
X664577Y489845D01*
X664400Y489667D01*
X662068Y488695D01*
X659734Y488695D01*
X657880Y489766D01*
X656810Y491619D01*
X656810Y493759D01*
X657871Y495616D01*
X657885Y495624D01*
X657946Y495674D01*
X658012Y495718D01*
X658035Y495747D01*
X658515Y496009D01*
X658518Y496011D01*
X658521Y496012D01*
X658615Y496086D01*
X658709Y496160D01*
X658711Y496162D01*
X658714Y496164D01*
X658778Y496264D01*
X658845Y496365D01*
X658846Y496368D01*
X658848Y496370D01*
X658878Y496488D01*
X658908Y496603D01*
X658908Y496606D01*
X658909Y496609D01*
X658900Y496730D01*
X658893Y496848D01*
X658892Y496851D01*
X658891Y496854D01*
X658845Y496964D01*
X658799Y497076D01*
X658797Y497078D01*
X658796Y497081D01*
X658718Y497170D01*
X658638Y497262D01*
X658636Y497263D01*
X658634Y497266D01*
X658530Y497325D01*
X658427Y497387D01*
X658424Y497387D01*
X658421Y497389D01*
X658258Y497431D01*
X658187Y497441D01*
X657710Y498077D01*
X657656Y498128D01*
X657610Y498186D01*
X657568Y498213D01*
X657532Y498248D01*
X657465Y498279D01*
X657403Y498319D01*
X657355Y498331D01*
X657310Y498353D01*
X657236Y498361D01*
X657165Y498379D01*
X657115Y498375D01*
X657065Y498381D01*
X656993Y498366D01*
X656920Y498360D01*
X656874Y498340D01*
X656825Y498330D01*
X656761Y498293D01*
X656693Y498264D01*
X656640Y498221D01*
X656613Y498205D01*
X656597Y498187D01*
X656562Y498159D01*
X656497Y498093D01*
X655764Y498093D01*
X655744Y498090D01*
X655724Y498092D01*
X655623Y498070D01*
X655521Y498054D01*
X655503Y498044D01*
X655484Y498040D01*
X655395Y497987D01*
X655304Y497938D01*
X655290Y497924D01*
X655273Y497914D01*
X655206Y497835D01*
X655134Y497760D01*
X655126Y497742D01*
X655113Y497727D01*
X655074Y497631D01*
X655031Y497537D01*
X655028Y497517D01*
X655021Y497499D01*
X655003Y497332D01*
X655003Y489812D01*
X653886Y488695D01*
X652307Y488695D01*
X651191Y489812D01*
X651191Y497332D01*
X651189Y497347D01*
X651190Y497361D01*
X651189Y497364D01*
X651190Y497371D01*
X651168Y497473D01*
X651151Y497575D01*
X651142Y497592D01*
X651138Y497612D01*
X651085Y497701D01*
X651036Y497792D01*
X651022Y497806D01*
X651012Y497823D01*
X650933Y497890D01*
X650858Y497962D01*
X650840Y497970D01*
X650825Y497983D01*
X650728Y498022D01*
X650635Y498065D01*
X650615Y498067D01*
X650597Y498075D01*
X650430Y498093D01*
X649697Y498093D01*
X648581Y499210D01*
X648581Y500788D01*
X649697Y501905D01*
X656497Y501905D01*
X657380Y501022D01*
X657452Y500970D01*
X657520Y500911D01*
X657552Y500898D01*
X657580Y500878D01*
X657665Y500852D01*
X657747Y500818D01*
X657782Y500816D01*
X657815Y500806D01*
X657904Y500808D01*
X657993Y500802D01*
X658026Y500811D01*
X658061Y500812D01*
X658144Y500843D01*
X658231Y500866D01*
X658269Y500888D01*
X658292Y500896D01*
X658316Y500916D01*
X658375Y500951D01*
X659647Y501905D01*
X662658Y501905D01*
X664511Y500834D01*
X664916Y500134D01*
X664949Y500094D01*
X664973Y500048D01*
X665026Y499999D01*
X665072Y499944D01*
X665116Y499916D01*
X665154Y499881D01*
X665219Y499851D01*
X665280Y499813D01*
X665330Y499801D01*
X665378Y499779D01*
X665449Y499772D01*
X665519Y499755D01*
X665571Y499760D01*
X665622Y499755D01*
X665693Y499771D01*
X665764Y499777D01*
X665812Y499798D01*
X665862Y499810D01*
X665924Y499847D01*
X665989Y499876D01*
X666028Y499911D01*
X666072Y499938D01*
X666118Y499993D01*
X666171Y500041D01*
X666197Y500087D01*
X666230Y500127D01*
X666248Y500166D01*
X668641Y501905D01*
X673508Y501905D01*
X674625Y500788D01*
X674625Y489812D01*
X673508Y488695D01*
X671930Y488695D01*
X670802Y489823D01*
X670800Y489886D01*
X670782Y489936D01*
X670774Y489988D01*
X670740Y490051D01*
X670716Y490117D01*
X670683Y490159D01*
X670658Y490206D01*
X670607Y490254D01*
X670563Y490310D01*
X670519Y490339D01*
X670480Y490375D01*
X670416Y490405D01*
X670357Y490443D01*
X670305Y490456D01*
X670257Y490479D01*
X670187Y490487D01*
X670118Y490504D01*
X670065Y490500D01*
X670013Y490506D01*
X669943Y490491D01*
X669873Y490486D01*
X669824Y490465D01*
X669772Y490454D01*
X669712Y490417D01*
X669646Y490390D01*
X669607Y490355D01*
X669561Y490327D01*
X669515Y490274D01*
X669462Y490227D01*
X669422Y490165D01*
X669401Y490141D01*
X669393Y490119D01*
X669371Y490086D01*
X668849Y489043D01*
X667352Y488543D01*
X665940Y489249D01*
G37*
%LPD*%
%LPC*%
G36*
X255523Y331723D02*
X255523Y331723D01*
X255523Y343218D01*
X265502Y343218D01*
X267526Y342898D01*
X269475Y342264D01*
X271300Y341334D01*
X272958Y340130D01*
X274407Y338681D01*
X275612Y337023D01*
X276542Y335197D01*
X277175Y333248D01*
X277417Y331723D01*
X255523Y331723D01*
G37*
%LPD*%
%LPC*%
G36*
X230583Y331723D02*
X230583Y331723D01*
X230825Y333248D01*
X231458Y335197D01*
X232388Y337023D01*
X233593Y338681D01*
X235042Y340130D01*
X236700Y341334D01*
X238525Y342264D01*
X240474Y342898D01*
X242498Y343218D01*
X252477Y343218D01*
X252477Y331723D01*
X230583Y331723D01*
G37*
%LPD*%
%LPC*%
G36*
X255523Y317182D02*
X255523Y317182D01*
X255523Y328677D01*
X277417Y328677D01*
X277175Y327152D01*
X276542Y325203D01*
X275612Y323377D01*
X274407Y321719D01*
X272958Y320270D01*
X271300Y319066D01*
X269475Y318136D01*
X267526Y317502D01*
X265502Y317182D01*
X255523Y317182D01*
G37*
%LPD*%
%LPC*%
G36*
X242498Y317182D02*
X242498Y317182D01*
X240474Y317502D01*
X238525Y318136D01*
X236700Y319066D01*
X235042Y320270D01*
X233593Y321719D01*
X232388Y323377D01*
X231458Y325203D01*
X230825Y327152D01*
X230583Y328677D01*
X252477Y328677D01*
X252477Y317182D01*
X242498Y317182D01*
G37*
%LPD*%
%LPC*%
G36*
X416236Y460960D02*
X416236Y460960D01*
X415158Y462576D01*
X415127Y462610D01*
X415102Y462650D01*
X415043Y462700D01*
X414991Y462756D01*
X414950Y462778D01*
X414914Y462808D01*
X414842Y462836D01*
X414774Y462873D01*
X414728Y462881D01*
X414685Y462898D01*
X414608Y462902D01*
X414532Y462915D01*
X414486Y462908D01*
X414439Y462910D01*
X414365Y462889D01*
X414289Y462877D01*
X414247Y462856D01*
X414202Y462843D01*
X414139Y462800D01*
X414070Y462764D01*
X414038Y462731D01*
X413999Y462704D01*
X413914Y462602D01*
X413899Y462588D01*
X413897Y462582D01*
X413892Y462576D01*
X412814Y460960D01*
X411163Y460630D01*
X409762Y461564D01*
X409431Y463215D01*
X411800Y466768D01*
X411848Y466874D01*
X411898Y466979D01*
X411899Y466986D01*
X411902Y466992D01*
X411914Y467108D01*
X411928Y467223D01*
X411926Y467230D01*
X411927Y467237D01*
X411901Y467350D01*
X411878Y467464D01*
X411874Y467472D01*
X411872Y467477D01*
X411862Y467494D01*
X411800Y467613D01*
X409431Y471166D01*
X409762Y472818D01*
X411163Y473752D01*
X412814Y473421D01*
X413892Y471805D01*
X413923Y471771D01*
X413948Y471731D01*
X414007Y471682D01*
X414059Y471625D01*
X414100Y471603D01*
X414136Y471573D01*
X414208Y471545D01*
X414276Y471508D01*
X414322Y471500D01*
X414365Y471483D01*
X414442Y471479D01*
X414518Y471466D01*
X414564Y471473D01*
X414611Y471471D01*
X414685Y471492D01*
X414761Y471504D01*
X414803Y471525D01*
X414847Y471538D01*
X414911Y471581D01*
X414979Y471617D01*
X415012Y471651D01*
X415050Y471677D01*
X415136Y471779D01*
X415150Y471794D01*
X415153Y471799D01*
X415158Y471805D01*
X416236Y473421D01*
X417887Y473752D01*
X419291Y472815D01*
X419353Y472787D01*
X419411Y472750D01*
X419465Y472737D01*
X419515Y472714D01*
X419583Y472707D01*
X419649Y472690D01*
X419705Y472695D01*
X419760Y472689D01*
X419827Y472704D01*
X419895Y472709D01*
X419946Y472731D01*
X420000Y472744D01*
X420058Y472779D01*
X420121Y472806D01*
X420182Y472854D01*
X420210Y472872D01*
X420224Y472888D01*
X420252Y472911D01*
X420967Y473626D01*
X421950Y473626D01*
X421970Y473629D01*
X421990Y473627D01*
X422091Y473649D01*
X422193Y473666D01*
X422211Y473675D01*
X422230Y473679D01*
X422319Y473733D01*
X422411Y473781D01*
X422424Y473795D01*
X422441Y473806D01*
X422509Y473884D01*
X422580Y473959D01*
X422588Y473977D01*
X422601Y473992D01*
X422640Y474089D01*
X422684Y474182D01*
X422686Y474202D01*
X422693Y474221D01*
X422712Y474387D01*
X422712Y476838D01*
X423902Y478029D01*
X425586Y478029D01*
X426777Y476838D01*
X426777Y474218D01*
X426792Y474128D01*
X426799Y474037D01*
X426812Y474007D01*
X426817Y473975D01*
X426860Y473895D01*
X426895Y473811D01*
X426921Y473779D01*
X426932Y473758D01*
X426955Y473736D01*
X427000Y473680D01*
X428245Y472435D01*
X428245Y470751D01*
X427000Y469507D01*
X426947Y469433D01*
X426888Y469363D01*
X426875Y469333D01*
X426857Y469307D01*
X426830Y469220D01*
X426796Y469135D01*
X426791Y469094D01*
X426784Y469072D01*
X426785Y469040D01*
X426777Y468968D01*
X426777Y463855D01*
X425643Y461890D01*
X423678Y460755D01*
X421386Y460755D01*
X420967Y460755D01*
X420252Y461471D01*
X420197Y461510D01*
X420147Y461558D01*
X420097Y461582D01*
X420052Y461614D01*
X419987Y461634D01*
X419925Y461664D01*
X419870Y461670D01*
X419817Y461687D01*
X419749Y461685D01*
X419681Y461693D01*
X419627Y461682D01*
X419571Y461680D01*
X419507Y461657D01*
X419440Y461643D01*
X419371Y461607D01*
X419340Y461596D01*
X419324Y461582D01*
X419291Y461566D01*
X417887Y460630D01*
X416236Y460960D01*
G37*
%LPD*%
%LPC*%
G36*
X472830Y460960D02*
X472830Y460960D01*
X471753Y462576D01*
X471721Y462610D01*
X471697Y462650D01*
X471638Y462700D01*
X471585Y462756D01*
X471544Y462778D01*
X471508Y462808D01*
X471437Y462836D01*
X471369Y462873D01*
X471323Y462881D01*
X471279Y462898D01*
X471202Y462902D01*
X471127Y462915D01*
X471080Y462908D01*
X471034Y462910D01*
X470960Y462889D01*
X470884Y462877D01*
X470842Y462856D01*
X470797Y462843D01*
X470734Y462800D01*
X470665Y462764D01*
X470633Y462731D01*
X470594Y462704D01*
X470508Y462602D01*
X470494Y462588D01*
X470492Y462582D01*
X470486Y462576D01*
X469409Y460960D01*
X467758Y460630D01*
X466356Y461564D01*
X466026Y463215D01*
X468395Y466768D01*
X468443Y466874D01*
X468493Y466979D01*
X468494Y466986D01*
X468497Y466992D01*
X468508Y467108D01*
X468522Y467223D01*
X468521Y467230D01*
X468522Y467237D01*
X468496Y467350D01*
X468472Y467464D01*
X468468Y467472D01*
X468467Y467477D01*
X468457Y467494D01*
X468395Y467613D01*
X466026Y471166D01*
X466356Y472818D01*
X467758Y473752D01*
X469409Y473421D01*
X470486Y471805D01*
X470518Y471771D01*
X470542Y471731D01*
X470601Y471682D01*
X470654Y471625D01*
X470695Y471603D01*
X470731Y471573D01*
X470802Y471545D01*
X470870Y471508D01*
X470916Y471500D01*
X470960Y471483D01*
X471037Y471479D01*
X471113Y471466D01*
X471159Y471473D01*
X471205Y471471D01*
X471280Y471492D01*
X471356Y471504D01*
X471397Y471525D01*
X471442Y471538D01*
X471506Y471581D01*
X471574Y471617D01*
X471607Y471651D01*
X471645Y471677D01*
X471731Y471779D01*
X471745Y471794D01*
X471748Y471799D01*
X471753Y471805D01*
X472830Y473421D01*
X474482Y473752D01*
X475457Y473101D01*
X475519Y473073D01*
X475577Y473036D01*
X475631Y473023D01*
X475681Y473000D01*
X475749Y472993D01*
X475815Y472976D01*
X475871Y472981D01*
X475926Y472975D01*
X475993Y472990D01*
X476061Y472995D01*
X476112Y473017D01*
X476166Y473029D01*
X476224Y473065D01*
X476287Y473092D01*
X476348Y473140D01*
X476376Y473157D01*
X476389Y473174D01*
X476418Y473196D01*
X476847Y473626D01*
X482934Y473626D01*
X484125Y472435D01*
X484125Y461946D01*
X482934Y460755D01*
X481250Y460755D01*
X480059Y461946D01*
X480059Y467783D01*
X480048Y467854D01*
X480046Y467926D01*
X480028Y467975D01*
X480020Y468026D01*
X479986Y468089D01*
X479961Y468157D01*
X479929Y468197D01*
X479904Y468243D01*
X479853Y468293D01*
X479808Y468349D01*
X479764Y468377D01*
X479726Y468413D01*
X479661Y468443D01*
X479601Y468482D01*
X479550Y468494D01*
X479503Y468516D01*
X479432Y468524D01*
X479362Y468542D01*
X479310Y468538D01*
X479259Y468543D01*
X479188Y468528D01*
X479117Y468523D01*
X479069Y468502D01*
X479018Y468491D01*
X478957Y468454D01*
X478891Y468426D01*
X478835Y468381D01*
X478807Y468365D01*
X478792Y468347D01*
X478760Y468321D01*
X478531Y468093D01*
X476847Y468093D01*
X475894Y469046D01*
X475817Y469101D01*
X475745Y469162D01*
X475718Y469173D01*
X475694Y469190D01*
X475604Y469218D01*
X475516Y469252D01*
X475487Y469254D01*
X475459Y469262D01*
X475365Y469260D01*
X475270Y469264D01*
X475242Y469257D01*
X475213Y469256D01*
X475124Y469223D01*
X475033Y469198D01*
X475010Y469181D01*
X474982Y469171D01*
X474908Y469112D01*
X474830Y469059D01*
X474807Y469031D01*
X474790Y469018D01*
X474773Y468990D01*
X474722Y468930D01*
X473844Y467613D01*
X473796Y467508D01*
X473746Y467402D01*
X473745Y467395D01*
X473743Y467389D01*
X473731Y467274D01*
X473717Y467158D01*
X473718Y467151D01*
X473718Y467144D01*
X473743Y467031D01*
X473767Y466917D01*
X473771Y466910D01*
X473772Y466904D01*
X473783Y466887D01*
X473844Y466768D01*
X476213Y463215D01*
X475883Y461564D01*
X474482Y460630D01*
X472830Y460960D01*
G37*
%LPD*%
%LPC*%
G36*
X448563Y435863D02*
X448563Y435863D01*
X448563Y452006D01*
X449419Y451871D01*
X450940Y451376D01*
X452365Y450650D01*
X453659Y449710D01*
X454790Y448579D01*
X455730Y447285D01*
X456456Y445860D01*
X456951Y444339D01*
X457201Y442760D01*
X457201Y435863D01*
X448563Y435863D01*
G37*
%LPD*%
%LPC*%
G36*
X280923Y509523D02*
X280923Y509523D01*
X280923Y525666D01*
X281779Y525531D01*
X283300Y525036D01*
X284725Y524310D01*
X286019Y523370D01*
X287150Y522239D01*
X288090Y520945D01*
X288816Y519520D01*
X289311Y517999D01*
X289561Y516420D01*
X289561Y509523D01*
X280923Y509523D01*
G37*
%LPD*%
%LPC*%
G36*
X280923Y552703D02*
X280923Y552703D01*
X280923Y568846D01*
X281779Y568711D01*
X283300Y568216D01*
X284725Y567490D01*
X286019Y566550D01*
X287150Y565419D01*
X288090Y564125D01*
X288816Y562700D01*
X289311Y561179D01*
X289561Y559600D01*
X289561Y552703D01*
X280923Y552703D01*
G37*
%LPD*%
%LPC*%
G36*
X788923Y446023D02*
X788923Y446023D01*
X788923Y454661D01*
X795820Y454661D01*
X797399Y454411D01*
X798920Y453916D01*
X800345Y453190D01*
X801639Y452250D01*
X802770Y451119D01*
X803710Y449825D01*
X804436Y448400D01*
X804931Y446879D01*
X805066Y446023D01*
X788923Y446023D01*
G37*
%LPD*%
%LPC*%
G36*
X661923Y446023D02*
X661923Y446023D01*
X661923Y454661D01*
X668820Y454661D01*
X670399Y454411D01*
X671920Y453916D01*
X673345Y453190D01*
X674639Y452250D01*
X675770Y451119D01*
X676710Y449825D01*
X677436Y448400D01*
X677931Y446879D01*
X678066Y446023D01*
X661923Y446023D01*
G37*
%LPD*%
%LPC*%
G36*
X788923Y369823D02*
X788923Y369823D01*
X788923Y378461D01*
X795820Y378461D01*
X797399Y378211D01*
X798920Y377716D01*
X800345Y376990D01*
X801639Y376050D01*
X802770Y374919D01*
X803710Y373625D01*
X804436Y372200D01*
X804931Y370679D01*
X805066Y369823D01*
X788923Y369823D01*
G37*
%LPD*%
%LPC*%
G36*
X769734Y446023D02*
X769734Y446023D01*
X769869Y446879D01*
X770364Y448400D01*
X771090Y449825D01*
X772030Y451119D01*
X773161Y452250D01*
X774455Y453190D01*
X775880Y453916D01*
X777401Y454411D01*
X778980Y454661D01*
X785877Y454661D01*
X785877Y446023D01*
X769734Y446023D01*
G37*
%LPD*%
%LPC*%
G36*
X642734Y446023D02*
X642734Y446023D01*
X642869Y446879D01*
X643364Y448400D01*
X644090Y449825D01*
X645030Y451119D01*
X646161Y452250D01*
X647455Y453190D01*
X648880Y453916D01*
X650401Y454411D01*
X651980Y454661D01*
X658877Y454661D01*
X658877Y446023D01*
X642734Y446023D01*
G37*
%LPD*%
%LPC*%
G36*
X769734Y369823D02*
X769734Y369823D01*
X769869Y370679D01*
X770364Y372200D01*
X771090Y373625D01*
X772030Y374919D01*
X773161Y376050D01*
X774455Y376990D01*
X775880Y377716D01*
X777401Y378211D01*
X778980Y378461D01*
X785877Y378461D01*
X785877Y369823D01*
X769734Y369823D01*
G37*
%LPD*%
%LPC*%
G36*
X280923Y506477D02*
X280923Y506477D01*
X289561Y506477D01*
X289561Y499580D01*
X289311Y498001D01*
X288816Y496480D01*
X288090Y495055D01*
X287150Y493761D01*
X286019Y492630D01*
X284725Y491690D01*
X283300Y490964D01*
X281779Y490469D01*
X280923Y490334D01*
X280923Y506477D01*
G37*
%LPD*%
%LPC*%
G36*
X280923Y549657D02*
X280923Y549657D01*
X289561Y549657D01*
X289561Y542760D01*
X289311Y541181D01*
X288816Y539660D01*
X288090Y538235D01*
X287150Y536941D01*
X286019Y535810D01*
X284725Y534870D01*
X283300Y534144D01*
X281779Y533649D01*
X280923Y533514D01*
X280923Y549657D01*
G37*
%LPD*%
%LPC*%
G36*
X448563Y432817D02*
X448563Y432817D01*
X457201Y432817D01*
X457201Y425920D01*
X456951Y424341D01*
X456456Y422820D01*
X455730Y421395D01*
X454790Y420101D01*
X453659Y418970D01*
X452365Y418030D01*
X450940Y417304D01*
X449419Y416809D01*
X448563Y416674D01*
X448563Y432817D01*
G37*
%LPD*%
%LPC*%
G36*
X661923Y434339D02*
X661923Y434339D01*
X661923Y442977D01*
X678066Y442977D01*
X677931Y442121D01*
X677436Y440600D01*
X676710Y439175D01*
X675770Y437881D01*
X674639Y436750D01*
X673345Y435810D01*
X671920Y435084D01*
X670399Y434589D01*
X668820Y434339D01*
X661923Y434339D01*
G37*
%LPD*%
%LPC*%
G36*
X788923Y358139D02*
X788923Y358139D01*
X788923Y366777D01*
X805066Y366777D01*
X804931Y365921D01*
X804436Y364400D01*
X803710Y362975D01*
X802770Y361681D01*
X801639Y360550D01*
X800345Y359610D01*
X798920Y358884D01*
X797399Y358389D01*
X795820Y358139D01*
X788923Y358139D01*
G37*
%LPD*%
%LPC*%
G36*
X269239Y552703D02*
X269239Y552703D01*
X269239Y559600D01*
X269489Y561179D01*
X269984Y562700D01*
X270710Y564125D01*
X271650Y565419D01*
X272781Y566550D01*
X274075Y567490D01*
X275500Y568216D01*
X277021Y568711D01*
X277877Y568846D01*
X277877Y552703D01*
X269239Y552703D01*
G37*
%LPD*%
%LPC*%
G36*
X788923Y434339D02*
X788923Y434339D01*
X788923Y442977D01*
X805066Y442977D01*
X804931Y442121D01*
X804436Y440600D01*
X803710Y439175D01*
X802770Y437881D01*
X801639Y436750D01*
X800345Y435810D01*
X798920Y435084D01*
X797399Y434589D01*
X795820Y434339D01*
X788923Y434339D01*
G37*
%LPD*%
%LPC*%
G36*
X269239Y509523D02*
X269239Y509523D01*
X269239Y516420D01*
X269489Y517999D01*
X269984Y519520D01*
X270710Y520945D01*
X271650Y522239D01*
X272781Y523370D01*
X274075Y524310D01*
X275500Y525036D01*
X277021Y525531D01*
X277877Y525666D01*
X277877Y509523D01*
X269239Y509523D01*
G37*
%LPD*%
%LPC*%
G36*
X436879Y435863D02*
X436879Y435863D01*
X436879Y442760D01*
X437129Y444339D01*
X437624Y445860D01*
X438350Y447285D01*
X439290Y448579D01*
X440421Y449710D01*
X441715Y450650D01*
X443140Y451376D01*
X444661Y451871D01*
X445517Y452006D01*
X445517Y435863D01*
X436879Y435863D01*
G37*
%LPD*%
%LPC*%
G36*
X444661Y416809D02*
X444661Y416809D01*
X443140Y417304D01*
X441715Y418030D01*
X440421Y418970D01*
X439290Y420101D01*
X438350Y421395D01*
X437624Y422820D01*
X437129Y424341D01*
X436879Y425920D01*
X436879Y432817D01*
X445517Y432817D01*
X445517Y416674D01*
X444661Y416809D01*
G37*
%LPD*%
%LPC*%
G36*
X778980Y358139D02*
X778980Y358139D01*
X777401Y358389D01*
X775880Y358884D01*
X774455Y359610D01*
X773161Y360550D01*
X772030Y361681D01*
X771090Y362975D01*
X770364Y364400D01*
X769869Y365921D01*
X769734Y366777D01*
X785877Y366777D01*
X785877Y358139D01*
X778980Y358139D01*
G37*
%LPD*%
%LPC*%
G36*
X277021Y533649D02*
X277021Y533649D01*
X275500Y534144D01*
X274075Y534870D01*
X272781Y535810D01*
X271650Y536941D01*
X270710Y538235D01*
X269984Y539660D01*
X269489Y541181D01*
X269239Y542760D01*
X269239Y549657D01*
X277877Y549657D01*
X277877Y533514D01*
X277021Y533649D01*
G37*
%LPD*%
%LPC*%
G36*
X651980Y434339D02*
X651980Y434339D01*
X650401Y434589D01*
X648880Y435084D01*
X647455Y435810D01*
X646161Y436750D01*
X645030Y437881D01*
X644090Y439175D01*
X643364Y440600D01*
X642869Y442121D01*
X642734Y442977D01*
X658877Y442977D01*
X658877Y434339D01*
X651980Y434339D01*
G37*
%LPD*%
%LPC*%
G36*
X277021Y490469D02*
X277021Y490469D01*
X275500Y490964D01*
X274075Y491690D01*
X272781Y492630D01*
X271650Y493761D01*
X270710Y495055D01*
X269984Y496480D01*
X269489Y498001D01*
X269239Y499580D01*
X269239Y506477D01*
X277877Y506477D01*
X277877Y490334D01*
X277021Y490469D01*
G37*
%LPD*%
%LPC*%
G36*
X778980Y434339D02*
X778980Y434339D01*
X777401Y434589D01*
X775880Y435084D01*
X774455Y435810D01*
X773161Y436750D01*
X772030Y437881D01*
X771090Y439175D01*
X770364Y440600D01*
X769869Y442121D01*
X769734Y442977D01*
X785877Y442977D01*
X785877Y434339D01*
X778980Y434339D01*
G37*
%LPD*%
%LPC*%
G36*
X796543Y557783D02*
X796543Y557783D01*
X796543Y569596D01*
X800544Y569596D01*
X808356Y561784D01*
X808356Y557783D01*
X796543Y557783D01*
G37*
%LPD*%
%LPC*%
G36*
X796543Y542924D02*
X796543Y542924D01*
X796543Y554737D01*
X808356Y554737D01*
X808356Y550736D01*
X800544Y542924D01*
X796543Y542924D01*
G37*
%LPD*%
%LPC*%
G36*
X781684Y557783D02*
X781684Y557783D01*
X781684Y561784D01*
X789496Y569596D01*
X793497Y569596D01*
X793497Y557783D01*
X781684Y557783D01*
G37*
%LPD*%
%LPC*%
G36*
X789496Y542924D02*
X789496Y542924D01*
X781684Y550736D01*
X781684Y554737D01*
X793497Y554737D01*
X793497Y542924D01*
X789496Y542924D01*
G37*
%LPD*%
%LPC*%
G36*
X192023Y397763D02*
X192023Y397763D01*
X192023Y405893D01*
X198372Y405893D01*
X199872Y405655D01*
X201317Y405186D01*
X202671Y404496D01*
X203900Y403603D01*
X204975Y402528D01*
X205868Y401299D01*
X206558Y399945D01*
X207027Y398500D01*
X207144Y397763D01*
X192023Y397763D01*
G37*
%LPD*%
%LPC*%
G36*
X173856Y397763D02*
X173856Y397763D01*
X173973Y398500D01*
X174442Y399945D01*
X175132Y401299D01*
X176025Y402528D01*
X177100Y403603D01*
X178329Y404496D01*
X179683Y405186D01*
X181128Y405655D01*
X182628Y405893D01*
X188977Y405893D01*
X188977Y397763D01*
X173856Y397763D01*
G37*
%LPD*%
%LPC*%
G36*
X192023Y386587D02*
X192023Y386587D01*
X192023Y394717D01*
X207144Y394717D01*
X207027Y393980D01*
X206558Y392535D01*
X205868Y391181D01*
X204975Y389952D01*
X203900Y388877D01*
X202671Y387984D01*
X201317Y387294D01*
X199872Y386825D01*
X198372Y386587D01*
X192023Y386587D01*
G37*
%LPD*%
%LPC*%
G36*
X182628Y386587D02*
X182628Y386587D01*
X181128Y386825D01*
X179683Y387294D01*
X178329Y387984D01*
X177100Y388877D01*
X176025Y389952D01*
X175132Y391181D01*
X174442Y392535D01*
X173973Y393980D01*
X173856Y394717D01*
X188977Y394717D01*
X188977Y386587D01*
X182628Y386587D01*
G37*
%LPD*%
%LPC*%
G36*
X217429Y377669D02*
X217429Y377669D01*
X216238Y378860D01*
X216238Y381310D01*
X216235Y381330D01*
X216237Y381350D01*
X216215Y381451D01*
X216198Y381553D01*
X216189Y381571D01*
X216185Y381590D01*
X216131Y381679D01*
X216083Y381771D01*
X216069Y381784D01*
X216058Y381801D01*
X215980Y381869D01*
X215905Y381940D01*
X215887Y381948D01*
X215872Y381961D01*
X215775Y382000D01*
X215682Y382044D01*
X215662Y382046D01*
X215643Y382053D01*
X215477Y382072D01*
X213026Y382072D01*
X211835Y383262D01*
X211835Y384946D01*
X213026Y386137D01*
X215477Y386137D01*
X215496Y386140D01*
X215516Y386138D01*
X215617Y386160D01*
X215719Y386177D01*
X215737Y386186D01*
X215756Y386190D01*
X215846Y386244D01*
X215937Y386292D01*
X215950Y386306D01*
X215968Y386317D01*
X216035Y386395D01*
X216106Y386470D01*
X216115Y386488D01*
X216128Y386504D01*
X216166Y386600D01*
X216210Y386693D01*
X216212Y386713D01*
X216219Y386732D01*
X216238Y386898D01*
X216238Y389349D01*
X217429Y390540D01*
X219113Y390540D01*
X220303Y389349D01*
X220303Y386898D01*
X220307Y386879D01*
X220304Y386859D01*
X220326Y386758D01*
X220343Y386656D01*
X220352Y386638D01*
X220357Y386619D01*
X220410Y386530D01*
X220458Y386438D01*
X220473Y386425D01*
X220483Y386407D01*
X220562Y386340D01*
X220637Y386269D01*
X220655Y386261D01*
X220670Y386248D01*
X220766Y386209D01*
X220860Y386165D01*
X220879Y386163D01*
X220898Y386156D01*
X221065Y386137D01*
X223515Y386137D01*
X224706Y384946D01*
X224706Y383262D01*
X223515Y382072D01*
X221065Y382072D01*
X221045Y382068D01*
X221025Y382071D01*
X220924Y382049D01*
X220822Y382032D01*
X220804Y382023D01*
X220785Y382018D01*
X220696Y381965D01*
X220605Y381917D01*
X220591Y381902D01*
X220574Y381892D01*
X220506Y381814D01*
X220435Y381739D01*
X220427Y381720D01*
X220414Y381705D01*
X220375Y381609D01*
X220332Y381515D01*
X220329Y381496D01*
X220322Y381477D01*
X220303Y381310D01*
X220303Y378860D01*
X219113Y377669D01*
X217429Y377669D01*
G37*
%LPD*%
%LPC*%
G36*
X382867Y461489D02*
X382867Y461489D01*
X381677Y462680D01*
X381677Y465130D01*
X381673Y465150D01*
X381676Y465170D01*
X381654Y465271D01*
X381637Y465373D01*
X381628Y465391D01*
X381623Y465410D01*
X381570Y465499D01*
X381522Y465591D01*
X381507Y465604D01*
X381497Y465621D01*
X381418Y465689D01*
X381343Y465760D01*
X381325Y465768D01*
X381310Y465781D01*
X381214Y465820D01*
X381120Y465864D01*
X381101Y465866D01*
X381082Y465873D01*
X380915Y465892D01*
X378465Y465892D01*
X377274Y467082D01*
X377274Y468766D01*
X378465Y469957D01*
X380915Y469957D01*
X380935Y469960D01*
X380955Y469958D01*
X381056Y469980D01*
X381158Y469997D01*
X381176Y470006D01*
X381195Y470010D01*
X381284Y470064D01*
X381375Y470112D01*
X381389Y470126D01*
X381406Y470137D01*
X381474Y470215D01*
X381545Y470290D01*
X381553Y470308D01*
X381566Y470324D01*
X381605Y470420D01*
X381648Y470513D01*
X381651Y470533D01*
X381658Y470552D01*
X381677Y470718D01*
X381677Y473169D01*
X382867Y474360D01*
X384551Y474360D01*
X385742Y473169D01*
X385742Y470718D01*
X385745Y470699D01*
X385743Y470679D01*
X385765Y470578D01*
X385782Y470476D01*
X385791Y470458D01*
X385795Y470439D01*
X385849Y470350D01*
X385897Y470258D01*
X385911Y470245D01*
X385922Y470227D01*
X386000Y470160D01*
X386075Y470089D01*
X386093Y470081D01*
X386108Y470068D01*
X386205Y470029D01*
X386298Y469985D01*
X386318Y469983D01*
X386337Y469976D01*
X386503Y469957D01*
X388954Y469957D01*
X390145Y468766D01*
X390145Y467082D01*
X388954Y465892D01*
X386503Y465892D01*
X386484Y465888D01*
X386464Y465891D01*
X386363Y465869D01*
X386261Y465852D01*
X386243Y465843D01*
X386224Y465838D01*
X386134Y465785D01*
X386043Y465737D01*
X386030Y465722D01*
X386012Y465712D01*
X385945Y465634D01*
X385874Y465559D01*
X385865Y465540D01*
X385852Y465525D01*
X385814Y465429D01*
X385770Y465335D01*
X385768Y465316D01*
X385761Y465297D01*
X385742Y465130D01*
X385742Y462680D01*
X384551Y461489D01*
X382867Y461489D01*
G37*
%LPD*%
%LPC*%
G36*
X213026Y341432D02*
X213026Y341432D01*
X211835Y342622D01*
X211835Y344306D01*
X213026Y345497D01*
X223515Y345497D01*
X224706Y344306D01*
X224706Y342622D01*
X223515Y341432D01*
X213026Y341432D01*
G37*
%LPD*%
%LPC*%
G36*
X441965Y465892D02*
X441965Y465892D01*
X440774Y467082D01*
X440774Y468766D01*
X441965Y469957D01*
X452454Y469957D01*
X453645Y468766D01*
X453645Y467082D01*
X452454Y465892D01*
X441965Y465892D01*
G37*
%LPD*%
%LPC*%
G36*
X787399Y368299D02*
X787399Y368299D01*
X787399Y368301D01*
X787401Y368301D01*
X787401Y368299D01*
X787399Y368299D01*
G37*
%LPD*%
%LPC*%
G36*
X795019Y556259D02*
X795019Y556259D01*
X795019Y556261D01*
X795021Y556261D01*
X795021Y556259D01*
X795019Y556259D01*
G37*
%LPD*%
%LPC*%
G36*
X190499Y396239D02*
X190499Y396239D01*
X190499Y396241D01*
X190501Y396241D01*
X190501Y396239D01*
X190499Y396239D01*
G37*
%LPD*%
%LPC*%
G36*
X279399Y551179D02*
X279399Y551179D01*
X279399Y551181D01*
X279401Y551181D01*
X279401Y551179D01*
X279399Y551179D01*
G37*
%LPD*%
%LPC*%
G36*
X447039Y434339D02*
X447039Y434339D01*
X447039Y434341D01*
X447041Y434341D01*
X447041Y434339D01*
X447039Y434339D01*
G37*
%LPD*%
%LPC*%
G36*
X253999Y330199D02*
X253999Y330199D01*
X253999Y330201D01*
X254001Y330201D01*
X254001Y330199D01*
X253999Y330199D01*
G37*
%LPD*%
%LPC*%
G36*
X660399Y444499D02*
X660399Y444499D01*
X660399Y444501D01*
X660401Y444501D01*
X660401Y444499D01*
X660399Y444499D01*
G37*
%LPD*%
%LPC*%
G36*
X787399Y444499D02*
X787399Y444499D01*
X787399Y444501D01*
X787401Y444501D01*
X787401Y444499D01*
X787399Y444499D01*
G37*
%LPD*%
%LPC*%
G36*
X279399Y507999D02*
X279399Y507999D01*
X279399Y508001D01*
X279401Y508001D01*
X279401Y507999D01*
X279399Y507999D01*
G37*
%LPD*%
D10*
X199686Y239141D02*
X194987Y239141D01*
X194910Y239143D01*
X194834Y239149D01*
X194757Y239158D01*
X194681Y239171D01*
X194606Y239188D01*
X194532Y239208D01*
X194459Y239233D01*
X194388Y239260D01*
X194317Y239291D01*
X194249Y239326D01*
X194182Y239364D01*
X194117Y239405D01*
X194054Y239449D01*
X193994Y239496D01*
X193935Y239547D01*
X193880Y239600D01*
X193827Y239655D01*
X193776Y239714D01*
X193729Y239774D01*
X193685Y239837D01*
X193644Y239902D01*
X193606Y239969D01*
X193571Y240037D01*
X193540Y240108D01*
X193513Y240179D01*
X193488Y240252D01*
X193468Y240326D01*
X193451Y240401D01*
X193438Y240477D01*
X193429Y240554D01*
X193423Y240630D01*
X193421Y240707D01*
X193421Y243318D01*
X199686Y243318D01*
X199686Y247241D02*
X193421Y248807D01*
X197598Y250373D01*
X193421Y251940D01*
X199686Y253506D01*
X202819Y257250D02*
X194987Y257250D01*
X194910Y257252D01*
X194834Y257258D01*
X194757Y257267D01*
X194681Y257280D01*
X194606Y257297D01*
X194532Y257317D01*
X194459Y257342D01*
X194388Y257369D01*
X194317Y257400D01*
X194249Y257435D01*
X194182Y257473D01*
X194117Y257514D01*
X194054Y257558D01*
X193994Y257605D01*
X193935Y257656D01*
X193880Y257709D01*
X193827Y257764D01*
X193776Y257823D01*
X193729Y257883D01*
X193685Y257946D01*
X193644Y258011D01*
X193606Y258078D01*
X193571Y258146D01*
X193540Y258217D01*
X193513Y258288D01*
X193488Y258361D01*
X193468Y258435D01*
X193451Y258510D01*
X193438Y258586D01*
X193429Y258663D01*
X193423Y258739D01*
X193421Y258816D01*
X195509Y262001D02*
X197598Y262001D01*
X197688Y262003D01*
X197777Y262009D01*
X197867Y262018D01*
X197956Y262032D01*
X198044Y262049D01*
X198131Y262070D01*
X198218Y262095D01*
X198303Y262124D01*
X198387Y262156D01*
X198469Y262191D01*
X198550Y262231D01*
X198629Y262273D01*
X198706Y262319D01*
X198781Y262369D01*
X198854Y262421D01*
X198925Y262477D01*
X198993Y262535D01*
X199058Y262597D01*
X199121Y262661D01*
X199181Y262728D01*
X199238Y262797D01*
X199292Y262869D01*
X199343Y262943D01*
X199391Y263019D01*
X199435Y263097D01*
X199476Y263177D01*
X199514Y263259D01*
X199548Y263342D01*
X199578Y263427D01*
X199605Y263513D01*
X199628Y263599D01*
X199647Y263687D01*
X199662Y263776D01*
X199674Y263865D01*
X199682Y263954D01*
X199686Y264044D01*
X199686Y264134D01*
X199682Y264224D01*
X199674Y264313D01*
X199662Y264402D01*
X199647Y264491D01*
X199628Y264579D01*
X199605Y264665D01*
X199578Y264751D01*
X199548Y264836D01*
X199514Y264919D01*
X199476Y265001D01*
X199435Y265081D01*
X199391Y265159D01*
X199343Y265235D01*
X199292Y265309D01*
X199238Y265381D01*
X199181Y265450D01*
X199121Y265517D01*
X199058Y265581D01*
X198993Y265643D01*
X198925Y265701D01*
X198854Y265757D01*
X198781Y265809D01*
X198706Y265859D01*
X198629Y265905D01*
X198550Y265947D01*
X198469Y265987D01*
X198387Y266022D01*
X198303Y266054D01*
X198218Y266083D01*
X198131Y266108D01*
X198044Y266129D01*
X197956Y266146D01*
X197867Y266160D01*
X197777Y266169D01*
X197688Y266175D01*
X197598Y266177D01*
X197598Y266178D02*
X195509Y266178D01*
X195509Y266177D02*
X195419Y266175D01*
X195330Y266169D01*
X195240Y266160D01*
X195151Y266146D01*
X195063Y266129D01*
X194976Y266108D01*
X194889Y266083D01*
X194804Y266054D01*
X194720Y266022D01*
X194638Y265987D01*
X194557Y265947D01*
X194478Y265905D01*
X194401Y265859D01*
X194326Y265809D01*
X194253Y265757D01*
X194182Y265701D01*
X194114Y265643D01*
X194049Y265581D01*
X193986Y265517D01*
X193926Y265450D01*
X193869Y265381D01*
X193815Y265309D01*
X193764Y265235D01*
X193716Y265159D01*
X193672Y265081D01*
X193631Y265001D01*
X193593Y264919D01*
X193559Y264836D01*
X193529Y264751D01*
X193502Y264665D01*
X193479Y264579D01*
X193460Y264491D01*
X193445Y264402D01*
X193433Y264313D01*
X193425Y264224D01*
X193421Y264134D01*
X193421Y264044D01*
X193425Y263954D01*
X193433Y263865D01*
X193445Y263776D01*
X193460Y263687D01*
X193479Y263599D01*
X193502Y263513D01*
X193529Y263427D01*
X193559Y263342D01*
X193593Y263259D01*
X193631Y263177D01*
X193672Y263097D01*
X193716Y263019D01*
X193764Y262943D01*
X193815Y262869D01*
X193869Y262797D01*
X193926Y262728D01*
X193986Y262661D01*
X194049Y262597D01*
X194114Y262535D01*
X194182Y262477D01*
X194253Y262421D01*
X194326Y262369D01*
X194401Y262319D01*
X194478Y262273D01*
X194557Y262231D01*
X194638Y262191D01*
X194720Y262156D01*
X194804Y262124D01*
X194889Y262095D01*
X194976Y262070D01*
X195063Y262049D01*
X195151Y262032D01*
X195240Y262018D01*
X195330Y262009D01*
X195419Y262003D01*
X195509Y262001D01*
X193421Y271446D02*
X193421Y274057D01*
X193421Y271446D02*
X193423Y271369D01*
X193429Y271293D01*
X193438Y271216D01*
X193451Y271140D01*
X193468Y271065D01*
X193488Y270991D01*
X193513Y270918D01*
X193540Y270847D01*
X193571Y270776D01*
X193606Y270708D01*
X193644Y270641D01*
X193685Y270576D01*
X193729Y270513D01*
X193776Y270453D01*
X193827Y270394D01*
X193880Y270339D01*
X193935Y270286D01*
X193994Y270235D01*
X194054Y270188D01*
X194117Y270144D01*
X194182Y270103D01*
X194249Y270065D01*
X194317Y270030D01*
X194388Y269999D01*
X194459Y269972D01*
X194532Y269947D01*
X194606Y269927D01*
X194681Y269910D01*
X194757Y269897D01*
X194834Y269888D01*
X194910Y269882D01*
X194987Y269880D01*
X198120Y269880D01*
X198197Y269882D01*
X198273Y269888D01*
X198350Y269897D01*
X198426Y269910D01*
X198501Y269927D01*
X198575Y269947D01*
X198648Y269972D01*
X198719Y269999D01*
X198790Y270030D01*
X198858Y270065D01*
X198925Y270103D01*
X198990Y270144D01*
X199053Y270188D01*
X199113Y270235D01*
X199172Y270286D01*
X199227Y270339D01*
X199280Y270394D01*
X199331Y270453D01*
X199378Y270513D01*
X199422Y270576D01*
X199463Y270641D01*
X199501Y270708D01*
X199536Y270776D01*
X199567Y270847D01*
X199594Y270918D01*
X199619Y270991D01*
X199639Y271065D01*
X199656Y271140D01*
X199669Y271216D01*
X199678Y271293D01*
X199684Y271369D01*
X199686Y271446D01*
X199686Y274057D01*
X191855Y274057D01*
X191855Y274056D02*
X191778Y274054D01*
X191702Y274048D01*
X191625Y274039D01*
X191549Y274026D01*
X191474Y274009D01*
X191400Y273989D01*
X191327Y273964D01*
X191256Y273937D01*
X191185Y273906D01*
X191117Y273871D01*
X191050Y273833D01*
X190985Y273792D01*
X190922Y273748D01*
X190862Y273701D01*
X190803Y273650D01*
X190748Y273597D01*
X190695Y273542D01*
X190644Y273483D01*
X190597Y273423D01*
X190553Y273360D01*
X190512Y273295D01*
X190474Y273228D01*
X190439Y273160D01*
X190408Y273089D01*
X190381Y273018D01*
X190356Y272945D01*
X190336Y272871D01*
X190319Y272796D01*
X190306Y272720D01*
X190297Y272644D01*
X190291Y272567D01*
X190289Y272490D01*
X190288Y272491D02*
X190288Y270402D01*
X193421Y279676D02*
X193421Y282286D01*
X193421Y279676D02*
X193423Y279599D01*
X193429Y279523D01*
X193438Y279446D01*
X193451Y279370D01*
X193468Y279295D01*
X193488Y279221D01*
X193513Y279148D01*
X193540Y279077D01*
X193571Y279006D01*
X193606Y278938D01*
X193644Y278871D01*
X193685Y278806D01*
X193729Y278743D01*
X193776Y278683D01*
X193827Y278624D01*
X193880Y278569D01*
X193935Y278516D01*
X193994Y278465D01*
X194054Y278418D01*
X194117Y278374D01*
X194182Y278333D01*
X194249Y278295D01*
X194317Y278260D01*
X194388Y278229D01*
X194459Y278202D01*
X194532Y278177D01*
X194606Y278157D01*
X194681Y278140D01*
X194757Y278127D01*
X194834Y278118D01*
X194910Y278112D01*
X194987Y278110D01*
X198120Y278110D01*
X198197Y278112D01*
X198273Y278118D01*
X198350Y278127D01*
X198426Y278140D01*
X198501Y278157D01*
X198575Y278177D01*
X198648Y278202D01*
X198719Y278229D01*
X198790Y278260D01*
X198858Y278295D01*
X198925Y278333D01*
X198990Y278374D01*
X199053Y278418D01*
X199113Y278465D01*
X199172Y278516D01*
X199227Y278569D01*
X199280Y278624D01*
X199331Y278683D01*
X199378Y278743D01*
X199422Y278806D01*
X199463Y278871D01*
X199501Y278938D01*
X199536Y279006D01*
X199567Y279077D01*
X199594Y279148D01*
X199619Y279221D01*
X199639Y279295D01*
X199656Y279370D01*
X199669Y279446D01*
X199678Y279523D01*
X199684Y279599D01*
X199686Y279676D01*
X199686Y282286D01*
X191855Y282286D01*
X191778Y282284D01*
X191702Y282278D01*
X191625Y282269D01*
X191549Y282256D01*
X191474Y282239D01*
X191400Y282219D01*
X191327Y282194D01*
X191256Y282167D01*
X191185Y282136D01*
X191117Y282101D01*
X191050Y282063D01*
X190985Y282022D01*
X190922Y281978D01*
X190862Y281931D01*
X190803Y281880D01*
X190748Y281827D01*
X190695Y281772D01*
X190644Y281713D01*
X190597Y281653D01*
X190553Y281590D01*
X190512Y281525D01*
X190474Y281458D01*
X190439Y281390D01*
X190408Y281319D01*
X190381Y281248D01*
X190356Y281175D01*
X190336Y281101D01*
X190319Y281026D01*
X190306Y280950D01*
X190297Y280874D01*
X190291Y280797D01*
X190289Y280720D01*
X190288Y280720D02*
X190288Y278632D01*
X193421Y287951D02*
X193421Y290562D01*
X193421Y287951D02*
X193423Y287874D01*
X193429Y287798D01*
X193438Y287721D01*
X193451Y287645D01*
X193468Y287570D01*
X193488Y287496D01*
X193513Y287423D01*
X193540Y287352D01*
X193571Y287281D01*
X193606Y287213D01*
X193644Y287146D01*
X193685Y287081D01*
X193729Y287018D01*
X193776Y286958D01*
X193827Y286899D01*
X193880Y286844D01*
X193935Y286791D01*
X193994Y286740D01*
X194054Y286693D01*
X194117Y286649D01*
X194182Y286608D01*
X194249Y286570D01*
X194317Y286535D01*
X194388Y286504D01*
X194459Y286477D01*
X194532Y286452D01*
X194606Y286432D01*
X194681Y286415D01*
X194757Y286402D01*
X194834Y286393D01*
X194910Y286387D01*
X194987Y286385D01*
X197598Y286385D01*
X197688Y286387D01*
X197777Y286393D01*
X197867Y286402D01*
X197956Y286416D01*
X198044Y286433D01*
X198131Y286454D01*
X198218Y286479D01*
X198303Y286508D01*
X198387Y286540D01*
X198469Y286575D01*
X198550Y286615D01*
X198629Y286657D01*
X198706Y286703D01*
X198781Y286753D01*
X198854Y286805D01*
X198925Y286861D01*
X198993Y286919D01*
X199058Y286981D01*
X199121Y287045D01*
X199181Y287112D01*
X199238Y287181D01*
X199292Y287253D01*
X199343Y287327D01*
X199391Y287403D01*
X199435Y287481D01*
X199476Y287561D01*
X199514Y287643D01*
X199548Y287726D01*
X199578Y287811D01*
X199605Y287897D01*
X199628Y287983D01*
X199647Y288071D01*
X199662Y288160D01*
X199674Y288249D01*
X199682Y288338D01*
X199686Y288428D01*
X199686Y288518D01*
X199682Y288608D01*
X199674Y288697D01*
X199662Y288786D01*
X199647Y288875D01*
X199628Y288963D01*
X199605Y289049D01*
X199578Y289135D01*
X199548Y289220D01*
X199514Y289303D01*
X199476Y289385D01*
X199435Y289465D01*
X199391Y289543D01*
X199343Y289619D01*
X199292Y289693D01*
X199238Y289765D01*
X199181Y289834D01*
X199121Y289901D01*
X199058Y289965D01*
X198993Y290027D01*
X198925Y290085D01*
X198854Y290141D01*
X198781Y290193D01*
X198706Y290243D01*
X198629Y290289D01*
X198550Y290331D01*
X198469Y290371D01*
X198387Y290406D01*
X198303Y290438D01*
X198218Y290467D01*
X198131Y290492D01*
X198044Y290513D01*
X197956Y290530D01*
X197867Y290544D01*
X197777Y290553D01*
X197688Y290559D01*
X197598Y290561D01*
X197598Y290562D02*
X196554Y290562D01*
X196554Y286385D01*
X193421Y294666D02*
X199686Y294666D01*
X199686Y297798D01*
X198642Y297798D01*
X192377Y300405D02*
X192377Y304582D01*
X200470Y313334D02*
X200565Y313332D01*
X200659Y313326D01*
X200753Y313317D01*
X200847Y313304D01*
X200940Y313287D01*
X201032Y313266D01*
X201124Y313241D01*
X201214Y313213D01*
X201303Y313181D01*
X201391Y313146D01*
X201477Y313107D01*
X201562Y313065D01*
X201645Y313019D01*
X201726Y312970D01*
X201805Y312918D01*
X201882Y312863D01*
X201956Y312804D01*
X202028Y312743D01*
X202098Y312679D01*
X202165Y312612D01*
X202229Y312542D01*
X202290Y312470D01*
X202349Y312396D01*
X202404Y312319D01*
X202456Y312240D01*
X202505Y312159D01*
X202551Y312076D01*
X202593Y311991D01*
X202632Y311905D01*
X202667Y311817D01*
X202699Y311728D01*
X202727Y311638D01*
X202752Y311546D01*
X202773Y311454D01*
X202790Y311361D01*
X202803Y311267D01*
X202812Y311173D01*
X202818Y311079D01*
X202820Y310984D01*
X202819Y310984D02*
X202817Y310876D01*
X202811Y310767D01*
X202801Y310659D01*
X202788Y310552D01*
X202770Y310445D01*
X202749Y310338D01*
X202724Y310233D01*
X202695Y310128D01*
X202663Y310025D01*
X202626Y309923D01*
X202586Y309822D01*
X202543Y309723D01*
X202496Y309625D01*
X202445Y309529D01*
X202391Y309435D01*
X202334Y309343D01*
X202273Y309253D01*
X202209Y309165D01*
X202143Y309080D01*
X202073Y308997D01*
X202000Y308917D01*
X201924Y308839D01*
X201846Y308764D01*
X201765Y308692D01*
X201681Y308623D01*
X201595Y308557D01*
X201507Y308494D01*
X201416Y308435D01*
X201324Y308378D01*
X201229Y308325D01*
X201133Y308276D01*
X201034Y308230D01*
X200935Y308187D01*
X200833Y308148D01*
X200731Y308113D01*
X198642Y312551D02*
X198711Y312620D01*
X198782Y312686D01*
X198855Y312750D01*
X198931Y312811D01*
X199010Y312869D01*
X199090Y312923D01*
X199173Y312975D01*
X199257Y313023D01*
X199343Y313069D01*
X199431Y313110D01*
X199521Y313149D01*
X199612Y313184D01*
X199704Y313215D01*
X199797Y313243D01*
X199891Y313267D01*
X199986Y313287D01*
X200082Y313304D01*
X200179Y313317D01*
X200276Y313326D01*
X200373Y313332D01*
X200470Y313334D01*
X198642Y312551D02*
X193421Y308113D01*
X193421Y313334D01*
X197076Y317952D02*
X196032Y320563D01*
X197076Y317952D02*
X197104Y317886D01*
X197137Y317821D01*
X197172Y317758D01*
X197211Y317697D01*
X197253Y317638D01*
X197298Y317582D01*
X197346Y317528D01*
X197397Y317477D01*
X197450Y317428D01*
X197507Y317383D01*
X197565Y317340D01*
X197625Y317301D01*
X197688Y317264D01*
X197753Y317232D01*
X197819Y317203D01*
X197886Y317177D01*
X197955Y317155D01*
X198025Y317137D01*
X198096Y317122D01*
X198167Y317111D01*
X198239Y317104D01*
X198311Y317101D01*
X198383Y317102D01*
X198456Y317107D01*
X198527Y317115D01*
X198599Y317127D01*
X198669Y317143D01*
X198738Y317163D01*
X198807Y317187D01*
X198874Y317214D01*
X198939Y317244D01*
X199003Y317278D01*
X199065Y317316D01*
X199125Y317356D01*
X199182Y317400D01*
X199237Y317447D01*
X199290Y317497D01*
X199339Y317549D01*
X199386Y317604D01*
X199430Y317661D01*
X199471Y317721D01*
X199508Y317783D01*
X199543Y317847D01*
X199573Y317912D01*
X199601Y317979D01*
X199624Y318047D01*
X199644Y318117D01*
X199660Y318187D01*
X199673Y318258D01*
X199681Y318330D01*
X199686Y318402D01*
X199687Y318474D01*
X199686Y318475D02*
X199682Y318626D01*
X199674Y318777D01*
X199663Y318928D01*
X199647Y319079D01*
X199627Y319229D01*
X199604Y319379D01*
X199577Y319528D01*
X199546Y319676D01*
X199511Y319824D01*
X199473Y319970D01*
X199430Y320116D01*
X199384Y320260D01*
X199335Y320403D01*
X199282Y320545D01*
X199225Y320685D01*
X199164Y320824D01*
X196032Y320563D02*
X196004Y320629D01*
X195971Y320694D01*
X195936Y320757D01*
X195897Y320818D01*
X195855Y320877D01*
X195810Y320933D01*
X195762Y320987D01*
X195711Y321038D01*
X195658Y321087D01*
X195601Y321132D01*
X195543Y321175D01*
X195483Y321214D01*
X195420Y321251D01*
X195355Y321283D01*
X195289Y321312D01*
X195222Y321338D01*
X195153Y321360D01*
X195083Y321378D01*
X195012Y321393D01*
X194941Y321404D01*
X194869Y321411D01*
X194797Y321414D01*
X194725Y321413D01*
X194652Y321408D01*
X194581Y321400D01*
X194509Y321388D01*
X194439Y321372D01*
X194370Y321352D01*
X194301Y321328D01*
X194234Y321301D01*
X194169Y321271D01*
X194105Y321237D01*
X194043Y321199D01*
X193983Y321159D01*
X193926Y321115D01*
X193871Y321068D01*
X193818Y321018D01*
X193769Y320966D01*
X193722Y320911D01*
X193678Y320854D01*
X193637Y320794D01*
X193600Y320732D01*
X193565Y320668D01*
X193535Y320603D01*
X193507Y320536D01*
X193484Y320468D01*
X193464Y320398D01*
X193448Y320328D01*
X193435Y320257D01*
X193427Y320185D01*
X193422Y320113D01*
X193421Y320041D01*
X193426Y319831D01*
X193437Y319622D01*
X193452Y319413D01*
X193472Y319205D01*
X193498Y318997D01*
X193528Y318790D01*
X193563Y318583D01*
X193603Y318378D01*
X193647Y318173D01*
X193697Y317970D01*
X193751Y317767D01*
X193811Y317566D01*
X193874Y317367D01*
X193943Y317169D01*
X193421Y325049D02*
X199686Y325049D01*
X202297Y324788D02*
X202819Y324788D01*
X202819Y325310D01*
X202297Y325310D01*
X202297Y324788D01*
X202819Y332883D02*
X193421Y332883D01*
X193421Y330272D01*
X193423Y330195D01*
X193429Y330119D01*
X193438Y330042D01*
X193451Y329966D01*
X193468Y329891D01*
X193488Y329817D01*
X193513Y329744D01*
X193540Y329673D01*
X193571Y329602D01*
X193606Y329534D01*
X193644Y329467D01*
X193685Y329402D01*
X193729Y329339D01*
X193776Y329279D01*
X193827Y329220D01*
X193880Y329165D01*
X193935Y329112D01*
X193994Y329061D01*
X194054Y329014D01*
X194117Y328970D01*
X194182Y328929D01*
X194249Y328891D01*
X194317Y328856D01*
X194388Y328825D01*
X194459Y328798D01*
X194532Y328773D01*
X194606Y328753D01*
X194681Y328736D01*
X194757Y328723D01*
X194834Y328714D01*
X194910Y328708D01*
X194987Y328706D01*
X198120Y328706D01*
X198197Y328708D01*
X198273Y328714D01*
X198350Y328723D01*
X198426Y328736D01*
X198501Y328753D01*
X198575Y328773D01*
X198648Y328798D01*
X198719Y328825D01*
X198790Y328856D01*
X198858Y328891D01*
X198925Y328929D01*
X198990Y328970D01*
X199053Y329014D01*
X199113Y329061D01*
X199172Y329112D01*
X199227Y329165D01*
X199280Y329220D01*
X199331Y329279D01*
X199378Y329339D01*
X199422Y329402D01*
X199463Y329467D01*
X199501Y329534D01*
X199536Y329602D01*
X199567Y329673D01*
X199594Y329744D01*
X199619Y329817D01*
X199639Y329891D01*
X199656Y329966D01*
X199669Y330042D01*
X199678Y330119D01*
X199684Y330195D01*
X199686Y330272D01*
X199686Y332883D01*
X193421Y338548D02*
X193421Y341158D01*
X193421Y338548D02*
X193423Y338471D01*
X193429Y338395D01*
X193438Y338318D01*
X193451Y338242D01*
X193468Y338167D01*
X193488Y338093D01*
X193513Y338020D01*
X193540Y337949D01*
X193571Y337878D01*
X193606Y337810D01*
X193644Y337743D01*
X193685Y337678D01*
X193729Y337615D01*
X193776Y337555D01*
X193827Y337496D01*
X193880Y337441D01*
X193935Y337388D01*
X193994Y337337D01*
X194054Y337290D01*
X194117Y337246D01*
X194182Y337205D01*
X194249Y337167D01*
X194317Y337132D01*
X194388Y337101D01*
X194459Y337074D01*
X194532Y337049D01*
X194606Y337029D01*
X194681Y337012D01*
X194757Y336999D01*
X194834Y336990D01*
X194910Y336984D01*
X194987Y336982D01*
X194987Y336981D02*
X197598Y336981D01*
X197598Y336982D02*
X197688Y336984D01*
X197777Y336990D01*
X197867Y336999D01*
X197956Y337013D01*
X198044Y337030D01*
X198131Y337051D01*
X198218Y337076D01*
X198303Y337105D01*
X198387Y337137D01*
X198469Y337172D01*
X198550Y337212D01*
X198629Y337254D01*
X198706Y337300D01*
X198781Y337350D01*
X198854Y337402D01*
X198925Y337458D01*
X198993Y337516D01*
X199058Y337578D01*
X199121Y337642D01*
X199181Y337709D01*
X199238Y337778D01*
X199292Y337850D01*
X199343Y337924D01*
X199391Y338000D01*
X199435Y338078D01*
X199476Y338158D01*
X199514Y338240D01*
X199548Y338323D01*
X199578Y338408D01*
X199605Y338494D01*
X199628Y338580D01*
X199647Y338668D01*
X199662Y338757D01*
X199674Y338846D01*
X199682Y338935D01*
X199686Y339025D01*
X199686Y339115D01*
X199682Y339205D01*
X199674Y339294D01*
X199662Y339383D01*
X199647Y339472D01*
X199628Y339560D01*
X199605Y339646D01*
X199578Y339732D01*
X199548Y339817D01*
X199514Y339900D01*
X199476Y339982D01*
X199435Y340062D01*
X199391Y340140D01*
X199343Y340216D01*
X199292Y340290D01*
X199238Y340362D01*
X199181Y340431D01*
X199121Y340498D01*
X199058Y340562D01*
X198993Y340624D01*
X198925Y340682D01*
X198854Y340738D01*
X198781Y340790D01*
X198706Y340840D01*
X198629Y340886D01*
X198550Y340928D01*
X198469Y340968D01*
X198387Y341003D01*
X198303Y341035D01*
X198218Y341064D01*
X198131Y341089D01*
X198044Y341110D01*
X197956Y341127D01*
X197867Y341141D01*
X197777Y341150D01*
X197688Y341156D01*
X197598Y341158D01*
X196554Y341158D01*
X196554Y336981D01*
X193421Y349037D02*
X202819Y349037D01*
X193421Y349037D02*
X193421Y346427D01*
X193423Y346350D01*
X193429Y346274D01*
X193438Y346197D01*
X193451Y346121D01*
X193468Y346046D01*
X193488Y345972D01*
X193513Y345899D01*
X193540Y345828D01*
X193571Y345757D01*
X193606Y345689D01*
X193644Y345622D01*
X193685Y345557D01*
X193729Y345494D01*
X193776Y345434D01*
X193827Y345375D01*
X193880Y345320D01*
X193935Y345267D01*
X193994Y345216D01*
X194054Y345169D01*
X194117Y345125D01*
X194182Y345084D01*
X194249Y345046D01*
X194317Y345011D01*
X194388Y344980D01*
X194459Y344953D01*
X194532Y344928D01*
X194606Y344908D01*
X194681Y344891D01*
X194757Y344878D01*
X194834Y344869D01*
X194910Y344863D01*
X194987Y344861D01*
X194987Y344860D02*
X198120Y344860D01*
X198120Y344861D02*
X198197Y344863D01*
X198273Y344869D01*
X198350Y344878D01*
X198426Y344891D01*
X198501Y344908D01*
X198575Y344928D01*
X198648Y344953D01*
X198719Y344980D01*
X198790Y345011D01*
X198858Y345046D01*
X198925Y345084D01*
X198990Y345125D01*
X199053Y345169D01*
X199113Y345216D01*
X199172Y345267D01*
X199227Y345320D01*
X199280Y345375D01*
X199331Y345434D01*
X199378Y345494D01*
X199422Y345557D01*
X199463Y345622D01*
X199501Y345689D01*
X199536Y345757D01*
X199567Y345828D01*
X199594Y345899D01*
X199619Y345972D01*
X199639Y346046D01*
X199656Y346121D01*
X199669Y346197D01*
X199678Y346274D01*
X199684Y346350D01*
X199686Y346427D01*
X199686Y349037D01*
X185230Y244363D02*
X185325Y244361D01*
X185419Y244355D01*
X185513Y244346D01*
X185607Y244333D01*
X185700Y244316D01*
X185792Y244295D01*
X185884Y244270D01*
X185974Y244242D01*
X186063Y244210D01*
X186151Y244175D01*
X186237Y244136D01*
X186322Y244094D01*
X186405Y244048D01*
X186486Y243999D01*
X186565Y243947D01*
X186642Y243892D01*
X186716Y243833D01*
X186788Y243772D01*
X186858Y243708D01*
X186925Y243641D01*
X186989Y243571D01*
X187050Y243499D01*
X187109Y243425D01*
X187164Y243348D01*
X187216Y243269D01*
X187265Y243188D01*
X187311Y243105D01*
X187353Y243020D01*
X187392Y242934D01*
X187427Y242846D01*
X187459Y242757D01*
X187487Y242667D01*
X187512Y242575D01*
X187533Y242483D01*
X187550Y242390D01*
X187563Y242296D01*
X187572Y242202D01*
X187578Y242108D01*
X187580Y242013D01*
X187579Y242013D02*
X187577Y241905D01*
X187571Y241796D01*
X187561Y241688D01*
X187548Y241581D01*
X187530Y241474D01*
X187509Y241367D01*
X187484Y241262D01*
X187455Y241157D01*
X187423Y241054D01*
X187386Y240952D01*
X187346Y240851D01*
X187303Y240752D01*
X187256Y240654D01*
X187205Y240558D01*
X187151Y240464D01*
X187094Y240372D01*
X187033Y240282D01*
X186969Y240194D01*
X186903Y240109D01*
X186833Y240026D01*
X186760Y239946D01*
X186684Y239868D01*
X186606Y239793D01*
X186525Y239721D01*
X186441Y239652D01*
X186355Y239586D01*
X186267Y239523D01*
X186176Y239464D01*
X186084Y239407D01*
X185989Y239354D01*
X185893Y239305D01*
X185794Y239259D01*
X185695Y239216D01*
X185593Y239177D01*
X185491Y239142D01*
X183402Y243579D02*
X183471Y243648D01*
X183542Y243714D01*
X183615Y243778D01*
X183691Y243839D01*
X183770Y243897D01*
X183850Y243951D01*
X183933Y244003D01*
X184017Y244051D01*
X184103Y244097D01*
X184191Y244138D01*
X184281Y244177D01*
X184372Y244212D01*
X184464Y244243D01*
X184557Y244271D01*
X184651Y244295D01*
X184746Y244315D01*
X184842Y244332D01*
X184939Y244345D01*
X185036Y244354D01*
X185133Y244360D01*
X185230Y244362D01*
X183402Y243579D02*
X178181Y239141D01*
X178181Y244362D01*
X185230Y253507D02*
X185325Y253505D01*
X185419Y253499D01*
X185513Y253490D01*
X185607Y253477D01*
X185700Y253460D01*
X185792Y253439D01*
X185884Y253414D01*
X185974Y253386D01*
X186063Y253354D01*
X186151Y253319D01*
X186237Y253280D01*
X186322Y253238D01*
X186405Y253192D01*
X186486Y253143D01*
X186565Y253091D01*
X186642Y253036D01*
X186716Y252977D01*
X186788Y252916D01*
X186858Y252852D01*
X186925Y252785D01*
X186989Y252715D01*
X187050Y252643D01*
X187109Y252569D01*
X187164Y252492D01*
X187216Y252413D01*
X187265Y252332D01*
X187311Y252249D01*
X187353Y252164D01*
X187392Y252078D01*
X187427Y251990D01*
X187459Y251901D01*
X187487Y251811D01*
X187512Y251719D01*
X187533Y251627D01*
X187550Y251534D01*
X187563Y251440D01*
X187572Y251346D01*
X187578Y251252D01*
X187580Y251157D01*
X187579Y251157D02*
X187577Y251049D01*
X187571Y250940D01*
X187561Y250832D01*
X187548Y250725D01*
X187530Y250618D01*
X187509Y250511D01*
X187484Y250406D01*
X187455Y250301D01*
X187423Y250198D01*
X187386Y250096D01*
X187346Y249995D01*
X187303Y249896D01*
X187256Y249798D01*
X187205Y249702D01*
X187151Y249608D01*
X187094Y249516D01*
X187033Y249426D01*
X186969Y249338D01*
X186903Y249253D01*
X186833Y249170D01*
X186760Y249090D01*
X186684Y249012D01*
X186606Y248937D01*
X186525Y248865D01*
X186441Y248796D01*
X186355Y248730D01*
X186267Y248667D01*
X186176Y248608D01*
X186084Y248551D01*
X185989Y248498D01*
X185893Y248449D01*
X185794Y248403D01*
X185695Y248360D01*
X185593Y248321D01*
X185491Y248286D01*
X183402Y252723D02*
X183471Y252792D01*
X183542Y252858D01*
X183615Y252922D01*
X183691Y252983D01*
X183770Y253041D01*
X183850Y253095D01*
X183933Y253147D01*
X184017Y253195D01*
X184103Y253241D01*
X184191Y253282D01*
X184281Y253321D01*
X184372Y253356D01*
X184464Y253387D01*
X184557Y253415D01*
X184651Y253439D01*
X184746Y253459D01*
X184842Y253476D01*
X184939Y253489D01*
X185036Y253498D01*
X185133Y253504D01*
X185230Y253506D01*
X183402Y252723D02*
X178181Y248285D01*
X178181Y253506D01*
X178181Y257734D02*
X187579Y257734D01*
X187579Y260344D01*
X187577Y260444D01*
X187571Y260544D01*
X187562Y260643D01*
X187548Y260743D01*
X187531Y260841D01*
X187510Y260939D01*
X187486Y261036D01*
X187457Y261132D01*
X187425Y261227D01*
X187390Y261320D01*
X187351Y261412D01*
X187308Y261503D01*
X187262Y261591D01*
X187212Y261678D01*
X187160Y261763D01*
X187104Y261846D01*
X187045Y261927D01*
X186982Y262005D01*
X186917Y262081D01*
X186849Y262155D01*
X186779Y262225D01*
X186705Y262293D01*
X186629Y262358D01*
X186551Y262421D01*
X186470Y262480D01*
X186387Y262536D01*
X186302Y262588D01*
X186215Y262638D01*
X186127Y262684D01*
X186036Y262727D01*
X185944Y262766D01*
X185851Y262801D01*
X185756Y262833D01*
X185660Y262862D01*
X185563Y262886D01*
X185465Y262907D01*
X185367Y262924D01*
X185267Y262938D01*
X185168Y262947D01*
X185068Y262953D01*
X184968Y262955D01*
X180792Y262955D01*
X180692Y262953D01*
X180592Y262947D01*
X180493Y262938D01*
X180393Y262924D01*
X180295Y262907D01*
X180197Y262886D01*
X180100Y262862D01*
X180004Y262833D01*
X179909Y262801D01*
X179816Y262766D01*
X179724Y262727D01*
X179633Y262684D01*
X179545Y262638D01*
X179458Y262588D01*
X179373Y262536D01*
X179290Y262480D01*
X179209Y262421D01*
X179131Y262358D01*
X179055Y262293D01*
X178981Y262225D01*
X178911Y262155D01*
X178843Y262081D01*
X178778Y262005D01*
X178715Y261927D01*
X178656Y261846D01*
X178600Y261763D01*
X178548Y261678D01*
X178498Y261591D01*
X178452Y261503D01*
X178409Y261412D01*
X178370Y261320D01*
X178335Y261227D01*
X178303Y261132D01*
X178274Y261036D01*
X178250Y260939D01*
X178229Y260841D01*
X178212Y260743D01*
X178198Y260643D01*
X178189Y260544D01*
X178183Y260444D01*
X178181Y260344D01*
X178181Y257734D01*
X178181Y267505D02*
X178181Y271682D01*
X178181Y267505D02*
X187579Y267505D01*
X187579Y271682D01*
X183402Y270637D02*
X183402Y267505D01*
X178181Y277170D02*
X178181Y279258D01*
X178181Y277170D02*
X178183Y277081D01*
X178189Y276993D01*
X178198Y276905D01*
X178211Y276817D01*
X178228Y276730D01*
X178248Y276644D01*
X178273Y276559D01*
X178300Y276474D01*
X178332Y276391D01*
X178366Y276310D01*
X178405Y276230D01*
X178446Y276152D01*
X178491Y276075D01*
X178539Y276001D01*
X178590Y275928D01*
X178644Y275858D01*
X178702Y275791D01*
X178762Y275725D01*
X178824Y275663D01*
X178890Y275603D01*
X178957Y275545D01*
X179027Y275491D01*
X179100Y275440D01*
X179174Y275392D01*
X179251Y275347D01*
X179329Y275306D01*
X179409Y275267D01*
X179490Y275233D01*
X179573Y275201D01*
X179658Y275174D01*
X179743Y275149D01*
X179829Y275129D01*
X179916Y275112D01*
X180004Y275099D01*
X180092Y275090D01*
X180180Y275084D01*
X180269Y275082D01*
X185491Y275082D01*
X185582Y275084D01*
X185673Y275090D01*
X185764Y275100D01*
X185854Y275114D01*
X185943Y275131D01*
X186031Y275153D01*
X186119Y275179D01*
X186205Y275208D01*
X186290Y275241D01*
X186373Y275278D01*
X186455Y275318D01*
X186535Y275362D01*
X186613Y275409D01*
X186689Y275460D01*
X186762Y275513D01*
X186833Y275570D01*
X186902Y275631D01*
X186967Y275694D01*
X187030Y275759D01*
X187090Y275828D01*
X187148Y275899D01*
X187201Y275972D01*
X187252Y276048D01*
X187299Y276126D01*
X187343Y276206D01*
X187383Y276288D01*
X187420Y276371D01*
X187453Y276456D01*
X187482Y276542D01*
X187508Y276630D01*
X187530Y276718D01*
X187547Y276807D01*
X187561Y276897D01*
X187571Y276988D01*
X187577Y277079D01*
X187579Y277170D01*
X187579Y279258D01*
X185491Y282727D02*
X187579Y285338D01*
X178181Y285338D01*
X178181Y287948D02*
X178181Y282727D01*
X180792Y291871D02*
X180893Y291873D01*
X180994Y291879D01*
X181095Y291889D01*
X181195Y291902D01*
X181295Y291920D01*
X181394Y291941D01*
X181492Y291967D01*
X181589Y291996D01*
X181685Y292028D01*
X181779Y292065D01*
X181872Y292105D01*
X181964Y292149D01*
X182053Y292196D01*
X182141Y292247D01*
X182227Y292301D01*
X182310Y292358D01*
X182392Y292418D01*
X182470Y292482D01*
X182547Y292548D01*
X182620Y292618D01*
X182691Y292690D01*
X182759Y292765D01*
X182824Y292843D01*
X182886Y292923D01*
X182945Y293005D01*
X183001Y293090D01*
X183053Y293177D01*
X183102Y293265D01*
X183148Y293356D01*
X183189Y293448D01*
X183228Y293542D01*
X183262Y293637D01*
X183293Y293733D01*
X183320Y293831D01*
X183344Y293929D01*
X183363Y294029D01*
X183379Y294129D01*
X183391Y294229D01*
X183399Y294330D01*
X183403Y294431D01*
X183403Y294533D01*
X183399Y294634D01*
X183391Y294735D01*
X183379Y294835D01*
X183363Y294935D01*
X183344Y295035D01*
X183320Y295133D01*
X183293Y295231D01*
X183262Y295327D01*
X183228Y295422D01*
X183189Y295516D01*
X183148Y295608D01*
X183102Y295699D01*
X183053Y295787D01*
X183001Y295874D01*
X182945Y295959D01*
X182886Y296041D01*
X182824Y296121D01*
X182759Y296199D01*
X182691Y296274D01*
X182620Y296346D01*
X182547Y296416D01*
X182470Y296482D01*
X182392Y296546D01*
X182310Y296606D01*
X182227Y296663D01*
X182141Y296717D01*
X182053Y296768D01*
X181964Y296815D01*
X181872Y296859D01*
X181779Y296899D01*
X181685Y296936D01*
X181589Y296968D01*
X181492Y296997D01*
X181394Y297023D01*
X181295Y297044D01*
X181195Y297062D01*
X181095Y297075D01*
X180994Y297085D01*
X180893Y297091D01*
X180792Y297093D01*
X180691Y297091D01*
X180590Y297085D01*
X180489Y297075D01*
X180389Y297062D01*
X180289Y297044D01*
X180190Y297023D01*
X180092Y296997D01*
X179995Y296968D01*
X179899Y296936D01*
X179805Y296899D01*
X179712Y296859D01*
X179620Y296815D01*
X179531Y296768D01*
X179443Y296717D01*
X179357Y296663D01*
X179274Y296606D01*
X179192Y296546D01*
X179114Y296482D01*
X179037Y296416D01*
X178964Y296346D01*
X178893Y296274D01*
X178825Y296199D01*
X178760Y296121D01*
X178698Y296041D01*
X178639Y295959D01*
X178583Y295874D01*
X178531Y295788D01*
X178482Y295699D01*
X178436Y295608D01*
X178395Y295516D01*
X178356Y295422D01*
X178322Y295327D01*
X178291Y295231D01*
X178264Y295133D01*
X178240Y295035D01*
X178221Y294935D01*
X178205Y294835D01*
X178193Y294735D01*
X178185Y294634D01*
X178181Y294533D01*
X178181Y294431D01*
X178185Y294330D01*
X178193Y294229D01*
X178205Y294129D01*
X178221Y294029D01*
X178240Y293929D01*
X178264Y293831D01*
X178291Y293733D01*
X178322Y293637D01*
X178356Y293542D01*
X178395Y293448D01*
X178436Y293356D01*
X178482Y293265D01*
X178531Y293177D01*
X178583Y293090D01*
X178639Y293005D01*
X178698Y292923D01*
X178760Y292843D01*
X178825Y292765D01*
X178893Y292690D01*
X178964Y292618D01*
X179037Y292548D01*
X179114Y292482D01*
X179192Y292418D01*
X179274Y292358D01*
X179357Y292301D01*
X179443Y292247D01*
X179531Y292196D01*
X179620Y292149D01*
X179712Y292105D01*
X179805Y292065D01*
X179899Y292028D01*
X179995Y291996D01*
X180092Y291967D01*
X180190Y291941D01*
X180289Y291920D01*
X180389Y291902D01*
X180489Y291889D01*
X180590Y291879D01*
X180691Y291873D01*
X180792Y291871D01*
X185491Y292394D02*
X185581Y292396D01*
X185670Y292402D01*
X185760Y292411D01*
X185849Y292425D01*
X185937Y292442D01*
X186024Y292463D01*
X186111Y292488D01*
X186196Y292517D01*
X186280Y292549D01*
X186362Y292584D01*
X186443Y292624D01*
X186522Y292666D01*
X186599Y292712D01*
X186674Y292762D01*
X186747Y292814D01*
X186818Y292870D01*
X186886Y292928D01*
X186951Y292990D01*
X187014Y293054D01*
X187074Y293121D01*
X187131Y293190D01*
X187185Y293262D01*
X187236Y293336D01*
X187284Y293412D01*
X187328Y293490D01*
X187369Y293570D01*
X187407Y293652D01*
X187441Y293735D01*
X187471Y293820D01*
X187498Y293906D01*
X187521Y293992D01*
X187540Y294080D01*
X187555Y294169D01*
X187567Y294258D01*
X187575Y294347D01*
X187579Y294437D01*
X187579Y294527D01*
X187575Y294617D01*
X187567Y294706D01*
X187555Y294795D01*
X187540Y294884D01*
X187521Y294972D01*
X187498Y295058D01*
X187471Y295144D01*
X187441Y295229D01*
X187407Y295312D01*
X187369Y295394D01*
X187328Y295474D01*
X187284Y295552D01*
X187236Y295628D01*
X187185Y295702D01*
X187131Y295774D01*
X187074Y295843D01*
X187014Y295910D01*
X186951Y295974D01*
X186886Y296036D01*
X186818Y296094D01*
X186747Y296150D01*
X186674Y296202D01*
X186599Y296252D01*
X186522Y296298D01*
X186443Y296340D01*
X186362Y296380D01*
X186280Y296415D01*
X186196Y296447D01*
X186111Y296476D01*
X186024Y296501D01*
X185937Y296522D01*
X185849Y296539D01*
X185760Y296553D01*
X185670Y296562D01*
X185581Y296568D01*
X185491Y296570D01*
X185401Y296568D01*
X185312Y296562D01*
X185222Y296553D01*
X185133Y296539D01*
X185045Y296522D01*
X184958Y296501D01*
X184871Y296476D01*
X184786Y296447D01*
X184702Y296415D01*
X184620Y296380D01*
X184539Y296340D01*
X184460Y296298D01*
X184383Y296252D01*
X184308Y296202D01*
X184235Y296150D01*
X184164Y296094D01*
X184096Y296036D01*
X184031Y295974D01*
X183968Y295910D01*
X183908Y295843D01*
X183851Y295774D01*
X183797Y295702D01*
X183746Y295628D01*
X183698Y295552D01*
X183654Y295474D01*
X183613Y295394D01*
X183575Y295312D01*
X183541Y295229D01*
X183511Y295144D01*
X183484Y295058D01*
X183461Y294972D01*
X183442Y294884D01*
X183427Y294795D01*
X183415Y294706D01*
X183407Y294617D01*
X183403Y294527D01*
X183403Y294437D01*
X183407Y294347D01*
X183415Y294258D01*
X183427Y294169D01*
X183442Y294080D01*
X183461Y293992D01*
X183484Y293906D01*
X183511Y293820D01*
X183541Y293735D01*
X183575Y293652D01*
X183613Y293570D01*
X183654Y293490D01*
X183698Y293412D01*
X183746Y293336D01*
X183797Y293262D01*
X183851Y293190D01*
X183908Y293121D01*
X183968Y293054D01*
X184031Y292990D01*
X184096Y292928D01*
X184164Y292870D01*
X184235Y292814D01*
X184308Y292762D01*
X184383Y292712D01*
X184460Y292666D01*
X184539Y292624D01*
X184620Y292584D01*
X184702Y292549D01*
X184786Y292517D01*
X184871Y292488D01*
X184958Y292463D01*
X185045Y292442D01*
X185133Y292425D01*
X185222Y292411D01*
X185312Y292402D01*
X185401Y292396D01*
X185491Y292394D01*
X169206Y239402D02*
X162941Y239402D01*
X171817Y239141D02*
X172339Y239141D01*
X172339Y239663D01*
X171817Y239663D01*
X171817Y239141D01*
X169206Y243410D02*
X162941Y243410D01*
X169206Y243410D02*
X169206Y246020D01*
X169204Y246097D01*
X169198Y246173D01*
X169189Y246250D01*
X169176Y246326D01*
X169159Y246401D01*
X169139Y246475D01*
X169114Y246548D01*
X169087Y246619D01*
X169056Y246690D01*
X169021Y246758D01*
X168983Y246825D01*
X168942Y246890D01*
X168898Y246953D01*
X168851Y247013D01*
X168800Y247072D01*
X168747Y247127D01*
X168692Y247180D01*
X168633Y247231D01*
X168573Y247278D01*
X168510Y247322D01*
X168445Y247363D01*
X168378Y247401D01*
X168310Y247436D01*
X168239Y247467D01*
X168168Y247494D01*
X168095Y247519D01*
X168021Y247539D01*
X167946Y247556D01*
X167870Y247569D01*
X167793Y247578D01*
X167717Y247584D01*
X167640Y247586D01*
X162941Y247586D01*
X162941Y252144D02*
X170773Y252144D01*
X170850Y252146D01*
X170926Y252152D01*
X171003Y252161D01*
X171079Y252174D01*
X171154Y252191D01*
X171228Y252211D01*
X171301Y252236D01*
X171372Y252263D01*
X171443Y252294D01*
X171511Y252329D01*
X171578Y252367D01*
X171643Y252408D01*
X171706Y252452D01*
X171766Y252499D01*
X171825Y252550D01*
X171880Y252603D01*
X171933Y252658D01*
X171984Y252717D01*
X172031Y252777D01*
X172075Y252840D01*
X172116Y252905D01*
X172154Y252972D01*
X172189Y253040D01*
X172220Y253111D01*
X172247Y253182D01*
X172272Y253255D01*
X172292Y253329D01*
X172309Y253404D01*
X172322Y253480D01*
X172331Y253556D01*
X172337Y253633D01*
X172339Y253710D01*
X172339Y254232D01*
X169206Y254232D02*
X169206Y251100D01*
X167118Y256821D02*
X165029Y256821D01*
X167118Y256821D02*
X167208Y256823D01*
X167297Y256829D01*
X167387Y256838D01*
X167476Y256852D01*
X167564Y256869D01*
X167651Y256890D01*
X167738Y256915D01*
X167823Y256944D01*
X167907Y256976D01*
X167989Y257011D01*
X168070Y257051D01*
X168149Y257093D01*
X168226Y257139D01*
X168301Y257189D01*
X168374Y257241D01*
X168445Y257297D01*
X168513Y257355D01*
X168578Y257417D01*
X168641Y257481D01*
X168701Y257548D01*
X168758Y257617D01*
X168812Y257689D01*
X168863Y257763D01*
X168911Y257839D01*
X168955Y257917D01*
X168996Y257997D01*
X169034Y258079D01*
X169068Y258162D01*
X169098Y258247D01*
X169125Y258333D01*
X169148Y258419D01*
X169167Y258507D01*
X169182Y258596D01*
X169194Y258685D01*
X169202Y258774D01*
X169206Y258864D01*
X169206Y258954D01*
X169202Y259044D01*
X169194Y259133D01*
X169182Y259222D01*
X169167Y259311D01*
X169148Y259399D01*
X169125Y259485D01*
X169098Y259571D01*
X169068Y259656D01*
X169034Y259739D01*
X168996Y259821D01*
X168955Y259901D01*
X168911Y259979D01*
X168863Y260055D01*
X168812Y260129D01*
X168758Y260201D01*
X168701Y260270D01*
X168641Y260337D01*
X168578Y260401D01*
X168513Y260463D01*
X168445Y260521D01*
X168374Y260577D01*
X168301Y260629D01*
X168226Y260679D01*
X168149Y260725D01*
X168070Y260767D01*
X167989Y260807D01*
X167907Y260842D01*
X167823Y260874D01*
X167738Y260903D01*
X167651Y260928D01*
X167564Y260949D01*
X167476Y260966D01*
X167387Y260980D01*
X167297Y260989D01*
X167208Y260995D01*
X167118Y260997D01*
X167118Y260998D02*
X165029Y260998D01*
X165029Y260997D02*
X164939Y260995D01*
X164850Y260989D01*
X164760Y260980D01*
X164671Y260966D01*
X164583Y260949D01*
X164496Y260928D01*
X164409Y260903D01*
X164324Y260874D01*
X164240Y260842D01*
X164158Y260807D01*
X164077Y260767D01*
X163998Y260725D01*
X163921Y260679D01*
X163846Y260629D01*
X163773Y260577D01*
X163702Y260521D01*
X163634Y260463D01*
X163569Y260401D01*
X163506Y260337D01*
X163446Y260270D01*
X163389Y260201D01*
X163335Y260129D01*
X163284Y260055D01*
X163236Y259979D01*
X163192Y259901D01*
X163151Y259821D01*
X163113Y259739D01*
X163079Y259656D01*
X163049Y259571D01*
X163022Y259485D01*
X162999Y259399D01*
X162980Y259311D01*
X162965Y259222D01*
X162953Y259133D01*
X162945Y259044D01*
X162941Y258954D01*
X162941Y258864D01*
X162945Y258774D01*
X162953Y258685D01*
X162965Y258596D01*
X162980Y258507D01*
X162999Y258419D01*
X163022Y258333D01*
X163049Y258247D01*
X163079Y258162D01*
X163113Y258079D01*
X163151Y257997D01*
X163192Y257917D01*
X163236Y257839D01*
X163284Y257763D01*
X163335Y257689D01*
X163389Y257617D01*
X163446Y257548D01*
X163506Y257481D01*
X163569Y257417D01*
X163634Y257355D01*
X163702Y257297D01*
X163773Y257241D01*
X163846Y257189D01*
X163921Y257139D01*
X163998Y257093D01*
X164077Y257051D01*
X164158Y257011D01*
X164240Y256976D01*
X164324Y256944D01*
X164409Y256915D01*
X164496Y256890D01*
X164583Y256869D01*
X164671Y256852D01*
X164760Y256838D01*
X164850Y256829D01*
X164939Y256823D01*
X165029Y256821D01*
X170773Y269577D02*
X170773Y271143D01*
X170772Y269577D02*
X170770Y269500D01*
X170764Y269424D01*
X170755Y269347D01*
X170742Y269271D01*
X170725Y269196D01*
X170705Y269122D01*
X170680Y269049D01*
X170653Y268978D01*
X170622Y268907D01*
X170587Y268839D01*
X170549Y268772D01*
X170508Y268707D01*
X170464Y268644D01*
X170417Y268584D01*
X170366Y268525D01*
X170313Y268470D01*
X170258Y268417D01*
X170199Y268366D01*
X170139Y268319D01*
X170076Y268275D01*
X170011Y268234D01*
X169944Y268196D01*
X169876Y268161D01*
X169805Y268130D01*
X169734Y268103D01*
X169661Y268078D01*
X169587Y268058D01*
X169512Y268041D01*
X169436Y268028D01*
X169360Y268019D01*
X169283Y268013D01*
X169206Y268011D01*
X166074Y268011D01*
X165996Y268013D01*
X165918Y268019D01*
X165841Y268028D01*
X165764Y268042D01*
X165688Y268059D01*
X165612Y268081D01*
X165538Y268105D01*
X165466Y268134D01*
X165395Y268166D01*
X165325Y268202D01*
X165257Y268241D01*
X165192Y268283D01*
X165128Y268329D01*
X165067Y268377D01*
X165009Y268429D01*
X164953Y268484D01*
X164900Y268541D01*
X164850Y268601D01*
X164803Y268663D01*
X164759Y268727D01*
X164718Y268794D01*
X164680Y268863D01*
X164647Y268933D01*
X164616Y269005D01*
X164590Y269078D01*
X164567Y269153D01*
X164547Y269229D01*
X164532Y269305D01*
X164520Y269382D01*
X164512Y269460D01*
X164508Y269538D01*
X164508Y269616D01*
X164512Y269694D01*
X164520Y269772D01*
X164532Y269849D01*
X164547Y269925D01*
X164567Y270001D01*
X164590Y270076D01*
X164616Y270149D01*
X164647Y270221D01*
X164680Y270291D01*
X164718Y270360D01*
X164759Y270427D01*
X164803Y270491D01*
X164850Y270553D01*
X164900Y270613D01*
X164953Y270670D01*
X165009Y270725D01*
X165067Y270777D01*
X165128Y270825D01*
X165192Y270871D01*
X165257Y270913D01*
X165325Y270952D01*
X165395Y270988D01*
X165466Y271020D01*
X165538Y271049D01*
X165612Y271073D01*
X165688Y271095D01*
X165764Y271112D01*
X165841Y271126D01*
X165918Y271135D01*
X165996Y271141D01*
X166074Y271143D01*
X165813Y271143D02*
X170773Y271143D01*
X165813Y271144D02*
X165742Y271146D01*
X165672Y271152D01*
X165602Y271161D01*
X165532Y271175D01*
X165464Y271192D01*
X165396Y271212D01*
X165330Y271237D01*
X165265Y271265D01*
X165202Y271296D01*
X165140Y271331D01*
X165081Y271369D01*
X165023Y271410D01*
X164968Y271454D01*
X164916Y271502D01*
X164866Y271552D01*
X164818Y271604D01*
X164774Y271659D01*
X164733Y271717D01*
X164695Y271776D01*
X164660Y271838D01*
X164629Y271901D01*
X164601Y271966D01*
X164576Y272032D01*
X164556Y272100D01*
X164539Y272168D01*
X164525Y272238D01*
X164516Y272308D01*
X164510Y272378D01*
X164508Y272449D01*
X164510Y272520D01*
X164516Y272590D01*
X164525Y272660D01*
X164539Y272730D01*
X164556Y272798D01*
X164576Y272866D01*
X164601Y272932D01*
X164629Y272997D01*
X164660Y273060D01*
X164695Y273122D01*
X164733Y273181D01*
X164774Y273239D01*
X164818Y273294D01*
X164866Y273346D01*
X164916Y273396D01*
X164968Y273444D01*
X165023Y273488D01*
X165081Y273529D01*
X165140Y273567D01*
X165202Y273602D01*
X165265Y273633D01*
X165330Y273661D01*
X165396Y273686D01*
X165464Y273706D01*
X165532Y273723D01*
X165602Y273737D01*
X165672Y273746D01*
X165742Y273752D01*
X165813Y273754D01*
X169728Y273754D01*
X169855Y273752D01*
X169983Y273746D01*
X170110Y273737D01*
X170236Y273723D01*
X170363Y273706D01*
X170488Y273684D01*
X170613Y273659D01*
X170737Y273630D01*
X170860Y273598D01*
X170982Y273561D01*
X171103Y273521D01*
X171223Y273477D01*
X171341Y273430D01*
X171458Y273379D01*
X171573Y273324D01*
X171686Y273266D01*
X171798Y273205D01*
X171908Y273140D01*
X172015Y273072D01*
X172121Y273001D01*
X172224Y272926D01*
X172325Y272848D01*
X172424Y272768D01*
X172520Y272684D01*
X172613Y272597D01*
X172704Y272508D01*
X172792Y272416D01*
X172877Y272321D01*
X172959Y272224D01*
X173039Y272124D01*
X173115Y272022D01*
X173188Y271917D01*
X173257Y271811D01*
X173324Y271702D01*
X173387Y271592D01*
X173447Y271479D01*
X173503Y271365D01*
X173556Y271249D01*
X173605Y271131D01*
X173651Y271012D01*
X173693Y270892D01*
X173731Y270770D01*
X173765Y270648D01*
X173796Y270524D01*
X173823Y270400D01*
X173846Y270274D01*
X173866Y270149D01*
X173881Y270022D01*
X173893Y269895D01*
X173901Y269768D01*
X173905Y269641D01*
X173905Y269513D01*
X173901Y269386D01*
X173893Y269259D01*
X173881Y269132D01*
X173866Y269005D01*
X173846Y268880D01*
X173823Y268754D01*
X173796Y268630D01*
X173765Y268506D01*
X173731Y268384D01*
X173693Y268262D01*
X173651Y268142D01*
X173605Y268023D01*
X173556Y267905D01*
X173503Y267789D01*
X173447Y267675D01*
X173387Y267562D01*
X173324Y267452D01*
X173257Y267343D01*
X173188Y267237D01*
X173115Y267132D01*
X173039Y267030D01*
X172959Y266930D01*
X172877Y266833D01*
X172792Y266738D01*
X172704Y266646D01*
X172613Y266557D01*
X172520Y266470D01*
X172424Y266386D01*
X172325Y266306D01*
X172224Y266228D01*
X172121Y266153D01*
X172015Y266082D01*
X171908Y266014D01*
X171798Y265949D01*
X171686Y265888D01*
X171573Y265830D01*
X171458Y265775D01*
X171341Y265724D01*
X171223Y265677D01*
X171103Y265633D01*
X170982Y265593D01*
X170860Y265556D01*
X170737Y265524D01*
X170613Y265495D01*
X170488Y265470D01*
X170363Y265448D01*
X170236Y265431D01*
X170110Y265417D01*
X169983Y265408D01*
X169855Y265402D01*
X169728Y265400D01*
X165291Y265400D01*
X165168Y265402D01*
X165046Y265408D01*
X164923Y265417D01*
X164801Y265431D01*
X164679Y265448D01*
X164558Y265469D01*
X164438Y265494D01*
X164319Y265522D01*
X164200Y265555D01*
X164083Y265591D01*
X163967Y265630D01*
X163852Y265673D01*
X163738Y265720D01*
X163626Y265771D01*
X163516Y265824D01*
X163407Y265882D01*
X163300Y265942D01*
X163195Y266006D01*
X163093Y266073D01*
X162992Y266144D01*
X162894Y266217D01*
X162798Y266294D01*
X162704Y266373D01*
X162613Y266456D01*
X162524Y266541D01*
X162439Y266629D01*
X162356Y266719D01*
X162276Y266812D01*
X162199Y266908D01*
X162124Y267006D01*
X162053Y267106D01*
X161986Y267208D01*
X161921Y267313D01*
X161860Y267419D01*
X161802Y267528D01*
X161747Y267638D01*
X161696Y267749D01*
X161649Y267862D01*
X161605Y267977D01*
X161564Y268093D01*
X161528Y268210D01*
X161495Y268329D01*
X161465Y268448D01*
X161440Y268568D01*
X161418Y268689D01*
X161400Y268810D01*
X161386Y268932D01*
X161375Y269055D01*
X162941Y282288D02*
X172339Y282288D01*
X162941Y282288D02*
X162941Y279677D01*
X162943Y279600D01*
X162949Y279524D01*
X162958Y279447D01*
X162971Y279371D01*
X162988Y279296D01*
X163008Y279222D01*
X163033Y279149D01*
X163060Y279078D01*
X163091Y279007D01*
X163126Y278939D01*
X163164Y278872D01*
X163205Y278807D01*
X163249Y278744D01*
X163296Y278684D01*
X163347Y278625D01*
X163400Y278570D01*
X163455Y278517D01*
X163514Y278466D01*
X163574Y278419D01*
X163637Y278375D01*
X163702Y278334D01*
X163769Y278296D01*
X163837Y278261D01*
X163908Y278230D01*
X163979Y278203D01*
X164052Y278178D01*
X164126Y278158D01*
X164201Y278141D01*
X164277Y278128D01*
X164354Y278119D01*
X164430Y278113D01*
X164507Y278111D01*
X167640Y278111D01*
X167717Y278113D01*
X167793Y278119D01*
X167870Y278128D01*
X167946Y278141D01*
X168021Y278158D01*
X168095Y278178D01*
X168168Y278203D01*
X168239Y278230D01*
X168310Y278261D01*
X168378Y278296D01*
X168445Y278334D01*
X168510Y278375D01*
X168573Y278419D01*
X168633Y278466D01*
X168692Y278517D01*
X168747Y278570D01*
X168800Y278625D01*
X168851Y278684D01*
X168898Y278744D01*
X168942Y278807D01*
X168983Y278872D01*
X169021Y278939D01*
X169056Y279007D01*
X169087Y279078D01*
X169114Y279149D01*
X169139Y279222D01*
X169159Y279296D01*
X169176Y279371D01*
X169189Y279447D01*
X169198Y279524D01*
X169204Y279600D01*
X169206Y279677D01*
X169206Y282288D01*
X162941Y287953D02*
X162941Y290563D01*
X162941Y287953D02*
X162943Y287876D01*
X162949Y287800D01*
X162958Y287723D01*
X162971Y287647D01*
X162988Y287572D01*
X163008Y287498D01*
X163033Y287425D01*
X163060Y287354D01*
X163091Y287283D01*
X163126Y287215D01*
X163164Y287148D01*
X163205Y287083D01*
X163249Y287020D01*
X163296Y286960D01*
X163347Y286901D01*
X163400Y286846D01*
X163455Y286793D01*
X163514Y286742D01*
X163574Y286695D01*
X163637Y286651D01*
X163702Y286610D01*
X163769Y286572D01*
X163837Y286537D01*
X163908Y286506D01*
X163979Y286479D01*
X164052Y286454D01*
X164126Y286434D01*
X164201Y286417D01*
X164277Y286404D01*
X164354Y286395D01*
X164430Y286389D01*
X164507Y286387D01*
X164507Y286386D02*
X167118Y286386D01*
X167118Y286387D02*
X167208Y286389D01*
X167297Y286395D01*
X167387Y286404D01*
X167476Y286418D01*
X167564Y286435D01*
X167651Y286456D01*
X167738Y286481D01*
X167823Y286510D01*
X167907Y286542D01*
X167989Y286577D01*
X168070Y286617D01*
X168149Y286659D01*
X168226Y286705D01*
X168301Y286755D01*
X168374Y286807D01*
X168445Y286863D01*
X168513Y286921D01*
X168578Y286983D01*
X168641Y287047D01*
X168701Y287114D01*
X168758Y287183D01*
X168812Y287255D01*
X168863Y287329D01*
X168911Y287405D01*
X168955Y287483D01*
X168996Y287563D01*
X169034Y287645D01*
X169068Y287728D01*
X169098Y287813D01*
X169125Y287899D01*
X169148Y287985D01*
X169167Y288073D01*
X169182Y288162D01*
X169194Y288251D01*
X169202Y288340D01*
X169206Y288430D01*
X169206Y288520D01*
X169202Y288610D01*
X169194Y288699D01*
X169182Y288788D01*
X169167Y288877D01*
X169148Y288965D01*
X169125Y289051D01*
X169098Y289137D01*
X169068Y289222D01*
X169034Y289305D01*
X168996Y289387D01*
X168955Y289467D01*
X168911Y289545D01*
X168863Y289621D01*
X168812Y289695D01*
X168758Y289767D01*
X168701Y289836D01*
X168641Y289903D01*
X168578Y289967D01*
X168513Y290029D01*
X168445Y290087D01*
X168374Y290143D01*
X168301Y290195D01*
X168226Y290245D01*
X168149Y290291D01*
X168070Y290333D01*
X167989Y290373D01*
X167907Y290408D01*
X167823Y290440D01*
X167738Y290469D01*
X167651Y290494D01*
X167564Y290515D01*
X167476Y290532D01*
X167387Y290546D01*
X167297Y290555D01*
X167208Y290561D01*
X167118Y290563D01*
X166074Y290563D01*
X166074Y286386D01*
X162941Y295877D02*
X162941Y298488D01*
X162941Y295877D02*
X162943Y295800D01*
X162949Y295724D01*
X162958Y295647D01*
X162971Y295571D01*
X162988Y295496D01*
X163008Y295422D01*
X163033Y295349D01*
X163060Y295278D01*
X163091Y295207D01*
X163126Y295139D01*
X163164Y295072D01*
X163205Y295007D01*
X163249Y294944D01*
X163296Y294884D01*
X163347Y294825D01*
X163400Y294770D01*
X163455Y294717D01*
X163514Y294666D01*
X163574Y294619D01*
X163637Y294575D01*
X163702Y294534D01*
X163769Y294496D01*
X163837Y294461D01*
X163908Y294430D01*
X163979Y294403D01*
X164052Y294378D01*
X164126Y294358D01*
X164201Y294341D01*
X164277Y294328D01*
X164354Y294319D01*
X164430Y294313D01*
X164507Y294311D01*
X167118Y294311D01*
X167208Y294313D01*
X167297Y294319D01*
X167387Y294328D01*
X167476Y294342D01*
X167564Y294359D01*
X167651Y294380D01*
X167738Y294405D01*
X167823Y294434D01*
X167907Y294466D01*
X167989Y294501D01*
X168070Y294541D01*
X168149Y294583D01*
X168226Y294629D01*
X168301Y294679D01*
X168374Y294731D01*
X168445Y294787D01*
X168513Y294845D01*
X168578Y294907D01*
X168641Y294971D01*
X168701Y295038D01*
X168758Y295107D01*
X168812Y295179D01*
X168863Y295253D01*
X168911Y295329D01*
X168955Y295407D01*
X168996Y295487D01*
X169034Y295569D01*
X169068Y295652D01*
X169098Y295737D01*
X169125Y295823D01*
X169148Y295909D01*
X169167Y295997D01*
X169182Y296086D01*
X169194Y296175D01*
X169202Y296264D01*
X169206Y296354D01*
X169206Y296444D01*
X169202Y296534D01*
X169194Y296623D01*
X169182Y296712D01*
X169167Y296801D01*
X169148Y296889D01*
X169125Y296975D01*
X169098Y297061D01*
X169068Y297146D01*
X169034Y297229D01*
X168996Y297311D01*
X168955Y297391D01*
X168911Y297469D01*
X168863Y297545D01*
X168812Y297619D01*
X168758Y297691D01*
X168701Y297760D01*
X168641Y297827D01*
X168578Y297891D01*
X168513Y297953D01*
X168445Y298011D01*
X168374Y298067D01*
X168301Y298119D01*
X168226Y298169D01*
X168149Y298215D01*
X168070Y298257D01*
X167989Y298297D01*
X167907Y298332D01*
X167823Y298364D01*
X167738Y298393D01*
X167651Y298418D01*
X167564Y298439D01*
X167476Y298456D01*
X167387Y298470D01*
X167297Y298479D01*
X167208Y298485D01*
X167118Y298487D01*
X167118Y298488D02*
X166074Y298488D01*
X166074Y294311D01*
X169206Y302586D02*
X159808Y302586D01*
X169206Y302586D02*
X169206Y305197D01*
X169204Y305274D01*
X169198Y305350D01*
X169189Y305427D01*
X169176Y305503D01*
X169159Y305578D01*
X169139Y305652D01*
X169114Y305725D01*
X169087Y305796D01*
X169056Y305867D01*
X169021Y305935D01*
X168983Y306002D01*
X168942Y306067D01*
X168898Y306130D01*
X168851Y306190D01*
X168800Y306249D01*
X168747Y306304D01*
X168692Y306357D01*
X168633Y306408D01*
X168573Y306455D01*
X168510Y306499D01*
X168445Y306540D01*
X168378Y306578D01*
X168310Y306613D01*
X168239Y306644D01*
X168168Y306671D01*
X168095Y306696D01*
X168021Y306716D01*
X167946Y306733D01*
X167870Y306746D01*
X167793Y306755D01*
X167717Y306761D01*
X167640Y306763D01*
X164507Y306763D01*
X164430Y306761D01*
X164354Y306755D01*
X164277Y306746D01*
X164201Y306733D01*
X164126Y306716D01*
X164052Y306696D01*
X163979Y306671D01*
X163908Y306644D01*
X163837Y306613D01*
X163769Y306578D01*
X163702Y306540D01*
X163637Y306499D01*
X163574Y306455D01*
X163514Y306408D01*
X163455Y306357D01*
X163400Y306304D01*
X163347Y306249D01*
X163296Y306190D01*
X163249Y306130D01*
X163205Y306067D01*
X163164Y306002D01*
X163126Y305935D01*
X163091Y305867D01*
X163060Y305796D01*
X163033Y305725D01*
X163008Y305652D01*
X162988Y305578D01*
X162971Y305503D01*
X162958Y305427D01*
X162949Y305350D01*
X162943Y305274D01*
X162941Y305197D01*
X162941Y302586D01*
X162941Y311902D02*
X169206Y310335D01*
X167118Y313468D02*
X162941Y311902D01*
X162941Y315034D02*
X167118Y313468D01*
X169206Y316601D02*
X162941Y315034D01*
X162941Y320174D02*
X169206Y320174D01*
X171817Y319913D02*
X172339Y319913D01*
X172339Y320435D01*
X171817Y320435D01*
X171817Y319913D01*
X172339Y324002D02*
X164507Y324002D01*
X164430Y324004D01*
X164354Y324010D01*
X164277Y324019D01*
X164201Y324032D01*
X164126Y324049D01*
X164052Y324069D01*
X163979Y324094D01*
X163908Y324121D01*
X163837Y324152D01*
X163769Y324187D01*
X163702Y324225D01*
X163637Y324266D01*
X163574Y324310D01*
X163514Y324357D01*
X163455Y324408D01*
X163400Y324461D01*
X163347Y324516D01*
X163296Y324575D01*
X163249Y324635D01*
X163205Y324698D01*
X163164Y324763D01*
X163126Y324830D01*
X163091Y324898D01*
X163060Y324969D01*
X163033Y325040D01*
X163008Y325113D01*
X162988Y325187D01*
X162971Y325262D01*
X162958Y325338D01*
X162949Y325415D01*
X162943Y325491D01*
X162941Y325568D01*
X164507Y328879D02*
X172339Y328879D01*
X164507Y328879D02*
X164430Y328881D01*
X164354Y328887D01*
X164277Y328896D01*
X164201Y328909D01*
X164126Y328926D01*
X164052Y328946D01*
X163979Y328971D01*
X163908Y328998D01*
X163837Y329029D01*
X163769Y329064D01*
X163702Y329102D01*
X163637Y329143D01*
X163574Y329187D01*
X163514Y329234D01*
X163455Y329285D01*
X163400Y329338D01*
X163347Y329393D01*
X163296Y329452D01*
X163249Y329512D01*
X163205Y329575D01*
X163164Y329640D01*
X163126Y329707D01*
X163091Y329775D01*
X163060Y329846D01*
X163033Y329917D01*
X163008Y329990D01*
X162988Y330064D01*
X162971Y330139D01*
X162958Y330215D01*
X162949Y330292D01*
X162943Y330368D01*
X162941Y330445D01*
X162941Y333324D02*
X163463Y333324D01*
X163463Y333846D01*
X162941Y333846D01*
X162941Y333324D01*
X165029Y337287D02*
X167118Y337287D01*
X167118Y337288D02*
X167208Y337290D01*
X167297Y337296D01*
X167387Y337305D01*
X167476Y337319D01*
X167564Y337336D01*
X167651Y337357D01*
X167738Y337382D01*
X167823Y337411D01*
X167907Y337443D01*
X167989Y337478D01*
X168070Y337518D01*
X168149Y337560D01*
X168226Y337606D01*
X168301Y337656D01*
X168374Y337708D01*
X168445Y337764D01*
X168513Y337822D01*
X168578Y337884D01*
X168641Y337948D01*
X168701Y338015D01*
X168758Y338084D01*
X168812Y338156D01*
X168863Y338230D01*
X168911Y338306D01*
X168955Y338384D01*
X168996Y338464D01*
X169034Y338546D01*
X169068Y338629D01*
X169098Y338714D01*
X169125Y338800D01*
X169148Y338886D01*
X169167Y338974D01*
X169182Y339063D01*
X169194Y339152D01*
X169202Y339241D01*
X169206Y339331D01*
X169206Y339421D01*
X169202Y339511D01*
X169194Y339600D01*
X169182Y339689D01*
X169167Y339778D01*
X169148Y339866D01*
X169125Y339952D01*
X169098Y340038D01*
X169068Y340123D01*
X169034Y340206D01*
X168996Y340288D01*
X168955Y340368D01*
X168911Y340446D01*
X168863Y340522D01*
X168812Y340596D01*
X168758Y340668D01*
X168701Y340737D01*
X168641Y340804D01*
X168578Y340868D01*
X168513Y340930D01*
X168445Y340988D01*
X168374Y341044D01*
X168301Y341096D01*
X168226Y341146D01*
X168149Y341192D01*
X168070Y341234D01*
X167989Y341274D01*
X167907Y341309D01*
X167823Y341341D01*
X167738Y341370D01*
X167651Y341395D01*
X167564Y341416D01*
X167476Y341433D01*
X167387Y341447D01*
X167297Y341456D01*
X167208Y341462D01*
X167118Y341464D01*
X165029Y341464D01*
X164939Y341462D01*
X164850Y341456D01*
X164760Y341447D01*
X164671Y341433D01*
X164583Y341416D01*
X164496Y341395D01*
X164409Y341370D01*
X164324Y341341D01*
X164240Y341309D01*
X164158Y341274D01*
X164077Y341234D01*
X163998Y341192D01*
X163921Y341146D01*
X163846Y341096D01*
X163773Y341044D01*
X163702Y340988D01*
X163634Y340930D01*
X163569Y340868D01*
X163506Y340804D01*
X163446Y340737D01*
X163389Y340668D01*
X163335Y340596D01*
X163284Y340522D01*
X163236Y340446D01*
X163192Y340368D01*
X163151Y340288D01*
X163113Y340206D01*
X163079Y340123D01*
X163049Y340038D01*
X163022Y339952D01*
X162999Y339866D01*
X162980Y339778D01*
X162965Y339689D01*
X162953Y339600D01*
X162945Y339511D01*
X162941Y339421D01*
X162941Y339331D01*
X162945Y339241D01*
X162953Y339152D01*
X162965Y339063D01*
X162980Y338974D01*
X162999Y338886D01*
X163022Y338800D01*
X163049Y338714D01*
X163079Y338629D01*
X163113Y338546D01*
X163151Y338464D01*
X163192Y338384D01*
X163236Y338306D01*
X163284Y338230D01*
X163335Y338156D01*
X163389Y338084D01*
X163446Y338015D01*
X163506Y337948D01*
X163569Y337884D01*
X163634Y337822D01*
X163702Y337764D01*
X163773Y337708D01*
X163846Y337656D01*
X163921Y337606D01*
X163998Y337560D01*
X164077Y337518D01*
X164158Y337478D01*
X164240Y337443D01*
X164324Y337411D01*
X164409Y337382D01*
X164496Y337357D01*
X164583Y337336D01*
X164671Y337319D01*
X164760Y337305D01*
X164850Y337296D01*
X164939Y337290D01*
X165029Y337288D01*
X162941Y345569D02*
X169206Y345569D01*
X169206Y348701D01*
X168162Y348701D01*
X162941Y353134D02*
X162941Y355744D01*
X162941Y353134D02*
X162943Y353057D01*
X162949Y352981D01*
X162958Y352904D01*
X162971Y352828D01*
X162988Y352753D01*
X163008Y352679D01*
X163033Y352606D01*
X163060Y352535D01*
X163091Y352464D01*
X163126Y352396D01*
X163164Y352329D01*
X163205Y352264D01*
X163249Y352201D01*
X163296Y352141D01*
X163347Y352082D01*
X163400Y352027D01*
X163455Y351974D01*
X163514Y351923D01*
X163574Y351876D01*
X163637Y351832D01*
X163702Y351791D01*
X163769Y351753D01*
X163837Y351718D01*
X163908Y351687D01*
X163979Y351660D01*
X164052Y351635D01*
X164126Y351615D01*
X164201Y351598D01*
X164277Y351585D01*
X164354Y351576D01*
X164430Y351570D01*
X164507Y351568D01*
X164507Y351567D02*
X167640Y351567D01*
X167640Y351568D02*
X167717Y351570D01*
X167793Y351576D01*
X167870Y351585D01*
X167946Y351598D01*
X168021Y351615D01*
X168095Y351635D01*
X168168Y351660D01*
X168239Y351687D01*
X168310Y351718D01*
X168378Y351753D01*
X168445Y351791D01*
X168510Y351832D01*
X168573Y351876D01*
X168633Y351923D01*
X168692Y351974D01*
X168747Y352027D01*
X168800Y352082D01*
X168851Y352141D01*
X168898Y352201D01*
X168942Y352264D01*
X168983Y352329D01*
X169021Y352396D01*
X169056Y352464D01*
X169087Y352535D01*
X169114Y352606D01*
X169139Y352679D01*
X169159Y352753D01*
X169176Y352828D01*
X169189Y352904D01*
X169198Y352981D01*
X169204Y353057D01*
X169206Y353134D01*
X169206Y355744D01*
X161375Y355744D01*
X161298Y355742D01*
X161222Y355736D01*
X161145Y355727D01*
X161069Y355714D01*
X160994Y355697D01*
X160920Y355677D01*
X160847Y355652D01*
X160776Y355625D01*
X160705Y355594D01*
X160637Y355559D01*
X160570Y355521D01*
X160505Y355480D01*
X160442Y355436D01*
X160382Y355389D01*
X160323Y355338D01*
X160268Y355285D01*
X160215Y355230D01*
X160164Y355171D01*
X160117Y355111D01*
X160073Y355048D01*
X160032Y354983D01*
X159994Y354916D01*
X159959Y354848D01*
X159928Y354777D01*
X159901Y354706D01*
X159876Y354633D01*
X159856Y354559D01*
X159839Y354484D01*
X159826Y354408D01*
X159817Y354332D01*
X159811Y354255D01*
X159809Y354178D01*
X159808Y354178D02*
X159808Y352089D01*
D11*
X213868Y384104D02*
X222673Y384104D01*
X218271Y379702D02*
X218271Y388507D01*
X213868Y343464D02*
X222673Y343464D01*
X379307Y467924D02*
X388112Y467924D01*
X383709Y463522D02*
X383709Y472327D01*
X442807Y467924D02*
X451612Y467924D01*
X426212Y471593D02*
X421809Y471593D01*
X424744Y475996D02*
X424744Y464989D01*
X424742Y464898D01*
X424736Y464807D01*
X424727Y464717D01*
X424714Y464627D01*
X424697Y464537D01*
X424677Y464449D01*
X424652Y464361D01*
X424625Y464274D01*
X424593Y464189D01*
X424559Y464105D01*
X424520Y464022D01*
X424479Y463941D01*
X424434Y463862D01*
X424386Y463785D01*
X424334Y463710D01*
X424280Y463637D01*
X424223Y463566D01*
X424162Y463498D01*
X424099Y463433D01*
X424034Y463370D01*
X423966Y463309D01*
X423895Y463252D01*
X423822Y463198D01*
X423747Y463146D01*
X423670Y463098D01*
X423591Y463053D01*
X423510Y463012D01*
X423427Y462973D01*
X423343Y462939D01*
X423258Y462907D01*
X423171Y462880D01*
X423083Y462855D01*
X422995Y462835D01*
X422905Y462818D01*
X422815Y462805D01*
X422725Y462796D01*
X422634Y462790D01*
X422543Y462788D01*
X421809Y462788D01*
X417460Y462788D02*
X411590Y471593D01*
X417460Y471593D02*
X411590Y462788D01*
X482092Y462788D02*
X482092Y471593D01*
X477689Y471593D01*
X477689Y470126D01*
X474055Y462788D02*
X468185Y471593D01*
X474055Y471593D02*
X468185Y462788D01*
D10*
X672719Y490601D02*
X672719Y499999D01*
X670108Y499999D01*
X670007Y499997D01*
X669906Y499991D01*
X669805Y499981D01*
X669705Y499968D01*
X669605Y499950D01*
X669506Y499929D01*
X669408Y499903D01*
X669311Y499874D01*
X669215Y499842D01*
X669121Y499805D01*
X669028Y499765D01*
X668936Y499721D01*
X668847Y499674D01*
X668759Y499623D01*
X668673Y499569D01*
X668590Y499512D01*
X668508Y499452D01*
X668430Y499388D01*
X668353Y499322D01*
X668280Y499252D01*
X668209Y499180D01*
X668141Y499105D01*
X668076Y499027D01*
X668014Y498947D01*
X667955Y498865D01*
X667899Y498780D01*
X667847Y498694D01*
X667798Y498605D01*
X667752Y498514D01*
X667711Y498422D01*
X667672Y498328D01*
X667638Y498233D01*
X667607Y498137D01*
X667580Y498039D01*
X667556Y497941D01*
X667537Y497841D01*
X667521Y497741D01*
X667509Y497641D01*
X667501Y497540D01*
X667497Y497439D01*
X667497Y497337D01*
X667501Y497236D01*
X667509Y497135D01*
X667521Y497035D01*
X667537Y496935D01*
X667556Y496835D01*
X667580Y496737D01*
X667607Y496639D01*
X667638Y496543D01*
X667672Y496448D01*
X667711Y496354D01*
X667752Y496262D01*
X667798Y496171D01*
X667847Y496083D01*
X667899Y495996D01*
X667955Y495911D01*
X668014Y495829D01*
X668076Y495749D01*
X668141Y495671D01*
X668209Y495596D01*
X668280Y495524D01*
X668353Y495454D01*
X668430Y495388D01*
X668508Y495324D01*
X668590Y495264D01*
X668673Y495207D01*
X668759Y495153D01*
X668847Y495102D01*
X668936Y495055D01*
X669028Y495011D01*
X669121Y494971D01*
X669215Y494934D01*
X669311Y494902D01*
X669408Y494873D01*
X669506Y494847D01*
X669605Y494826D01*
X669705Y494808D01*
X669805Y494795D01*
X669906Y494785D01*
X670007Y494779D01*
X670108Y494777D01*
X670108Y494778D02*
X672719Y494778D01*
X669586Y494778D02*
X667498Y490601D01*
X660804Y490601D02*
X660715Y490603D01*
X660627Y490609D01*
X660539Y490618D01*
X660451Y490631D01*
X660364Y490648D01*
X660278Y490668D01*
X660193Y490693D01*
X660108Y490720D01*
X660025Y490752D01*
X659944Y490786D01*
X659864Y490825D01*
X659786Y490866D01*
X659709Y490911D01*
X659635Y490959D01*
X659562Y491010D01*
X659492Y491064D01*
X659425Y491122D01*
X659359Y491182D01*
X659297Y491244D01*
X659237Y491310D01*
X659179Y491377D01*
X659125Y491447D01*
X659074Y491520D01*
X659026Y491594D01*
X658981Y491671D01*
X658940Y491749D01*
X658901Y491829D01*
X658867Y491910D01*
X658835Y491993D01*
X658808Y492078D01*
X658783Y492163D01*
X658763Y492249D01*
X658746Y492336D01*
X658733Y492424D01*
X658724Y492512D01*
X658718Y492600D01*
X658716Y492689D01*
X660804Y490601D02*
X660933Y490603D01*
X661062Y490609D01*
X661191Y490618D01*
X661319Y490631D01*
X661447Y490648D01*
X661574Y490669D01*
X661701Y490693D01*
X661827Y490721D01*
X661952Y490753D01*
X662076Y490788D01*
X662199Y490827D01*
X662321Y490870D01*
X662441Y490916D01*
X662560Y490966D01*
X662678Y491019D01*
X662794Y491075D01*
X662908Y491135D01*
X663021Y491198D01*
X663131Y491265D01*
X663240Y491334D01*
X663346Y491407D01*
X663451Y491483D01*
X663553Y491562D01*
X663653Y491644D01*
X663750Y491728D01*
X663845Y491816D01*
X663937Y491906D01*
X663675Y497911D02*
X663673Y498000D01*
X663667Y498088D01*
X663658Y498176D01*
X663645Y498264D01*
X663628Y498351D01*
X663608Y498437D01*
X663583Y498522D01*
X663556Y498607D01*
X663524Y498690D01*
X663490Y498771D01*
X663451Y498851D01*
X663410Y498929D01*
X663365Y499006D01*
X663317Y499080D01*
X663266Y499153D01*
X663212Y499223D01*
X663154Y499290D01*
X663094Y499356D01*
X663032Y499418D01*
X662966Y499478D01*
X662899Y499536D01*
X662829Y499590D01*
X662756Y499641D01*
X662682Y499689D01*
X662605Y499734D01*
X662527Y499775D01*
X662447Y499814D01*
X662366Y499848D01*
X662283Y499880D01*
X662198Y499907D01*
X662113Y499932D01*
X662027Y499952D01*
X661940Y499969D01*
X661852Y499982D01*
X661764Y499991D01*
X661676Y499997D01*
X661587Y499999D01*
X661467Y499997D01*
X661347Y499992D01*
X661228Y499982D01*
X661108Y499970D01*
X660989Y499953D01*
X660871Y499933D01*
X660753Y499909D01*
X660637Y499882D01*
X660521Y499851D01*
X660406Y499817D01*
X660292Y499779D01*
X660179Y499737D01*
X660068Y499692D01*
X659958Y499644D01*
X659850Y499593D01*
X659743Y499538D01*
X659638Y499480D01*
X659535Y499418D01*
X659434Y499354D01*
X659334Y499286D01*
X659237Y499216D01*
X662632Y496084D02*
X662710Y496132D01*
X662786Y496184D01*
X662859Y496238D01*
X662930Y496296D01*
X662999Y496357D01*
X663065Y496421D01*
X663128Y496488D01*
X663188Y496557D01*
X663245Y496629D01*
X663299Y496703D01*
X663349Y496780D01*
X663397Y496859D01*
X663440Y496939D01*
X663481Y497022D01*
X663517Y497106D01*
X663550Y497191D01*
X663579Y497278D01*
X663605Y497367D01*
X663627Y497456D01*
X663644Y497546D01*
X663658Y497636D01*
X663668Y497728D01*
X663674Y497819D01*
X663676Y497911D01*
X659760Y494516D02*
X659682Y494468D01*
X659606Y494416D01*
X659533Y494362D01*
X659462Y494304D01*
X659393Y494243D01*
X659327Y494179D01*
X659264Y494112D01*
X659204Y494043D01*
X659147Y493971D01*
X659093Y493897D01*
X659043Y493820D01*
X658995Y493741D01*
X658952Y493661D01*
X658911Y493578D01*
X658875Y493494D01*
X658842Y493409D01*
X658813Y493322D01*
X658787Y493233D01*
X658765Y493144D01*
X658748Y493054D01*
X658734Y492964D01*
X658724Y492872D01*
X658718Y492781D01*
X658716Y492689D01*
X659760Y494517D02*
X662632Y496083D01*
X653097Y499999D02*
X653097Y490601D01*
X655707Y499999D02*
X650486Y499999D01*
D12*
X795020Y556260D03*
D13*
X616204Y535940D02*
X602996Y535940D01*
X602996Y510540D02*
X616204Y510540D01*
D14*
X264478Y330200D02*
X243523Y330200D01*
X243523Y381000D02*
X264478Y381000D01*
D15*
X652780Y342900D02*
X668020Y342900D01*
X668020Y368300D02*
X652780Y368300D01*
X652780Y393700D02*
X668020Y393700D01*
X668020Y419100D02*
X652780Y419100D01*
X652780Y444500D02*
X668020Y444500D01*
X668020Y469900D02*
X652780Y469900D01*
X779780Y495300D02*
X795020Y495300D01*
X795020Y469900D02*
X779780Y469900D01*
X779780Y444500D02*
X795020Y444500D01*
X795020Y419100D02*
X779780Y419100D01*
X779780Y393700D02*
X795020Y393700D01*
X795020Y368300D02*
X779780Y368300D01*
X779780Y342900D02*
X795020Y342900D01*
X330200Y500380D02*
X330200Y515620D01*
X304800Y515620D02*
X304800Y500380D01*
X279400Y500380D02*
X279400Y515620D01*
X254000Y515620D02*
X254000Y500380D01*
X330200Y543560D02*
X330200Y558800D01*
X304800Y558800D02*
X304800Y543560D01*
X279400Y543560D02*
X279400Y558800D01*
X254000Y558800D02*
X254000Y543560D01*
D13*
X485140Y552196D02*
X485140Y565404D01*
X510540Y565404D02*
X510540Y552196D01*
X431800Y524764D02*
X431800Y511556D01*
X457200Y511556D02*
X457200Y524764D01*
D15*
X396240Y441960D02*
X396240Y426720D01*
X421640Y426720D02*
X421640Y441960D01*
X447040Y441960D02*
X447040Y426720D01*
X472440Y426720D02*
X472440Y441960D01*
D16*
X197612Y396240D02*
X183388Y396240D01*
X183388Y421640D02*
X197612Y421640D01*
X197612Y447040D02*
X183388Y447040D01*
D17*
X576580Y454660D03*
X170180Y378460D03*
X292100Y327660D03*
X375920Y561340D03*
X635000Y490220D03*
X739140Y553720D03*
X353060Y403860D03*
X533400Y317500D03*
D18*
X464820Y248920D01*
X330200Y248920D01*
D17*
X330200Y248920D03*
X551180Y261620D03*
D18*
X535940Y276860D01*
X535940Y299720D01*
D17*
X535940Y299720D03*
X688340Y350520D03*
D18*
X701040Y363220D01*
D17*
X701040Y462280D03*
D18*
X701040Y363220D01*
D17*
X363220Y284480D03*
D18*
X292100Y355600D01*
X292100Y416560D01*
X254000Y454660D01*
X254000Y457200D02*
X254000Y508000D01*
D17*
X480060Y510540D03*
D19*
X492760Y510540D01*
X510540Y528320D02*
X510540Y558800D01*
X510540Y528320D02*
X492760Y510540D01*
D18*
X254000Y457200D02*
X254000Y454660D01*
X254000Y457200D02*
X243840Y447040D01*
X190500Y447040D01*
D17*
X640080Y327660D03*
D18*
X576580Y325120D02*
X553720Y347980D01*
X426720Y347980D01*
X363220Y284480D01*
X576580Y325120D02*
X637540Y325120D01*
X640080Y327660D01*
D17*
X530860Y406400D03*
D18*
X538480Y398780D01*
X629920Y469900D02*
X660400Y469900D01*
X558800Y398780D02*
X538480Y398780D01*
X558800Y398780D02*
X629920Y469900D01*
D17*
X617220Y302260D03*
D18*
X660400Y302260D01*
X746760Y388620D02*
X746760Y485140D01*
D17*
X746760Y485140D03*
D18*
X746760Y388620D02*
X660400Y302260D01*
D17*
X467360Y401320D03*
D18*
X370840Y401320D01*
X317500Y454660D02*
X292100Y454660D01*
D17*
X292100Y454660D03*
D18*
X317500Y454660D02*
X370840Y401320D01*
D17*
X553720Y302260D03*
D18*
X574040Y281940D01*
X695960Y281940D01*
X698500Y281940D01*
D17*
X695960Y281940D03*
M02*
