G04 EAGLE Gerber RS-274X export*
G75*
%MOMM*%
%FSLAX34Y34*%
%LPD*%
%INSilkscreen Top*%
%IPPOS*%
%AMOC8*
5,1,8,0,0,1.08239X$1,22.5*%
G01*
%ADD10C,0.101600*%
%ADD11C,0.203200*%
%ADD12R,0.609600X1.574800*%
%ADD13C,0.152400*%
%ADD14C,0.076200*%
%ADD15C,0.254000*%
%ADD16C,0.050800*%
%ADD17C,0.127000*%


D10*
X300228Y317726D02*
X303897Y317726D01*
X304017Y317724D01*
X304137Y317718D01*
X304257Y317708D01*
X304376Y317695D01*
X304495Y317677D01*
X304613Y317656D01*
X304730Y317630D01*
X304847Y317601D01*
X304962Y317568D01*
X305076Y317531D01*
X305189Y317491D01*
X305301Y317447D01*
X305411Y317399D01*
X305520Y317348D01*
X305627Y317293D01*
X305731Y317234D01*
X305834Y317173D01*
X305935Y317108D01*
X306034Y317039D01*
X306131Y316968D01*
X306225Y316893D01*
X306316Y316816D01*
X306405Y316735D01*
X306491Y316651D01*
X306575Y316565D01*
X306656Y316476D01*
X306733Y316385D01*
X306808Y316291D01*
X306879Y316194D01*
X306948Y316095D01*
X307013Y315994D01*
X307074Y315892D01*
X307133Y315787D01*
X307188Y315680D01*
X307239Y315571D01*
X307287Y315461D01*
X307331Y315349D01*
X307371Y315236D01*
X307408Y315122D01*
X307441Y315007D01*
X307470Y314890D01*
X307496Y314773D01*
X307517Y314655D01*
X307535Y314536D01*
X307548Y314417D01*
X307558Y314297D01*
X307564Y314177D01*
X307566Y314057D01*
X307564Y313937D01*
X307558Y313817D01*
X307548Y313697D01*
X307535Y313578D01*
X307517Y313459D01*
X307496Y313341D01*
X307470Y313224D01*
X307441Y313107D01*
X307408Y312992D01*
X307371Y312878D01*
X307331Y312765D01*
X307287Y312653D01*
X307239Y312543D01*
X307188Y312434D01*
X307133Y312327D01*
X307074Y312223D01*
X307013Y312120D01*
X306948Y312019D01*
X306879Y311920D01*
X306808Y311823D01*
X306733Y311729D01*
X306656Y311638D01*
X306575Y311549D01*
X306491Y311463D01*
X306405Y311379D01*
X306316Y311298D01*
X306225Y311221D01*
X306131Y311146D01*
X306034Y311075D01*
X305935Y311006D01*
X305834Y310941D01*
X305732Y310880D01*
X305627Y310821D01*
X305520Y310766D01*
X305411Y310715D01*
X305301Y310667D01*
X305189Y310623D01*
X305076Y310583D01*
X304962Y310546D01*
X304847Y310513D01*
X304730Y310484D01*
X304613Y310458D01*
X304495Y310437D01*
X304376Y310419D01*
X304257Y310406D01*
X304137Y310396D01*
X304017Y310390D01*
X303897Y310388D01*
X300228Y310388D01*
X300228Y323596D01*
X303897Y323596D01*
X304004Y323594D01*
X304111Y323588D01*
X304218Y323578D01*
X304324Y323565D01*
X304430Y323547D01*
X304535Y323526D01*
X304639Y323501D01*
X304743Y323472D01*
X304845Y323439D01*
X304945Y323402D01*
X305045Y323362D01*
X305143Y323318D01*
X305239Y323271D01*
X305333Y323220D01*
X305426Y323166D01*
X305516Y323109D01*
X305605Y323048D01*
X305691Y322984D01*
X305774Y322917D01*
X305856Y322847D01*
X305934Y322774D01*
X306010Y322698D01*
X306083Y322620D01*
X306153Y322538D01*
X306220Y322455D01*
X306284Y322369D01*
X306345Y322280D01*
X306402Y322190D01*
X306456Y322097D01*
X306507Y322003D01*
X306554Y321907D01*
X306598Y321809D01*
X306638Y321709D01*
X306675Y321609D01*
X306708Y321507D01*
X306737Y321403D01*
X306762Y321299D01*
X306783Y321194D01*
X306801Y321088D01*
X306814Y320982D01*
X306824Y320875D01*
X306830Y320768D01*
X306832Y320661D01*
X306830Y320554D01*
X306824Y320447D01*
X306814Y320340D01*
X306801Y320234D01*
X306783Y320128D01*
X306762Y320023D01*
X306737Y319919D01*
X306708Y319815D01*
X306675Y319713D01*
X306638Y319613D01*
X306598Y319513D01*
X306554Y319415D01*
X306507Y319319D01*
X306456Y319225D01*
X306402Y319132D01*
X306345Y319042D01*
X306284Y318953D01*
X306220Y318867D01*
X306153Y318784D01*
X306083Y318702D01*
X306010Y318624D01*
X305934Y318548D01*
X305856Y318475D01*
X305774Y318405D01*
X305691Y318338D01*
X305605Y318274D01*
X305516Y318213D01*
X305426Y318156D01*
X305333Y318102D01*
X305239Y318051D01*
X305143Y318004D01*
X305045Y317960D01*
X304945Y317920D01*
X304845Y317883D01*
X304743Y317850D01*
X304639Y317821D01*
X304535Y317796D01*
X304430Y317775D01*
X304324Y317757D01*
X304218Y317744D01*
X304111Y317734D01*
X304004Y317728D01*
X303897Y317726D01*
X315239Y323596D02*
X315239Y310388D01*
X311570Y323596D02*
X318908Y323596D01*
X323945Y323596D02*
X323945Y310388D01*
X331283Y310388D02*
X323945Y323596D01*
X331283Y323596D02*
X331283Y310388D01*
X337173Y320661D02*
X340842Y323596D01*
X340842Y310388D01*
X337173Y310388D02*
X344511Y310388D01*
X671068Y249146D02*
X674737Y249146D01*
X674857Y249144D01*
X674977Y249138D01*
X675097Y249128D01*
X675216Y249115D01*
X675335Y249097D01*
X675453Y249076D01*
X675570Y249050D01*
X675687Y249021D01*
X675802Y248988D01*
X675916Y248951D01*
X676029Y248911D01*
X676141Y248867D01*
X676251Y248819D01*
X676360Y248768D01*
X676467Y248713D01*
X676572Y248654D01*
X676674Y248593D01*
X676775Y248528D01*
X676874Y248459D01*
X676971Y248388D01*
X677065Y248313D01*
X677156Y248236D01*
X677245Y248155D01*
X677331Y248071D01*
X677415Y247985D01*
X677496Y247896D01*
X677573Y247805D01*
X677648Y247711D01*
X677719Y247614D01*
X677788Y247515D01*
X677853Y247414D01*
X677914Y247312D01*
X677973Y247207D01*
X678028Y247100D01*
X678079Y246991D01*
X678127Y246881D01*
X678171Y246769D01*
X678211Y246656D01*
X678248Y246542D01*
X678281Y246427D01*
X678310Y246310D01*
X678336Y246193D01*
X678357Y246075D01*
X678375Y245956D01*
X678388Y245837D01*
X678398Y245717D01*
X678404Y245597D01*
X678406Y245477D01*
X678404Y245357D01*
X678398Y245237D01*
X678388Y245117D01*
X678375Y244998D01*
X678357Y244879D01*
X678336Y244761D01*
X678310Y244644D01*
X678281Y244527D01*
X678248Y244412D01*
X678211Y244298D01*
X678171Y244185D01*
X678127Y244073D01*
X678079Y243963D01*
X678028Y243854D01*
X677973Y243747D01*
X677914Y243643D01*
X677853Y243540D01*
X677788Y243439D01*
X677719Y243340D01*
X677648Y243243D01*
X677573Y243149D01*
X677496Y243058D01*
X677415Y242969D01*
X677331Y242883D01*
X677245Y242799D01*
X677156Y242718D01*
X677065Y242641D01*
X676971Y242566D01*
X676874Y242495D01*
X676775Y242426D01*
X676674Y242361D01*
X676572Y242300D01*
X676467Y242241D01*
X676360Y242186D01*
X676251Y242135D01*
X676141Y242087D01*
X676029Y242043D01*
X675916Y242003D01*
X675802Y241966D01*
X675687Y241933D01*
X675570Y241904D01*
X675453Y241878D01*
X675335Y241857D01*
X675216Y241839D01*
X675097Y241826D01*
X674977Y241816D01*
X674857Y241810D01*
X674737Y241808D01*
X671068Y241808D01*
X671068Y255016D01*
X674737Y255016D01*
X674844Y255014D01*
X674951Y255008D01*
X675058Y254998D01*
X675164Y254985D01*
X675270Y254967D01*
X675375Y254946D01*
X675479Y254921D01*
X675583Y254892D01*
X675685Y254859D01*
X675785Y254822D01*
X675885Y254782D01*
X675983Y254738D01*
X676079Y254691D01*
X676173Y254640D01*
X676266Y254586D01*
X676356Y254529D01*
X676445Y254468D01*
X676531Y254404D01*
X676614Y254337D01*
X676696Y254267D01*
X676774Y254194D01*
X676850Y254118D01*
X676923Y254040D01*
X676993Y253958D01*
X677060Y253875D01*
X677124Y253789D01*
X677185Y253700D01*
X677242Y253610D01*
X677296Y253517D01*
X677347Y253423D01*
X677394Y253327D01*
X677438Y253229D01*
X677478Y253129D01*
X677515Y253029D01*
X677548Y252927D01*
X677577Y252823D01*
X677602Y252719D01*
X677623Y252614D01*
X677641Y252508D01*
X677654Y252402D01*
X677664Y252295D01*
X677670Y252188D01*
X677672Y252081D01*
X677670Y251974D01*
X677664Y251867D01*
X677654Y251760D01*
X677641Y251654D01*
X677623Y251548D01*
X677602Y251443D01*
X677577Y251339D01*
X677548Y251235D01*
X677515Y251133D01*
X677478Y251033D01*
X677438Y250933D01*
X677394Y250835D01*
X677347Y250739D01*
X677296Y250645D01*
X677242Y250552D01*
X677185Y250462D01*
X677124Y250373D01*
X677060Y250287D01*
X676993Y250204D01*
X676923Y250122D01*
X676850Y250044D01*
X676774Y249968D01*
X676696Y249895D01*
X676614Y249825D01*
X676531Y249758D01*
X676445Y249694D01*
X676356Y249633D01*
X676266Y249576D01*
X676173Y249522D01*
X676079Y249471D01*
X675983Y249424D01*
X675885Y249380D01*
X675785Y249340D01*
X675685Y249303D01*
X675583Y249270D01*
X675479Y249241D01*
X675375Y249216D01*
X675270Y249195D01*
X675164Y249177D01*
X675058Y249164D01*
X674951Y249154D01*
X674844Y249148D01*
X674737Y249146D01*
X686079Y255016D02*
X686079Y241808D01*
X682410Y255016D02*
X689748Y255016D01*
X694785Y255016D02*
X694785Y241808D01*
X702123Y241808D02*
X694785Y255016D01*
X702123Y255016D02*
X702123Y241808D01*
X712049Y255016D02*
X712162Y255014D01*
X712274Y255008D01*
X712387Y254999D01*
X712499Y254985D01*
X712610Y254968D01*
X712721Y254947D01*
X712831Y254922D01*
X712940Y254894D01*
X713048Y254861D01*
X713155Y254825D01*
X713260Y254786D01*
X713365Y254743D01*
X713467Y254696D01*
X713568Y254646D01*
X713667Y254592D01*
X713765Y254535D01*
X713860Y254475D01*
X713953Y254412D01*
X714044Y254345D01*
X714133Y254275D01*
X714219Y254203D01*
X714303Y254127D01*
X714384Y254049D01*
X714462Y253968D01*
X714538Y253884D01*
X714610Y253798D01*
X714680Y253709D01*
X714747Y253618D01*
X714810Y253525D01*
X714870Y253430D01*
X714927Y253332D01*
X714981Y253233D01*
X715031Y253132D01*
X715078Y253030D01*
X715121Y252925D01*
X715160Y252820D01*
X715196Y252713D01*
X715229Y252605D01*
X715257Y252496D01*
X715282Y252386D01*
X715303Y252275D01*
X715320Y252164D01*
X715334Y252052D01*
X715343Y251939D01*
X715349Y251827D01*
X715351Y251714D01*
X712049Y255016D02*
X711922Y255014D01*
X711795Y255008D01*
X711668Y254999D01*
X711542Y254986D01*
X711416Y254969D01*
X711291Y254948D01*
X711166Y254923D01*
X711043Y254895D01*
X710920Y254863D01*
X710798Y254827D01*
X710677Y254788D01*
X710557Y254745D01*
X710439Y254699D01*
X710322Y254649D01*
X710207Y254595D01*
X710094Y254538D01*
X709982Y254478D01*
X709872Y254415D01*
X709764Y254348D01*
X709658Y254278D01*
X709554Y254205D01*
X709452Y254128D01*
X709353Y254049D01*
X709256Y253967D01*
X709162Y253882D01*
X709070Y253794D01*
X708981Y253704D01*
X708895Y253610D01*
X708811Y253515D01*
X708731Y253417D01*
X708653Y253316D01*
X708578Y253213D01*
X708507Y253108D01*
X708439Y253001D01*
X708374Y252892D01*
X708312Y252781D01*
X708253Y252668D01*
X708198Y252554D01*
X708147Y252438D01*
X708099Y252320D01*
X708054Y252201D01*
X708013Y252081D01*
X714250Y249146D02*
X714332Y249226D01*
X714411Y249309D01*
X714488Y249395D01*
X714562Y249483D01*
X714632Y249574D01*
X714700Y249666D01*
X714765Y249761D01*
X714827Y249858D01*
X714885Y249957D01*
X714941Y250058D01*
X714993Y250160D01*
X715041Y250264D01*
X715086Y250370D01*
X715128Y250477D01*
X715167Y250585D01*
X715201Y250695D01*
X715233Y250805D01*
X715260Y250917D01*
X715284Y251029D01*
X715305Y251142D01*
X715321Y251256D01*
X715334Y251370D01*
X715344Y251484D01*
X715349Y251599D01*
X715351Y251714D01*
X714250Y249146D02*
X708013Y241808D01*
X715351Y241808D01*
X463561Y399288D02*
X460964Y399288D01*
X460865Y399290D01*
X460765Y399296D01*
X460666Y399305D01*
X460568Y399318D01*
X460470Y399335D01*
X460372Y399356D01*
X460276Y399381D01*
X460181Y399409D01*
X460087Y399441D01*
X459994Y399476D01*
X459902Y399515D01*
X459812Y399558D01*
X459724Y399603D01*
X459637Y399653D01*
X459553Y399705D01*
X459470Y399761D01*
X459390Y399819D01*
X459312Y399881D01*
X459237Y399946D01*
X459164Y400014D01*
X459094Y400084D01*
X459026Y400157D01*
X458961Y400232D01*
X458899Y400310D01*
X458841Y400390D01*
X458785Y400473D01*
X458733Y400557D01*
X458683Y400644D01*
X458638Y400732D01*
X458595Y400822D01*
X458556Y400914D01*
X458521Y401007D01*
X458489Y401101D01*
X458461Y401196D01*
X458436Y401292D01*
X458415Y401390D01*
X458398Y401488D01*
X458385Y401586D01*
X458376Y401685D01*
X458370Y401785D01*
X458368Y401884D01*
X458368Y408376D01*
X458370Y408475D01*
X458376Y408575D01*
X458385Y408674D01*
X458398Y408772D01*
X458415Y408870D01*
X458436Y408968D01*
X458461Y409064D01*
X458489Y409159D01*
X458521Y409253D01*
X458556Y409346D01*
X458595Y409438D01*
X458638Y409528D01*
X458683Y409616D01*
X458733Y409703D01*
X458785Y409787D01*
X458841Y409870D01*
X458899Y409950D01*
X458961Y410028D01*
X459026Y410103D01*
X459094Y410176D01*
X459164Y410246D01*
X459237Y410314D01*
X459312Y410379D01*
X459390Y410441D01*
X459470Y410499D01*
X459553Y410555D01*
X459637Y410607D01*
X459724Y410657D01*
X459812Y410702D01*
X459902Y410745D01*
X459994Y410784D01*
X460086Y410819D01*
X460181Y410851D01*
X460276Y410879D01*
X460372Y410904D01*
X460470Y410925D01*
X460568Y410942D01*
X460666Y410955D01*
X460765Y410964D01*
X460865Y410970D01*
X460964Y410972D01*
X463561Y410972D01*
X467926Y408376D02*
X471172Y410972D01*
X471172Y399288D01*
X474417Y399288D02*
X467926Y399288D01*
X339101Y406908D02*
X336504Y406908D01*
X336405Y406910D01*
X336305Y406916D01*
X336206Y406925D01*
X336108Y406938D01*
X336010Y406955D01*
X335912Y406976D01*
X335816Y407001D01*
X335721Y407029D01*
X335627Y407061D01*
X335534Y407096D01*
X335442Y407135D01*
X335352Y407178D01*
X335264Y407223D01*
X335177Y407273D01*
X335093Y407325D01*
X335010Y407381D01*
X334930Y407439D01*
X334852Y407501D01*
X334777Y407566D01*
X334704Y407634D01*
X334634Y407704D01*
X334566Y407777D01*
X334501Y407852D01*
X334439Y407930D01*
X334381Y408010D01*
X334325Y408093D01*
X334273Y408177D01*
X334223Y408264D01*
X334178Y408352D01*
X334135Y408442D01*
X334096Y408534D01*
X334061Y408627D01*
X334029Y408721D01*
X334001Y408816D01*
X333976Y408912D01*
X333955Y409010D01*
X333938Y409108D01*
X333925Y409206D01*
X333916Y409305D01*
X333910Y409405D01*
X333908Y409504D01*
X333908Y415996D01*
X333910Y416095D01*
X333916Y416195D01*
X333925Y416294D01*
X333938Y416392D01*
X333955Y416490D01*
X333976Y416588D01*
X334001Y416684D01*
X334029Y416779D01*
X334061Y416873D01*
X334096Y416966D01*
X334135Y417058D01*
X334178Y417148D01*
X334223Y417236D01*
X334273Y417323D01*
X334325Y417407D01*
X334381Y417490D01*
X334439Y417570D01*
X334501Y417648D01*
X334566Y417723D01*
X334634Y417796D01*
X334704Y417866D01*
X334777Y417934D01*
X334852Y417999D01*
X334930Y418061D01*
X335010Y418119D01*
X335093Y418175D01*
X335177Y418227D01*
X335264Y418277D01*
X335352Y418322D01*
X335442Y418365D01*
X335534Y418404D01*
X335626Y418439D01*
X335721Y418471D01*
X335816Y418499D01*
X335912Y418524D01*
X336010Y418545D01*
X336108Y418562D01*
X336206Y418575D01*
X336305Y418584D01*
X336405Y418590D01*
X336504Y418592D01*
X339101Y418592D01*
X347036Y418592D02*
X347143Y418590D01*
X347249Y418584D01*
X347355Y418574D01*
X347461Y418561D01*
X347567Y418543D01*
X347671Y418522D01*
X347775Y418497D01*
X347878Y418468D01*
X347979Y418436D01*
X348079Y418399D01*
X348178Y418359D01*
X348276Y418316D01*
X348372Y418269D01*
X348466Y418218D01*
X348558Y418164D01*
X348648Y418107D01*
X348736Y418047D01*
X348821Y417983D01*
X348904Y417916D01*
X348985Y417846D01*
X349063Y417774D01*
X349139Y417698D01*
X349211Y417620D01*
X349281Y417539D01*
X349348Y417456D01*
X349412Y417371D01*
X349472Y417283D01*
X349529Y417193D01*
X349583Y417101D01*
X349634Y417007D01*
X349681Y416911D01*
X349724Y416813D01*
X349764Y416714D01*
X349801Y416614D01*
X349833Y416513D01*
X349862Y416410D01*
X349887Y416306D01*
X349908Y416202D01*
X349926Y416096D01*
X349939Y415990D01*
X349949Y415884D01*
X349955Y415778D01*
X349957Y415671D01*
X347036Y418592D02*
X346915Y418590D01*
X346794Y418584D01*
X346674Y418574D01*
X346553Y418561D01*
X346434Y418543D01*
X346314Y418522D01*
X346196Y418497D01*
X346079Y418468D01*
X345962Y418435D01*
X345847Y418399D01*
X345733Y418358D01*
X345620Y418315D01*
X345508Y418267D01*
X345399Y418216D01*
X345291Y418161D01*
X345184Y418103D01*
X345080Y418042D01*
X344978Y417977D01*
X344878Y417909D01*
X344780Y417838D01*
X344684Y417764D01*
X344591Y417687D01*
X344501Y417606D01*
X344413Y417523D01*
X344328Y417437D01*
X344245Y417348D01*
X344166Y417257D01*
X344089Y417163D01*
X344016Y417067D01*
X343946Y416969D01*
X343879Y416868D01*
X343815Y416765D01*
X343755Y416660D01*
X343698Y416553D01*
X343644Y416445D01*
X343594Y416335D01*
X343548Y416223D01*
X343505Y416110D01*
X343466Y415995D01*
X348984Y413399D02*
X349063Y413476D01*
X349139Y413557D01*
X349212Y413640D01*
X349282Y413725D01*
X349349Y413813D01*
X349413Y413903D01*
X349473Y413995D01*
X349530Y414090D01*
X349584Y414186D01*
X349635Y414284D01*
X349682Y414384D01*
X349726Y414486D01*
X349766Y414589D01*
X349802Y414693D01*
X349834Y414799D01*
X349863Y414905D01*
X349888Y415013D01*
X349910Y415121D01*
X349927Y415231D01*
X349941Y415340D01*
X349950Y415450D01*
X349956Y415561D01*
X349958Y415671D01*
X348984Y413399D02*
X343466Y406908D01*
X349957Y406908D01*
X346721Y262128D02*
X344124Y262128D01*
X344025Y262130D01*
X343925Y262136D01*
X343826Y262145D01*
X343728Y262158D01*
X343630Y262175D01*
X343532Y262196D01*
X343436Y262221D01*
X343341Y262249D01*
X343247Y262281D01*
X343154Y262316D01*
X343062Y262355D01*
X342972Y262398D01*
X342884Y262443D01*
X342797Y262493D01*
X342713Y262545D01*
X342630Y262601D01*
X342550Y262659D01*
X342472Y262721D01*
X342397Y262786D01*
X342324Y262854D01*
X342254Y262924D01*
X342186Y262997D01*
X342121Y263072D01*
X342059Y263150D01*
X342001Y263230D01*
X341945Y263313D01*
X341893Y263397D01*
X341843Y263484D01*
X341798Y263572D01*
X341755Y263662D01*
X341716Y263754D01*
X341681Y263847D01*
X341649Y263941D01*
X341621Y264036D01*
X341596Y264132D01*
X341575Y264230D01*
X341558Y264328D01*
X341545Y264426D01*
X341536Y264525D01*
X341530Y264625D01*
X341528Y264724D01*
X341528Y271216D01*
X341530Y271315D01*
X341536Y271415D01*
X341545Y271514D01*
X341558Y271612D01*
X341575Y271710D01*
X341596Y271808D01*
X341621Y271904D01*
X341649Y271999D01*
X341681Y272093D01*
X341716Y272186D01*
X341755Y272278D01*
X341798Y272368D01*
X341843Y272456D01*
X341893Y272543D01*
X341945Y272627D01*
X342001Y272710D01*
X342059Y272790D01*
X342121Y272868D01*
X342186Y272943D01*
X342254Y273016D01*
X342324Y273086D01*
X342397Y273154D01*
X342472Y273219D01*
X342550Y273281D01*
X342630Y273339D01*
X342713Y273395D01*
X342797Y273447D01*
X342884Y273497D01*
X342972Y273542D01*
X343062Y273585D01*
X343154Y273624D01*
X343246Y273659D01*
X343341Y273691D01*
X343436Y273719D01*
X343532Y273744D01*
X343630Y273765D01*
X343728Y273782D01*
X343826Y273795D01*
X343925Y273804D01*
X344025Y273810D01*
X344124Y273812D01*
X346721Y273812D01*
X351086Y262128D02*
X354332Y262128D01*
X354445Y262130D01*
X354558Y262136D01*
X354671Y262146D01*
X354784Y262160D01*
X354896Y262177D01*
X355007Y262199D01*
X355117Y262224D01*
X355227Y262254D01*
X355335Y262287D01*
X355442Y262324D01*
X355548Y262364D01*
X355652Y262409D01*
X355755Y262457D01*
X355856Y262508D01*
X355955Y262563D01*
X356052Y262621D01*
X356147Y262683D01*
X356240Y262748D01*
X356330Y262816D01*
X356418Y262887D01*
X356504Y262962D01*
X356587Y263039D01*
X356667Y263119D01*
X356744Y263202D01*
X356819Y263288D01*
X356890Y263376D01*
X356958Y263466D01*
X357023Y263559D01*
X357085Y263654D01*
X357143Y263751D01*
X357198Y263850D01*
X357249Y263951D01*
X357297Y264054D01*
X357342Y264158D01*
X357382Y264264D01*
X357419Y264371D01*
X357452Y264479D01*
X357482Y264589D01*
X357507Y264699D01*
X357529Y264810D01*
X357546Y264922D01*
X357560Y265035D01*
X357570Y265148D01*
X357576Y265261D01*
X357578Y265374D01*
X357576Y265487D01*
X357570Y265600D01*
X357560Y265713D01*
X357546Y265826D01*
X357529Y265938D01*
X357507Y266049D01*
X357482Y266159D01*
X357452Y266269D01*
X357419Y266377D01*
X357382Y266484D01*
X357342Y266590D01*
X357297Y266694D01*
X357249Y266797D01*
X357198Y266898D01*
X357143Y266997D01*
X357085Y267094D01*
X357023Y267189D01*
X356958Y267282D01*
X356890Y267372D01*
X356819Y267460D01*
X356744Y267546D01*
X356667Y267629D01*
X356587Y267709D01*
X356504Y267786D01*
X356418Y267861D01*
X356330Y267932D01*
X356240Y268000D01*
X356147Y268065D01*
X356052Y268127D01*
X355955Y268185D01*
X355856Y268240D01*
X355755Y268291D01*
X355652Y268339D01*
X355548Y268384D01*
X355442Y268424D01*
X355335Y268461D01*
X355227Y268494D01*
X355117Y268524D01*
X355007Y268549D01*
X354896Y268571D01*
X354784Y268588D01*
X354671Y268602D01*
X354558Y268612D01*
X354445Y268618D01*
X354332Y268620D01*
X354981Y273812D02*
X351086Y273812D01*
X354981Y273812D02*
X355082Y273810D01*
X355182Y273804D01*
X355282Y273794D01*
X355382Y273781D01*
X355481Y273763D01*
X355580Y273742D01*
X355677Y273717D01*
X355774Y273688D01*
X355869Y273655D01*
X355963Y273619D01*
X356055Y273579D01*
X356146Y273536D01*
X356235Y273489D01*
X356322Y273439D01*
X356408Y273385D01*
X356491Y273328D01*
X356571Y273268D01*
X356650Y273205D01*
X356726Y273138D01*
X356799Y273069D01*
X356869Y272997D01*
X356937Y272923D01*
X357002Y272846D01*
X357063Y272766D01*
X357122Y272684D01*
X357177Y272600D01*
X357229Y272514D01*
X357278Y272426D01*
X357323Y272336D01*
X357365Y272244D01*
X357403Y272151D01*
X357437Y272056D01*
X357468Y271961D01*
X357495Y271864D01*
X357518Y271766D01*
X357538Y271667D01*
X357553Y271567D01*
X357565Y271467D01*
X357573Y271367D01*
X357577Y271266D01*
X357577Y271166D01*
X357573Y271065D01*
X357565Y270965D01*
X357553Y270865D01*
X357538Y270765D01*
X357518Y270666D01*
X357495Y270568D01*
X357468Y270471D01*
X357437Y270376D01*
X357403Y270281D01*
X357365Y270188D01*
X357323Y270096D01*
X357278Y270006D01*
X357229Y269918D01*
X357177Y269832D01*
X357122Y269748D01*
X357063Y269666D01*
X357002Y269586D01*
X356937Y269509D01*
X356869Y269435D01*
X356799Y269363D01*
X356726Y269294D01*
X356650Y269227D01*
X356571Y269164D01*
X356491Y269104D01*
X356408Y269047D01*
X356322Y268993D01*
X356235Y268943D01*
X356146Y268896D01*
X356055Y268853D01*
X355963Y268813D01*
X355869Y268777D01*
X355774Y268744D01*
X355677Y268715D01*
X355580Y268690D01*
X355481Y268669D01*
X355382Y268651D01*
X355282Y268638D01*
X355182Y268628D01*
X355082Y268622D01*
X354981Y268620D01*
X354981Y268619D02*
X352384Y268619D01*
X469804Y330708D02*
X472401Y330708D01*
X469804Y330708D02*
X469705Y330710D01*
X469605Y330716D01*
X469506Y330725D01*
X469408Y330738D01*
X469310Y330755D01*
X469212Y330776D01*
X469116Y330801D01*
X469021Y330829D01*
X468927Y330861D01*
X468834Y330896D01*
X468742Y330935D01*
X468652Y330978D01*
X468564Y331023D01*
X468477Y331073D01*
X468393Y331125D01*
X468310Y331181D01*
X468230Y331239D01*
X468152Y331301D01*
X468077Y331366D01*
X468004Y331434D01*
X467934Y331504D01*
X467866Y331577D01*
X467801Y331652D01*
X467739Y331730D01*
X467681Y331810D01*
X467625Y331893D01*
X467573Y331977D01*
X467523Y332064D01*
X467478Y332152D01*
X467435Y332242D01*
X467396Y332334D01*
X467361Y332427D01*
X467329Y332521D01*
X467301Y332616D01*
X467276Y332712D01*
X467255Y332810D01*
X467238Y332908D01*
X467225Y333006D01*
X467216Y333105D01*
X467210Y333205D01*
X467208Y333304D01*
X467208Y339796D01*
X467210Y339895D01*
X467216Y339995D01*
X467225Y340094D01*
X467238Y340192D01*
X467255Y340290D01*
X467276Y340388D01*
X467301Y340484D01*
X467329Y340579D01*
X467361Y340673D01*
X467396Y340766D01*
X467435Y340858D01*
X467478Y340948D01*
X467523Y341036D01*
X467573Y341123D01*
X467625Y341207D01*
X467681Y341290D01*
X467739Y341370D01*
X467801Y341448D01*
X467866Y341523D01*
X467934Y341596D01*
X468004Y341666D01*
X468077Y341734D01*
X468152Y341799D01*
X468230Y341861D01*
X468310Y341919D01*
X468393Y341975D01*
X468477Y342027D01*
X468564Y342077D01*
X468652Y342122D01*
X468742Y342165D01*
X468834Y342204D01*
X468926Y342239D01*
X469021Y342271D01*
X469116Y342299D01*
X469212Y342324D01*
X469310Y342345D01*
X469408Y342362D01*
X469506Y342375D01*
X469605Y342384D01*
X469705Y342390D01*
X469804Y342392D01*
X472401Y342392D01*
X476766Y337199D02*
X480661Y337199D01*
X480760Y337197D01*
X480860Y337191D01*
X480959Y337182D01*
X481057Y337169D01*
X481155Y337152D01*
X481253Y337131D01*
X481349Y337106D01*
X481444Y337078D01*
X481538Y337046D01*
X481631Y337011D01*
X481723Y336972D01*
X481813Y336929D01*
X481901Y336884D01*
X481988Y336834D01*
X482072Y336782D01*
X482155Y336726D01*
X482235Y336668D01*
X482313Y336606D01*
X482388Y336541D01*
X482461Y336473D01*
X482531Y336403D01*
X482599Y336330D01*
X482664Y336255D01*
X482726Y336177D01*
X482784Y336097D01*
X482840Y336014D01*
X482892Y335930D01*
X482942Y335843D01*
X482987Y335755D01*
X483030Y335665D01*
X483069Y335573D01*
X483104Y335480D01*
X483136Y335386D01*
X483164Y335291D01*
X483189Y335195D01*
X483210Y335097D01*
X483227Y334999D01*
X483240Y334901D01*
X483249Y334802D01*
X483255Y334702D01*
X483257Y334603D01*
X483257Y333954D01*
X483258Y333954D02*
X483256Y333841D01*
X483250Y333728D01*
X483240Y333615D01*
X483226Y333502D01*
X483209Y333390D01*
X483187Y333279D01*
X483162Y333169D01*
X483132Y333059D01*
X483099Y332951D01*
X483062Y332844D01*
X483022Y332738D01*
X482977Y332634D01*
X482929Y332531D01*
X482878Y332430D01*
X482823Y332331D01*
X482765Y332234D01*
X482703Y332139D01*
X482638Y332046D01*
X482570Y331956D01*
X482499Y331868D01*
X482424Y331782D01*
X482347Y331699D01*
X482267Y331619D01*
X482184Y331542D01*
X482098Y331467D01*
X482010Y331396D01*
X481920Y331328D01*
X481827Y331263D01*
X481732Y331201D01*
X481635Y331143D01*
X481536Y331088D01*
X481435Y331037D01*
X481332Y330989D01*
X481228Y330944D01*
X481122Y330904D01*
X481015Y330867D01*
X480907Y330834D01*
X480797Y330804D01*
X480687Y330779D01*
X480576Y330757D01*
X480464Y330740D01*
X480351Y330726D01*
X480238Y330716D01*
X480125Y330710D01*
X480012Y330708D01*
X479899Y330710D01*
X479786Y330716D01*
X479673Y330726D01*
X479560Y330740D01*
X479448Y330757D01*
X479337Y330779D01*
X479227Y330804D01*
X479117Y330834D01*
X479009Y330867D01*
X478902Y330904D01*
X478796Y330944D01*
X478692Y330989D01*
X478589Y331037D01*
X478488Y331088D01*
X478389Y331143D01*
X478292Y331201D01*
X478197Y331263D01*
X478104Y331328D01*
X478014Y331396D01*
X477926Y331467D01*
X477840Y331542D01*
X477757Y331619D01*
X477677Y331699D01*
X477600Y331782D01*
X477525Y331868D01*
X477454Y331956D01*
X477386Y332046D01*
X477321Y332139D01*
X477259Y332234D01*
X477201Y332331D01*
X477146Y332430D01*
X477095Y332531D01*
X477047Y332634D01*
X477002Y332738D01*
X476962Y332844D01*
X476925Y332951D01*
X476892Y333059D01*
X476862Y333169D01*
X476837Y333279D01*
X476815Y333390D01*
X476798Y333502D01*
X476784Y333615D01*
X476774Y333728D01*
X476768Y333841D01*
X476766Y333954D01*
X476766Y337199D01*
X476768Y337342D01*
X476774Y337485D01*
X476784Y337628D01*
X476798Y337770D01*
X476815Y337912D01*
X476837Y338054D01*
X476862Y338195D01*
X476892Y338335D01*
X476925Y338474D01*
X476962Y338612D01*
X477003Y338749D01*
X477047Y338885D01*
X477096Y339020D01*
X477148Y339153D01*
X477203Y339285D01*
X477263Y339415D01*
X477326Y339544D01*
X477392Y339671D01*
X477462Y339795D01*
X477535Y339918D01*
X477612Y340039D01*
X477692Y340158D01*
X477775Y340274D01*
X477861Y340389D01*
X477950Y340500D01*
X478043Y340610D01*
X478138Y340716D01*
X478237Y340820D01*
X478338Y340921D01*
X478442Y341020D01*
X478548Y341115D01*
X478658Y341208D01*
X478769Y341297D01*
X478884Y341383D01*
X479000Y341466D01*
X479119Y341546D01*
X479240Y341623D01*
X479362Y341696D01*
X479487Y341766D01*
X479614Y341832D01*
X479743Y341895D01*
X479873Y341955D01*
X480005Y342010D01*
X480138Y342062D01*
X480273Y342111D01*
X480409Y342155D01*
X480546Y342196D01*
X480684Y342233D01*
X480823Y342266D01*
X480963Y342296D01*
X481104Y342321D01*
X481246Y342343D01*
X481388Y342360D01*
X481530Y342374D01*
X481673Y342384D01*
X481816Y342390D01*
X481959Y342392D01*
X615904Y480568D02*
X618501Y480568D01*
X615904Y480568D02*
X615805Y480570D01*
X615705Y480576D01*
X615606Y480585D01*
X615508Y480598D01*
X615410Y480615D01*
X615312Y480636D01*
X615216Y480661D01*
X615121Y480689D01*
X615027Y480721D01*
X614934Y480756D01*
X614842Y480795D01*
X614752Y480838D01*
X614664Y480883D01*
X614577Y480933D01*
X614493Y480985D01*
X614410Y481041D01*
X614330Y481099D01*
X614252Y481161D01*
X614177Y481226D01*
X614104Y481294D01*
X614034Y481364D01*
X613966Y481437D01*
X613901Y481512D01*
X613839Y481590D01*
X613781Y481670D01*
X613725Y481753D01*
X613673Y481837D01*
X613623Y481924D01*
X613578Y482012D01*
X613535Y482102D01*
X613496Y482194D01*
X613461Y482287D01*
X613429Y482381D01*
X613401Y482476D01*
X613376Y482572D01*
X613355Y482670D01*
X613338Y482768D01*
X613325Y482866D01*
X613316Y482965D01*
X613310Y483065D01*
X613308Y483164D01*
X613308Y489656D01*
X613310Y489755D01*
X613316Y489855D01*
X613325Y489954D01*
X613338Y490052D01*
X613355Y490150D01*
X613376Y490248D01*
X613401Y490344D01*
X613429Y490439D01*
X613461Y490533D01*
X613496Y490626D01*
X613535Y490718D01*
X613578Y490808D01*
X613623Y490896D01*
X613673Y490983D01*
X613725Y491067D01*
X613781Y491150D01*
X613839Y491230D01*
X613901Y491308D01*
X613966Y491383D01*
X614034Y491456D01*
X614104Y491526D01*
X614177Y491594D01*
X614252Y491659D01*
X614330Y491721D01*
X614410Y491779D01*
X614493Y491835D01*
X614577Y491887D01*
X614664Y491937D01*
X614752Y491982D01*
X614842Y492025D01*
X614934Y492064D01*
X615026Y492099D01*
X615121Y492131D01*
X615216Y492159D01*
X615312Y492184D01*
X615410Y492205D01*
X615508Y492222D01*
X615606Y492235D01*
X615705Y492244D01*
X615805Y492250D01*
X615904Y492252D01*
X618501Y492252D01*
X622866Y492252D02*
X622866Y490954D01*
X622866Y492252D02*
X629357Y492252D01*
X626112Y480568D01*
D11*
X408370Y310800D02*
X398370Y304800D01*
X408370Y298800D01*
X408370Y310800D01*
D12*
X396512Y304800D03*
D10*
X374668Y316738D02*
X374668Y328422D01*
X377914Y328422D01*
X378027Y328420D01*
X378140Y328414D01*
X378253Y328404D01*
X378366Y328390D01*
X378478Y328373D01*
X378589Y328351D01*
X378699Y328326D01*
X378809Y328296D01*
X378917Y328263D01*
X379024Y328226D01*
X379130Y328186D01*
X379234Y328141D01*
X379337Y328093D01*
X379438Y328042D01*
X379537Y327987D01*
X379634Y327929D01*
X379729Y327867D01*
X379822Y327802D01*
X379912Y327734D01*
X380000Y327663D01*
X380086Y327588D01*
X380169Y327511D01*
X380249Y327431D01*
X380326Y327348D01*
X380401Y327262D01*
X380472Y327174D01*
X380540Y327084D01*
X380605Y326991D01*
X380667Y326896D01*
X380725Y326799D01*
X380780Y326700D01*
X380831Y326599D01*
X380879Y326496D01*
X380924Y326392D01*
X380964Y326286D01*
X381001Y326179D01*
X381034Y326071D01*
X381064Y325961D01*
X381089Y325851D01*
X381111Y325740D01*
X381128Y325628D01*
X381142Y325515D01*
X381152Y325402D01*
X381158Y325289D01*
X381160Y325176D01*
X381159Y325176D02*
X381159Y319984D01*
X381160Y319984D02*
X381158Y319871D01*
X381152Y319758D01*
X381142Y319645D01*
X381128Y319532D01*
X381111Y319420D01*
X381089Y319309D01*
X381064Y319199D01*
X381034Y319089D01*
X381001Y318981D01*
X380964Y318874D01*
X380924Y318768D01*
X380879Y318664D01*
X380831Y318561D01*
X380780Y318460D01*
X380725Y318361D01*
X380667Y318264D01*
X380605Y318169D01*
X380540Y318076D01*
X380472Y317986D01*
X380401Y317898D01*
X380326Y317812D01*
X380249Y317729D01*
X380169Y317649D01*
X380086Y317572D01*
X380000Y317497D01*
X379912Y317426D01*
X379822Y317358D01*
X379729Y317293D01*
X379634Y317231D01*
X379537Y317173D01*
X379438Y317118D01*
X379337Y317067D01*
X379234Y317019D01*
X379130Y316974D01*
X379024Y316934D01*
X378917Y316897D01*
X378809Y316864D01*
X378699Y316834D01*
X378589Y316809D01*
X378478Y316787D01*
X378366Y316770D01*
X378253Y316756D01*
X378140Y316746D01*
X378027Y316740D01*
X377914Y316738D01*
X374668Y316738D01*
X386479Y325826D02*
X389725Y328422D01*
X389725Y316738D01*
X392970Y316738D02*
X386479Y316738D01*
D13*
X568450Y345950D02*
X568450Y416050D01*
X568450Y345950D02*
X498350Y345950D01*
X498350Y412500D01*
X501900Y416050D02*
X568450Y416050D01*
X501900Y416050D02*
X498350Y412500D01*
X502376Y408432D02*
X502378Y408551D01*
X502384Y408671D01*
X502394Y408790D01*
X502408Y408908D01*
X502426Y409026D01*
X502447Y409144D01*
X502473Y409260D01*
X502502Y409376D01*
X502536Y409491D01*
X502573Y409604D01*
X502614Y409716D01*
X502658Y409827D01*
X502706Y409937D01*
X502758Y410044D01*
X502813Y410150D01*
X502872Y410254D01*
X502935Y410356D01*
X503000Y410455D01*
X503069Y410553D01*
X503141Y410648D01*
X503216Y410741D01*
X503295Y410831D01*
X503376Y410919D01*
X503460Y411003D01*
X503547Y411085D01*
X503636Y411164D01*
X503728Y411240D01*
X503823Y411313D01*
X503920Y411383D01*
X504019Y411449D01*
X504121Y411512D01*
X504224Y411572D01*
X504329Y411628D01*
X504436Y411681D01*
X504545Y411730D01*
X504656Y411776D01*
X504768Y411817D01*
X504881Y411855D01*
X504995Y411890D01*
X505111Y411920D01*
X505227Y411947D01*
X505344Y411969D01*
X505462Y411988D01*
X505581Y412003D01*
X505700Y412014D01*
X505819Y412021D01*
X505938Y412024D01*
X506058Y412023D01*
X506177Y412018D01*
X506296Y412009D01*
X506415Y411996D01*
X506533Y411979D01*
X506650Y411959D01*
X506767Y411934D01*
X506883Y411905D01*
X506998Y411873D01*
X507112Y411837D01*
X507225Y411797D01*
X507336Y411753D01*
X507445Y411706D01*
X507553Y411655D01*
X507660Y411601D01*
X507764Y411543D01*
X507866Y411481D01*
X507967Y411417D01*
X508065Y411348D01*
X508161Y411277D01*
X508254Y411203D01*
X508345Y411125D01*
X508433Y411045D01*
X508518Y410961D01*
X508601Y410875D01*
X508681Y410786D01*
X508758Y410695D01*
X508831Y410601D01*
X508902Y410504D01*
X508969Y410406D01*
X509033Y410305D01*
X509094Y410202D01*
X509151Y410097D01*
X509204Y409991D01*
X509254Y409882D01*
X509301Y409772D01*
X509343Y409661D01*
X509382Y409548D01*
X509418Y409434D01*
X509449Y409318D01*
X509476Y409202D01*
X509500Y409085D01*
X509520Y408967D01*
X509536Y408849D01*
X509548Y408730D01*
X509556Y408611D01*
X509560Y408492D01*
X509560Y408372D01*
X509556Y408253D01*
X509548Y408134D01*
X509536Y408015D01*
X509520Y407897D01*
X509500Y407779D01*
X509476Y407662D01*
X509449Y407546D01*
X509418Y407430D01*
X509382Y407316D01*
X509343Y407203D01*
X509301Y407092D01*
X509254Y406982D01*
X509204Y406873D01*
X509151Y406767D01*
X509094Y406662D01*
X509033Y406559D01*
X508969Y406458D01*
X508902Y406360D01*
X508831Y406263D01*
X508758Y406169D01*
X508681Y406078D01*
X508601Y405989D01*
X508518Y405903D01*
X508433Y405819D01*
X508345Y405739D01*
X508254Y405661D01*
X508161Y405587D01*
X508065Y405516D01*
X507967Y405447D01*
X507866Y405383D01*
X507764Y405321D01*
X507660Y405263D01*
X507553Y405209D01*
X507445Y405158D01*
X507336Y405111D01*
X507225Y405067D01*
X507112Y405027D01*
X506998Y404991D01*
X506883Y404959D01*
X506767Y404930D01*
X506650Y404905D01*
X506533Y404885D01*
X506415Y404868D01*
X506296Y404855D01*
X506177Y404846D01*
X506058Y404841D01*
X505938Y404840D01*
X505819Y404843D01*
X505700Y404850D01*
X505581Y404861D01*
X505462Y404876D01*
X505344Y404895D01*
X505227Y404917D01*
X505111Y404944D01*
X504995Y404974D01*
X504881Y405009D01*
X504768Y405047D01*
X504656Y405088D01*
X504545Y405134D01*
X504436Y405183D01*
X504329Y405236D01*
X504224Y405292D01*
X504121Y405352D01*
X504019Y405415D01*
X503920Y405481D01*
X503823Y405551D01*
X503728Y405624D01*
X503636Y405700D01*
X503547Y405779D01*
X503460Y405861D01*
X503376Y405945D01*
X503295Y406033D01*
X503216Y406123D01*
X503141Y406216D01*
X503069Y406311D01*
X503000Y406409D01*
X502935Y406508D01*
X502872Y406610D01*
X502813Y406714D01*
X502758Y406820D01*
X502706Y406927D01*
X502658Y407037D01*
X502614Y407148D01*
X502573Y407260D01*
X502536Y407373D01*
X502502Y407488D01*
X502473Y407604D01*
X502447Y407720D01*
X502426Y407838D01*
X502408Y407956D01*
X502394Y408074D01*
X502384Y408193D01*
X502378Y408313D01*
X502376Y408432D01*
D14*
X506913Y432181D02*
X506913Y439547D01*
X506095Y432181D02*
X507732Y432181D01*
X507732Y439547D02*
X506095Y439547D01*
X512333Y432181D02*
X513970Y432181D01*
X512333Y432181D02*
X512255Y432183D01*
X512177Y432188D01*
X512100Y432198D01*
X512023Y432211D01*
X511947Y432227D01*
X511872Y432247D01*
X511798Y432271D01*
X511725Y432298D01*
X511653Y432329D01*
X511583Y432363D01*
X511515Y432400D01*
X511448Y432441D01*
X511383Y432485D01*
X511321Y432531D01*
X511261Y432581D01*
X511203Y432633D01*
X511148Y432688D01*
X511096Y432746D01*
X511046Y432806D01*
X511000Y432868D01*
X510956Y432933D01*
X510915Y433000D01*
X510878Y433068D01*
X510844Y433138D01*
X510813Y433210D01*
X510786Y433283D01*
X510762Y433357D01*
X510742Y433432D01*
X510726Y433508D01*
X510713Y433585D01*
X510703Y433662D01*
X510698Y433740D01*
X510696Y433818D01*
X510696Y437910D01*
X510698Y437990D01*
X510704Y438070D01*
X510714Y438150D01*
X510727Y438229D01*
X510745Y438308D01*
X510766Y438385D01*
X510792Y438461D01*
X510821Y438536D01*
X510853Y438610D01*
X510889Y438682D01*
X510929Y438752D01*
X510972Y438819D01*
X511018Y438885D01*
X511068Y438948D01*
X511120Y439009D01*
X511175Y439068D01*
X511234Y439123D01*
X511294Y439175D01*
X511358Y439225D01*
X511424Y439271D01*
X511491Y439314D01*
X511561Y439354D01*
X511633Y439390D01*
X511707Y439422D01*
X511781Y439451D01*
X511858Y439477D01*
X511935Y439498D01*
X512014Y439516D01*
X512093Y439529D01*
X512173Y439539D01*
X512253Y439545D01*
X512333Y439547D01*
X513970Y439547D01*
X516815Y437910D02*
X518862Y439547D01*
X518862Y432181D01*
X520908Y432181D02*
X516815Y432181D01*
D13*
X588010Y495300D02*
X594360Y501650D01*
X588010Y495300D02*
X581660Y501650D01*
X588010Y508000D01*
X591820Y523240D02*
X591825Y523671D01*
X591841Y524102D01*
X591867Y524532D01*
X591904Y524962D01*
X591951Y525390D01*
X592008Y525818D01*
X592076Y526243D01*
X592153Y526668D01*
X592242Y527090D01*
X592340Y527509D01*
X592449Y527927D01*
X592567Y528341D01*
X592696Y528752D01*
X592835Y529161D01*
X592983Y529565D01*
X593142Y529967D01*
X593309Y530364D01*
X593487Y530757D01*
X593674Y531145D01*
X593870Y531529D01*
X594076Y531908D01*
X594291Y532282D01*
X594514Y532650D01*
X594747Y533013D01*
X594988Y533370D01*
X595238Y533722D01*
X595497Y534067D01*
X595763Y534406D01*
X596038Y534738D01*
X596321Y535063D01*
X596611Y535382D01*
X596910Y535693D01*
X597215Y535997D01*
X597528Y536294D01*
X597848Y536583D01*
X598175Y536864D01*
X598509Y537137D01*
X598849Y537402D01*
X599196Y537658D01*
X599548Y537906D01*
X599907Y538146D01*
X600271Y538376D01*
X600641Y538598D01*
X591820Y523240D02*
X591825Y522809D01*
X591841Y522378D01*
X591867Y521948D01*
X591904Y521518D01*
X591951Y521090D01*
X592008Y520662D01*
X592076Y520237D01*
X592153Y519812D01*
X592242Y519390D01*
X592340Y518971D01*
X592449Y518553D01*
X592567Y518139D01*
X592696Y517728D01*
X592835Y517319D01*
X592983Y516915D01*
X593142Y516513D01*
X593309Y516116D01*
X593487Y515723D01*
X593674Y515335D01*
X593870Y514951D01*
X594076Y514572D01*
X594291Y514198D01*
X594514Y513830D01*
X594747Y513467D01*
X594988Y513110D01*
X595238Y512758D01*
X595497Y512413D01*
X595763Y512074D01*
X596038Y511742D01*
X596321Y511417D01*
X596611Y511098D01*
X596910Y510787D01*
X597215Y510483D01*
X597528Y510186D01*
X597848Y509897D01*
X598175Y509616D01*
X598509Y509343D01*
X598849Y509078D01*
X599196Y508822D01*
X599548Y508574D01*
X599907Y508334D01*
X600271Y508104D01*
X600641Y507882D01*
X618559Y507882D02*
X618929Y508104D01*
X619293Y508334D01*
X619652Y508574D01*
X620004Y508822D01*
X620351Y509078D01*
X620691Y509343D01*
X621025Y509616D01*
X621352Y509897D01*
X621672Y510186D01*
X621985Y510483D01*
X622290Y510787D01*
X622589Y511098D01*
X622879Y511417D01*
X623162Y511742D01*
X623437Y512074D01*
X623703Y512413D01*
X623962Y512758D01*
X624212Y513110D01*
X624453Y513467D01*
X624686Y513830D01*
X624909Y514198D01*
X625124Y514572D01*
X625330Y514951D01*
X625526Y515335D01*
X625713Y515723D01*
X625891Y516116D01*
X626058Y516513D01*
X626217Y516915D01*
X626365Y517319D01*
X626504Y517728D01*
X626633Y518139D01*
X626751Y518553D01*
X626860Y518971D01*
X626958Y519390D01*
X627047Y519812D01*
X627124Y520237D01*
X627192Y520662D01*
X627249Y521090D01*
X627296Y521518D01*
X627333Y521948D01*
X627359Y522378D01*
X627375Y522809D01*
X627380Y523240D01*
X627375Y523671D01*
X627359Y524102D01*
X627333Y524532D01*
X627296Y524962D01*
X627249Y525390D01*
X627192Y525818D01*
X627124Y526243D01*
X627047Y526668D01*
X626958Y527090D01*
X626860Y527509D01*
X626751Y527927D01*
X626633Y528341D01*
X626504Y528752D01*
X626365Y529161D01*
X626217Y529565D01*
X626058Y529967D01*
X625891Y530364D01*
X625713Y530757D01*
X625526Y531145D01*
X625330Y531529D01*
X625124Y531908D01*
X624909Y532282D01*
X624686Y532650D01*
X624453Y533013D01*
X624212Y533370D01*
X623962Y533722D01*
X623703Y534067D01*
X623437Y534406D01*
X623162Y534738D01*
X622879Y535063D01*
X622589Y535382D01*
X622290Y535693D01*
X621985Y535997D01*
X621672Y536294D01*
X621352Y536583D01*
X621025Y536864D01*
X620691Y537137D01*
X620351Y537402D01*
X620004Y537658D01*
X619652Y537906D01*
X619293Y538146D01*
X618929Y538376D01*
X618559Y538598D01*
X582930Y523240D02*
X582938Y523895D01*
X582962Y524549D01*
X583002Y525202D01*
X583058Y525854D01*
X583131Y526505D01*
X583219Y527153D01*
X583323Y527800D01*
X583442Y528443D01*
X583578Y529083D01*
X583729Y529720D01*
X583896Y530353D01*
X584078Y530982D01*
X584276Y531606D01*
X584489Y532225D01*
X584717Y532838D01*
X584960Y533446D01*
X585218Y534048D01*
X585491Y534643D01*
X585778Y535231D01*
X586079Y535812D01*
X586395Y536386D01*
X586724Y536951D01*
X587068Y537508D01*
X587425Y538057D01*
X587795Y538597D01*
X588178Y539127D01*
X588575Y539648D01*
X588984Y540159D01*
X589405Y540660D01*
X589839Y541150D01*
X590284Y541630D01*
X590741Y542099D01*
X591210Y542556D01*
X591690Y543001D01*
X592180Y543435D01*
X592681Y543856D01*
X593192Y544265D01*
X593713Y544662D01*
X594243Y545045D01*
X594783Y545415D01*
X595332Y545772D01*
X595889Y546116D01*
X596454Y546445D01*
X597028Y546761D01*
X597609Y547062D01*
X598197Y547349D01*
X598792Y547622D01*
X599394Y547880D01*
X600002Y548123D01*
X600615Y548351D01*
X601234Y548564D01*
X601858Y548762D01*
X602487Y548944D01*
X603120Y549111D01*
X603757Y549262D01*
X604397Y549398D01*
X605040Y549517D01*
X605687Y549621D01*
X606335Y549709D01*
X606986Y549782D01*
X607638Y549838D01*
X608291Y549878D01*
X608945Y549902D01*
X609600Y549910D01*
X610255Y549902D01*
X610909Y549878D01*
X611562Y549838D01*
X612214Y549782D01*
X612865Y549709D01*
X613513Y549621D01*
X614160Y549517D01*
X614803Y549398D01*
X615443Y549262D01*
X616080Y549111D01*
X616713Y548944D01*
X617342Y548762D01*
X617966Y548564D01*
X618585Y548351D01*
X619198Y548123D01*
X619806Y547880D01*
X620408Y547622D01*
X621003Y547349D01*
X621591Y547062D01*
X622172Y546761D01*
X622746Y546445D01*
X623311Y546116D01*
X623868Y545772D01*
X624417Y545415D01*
X624957Y545045D01*
X625487Y544662D01*
X626008Y544265D01*
X626519Y543856D01*
X627020Y543435D01*
X627510Y543001D01*
X627990Y542556D01*
X628459Y542099D01*
X628916Y541630D01*
X629361Y541150D01*
X629795Y540660D01*
X630216Y540159D01*
X630625Y539648D01*
X631022Y539127D01*
X631405Y538597D01*
X631775Y538057D01*
X632132Y537508D01*
X632476Y536951D01*
X632805Y536386D01*
X633121Y535812D01*
X633422Y535231D01*
X633709Y534643D01*
X633982Y534048D01*
X634240Y533446D01*
X634483Y532838D01*
X634711Y532225D01*
X634924Y531606D01*
X635122Y530982D01*
X635304Y530353D01*
X635471Y529720D01*
X635622Y529083D01*
X635758Y528443D01*
X635877Y527800D01*
X635981Y527153D01*
X636069Y526505D01*
X636142Y525854D01*
X636198Y525202D01*
X636238Y524549D01*
X636262Y523895D01*
X636270Y523240D01*
X636262Y522585D01*
X636238Y521931D01*
X636198Y521278D01*
X636142Y520626D01*
X636069Y519975D01*
X635981Y519327D01*
X635877Y518680D01*
X635758Y518037D01*
X635622Y517397D01*
X635471Y516760D01*
X635304Y516127D01*
X635122Y515498D01*
X634924Y514874D01*
X634711Y514255D01*
X634483Y513642D01*
X634240Y513034D01*
X633982Y512432D01*
X633709Y511837D01*
X633422Y511249D01*
X633121Y510668D01*
X632805Y510094D01*
X632476Y509529D01*
X632132Y508972D01*
X631775Y508423D01*
X631405Y507883D01*
X631022Y507353D01*
X630625Y506832D01*
X630216Y506321D01*
X629795Y505820D01*
X629361Y505330D01*
X628916Y504850D01*
X628459Y504381D01*
X627990Y503924D01*
X627510Y503479D01*
X627020Y503045D01*
X626519Y502624D01*
X626008Y502215D01*
X625487Y501818D01*
X624957Y501435D01*
X624417Y501065D01*
X623868Y500708D01*
X623311Y500364D01*
X622746Y500035D01*
X622172Y499719D01*
X621591Y499418D01*
X621003Y499131D01*
X620408Y498858D01*
X619806Y498600D01*
X619198Y498357D01*
X618585Y498129D01*
X617966Y497916D01*
X617342Y497718D01*
X616713Y497536D01*
X616080Y497369D01*
X615443Y497218D01*
X614803Y497082D01*
X614160Y496963D01*
X613513Y496859D01*
X612865Y496771D01*
X612214Y496698D01*
X611562Y496642D01*
X610909Y496602D01*
X610255Y496578D01*
X609600Y496570D01*
X608945Y496578D01*
X608291Y496602D01*
X607638Y496642D01*
X606986Y496698D01*
X606335Y496771D01*
X605687Y496859D01*
X605040Y496963D01*
X604397Y497082D01*
X603757Y497218D01*
X603120Y497369D01*
X602487Y497536D01*
X601858Y497718D01*
X601234Y497916D01*
X600615Y498129D01*
X600002Y498357D01*
X599394Y498600D01*
X598792Y498858D01*
X598197Y499131D01*
X597609Y499418D01*
X597028Y499719D01*
X596454Y500035D01*
X595889Y500364D01*
X595332Y500708D01*
X594783Y501065D01*
X594243Y501435D01*
X593713Y501818D01*
X593192Y502215D01*
X592681Y502624D01*
X592180Y503045D01*
X591690Y503479D01*
X591210Y503924D01*
X590741Y504381D01*
X590284Y504850D01*
X589839Y505330D01*
X589405Y505820D01*
X588984Y506321D01*
X588575Y506832D01*
X588178Y507353D01*
X587795Y507883D01*
X587425Y508423D01*
X587068Y508972D01*
X586724Y509529D01*
X586395Y510094D01*
X586079Y510668D01*
X585778Y511249D01*
X585491Y511837D01*
X585218Y512432D01*
X584960Y513034D01*
X584717Y513642D01*
X584489Y514255D01*
X584276Y514874D01*
X584078Y515498D01*
X583896Y516127D01*
X583729Y516760D01*
X583578Y517397D01*
X583442Y518037D01*
X583323Y518680D01*
X583219Y519327D01*
X583131Y519975D01*
X583058Y520626D01*
X583002Y521278D01*
X582962Y521931D01*
X582938Y522585D01*
X582930Y523240D01*
D15*
X585470Y523240D02*
X585477Y523832D01*
X585499Y524424D01*
X585535Y525015D01*
X585586Y525605D01*
X585651Y526194D01*
X585731Y526781D01*
X585825Y527365D01*
X585934Y527948D01*
X586056Y528527D01*
X586193Y529103D01*
X586344Y529676D01*
X586509Y530245D01*
X586688Y530809D01*
X586881Y531369D01*
X587087Y531924D01*
X587307Y532474D01*
X587540Y533018D01*
X587787Y533557D01*
X588046Y534089D01*
X588319Y534615D01*
X588605Y535134D01*
X588903Y535645D01*
X589214Y536149D01*
X589537Y536646D01*
X589872Y537134D01*
X590219Y537614D01*
X590577Y538086D01*
X590947Y538548D01*
X591329Y539001D01*
X591721Y539445D01*
X592124Y539879D01*
X592538Y540302D01*
X592961Y540716D01*
X593395Y541119D01*
X593839Y541511D01*
X594292Y541893D01*
X594754Y542263D01*
X595226Y542621D01*
X595706Y542968D01*
X596194Y543303D01*
X596691Y543626D01*
X597195Y543937D01*
X597706Y544235D01*
X598225Y544521D01*
X598751Y544794D01*
X599283Y545053D01*
X599822Y545300D01*
X600366Y545533D01*
X600916Y545753D01*
X601471Y545959D01*
X602031Y546152D01*
X602595Y546331D01*
X603164Y546496D01*
X603737Y546647D01*
X604313Y546784D01*
X604892Y546906D01*
X605475Y547015D01*
X606059Y547109D01*
X606646Y547189D01*
X607235Y547254D01*
X607825Y547305D01*
X608416Y547341D01*
X609008Y547363D01*
X609600Y547370D01*
X610192Y547363D01*
X610784Y547341D01*
X611375Y547305D01*
X611965Y547254D01*
X612554Y547189D01*
X613141Y547109D01*
X613725Y547015D01*
X614308Y546906D01*
X614887Y546784D01*
X615463Y546647D01*
X616036Y546496D01*
X616605Y546331D01*
X617169Y546152D01*
X617729Y545959D01*
X618284Y545753D01*
X618834Y545533D01*
X619378Y545300D01*
X619917Y545053D01*
X620449Y544794D01*
X620975Y544521D01*
X621494Y544235D01*
X622005Y543937D01*
X622509Y543626D01*
X623006Y543303D01*
X623494Y542968D01*
X623974Y542621D01*
X624446Y542263D01*
X624908Y541893D01*
X625361Y541511D01*
X625805Y541119D01*
X626239Y540716D01*
X626662Y540302D01*
X627076Y539879D01*
X627479Y539445D01*
X627871Y539001D01*
X628253Y538548D01*
X628623Y538086D01*
X628981Y537614D01*
X629328Y537134D01*
X629663Y536646D01*
X629986Y536149D01*
X630297Y535645D01*
X630595Y535134D01*
X630881Y534615D01*
X631154Y534089D01*
X631413Y533557D01*
X631660Y533018D01*
X631893Y532474D01*
X632113Y531924D01*
X632319Y531369D01*
X632512Y530809D01*
X632691Y530245D01*
X632856Y529676D01*
X633007Y529103D01*
X633144Y528527D01*
X633266Y527948D01*
X633375Y527365D01*
X633469Y526781D01*
X633549Y526194D01*
X633614Y525605D01*
X633665Y525015D01*
X633701Y524424D01*
X633723Y523832D01*
X633730Y523240D01*
X633723Y522648D01*
X633701Y522056D01*
X633665Y521465D01*
X633614Y520875D01*
X633549Y520286D01*
X633469Y519699D01*
X633375Y519115D01*
X633266Y518532D01*
X633144Y517953D01*
X633007Y517377D01*
X632856Y516804D01*
X632691Y516235D01*
X632512Y515671D01*
X632319Y515111D01*
X632113Y514556D01*
X631893Y514006D01*
X631660Y513462D01*
X631413Y512923D01*
X631154Y512391D01*
X630881Y511865D01*
X630595Y511346D01*
X630297Y510835D01*
X629986Y510331D01*
X629663Y509834D01*
X629328Y509346D01*
X628981Y508866D01*
X628623Y508394D01*
X628253Y507932D01*
X627871Y507479D01*
X627479Y507035D01*
X627076Y506601D01*
X626662Y506178D01*
X626239Y505764D01*
X625805Y505361D01*
X625361Y504969D01*
X624908Y504587D01*
X624446Y504217D01*
X623974Y503859D01*
X623494Y503512D01*
X623006Y503177D01*
X622509Y502854D01*
X622005Y502543D01*
X621494Y502245D01*
X620975Y501959D01*
X620449Y501686D01*
X619917Y501427D01*
X619378Y501180D01*
X618834Y500947D01*
X618284Y500727D01*
X617729Y500521D01*
X617169Y500328D01*
X616605Y500149D01*
X616036Y499984D01*
X615463Y499833D01*
X614887Y499696D01*
X614308Y499574D01*
X613725Y499465D01*
X613141Y499371D01*
X612554Y499291D01*
X611965Y499226D01*
X611375Y499175D01*
X610784Y499139D01*
X610192Y499117D01*
X609600Y499110D01*
X609008Y499117D01*
X608416Y499139D01*
X607825Y499175D01*
X607235Y499226D01*
X606646Y499291D01*
X606059Y499371D01*
X605475Y499465D01*
X604892Y499574D01*
X604313Y499696D01*
X603737Y499833D01*
X603164Y499984D01*
X602595Y500149D01*
X602031Y500328D01*
X601471Y500521D01*
X600916Y500727D01*
X600366Y500947D01*
X599822Y501180D01*
X599283Y501427D01*
X598751Y501686D01*
X598225Y501959D01*
X597706Y502245D01*
X597195Y502543D01*
X596691Y502854D01*
X596194Y503177D01*
X595706Y503512D01*
X595226Y503859D01*
X594754Y504217D01*
X594292Y504587D01*
X593839Y504969D01*
X593395Y505361D01*
X592961Y505764D01*
X592538Y506178D01*
X592124Y506601D01*
X591721Y507035D01*
X591329Y507479D01*
X590947Y507932D01*
X590577Y508394D01*
X590219Y508866D01*
X589872Y509346D01*
X589537Y509834D01*
X589214Y510331D01*
X588903Y510835D01*
X588605Y511346D01*
X588319Y511865D01*
X588046Y512391D01*
X587787Y512923D01*
X587540Y513462D01*
X587307Y514006D01*
X587087Y514556D01*
X586881Y515111D01*
X586688Y515671D01*
X586509Y516235D01*
X586344Y516804D01*
X586193Y517377D01*
X586056Y517953D01*
X585934Y518532D01*
X585825Y519115D01*
X585731Y519699D01*
X585651Y520286D01*
X585586Y520875D01*
X585535Y521465D01*
X585499Y522056D01*
X585477Y522648D01*
X585470Y523240D01*
D10*
X742188Y375412D02*
X742188Y363728D01*
X742188Y375412D02*
X745434Y375412D01*
X745547Y375410D01*
X745660Y375404D01*
X745773Y375394D01*
X745886Y375380D01*
X745998Y375363D01*
X746109Y375341D01*
X746219Y375316D01*
X746329Y375286D01*
X746437Y375253D01*
X746544Y375216D01*
X746650Y375176D01*
X746754Y375131D01*
X746857Y375083D01*
X746958Y375032D01*
X747057Y374977D01*
X747154Y374919D01*
X747249Y374857D01*
X747342Y374792D01*
X747432Y374724D01*
X747520Y374653D01*
X747606Y374578D01*
X747689Y374501D01*
X747769Y374421D01*
X747846Y374338D01*
X747921Y374252D01*
X747992Y374164D01*
X748060Y374074D01*
X748125Y373981D01*
X748187Y373886D01*
X748245Y373789D01*
X748300Y373690D01*
X748351Y373589D01*
X748399Y373486D01*
X748444Y373382D01*
X748484Y373276D01*
X748521Y373169D01*
X748554Y373061D01*
X748584Y372951D01*
X748609Y372841D01*
X748631Y372730D01*
X748648Y372618D01*
X748662Y372505D01*
X748672Y372392D01*
X748678Y372279D01*
X748680Y372166D01*
X748678Y372053D01*
X748672Y371940D01*
X748662Y371827D01*
X748648Y371714D01*
X748631Y371602D01*
X748609Y371491D01*
X748584Y371381D01*
X748554Y371271D01*
X748521Y371163D01*
X748484Y371056D01*
X748444Y370950D01*
X748399Y370846D01*
X748351Y370743D01*
X748300Y370642D01*
X748245Y370543D01*
X748187Y370446D01*
X748125Y370351D01*
X748060Y370258D01*
X747992Y370168D01*
X747921Y370080D01*
X747846Y369994D01*
X747769Y369911D01*
X747689Y369831D01*
X747606Y369754D01*
X747520Y369679D01*
X747432Y369608D01*
X747342Y369540D01*
X747249Y369475D01*
X747154Y369413D01*
X747057Y369355D01*
X746958Y369300D01*
X746857Y369249D01*
X746754Y369201D01*
X746650Y369156D01*
X746544Y369116D01*
X746437Y369079D01*
X746329Y369046D01*
X746219Y369016D01*
X746109Y368991D01*
X745998Y368969D01*
X745886Y368952D01*
X745773Y368938D01*
X745660Y368928D01*
X745547Y368922D01*
X745434Y368920D01*
X745434Y368921D02*
X742188Y368921D01*
X746083Y368921D02*
X748679Y363728D01*
X753544Y366974D02*
X753546Y367087D01*
X753552Y367200D01*
X753562Y367313D01*
X753576Y367426D01*
X753593Y367538D01*
X753615Y367649D01*
X753640Y367759D01*
X753670Y367869D01*
X753703Y367977D01*
X753740Y368084D01*
X753780Y368190D01*
X753825Y368294D01*
X753873Y368397D01*
X753924Y368498D01*
X753979Y368597D01*
X754037Y368694D01*
X754099Y368789D01*
X754164Y368882D01*
X754232Y368972D01*
X754303Y369060D01*
X754378Y369146D01*
X754455Y369229D01*
X754535Y369309D01*
X754618Y369386D01*
X754704Y369461D01*
X754792Y369532D01*
X754882Y369600D01*
X754975Y369665D01*
X755070Y369727D01*
X755167Y369785D01*
X755266Y369840D01*
X755367Y369891D01*
X755470Y369939D01*
X755574Y369984D01*
X755680Y370024D01*
X755787Y370061D01*
X755895Y370094D01*
X756005Y370124D01*
X756115Y370149D01*
X756226Y370171D01*
X756338Y370188D01*
X756451Y370202D01*
X756564Y370212D01*
X756677Y370218D01*
X756790Y370220D01*
X756903Y370218D01*
X757016Y370212D01*
X757129Y370202D01*
X757242Y370188D01*
X757354Y370171D01*
X757465Y370149D01*
X757575Y370124D01*
X757685Y370094D01*
X757793Y370061D01*
X757900Y370024D01*
X758006Y369984D01*
X758110Y369939D01*
X758213Y369891D01*
X758314Y369840D01*
X758413Y369785D01*
X758510Y369727D01*
X758605Y369665D01*
X758698Y369600D01*
X758788Y369532D01*
X758876Y369461D01*
X758962Y369386D01*
X759045Y369309D01*
X759125Y369229D01*
X759202Y369146D01*
X759277Y369060D01*
X759348Y368972D01*
X759416Y368882D01*
X759481Y368789D01*
X759543Y368694D01*
X759601Y368597D01*
X759656Y368498D01*
X759707Y368397D01*
X759755Y368294D01*
X759800Y368190D01*
X759840Y368084D01*
X759877Y367977D01*
X759910Y367869D01*
X759940Y367759D01*
X759965Y367649D01*
X759987Y367538D01*
X760004Y367426D01*
X760018Y367313D01*
X760028Y367200D01*
X760034Y367087D01*
X760036Y366974D01*
X760034Y366861D01*
X760028Y366748D01*
X760018Y366635D01*
X760004Y366522D01*
X759987Y366410D01*
X759965Y366299D01*
X759940Y366189D01*
X759910Y366079D01*
X759877Y365971D01*
X759840Y365864D01*
X759800Y365758D01*
X759755Y365654D01*
X759707Y365551D01*
X759656Y365450D01*
X759601Y365351D01*
X759543Y365254D01*
X759481Y365159D01*
X759416Y365066D01*
X759348Y364976D01*
X759277Y364888D01*
X759202Y364802D01*
X759125Y364719D01*
X759045Y364639D01*
X758962Y364562D01*
X758876Y364487D01*
X758788Y364416D01*
X758698Y364348D01*
X758605Y364283D01*
X758510Y364221D01*
X758413Y364163D01*
X758314Y364108D01*
X758213Y364057D01*
X758110Y364009D01*
X758006Y363964D01*
X757900Y363924D01*
X757793Y363887D01*
X757685Y363854D01*
X757575Y363824D01*
X757465Y363799D01*
X757354Y363777D01*
X757242Y363760D01*
X757129Y363746D01*
X757016Y363736D01*
X756903Y363730D01*
X756790Y363728D01*
X756677Y363730D01*
X756564Y363736D01*
X756451Y363746D01*
X756338Y363760D01*
X756226Y363777D01*
X756115Y363799D01*
X756005Y363824D01*
X755895Y363854D01*
X755787Y363887D01*
X755680Y363924D01*
X755574Y363964D01*
X755470Y364009D01*
X755367Y364057D01*
X755266Y364108D01*
X755167Y364163D01*
X755070Y364221D01*
X754975Y364283D01*
X754882Y364348D01*
X754792Y364416D01*
X754704Y364487D01*
X754618Y364562D01*
X754535Y364639D01*
X754455Y364719D01*
X754378Y364802D01*
X754303Y364888D01*
X754232Y364976D01*
X754164Y365066D01*
X754099Y365159D01*
X754037Y365254D01*
X753979Y365351D01*
X753924Y365450D01*
X753873Y365551D01*
X753825Y365654D01*
X753780Y365758D01*
X753740Y365864D01*
X753703Y365971D01*
X753670Y366079D01*
X753640Y366189D01*
X753615Y366299D01*
X753593Y366410D01*
X753576Y366522D01*
X753562Y366635D01*
X753552Y366748D01*
X753546Y366861D01*
X753544Y366974D01*
X754194Y372816D02*
X754196Y372917D01*
X754202Y373017D01*
X754212Y373117D01*
X754225Y373217D01*
X754243Y373316D01*
X754264Y373415D01*
X754289Y373512D01*
X754318Y373609D01*
X754351Y373704D01*
X754387Y373798D01*
X754427Y373890D01*
X754470Y373981D01*
X754517Y374070D01*
X754567Y374157D01*
X754621Y374243D01*
X754678Y374326D01*
X754738Y374406D01*
X754801Y374485D01*
X754868Y374561D01*
X754937Y374634D01*
X755009Y374704D01*
X755083Y374772D01*
X755160Y374837D01*
X755240Y374898D01*
X755322Y374957D01*
X755406Y375012D01*
X755492Y375064D01*
X755580Y375113D01*
X755670Y375158D01*
X755762Y375200D01*
X755855Y375238D01*
X755950Y375272D01*
X756045Y375303D01*
X756142Y375330D01*
X756240Y375353D01*
X756339Y375373D01*
X756439Y375388D01*
X756539Y375400D01*
X756639Y375408D01*
X756740Y375412D01*
X756840Y375412D01*
X756941Y375408D01*
X757041Y375400D01*
X757141Y375388D01*
X757241Y375373D01*
X757340Y375353D01*
X757438Y375330D01*
X757535Y375303D01*
X757630Y375272D01*
X757725Y375238D01*
X757818Y375200D01*
X757910Y375158D01*
X758000Y375113D01*
X758088Y375064D01*
X758174Y375012D01*
X758258Y374957D01*
X758340Y374898D01*
X758420Y374837D01*
X758497Y374772D01*
X758571Y374704D01*
X758643Y374634D01*
X758712Y374561D01*
X758779Y374485D01*
X758842Y374406D01*
X758902Y374326D01*
X758959Y374243D01*
X759013Y374157D01*
X759063Y374070D01*
X759110Y373981D01*
X759153Y373890D01*
X759193Y373798D01*
X759229Y373704D01*
X759262Y373609D01*
X759291Y373512D01*
X759316Y373415D01*
X759337Y373316D01*
X759355Y373217D01*
X759368Y373117D01*
X759378Y373017D01*
X759384Y372917D01*
X759386Y372816D01*
X759384Y372715D01*
X759378Y372615D01*
X759368Y372515D01*
X759355Y372415D01*
X759337Y372316D01*
X759316Y372217D01*
X759291Y372120D01*
X759262Y372023D01*
X759229Y371928D01*
X759193Y371834D01*
X759153Y371742D01*
X759110Y371651D01*
X759063Y371562D01*
X759013Y371475D01*
X758959Y371389D01*
X758902Y371306D01*
X758842Y371226D01*
X758779Y371147D01*
X758712Y371071D01*
X758643Y370998D01*
X758571Y370928D01*
X758497Y370860D01*
X758420Y370795D01*
X758340Y370734D01*
X758258Y370675D01*
X758174Y370620D01*
X758088Y370568D01*
X758000Y370519D01*
X757910Y370474D01*
X757818Y370432D01*
X757725Y370394D01*
X757630Y370360D01*
X757535Y370329D01*
X757438Y370302D01*
X757340Y370279D01*
X757241Y370259D01*
X757141Y370244D01*
X757041Y370232D01*
X756941Y370224D01*
X756840Y370220D01*
X756740Y370220D01*
X756639Y370224D01*
X756539Y370232D01*
X756439Y370244D01*
X756339Y370259D01*
X756240Y370279D01*
X756142Y370302D01*
X756045Y370329D01*
X755950Y370360D01*
X755855Y370394D01*
X755762Y370432D01*
X755670Y370474D01*
X755580Y370519D01*
X755492Y370568D01*
X755406Y370620D01*
X755322Y370675D01*
X755240Y370734D01*
X755160Y370795D01*
X755083Y370860D01*
X755009Y370928D01*
X754937Y370998D01*
X754868Y371071D01*
X754801Y371147D01*
X754738Y371226D01*
X754678Y371306D01*
X754621Y371389D01*
X754567Y371475D01*
X754517Y371562D01*
X754470Y371651D01*
X754427Y371742D01*
X754387Y371834D01*
X754351Y371928D01*
X754318Y372023D01*
X754289Y372120D01*
X754264Y372217D01*
X754243Y372316D01*
X754225Y372415D01*
X754212Y372515D01*
X754202Y372615D01*
X754196Y372715D01*
X754194Y372816D01*
X743645Y394208D02*
X743645Y405892D01*
X746890Y405892D01*
X747003Y405890D01*
X747116Y405884D01*
X747229Y405874D01*
X747342Y405860D01*
X747454Y405843D01*
X747565Y405821D01*
X747675Y405796D01*
X747785Y405766D01*
X747893Y405733D01*
X748000Y405696D01*
X748106Y405656D01*
X748210Y405611D01*
X748313Y405563D01*
X748414Y405512D01*
X748513Y405457D01*
X748610Y405399D01*
X748705Y405337D01*
X748798Y405272D01*
X748888Y405204D01*
X748976Y405133D01*
X749062Y405058D01*
X749145Y404981D01*
X749225Y404901D01*
X749302Y404818D01*
X749377Y404732D01*
X749448Y404644D01*
X749516Y404554D01*
X749581Y404461D01*
X749643Y404366D01*
X749701Y404269D01*
X749756Y404170D01*
X749807Y404069D01*
X749855Y403966D01*
X749900Y403862D01*
X749940Y403756D01*
X749977Y403649D01*
X750010Y403541D01*
X750040Y403431D01*
X750065Y403321D01*
X750087Y403210D01*
X750104Y403098D01*
X750118Y402985D01*
X750128Y402872D01*
X750134Y402759D01*
X750136Y402646D01*
X750134Y402533D01*
X750128Y402420D01*
X750118Y402307D01*
X750104Y402194D01*
X750087Y402082D01*
X750065Y401971D01*
X750040Y401861D01*
X750010Y401751D01*
X749977Y401643D01*
X749940Y401536D01*
X749900Y401430D01*
X749855Y401326D01*
X749807Y401223D01*
X749756Y401122D01*
X749701Y401023D01*
X749643Y400926D01*
X749581Y400831D01*
X749516Y400738D01*
X749448Y400648D01*
X749377Y400560D01*
X749302Y400474D01*
X749225Y400391D01*
X749145Y400311D01*
X749062Y400234D01*
X748976Y400159D01*
X748888Y400088D01*
X748798Y400020D01*
X748705Y399955D01*
X748610Y399893D01*
X748513Y399835D01*
X748414Y399780D01*
X748313Y399729D01*
X748210Y399681D01*
X748106Y399636D01*
X748000Y399596D01*
X747893Y399559D01*
X747785Y399526D01*
X747675Y399496D01*
X747565Y399471D01*
X747454Y399449D01*
X747342Y399432D01*
X747229Y399418D01*
X747116Y399408D01*
X747003Y399402D01*
X746890Y399400D01*
X746890Y399401D02*
X743645Y399401D01*
X747539Y399401D02*
X750136Y394208D01*
X757597Y399401D02*
X761492Y399401D01*
X757597Y399401D02*
X757498Y399403D01*
X757398Y399409D01*
X757299Y399418D01*
X757201Y399431D01*
X757103Y399448D01*
X757005Y399469D01*
X756909Y399494D01*
X756814Y399522D01*
X756720Y399554D01*
X756627Y399589D01*
X756535Y399628D01*
X756445Y399671D01*
X756357Y399716D01*
X756270Y399766D01*
X756186Y399818D01*
X756103Y399874D01*
X756023Y399932D01*
X755945Y399994D01*
X755870Y400059D01*
X755797Y400127D01*
X755727Y400197D01*
X755659Y400270D01*
X755594Y400345D01*
X755532Y400423D01*
X755474Y400503D01*
X755418Y400586D01*
X755366Y400670D01*
X755316Y400757D01*
X755271Y400845D01*
X755228Y400935D01*
X755189Y401027D01*
X755154Y401120D01*
X755122Y401214D01*
X755094Y401309D01*
X755069Y401405D01*
X755048Y401503D01*
X755031Y401601D01*
X755018Y401699D01*
X755009Y401798D01*
X755003Y401898D01*
X755001Y401997D01*
X755001Y402646D01*
X755000Y402646D02*
X755002Y402759D01*
X755008Y402872D01*
X755018Y402985D01*
X755032Y403098D01*
X755049Y403210D01*
X755071Y403321D01*
X755096Y403431D01*
X755126Y403541D01*
X755159Y403649D01*
X755196Y403756D01*
X755236Y403862D01*
X755281Y403966D01*
X755329Y404069D01*
X755380Y404170D01*
X755435Y404269D01*
X755493Y404366D01*
X755555Y404461D01*
X755620Y404554D01*
X755688Y404644D01*
X755759Y404732D01*
X755834Y404818D01*
X755911Y404901D01*
X755991Y404981D01*
X756074Y405058D01*
X756160Y405133D01*
X756248Y405204D01*
X756338Y405272D01*
X756431Y405337D01*
X756526Y405399D01*
X756623Y405457D01*
X756722Y405512D01*
X756823Y405563D01*
X756926Y405611D01*
X757030Y405656D01*
X757136Y405696D01*
X757243Y405733D01*
X757351Y405766D01*
X757461Y405796D01*
X757571Y405821D01*
X757682Y405843D01*
X757794Y405860D01*
X757907Y405874D01*
X758020Y405884D01*
X758133Y405890D01*
X758246Y405892D01*
X758359Y405890D01*
X758472Y405884D01*
X758585Y405874D01*
X758698Y405860D01*
X758810Y405843D01*
X758921Y405821D01*
X759031Y405796D01*
X759141Y405766D01*
X759249Y405733D01*
X759356Y405696D01*
X759462Y405656D01*
X759566Y405611D01*
X759669Y405563D01*
X759770Y405512D01*
X759869Y405457D01*
X759966Y405399D01*
X760061Y405337D01*
X760154Y405272D01*
X760244Y405204D01*
X760332Y405133D01*
X760418Y405058D01*
X760501Y404981D01*
X760581Y404901D01*
X760658Y404818D01*
X760733Y404732D01*
X760804Y404644D01*
X760872Y404554D01*
X760937Y404461D01*
X760999Y404366D01*
X761057Y404269D01*
X761112Y404170D01*
X761163Y404069D01*
X761211Y403966D01*
X761256Y403862D01*
X761296Y403756D01*
X761333Y403649D01*
X761366Y403541D01*
X761396Y403431D01*
X761421Y403321D01*
X761443Y403210D01*
X761460Y403098D01*
X761474Y402985D01*
X761484Y402872D01*
X761490Y402759D01*
X761492Y402646D01*
X761492Y399401D01*
X761490Y399258D01*
X761484Y399115D01*
X761474Y398972D01*
X761460Y398830D01*
X761443Y398688D01*
X761421Y398546D01*
X761396Y398405D01*
X761366Y398265D01*
X761333Y398126D01*
X761296Y397988D01*
X761255Y397851D01*
X761211Y397715D01*
X761162Y397580D01*
X761110Y397447D01*
X761055Y397315D01*
X760995Y397185D01*
X760932Y397056D01*
X760866Y396929D01*
X760796Y396804D01*
X760723Y396682D01*
X760646Y396561D01*
X760566Y396442D01*
X760483Y396326D01*
X760397Y396211D01*
X760308Y396100D01*
X760215Y395990D01*
X760120Y395884D01*
X760021Y395780D01*
X759920Y395679D01*
X759816Y395580D01*
X759710Y395485D01*
X759600Y395392D01*
X759489Y395303D01*
X759374Y395217D01*
X759258Y395134D01*
X759139Y395054D01*
X759018Y394977D01*
X758896Y394904D01*
X758771Y394834D01*
X758644Y394768D01*
X758515Y394705D01*
X758385Y394645D01*
X758253Y394590D01*
X758120Y394538D01*
X757985Y394489D01*
X757849Y394445D01*
X757712Y394404D01*
X757574Y394367D01*
X757435Y394334D01*
X757295Y394304D01*
X757154Y394279D01*
X757012Y394257D01*
X756870Y394240D01*
X756728Y394226D01*
X756585Y394216D01*
X756442Y394210D01*
X756299Y394208D01*
X696655Y498348D02*
X696655Y510032D01*
X699900Y510032D01*
X700013Y510030D01*
X700126Y510024D01*
X700239Y510014D01*
X700352Y510000D01*
X700464Y509983D01*
X700575Y509961D01*
X700685Y509936D01*
X700795Y509906D01*
X700903Y509873D01*
X701010Y509836D01*
X701116Y509796D01*
X701220Y509751D01*
X701323Y509703D01*
X701424Y509652D01*
X701523Y509597D01*
X701620Y509539D01*
X701715Y509477D01*
X701808Y509412D01*
X701898Y509344D01*
X701986Y509273D01*
X702072Y509198D01*
X702155Y509121D01*
X702235Y509041D01*
X702312Y508958D01*
X702387Y508872D01*
X702458Y508784D01*
X702526Y508694D01*
X702591Y508601D01*
X702653Y508506D01*
X702711Y508409D01*
X702766Y508310D01*
X702817Y508209D01*
X702865Y508106D01*
X702910Y508002D01*
X702950Y507896D01*
X702987Y507789D01*
X703020Y507681D01*
X703050Y507571D01*
X703075Y507461D01*
X703097Y507350D01*
X703114Y507238D01*
X703128Y507125D01*
X703138Y507012D01*
X703144Y506899D01*
X703146Y506786D01*
X703144Y506673D01*
X703138Y506560D01*
X703128Y506447D01*
X703114Y506334D01*
X703097Y506222D01*
X703075Y506111D01*
X703050Y506001D01*
X703020Y505891D01*
X702987Y505783D01*
X702950Y505676D01*
X702910Y505570D01*
X702865Y505466D01*
X702817Y505363D01*
X702766Y505262D01*
X702711Y505163D01*
X702653Y505066D01*
X702591Y504971D01*
X702526Y504878D01*
X702458Y504788D01*
X702387Y504700D01*
X702312Y504614D01*
X702235Y504531D01*
X702155Y504451D01*
X702072Y504374D01*
X701986Y504299D01*
X701898Y504228D01*
X701808Y504160D01*
X701715Y504095D01*
X701620Y504033D01*
X701523Y503975D01*
X701424Y503920D01*
X701323Y503869D01*
X701220Y503821D01*
X701116Y503776D01*
X701010Y503736D01*
X700903Y503699D01*
X700795Y503666D01*
X700685Y503636D01*
X700575Y503611D01*
X700464Y503589D01*
X700352Y503572D01*
X700239Y503558D01*
X700126Y503548D01*
X700013Y503542D01*
X699900Y503540D01*
X699900Y503541D02*
X696655Y503541D01*
X700549Y503541D02*
X703146Y498348D01*
X708011Y507436D02*
X711256Y510032D01*
X711256Y498348D01*
X708011Y498348D02*
X714502Y498348D01*
X719441Y504190D02*
X719444Y504420D01*
X719452Y504650D01*
X719466Y504879D01*
X719485Y505108D01*
X719510Y505337D01*
X719540Y505564D01*
X719575Y505792D01*
X719616Y506018D01*
X719662Y506243D01*
X719714Y506467D01*
X719771Y506689D01*
X719833Y506911D01*
X719901Y507130D01*
X719974Y507348D01*
X720052Y507565D01*
X720135Y507779D01*
X720223Y507991D01*
X720316Y508201D01*
X720415Y508409D01*
X720414Y508409D02*
X720447Y508499D01*
X720483Y508588D01*
X720523Y508676D01*
X720567Y508761D01*
X720614Y508845D01*
X720664Y508927D01*
X720718Y509007D01*
X720774Y509084D01*
X720834Y509160D01*
X720897Y509233D01*
X720962Y509303D01*
X721031Y509371D01*
X721102Y509435D01*
X721175Y509497D01*
X721251Y509556D01*
X721329Y509612D01*
X721410Y509665D01*
X721492Y509714D01*
X721576Y509760D01*
X721663Y509803D01*
X721750Y509842D01*
X721840Y509878D01*
X721930Y509910D01*
X722022Y509938D01*
X722115Y509963D01*
X722209Y509984D01*
X722303Y510001D01*
X722398Y510015D01*
X722494Y510024D01*
X722590Y510030D01*
X722686Y510032D01*
X722782Y510030D01*
X722878Y510024D01*
X722974Y510015D01*
X723069Y510001D01*
X723163Y509984D01*
X723257Y509963D01*
X723350Y509938D01*
X723442Y509910D01*
X723532Y509878D01*
X723622Y509842D01*
X723709Y509803D01*
X723796Y509760D01*
X723880Y509714D01*
X723962Y509665D01*
X724043Y509612D01*
X724121Y509556D01*
X724197Y509497D01*
X724270Y509435D01*
X724341Y509371D01*
X724410Y509303D01*
X724475Y509233D01*
X724538Y509160D01*
X724598Y509084D01*
X724654Y509007D01*
X724708Y508927D01*
X724758Y508845D01*
X724805Y508761D01*
X724849Y508676D01*
X724889Y508588D01*
X724925Y508499D01*
X724958Y508409D01*
X724959Y508409D02*
X725058Y508202D01*
X725151Y507992D01*
X725239Y507779D01*
X725322Y507565D01*
X725400Y507349D01*
X725473Y507131D01*
X725541Y506911D01*
X725603Y506690D01*
X725660Y506467D01*
X725712Y506243D01*
X725758Y506018D01*
X725799Y505792D01*
X725834Y505565D01*
X725864Y505337D01*
X725889Y505108D01*
X725908Y504879D01*
X725922Y504650D01*
X725930Y504420D01*
X725933Y504190D01*
X719441Y504190D02*
X719444Y503960D01*
X719452Y503730D01*
X719466Y503501D01*
X719485Y503272D01*
X719510Y503043D01*
X719540Y502815D01*
X719575Y502588D01*
X719616Y502362D01*
X719662Y502137D01*
X719714Y501913D01*
X719771Y501690D01*
X719833Y501469D01*
X719901Y501249D01*
X719974Y501031D01*
X720052Y500815D01*
X720135Y500601D01*
X720223Y500389D01*
X720316Y500178D01*
X720415Y499971D01*
X720414Y499971D02*
X720447Y499881D01*
X720483Y499792D01*
X720524Y499704D01*
X720567Y499619D01*
X720614Y499535D01*
X720664Y499453D01*
X720718Y499373D01*
X720774Y499296D01*
X720834Y499220D01*
X720897Y499147D01*
X720962Y499077D01*
X721031Y499009D01*
X721102Y498945D01*
X721175Y498883D01*
X721251Y498824D01*
X721329Y498768D01*
X721410Y498715D01*
X721492Y498666D01*
X721576Y498620D01*
X721663Y498577D01*
X721750Y498538D01*
X721840Y498502D01*
X721930Y498470D01*
X722022Y498442D01*
X722115Y498417D01*
X722209Y498396D01*
X722303Y498379D01*
X722398Y498365D01*
X722494Y498356D01*
X722590Y498350D01*
X722686Y498348D01*
X724958Y499971D02*
X725057Y500178D01*
X725150Y500389D01*
X725238Y500601D01*
X725321Y500815D01*
X725399Y501031D01*
X725472Y501249D01*
X725540Y501469D01*
X725602Y501690D01*
X725659Y501913D01*
X725711Y502137D01*
X725757Y502362D01*
X725798Y502588D01*
X725833Y502815D01*
X725863Y503043D01*
X725888Y503272D01*
X725907Y503501D01*
X725921Y503730D01*
X725929Y503960D01*
X725932Y504190D01*
X724958Y499971D02*
X724925Y499881D01*
X724889Y499792D01*
X724849Y499704D01*
X724805Y499619D01*
X724758Y499535D01*
X724708Y499453D01*
X724654Y499373D01*
X724598Y499296D01*
X724538Y499220D01*
X724475Y499147D01*
X724410Y499077D01*
X724341Y499009D01*
X724270Y498945D01*
X724197Y498883D01*
X724121Y498824D01*
X724043Y498768D01*
X723962Y498715D01*
X723880Y498666D01*
X723796Y498620D01*
X723709Y498577D01*
X723622Y498538D01*
X723532Y498502D01*
X723442Y498470D01*
X723350Y498442D01*
X723257Y498417D01*
X723163Y498396D01*
X723069Y498379D01*
X722974Y498365D01*
X722878Y498356D01*
X722782Y498350D01*
X722686Y498348D01*
X720090Y500944D02*
X725283Y507436D01*
X650861Y254508D02*
X648264Y254508D01*
X648165Y254510D01*
X648065Y254516D01*
X647966Y254525D01*
X647868Y254538D01*
X647770Y254555D01*
X647672Y254576D01*
X647576Y254601D01*
X647481Y254629D01*
X647387Y254661D01*
X647294Y254696D01*
X647202Y254735D01*
X647112Y254778D01*
X647024Y254823D01*
X646937Y254873D01*
X646853Y254925D01*
X646770Y254981D01*
X646690Y255039D01*
X646612Y255101D01*
X646537Y255166D01*
X646464Y255234D01*
X646394Y255304D01*
X646326Y255377D01*
X646261Y255452D01*
X646199Y255530D01*
X646141Y255610D01*
X646085Y255693D01*
X646033Y255777D01*
X645983Y255864D01*
X645938Y255952D01*
X645895Y256042D01*
X645856Y256134D01*
X645821Y256227D01*
X645789Y256321D01*
X645761Y256416D01*
X645736Y256512D01*
X645715Y256610D01*
X645698Y256708D01*
X645685Y256806D01*
X645676Y256905D01*
X645670Y257005D01*
X645668Y257104D01*
X645668Y263596D01*
X645670Y263695D01*
X645676Y263795D01*
X645685Y263894D01*
X645698Y263992D01*
X645715Y264090D01*
X645736Y264188D01*
X645761Y264284D01*
X645789Y264379D01*
X645821Y264473D01*
X645856Y264566D01*
X645895Y264658D01*
X645938Y264748D01*
X645983Y264836D01*
X646033Y264923D01*
X646085Y265007D01*
X646141Y265090D01*
X646199Y265170D01*
X646261Y265248D01*
X646326Y265323D01*
X646394Y265396D01*
X646464Y265466D01*
X646537Y265534D01*
X646612Y265599D01*
X646690Y265661D01*
X646770Y265719D01*
X646853Y265775D01*
X646937Y265827D01*
X647024Y265877D01*
X647112Y265922D01*
X647202Y265965D01*
X647294Y266004D01*
X647386Y266039D01*
X647481Y266071D01*
X647576Y266099D01*
X647672Y266124D01*
X647770Y266145D01*
X647868Y266162D01*
X647966Y266175D01*
X648065Y266184D01*
X648165Y266190D01*
X648264Y266192D01*
X650861Y266192D01*
X655226Y257754D02*
X655228Y257867D01*
X655234Y257980D01*
X655244Y258093D01*
X655258Y258206D01*
X655275Y258318D01*
X655297Y258429D01*
X655322Y258539D01*
X655352Y258649D01*
X655385Y258757D01*
X655422Y258864D01*
X655462Y258970D01*
X655507Y259074D01*
X655555Y259177D01*
X655606Y259278D01*
X655661Y259377D01*
X655719Y259474D01*
X655781Y259569D01*
X655846Y259662D01*
X655914Y259752D01*
X655985Y259840D01*
X656060Y259926D01*
X656137Y260009D01*
X656217Y260089D01*
X656300Y260166D01*
X656386Y260241D01*
X656474Y260312D01*
X656564Y260380D01*
X656657Y260445D01*
X656752Y260507D01*
X656849Y260565D01*
X656948Y260620D01*
X657049Y260671D01*
X657152Y260719D01*
X657256Y260764D01*
X657362Y260804D01*
X657469Y260841D01*
X657577Y260874D01*
X657687Y260904D01*
X657797Y260929D01*
X657908Y260951D01*
X658020Y260968D01*
X658133Y260982D01*
X658246Y260992D01*
X658359Y260998D01*
X658472Y261000D01*
X658585Y260998D01*
X658698Y260992D01*
X658811Y260982D01*
X658924Y260968D01*
X659036Y260951D01*
X659147Y260929D01*
X659257Y260904D01*
X659367Y260874D01*
X659475Y260841D01*
X659582Y260804D01*
X659688Y260764D01*
X659792Y260719D01*
X659895Y260671D01*
X659996Y260620D01*
X660095Y260565D01*
X660192Y260507D01*
X660287Y260445D01*
X660380Y260380D01*
X660470Y260312D01*
X660558Y260241D01*
X660644Y260166D01*
X660727Y260089D01*
X660807Y260009D01*
X660884Y259926D01*
X660959Y259840D01*
X661030Y259752D01*
X661098Y259662D01*
X661163Y259569D01*
X661225Y259474D01*
X661283Y259377D01*
X661338Y259278D01*
X661389Y259177D01*
X661437Y259074D01*
X661482Y258970D01*
X661522Y258864D01*
X661559Y258757D01*
X661592Y258649D01*
X661622Y258539D01*
X661647Y258429D01*
X661669Y258318D01*
X661686Y258206D01*
X661700Y258093D01*
X661710Y257980D01*
X661716Y257867D01*
X661718Y257754D01*
X661716Y257641D01*
X661710Y257528D01*
X661700Y257415D01*
X661686Y257302D01*
X661669Y257190D01*
X661647Y257079D01*
X661622Y256969D01*
X661592Y256859D01*
X661559Y256751D01*
X661522Y256644D01*
X661482Y256538D01*
X661437Y256434D01*
X661389Y256331D01*
X661338Y256230D01*
X661283Y256131D01*
X661225Y256034D01*
X661163Y255939D01*
X661098Y255846D01*
X661030Y255756D01*
X660959Y255668D01*
X660884Y255582D01*
X660807Y255499D01*
X660727Y255419D01*
X660644Y255342D01*
X660558Y255267D01*
X660470Y255196D01*
X660380Y255128D01*
X660287Y255063D01*
X660192Y255001D01*
X660095Y254943D01*
X659996Y254888D01*
X659895Y254837D01*
X659792Y254789D01*
X659688Y254744D01*
X659582Y254704D01*
X659475Y254667D01*
X659367Y254634D01*
X659257Y254604D01*
X659147Y254579D01*
X659036Y254557D01*
X658924Y254540D01*
X658811Y254526D01*
X658698Y254516D01*
X658585Y254510D01*
X658472Y254508D01*
X658359Y254510D01*
X658246Y254516D01*
X658133Y254526D01*
X658020Y254540D01*
X657908Y254557D01*
X657797Y254579D01*
X657687Y254604D01*
X657577Y254634D01*
X657469Y254667D01*
X657362Y254704D01*
X657256Y254744D01*
X657152Y254789D01*
X657049Y254837D01*
X656948Y254888D01*
X656849Y254943D01*
X656752Y255001D01*
X656657Y255063D01*
X656564Y255128D01*
X656474Y255196D01*
X656386Y255267D01*
X656300Y255342D01*
X656217Y255419D01*
X656137Y255499D01*
X656060Y255582D01*
X655985Y255668D01*
X655914Y255756D01*
X655846Y255846D01*
X655781Y255939D01*
X655719Y256034D01*
X655661Y256131D01*
X655606Y256230D01*
X655555Y256331D01*
X655507Y256434D01*
X655462Y256538D01*
X655422Y256644D01*
X655385Y256751D01*
X655352Y256859D01*
X655322Y256969D01*
X655297Y257079D01*
X655275Y257190D01*
X655258Y257302D01*
X655244Y257415D01*
X655234Y257528D01*
X655228Y257641D01*
X655226Y257754D01*
X655876Y263596D02*
X655878Y263697D01*
X655884Y263797D01*
X655894Y263897D01*
X655907Y263997D01*
X655925Y264096D01*
X655946Y264195D01*
X655971Y264292D01*
X656000Y264389D01*
X656033Y264484D01*
X656069Y264578D01*
X656109Y264670D01*
X656152Y264761D01*
X656199Y264850D01*
X656249Y264937D01*
X656303Y265023D01*
X656360Y265106D01*
X656420Y265186D01*
X656483Y265265D01*
X656550Y265341D01*
X656619Y265414D01*
X656691Y265484D01*
X656765Y265552D01*
X656842Y265617D01*
X656922Y265678D01*
X657004Y265737D01*
X657088Y265792D01*
X657174Y265844D01*
X657262Y265893D01*
X657352Y265938D01*
X657444Y265980D01*
X657537Y266018D01*
X657632Y266052D01*
X657727Y266083D01*
X657824Y266110D01*
X657922Y266133D01*
X658021Y266153D01*
X658121Y266168D01*
X658221Y266180D01*
X658321Y266188D01*
X658422Y266192D01*
X658522Y266192D01*
X658623Y266188D01*
X658723Y266180D01*
X658823Y266168D01*
X658923Y266153D01*
X659022Y266133D01*
X659120Y266110D01*
X659217Y266083D01*
X659312Y266052D01*
X659407Y266018D01*
X659500Y265980D01*
X659592Y265938D01*
X659682Y265893D01*
X659770Y265844D01*
X659856Y265792D01*
X659940Y265737D01*
X660022Y265678D01*
X660102Y265617D01*
X660179Y265552D01*
X660253Y265484D01*
X660325Y265414D01*
X660394Y265341D01*
X660461Y265265D01*
X660524Y265186D01*
X660584Y265106D01*
X660641Y265023D01*
X660695Y264937D01*
X660745Y264850D01*
X660792Y264761D01*
X660835Y264670D01*
X660875Y264578D01*
X660911Y264484D01*
X660944Y264389D01*
X660973Y264292D01*
X660998Y264195D01*
X661019Y264096D01*
X661037Y263997D01*
X661050Y263897D01*
X661060Y263797D01*
X661066Y263697D01*
X661068Y263596D01*
X661066Y263495D01*
X661060Y263395D01*
X661050Y263295D01*
X661037Y263195D01*
X661019Y263096D01*
X660998Y262997D01*
X660973Y262900D01*
X660944Y262803D01*
X660911Y262708D01*
X660875Y262614D01*
X660835Y262522D01*
X660792Y262431D01*
X660745Y262342D01*
X660695Y262255D01*
X660641Y262169D01*
X660584Y262086D01*
X660524Y262006D01*
X660461Y261927D01*
X660394Y261851D01*
X660325Y261778D01*
X660253Y261708D01*
X660179Y261640D01*
X660102Y261575D01*
X660022Y261514D01*
X659940Y261455D01*
X659856Y261400D01*
X659770Y261348D01*
X659682Y261299D01*
X659592Y261254D01*
X659500Y261212D01*
X659407Y261174D01*
X659312Y261140D01*
X659217Y261109D01*
X659120Y261082D01*
X659022Y261059D01*
X658923Y261039D01*
X658823Y261024D01*
X658723Y261012D01*
X658623Y261004D01*
X658522Y261000D01*
X658422Y261000D01*
X658321Y261004D01*
X658221Y261012D01*
X658121Y261024D01*
X658021Y261039D01*
X657922Y261059D01*
X657824Y261082D01*
X657727Y261109D01*
X657632Y261140D01*
X657537Y261174D01*
X657444Y261212D01*
X657352Y261254D01*
X657262Y261299D01*
X657174Y261348D01*
X657088Y261400D01*
X657004Y261455D01*
X656922Y261514D01*
X656842Y261575D01*
X656765Y261640D01*
X656691Y261708D01*
X656619Y261778D01*
X656550Y261851D01*
X656483Y261927D01*
X656420Y262006D01*
X656360Y262086D01*
X656303Y262169D01*
X656249Y262255D01*
X656199Y262342D01*
X656152Y262431D01*
X656109Y262522D01*
X656069Y262614D01*
X656033Y262708D01*
X656000Y262803D01*
X655971Y262900D01*
X655946Y262997D01*
X655925Y263096D01*
X655907Y263195D01*
X655894Y263295D01*
X655884Y263395D01*
X655878Y263495D01*
X655876Y263596D01*
X693984Y290068D02*
X696581Y290068D01*
X693984Y290068D02*
X693885Y290070D01*
X693785Y290076D01*
X693686Y290085D01*
X693588Y290098D01*
X693490Y290115D01*
X693392Y290136D01*
X693296Y290161D01*
X693201Y290189D01*
X693107Y290221D01*
X693014Y290256D01*
X692922Y290295D01*
X692832Y290338D01*
X692744Y290383D01*
X692657Y290433D01*
X692573Y290485D01*
X692490Y290541D01*
X692410Y290599D01*
X692332Y290661D01*
X692257Y290726D01*
X692184Y290794D01*
X692114Y290864D01*
X692046Y290937D01*
X691981Y291012D01*
X691919Y291090D01*
X691861Y291170D01*
X691805Y291253D01*
X691753Y291337D01*
X691703Y291424D01*
X691658Y291512D01*
X691615Y291602D01*
X691576Y291694D01*
X691541Y291787D01*
X691509Y291881D01*
X691481Y291976D01*
X691456Y292072D01*
X691435Y292170D01*
X691418Y292268D01*
X691405Y292366D01*
X691396Y292465D01*
X691390Y292565D01*
X691388Y292664D01*
X691388Y299156D01*
X691390Y299255D01*
X691396Y299355D01*
X691405Y299454D01*
X691418Y299552D01*
X691435Y299650D01*
X691456Y299748D01*
X691481Y299844D01*
X691509Y299939D01*
X691541Y300033D01*
X691576Y300126D01*
X691615Y300218D01*
X691658Y300308D01*
X691703Y300396D01*
X691753Y300483D01*
X691805Y300567D01*
X691861Y300650D01*
X691919Y300730D01*
X691981Y300808D01*
X692046Y300883D01*
X692114Y300956D01*
X692184Y301026D01*
X692257Y301094D01*
X692332Y301159D01*
X692410Y301221D01*
X692490Y301279D01*
X692573Y301335D01*
X692657Y301387D01*
X692744Y301437D01*
X692832Y301482D01*
X692922Y301525D01*
X693014Y301564D01*
X693106Y301599D01*
X693201Y301631D01*
X693296Y301659D01*
X693392Y301684D01*
X693490Y301705D01*
X693588Y301722D01*
X693686Y301735D01*
X693785Y301744D01*
X693885Y301750D01*
X693984Y301752D01*
X696581Y301752D01*
X703543Y295261D02*
X707437Y295261D01*
X703543Y295261D02*
X703444Y295263D01*
X703344Y295269D01*
X703245Y295278D01*
X703147Y295291D01*
X703049Y295308D01*
X702951Y295329D01*
X702855Y295354D01*
X702760Y295382D01*
X702666Y295414D01*
X702573Y295449D01*
X702481Y295488D01*
X702391Y295531D01*
X702303Y295576D01*
X702216Y295626D01*
X702132Y295678D01*
X702049Y295734D01*
X701969Y295792D01*
X701891Y295854D01*
X701816Y295919D01*
X701743Y295987D01*
X701673Y296057D01*
X701605Y296130D01*
X701540Y296205D01*
X701478Y296283D01*
X701420Y296363D01*
X701364Y296446D01*
X701312Y296530D01*
X701262Y296617D01*
X701217Y296705D01*
X701174Y296795D01*
X701135Y296887D01*
X701100Y296980D01*
X701068Y297074D01*
X701040Y297169D01*
X701015Y297265D01*
X700994Y297363D01*
X700977Y297461D01*
X700964Y297559D01*
X700955Y297658D01*
X700949Y297758D01*
X700947Y297857D01*
X700946Y297857D02*
X700946Y298506D01*
X700948Y298619D01*
X700954Y298732D01*
X700964Y298845D01*
X700978Y298958D01*
X700995Y299070D01*
X701017Y299181D01*
X701042Y299291D01*
X701072Y299401D01*
X701105Y299509D01*
X701142Y299616D01*
X701182Y299722D01*
X701227Y299826D01*
X701275Y299929D01*
X701326Y300030D01*
X701381Y300129D01*
X701439Y300226D01*
X701501Y300321D01*
X701566Y300414D01*
X701634Y300504D01*
X701705Y300592D01*
X701780Y300678D01*
X701857Y300761D01*
X701937Y300841D01*
X702020Y300918D01*
X702106Y300993D01*
X702194Y301064D01*
X702284Y301132D01*
X702377Y301197D01*
X702472Y301259D01*
X702569Y301317D01*
X702668Y301372D01*
X702769Y301423D01*
X702872Y301471D01*
X702976Y301516D01*
X703082Y301556D01*
X703189Y301593D01*
X703297Y301626D01*
X703407Y301656D01*
X703517Y301681D01*
X703628Y301703D01*
X703740Y301720D01*
X703853Y301734D01*
X703966Y301744D01*
X704079Y301750D01*
X704192Y301752D01*
X704305Y301750D01*
X704418Y301744D01*
X704531Y301734D01*
X704644Y301720D01*
X704756Y301703D01*
X704867Y301681D01*
X704977Y301656D01*
X705087Y301626D01*
X705195Y301593D01*
X705302Y301556D01*
X705408Y301516D01*
X705512Y301471D01*
X705615Y301423D01*
X705716Y301372D01*
X705815Y301317D01*
X705912Y301259D01*
X706007Y301197D01*
X706100Y301132D01*
X706190Y301064D01*
X706278Y300993D01*
X706364Y300918D01*
X706447Y300841D01*
X706527Y300761D01*
X706604Y300678D01*
X706679Y300592D01*
X706750Y300504D01*
X706818Y300414D01*
X706883Y300321D01*
X706945Y300226D01*
X707003Y300129D01*
X707058Y300030D01*
X707109Y299929D01*
X707157Y299826D01*
X707202Y299722D01*
X707242Y299616D01*
X707279Y299509D01*
X707312Y299401D01*
X707342Y299291D01*
X707367Y299181D01*
X707389Y299070D01*
X707406Y298958D01*
X707420Y298845D01*
X707430Y298732D01*
X707436Y298619D01*
X707438Y298506D01*
X707437Y298506D02*
X707437Y295261D01*
X707435Y295118D01*
X707429Y294975D01*
X707419Y294832D01*
X707405Y294690D01*
X707388Y294548D01*
X707366Y294406D01*
X707341Y294265D01*
X707311Y294125D01*
X707278Y293986D01*
X707241Y293848D01*
X707200Y293711D01*
X707156Y293575D01*
X707107Y293440D01*
X707055Y293307D01*
X707000Y293175D01*
X706940Y293045D01*
X706877Y292916D01*
X706811Y292789D01*
X706741Y292664D01*
X706668Y292542D01*
X706591Y292421D01*
X706511Y292302D01*
X706428Y292186D01*
X706342Y292071D01*
X706253Y291960D01*
X706160Y291850D01*
X706065Y291744D01*
X705966Y291640D01*
X705865Y291539D01*
X705761Y291440D01*
X705655Y291345D01*
X705545Y291252D01*
X705434Y291163D01*
X705319Y291077D01*
X705203Y290994D01*
X705084Y290914D01*
X704963Y290837D01*
X704841Y290764D01*
X704716Y290694D01*
X704589Y290628D01*
X704460Y290565D01*
X704330Y290505D01*
X704198Y290450D01*
X704065Y290398D01*
X703930Y290349D01*
X703794Y290305D01*
X703657Y290264D01*
X703519Y290227D01*
X703380Y290194D01*
X703240Y290164D01*
X703099Y290139D01*
X702957Y290117D01*
X702815Y290100D01*
X702673Y290086D01*
X702530Y290076D01*
X702387Y290070D01*
X702244Y290068D01*
D16*
X502920Y266700D02*
X462280Y266700D01*
D13*
X462280Y261620D02*
X502920Y261620D01*
D16*
X502920Y292100D02*
X462280Y292100D01*
D13*
X462280Y297180D02*
X502920Y297180D01*
X441960Y297180D02*
X441960Y261620D01*
D16*
X453390Y275590D02*
X453390Y283210D01*
D13*
X447040Y261620D02*
X441960Y261620D01*
D16*
X447040Y263880D01*
D13*
X447040Y297180D02*
X441960Y297180D01*
D16*
X447040Y294920D01*
D13*
X523240Y297180D02*
X523240Y261620D01*
D16*
X520700Y266700D02*
X520700Y292100D01*
X520700Y266700D02*
X523240Y261620D01*
X520700Y266700D02*
X518160Y266700D01*
D13*
X518160Y261620D02*
X523240Y261620D01*
D16*
X520700Y292100D02*
X518160Y292100D01*
X520700Y292100D02*
X523240Y297180D01*
D13*
X518160Y297180D01*
X477520Y276860D02*
X464820Y276860D01*
X477520Y276860D02*
X477520Y281940D01*
X464820Y281940D01*
X464820Y276860D01*
X464820Y285750D02*
X471170Y285750D01*
X477520Y285750D01*
D16*
X471170Y285750D02*
X471170Y289560D01*
D13*
X471170Y273050D02*
X464820Y273050D01*
X471170Y273050D02*
X477520Y273050D01*
D16*
X471170Y273050D02*
X471170Y269240D01*
D13*
X510540Y279400D02*
X510542Y279500D01*
X510548Y279601D01*
X510558Y279700D01*
X510572Y279800D01*
X510589Y279899D01*
X510611Y279997D01*
X510637Y280094D01*
X510666Y280190D01*
X510699Y280284D01*
X510736Y280378D01*
X510776Y280470D01*
X510820Y280560D01*
X510868Y280648D01*
X510919Y280735D01*
X510973Y280819D01*
X511031Y280901D01*
X511092Y280981D01*
X511156Y281058D01*
X511223Y281133D01*
X511293Y281205D01*
X511366Y281274D01*
X511441Y281340D01*
X511519Y281404D01*
X511599Y281464D01*
X511682Y281521D01*
X511767Y281574D01*
X511854Y281624D01*
X511943Y281671D01*
X512033Y281714D01*
X512125Y281754D01*
X512219Y281790D01*
X512314Y281822D01*
X512410Y281850D01*
X512508Y281875D01*
X512606Y281895D01*
X512705Y281912D01*
X512805Y281925D01*
X512904Y281934D01*
X513005Y281939D01*
X513105Y281940D01*
X513205Y281937D01*
X513306Y281930D01*
X513405Y281919D01*
X513505Y281904D01*
X513603Y281886D01*
X513701Y281863D01*
X513798Y281836D01*
X513893Y281806D01*
X513988Y281772D01*
X514081Y281734D01*
X514172Y281693D01*
X514262Y281648D01*
X514350Y281600D01*
X514436Y281548D01*
X514520Y281493D01*
X514601Y281434D01*
X514680Y281372D01*
X514757Y281308D01*
X514831Y281240D01*
X514902Y281169D01*
X514971Y281096D01*
X515036Y281020D01*
X515099Y280941D01*
X515158Y280860D01*
X515214Y280777D01*
X515267Y280692D01*
X515316Y280604D01*
X515362Y280515D01*
X515404Y280424D01*
X515443Y280331D01*
X515478Y280237D01*
X515509Y280142D01*
X515537Y280045D01*
X515560Y279948D01*
X515580Y279849D01*
X515596Y279750D01*
X515608Y279651D01*
X515616Y279550D01*
X515620Y279450D01*
X515620Y279350D01*
X515616Y279250D01*
X515608Y279149D01*
X515596Y279050D01*
X515580Y278951D01*
X515560Y278852D01*
X515537Y278755D01*
X515509Y278658D01*
X515478Y278563D01*
X515443Y278469D01*
X515404Y278376D01*
X515362Y278285D01*
X515316Y278196D01*
X515267Y278108D01*
X515214Y278023D01*
X515158Y277940D01*
X515099Y277859D01*
X515036Y277780D01*
X514971Y277704D01*
X514902Y277631D01*
X514831Y277560D01*
X514757Y277492D01*
X514680Y277428D01*
X514601Y277366D01*
X514520Y277307D01*
X514436Y277252D01*
X514350Y277200D01*
X514262Y277152D01*
X514172Y277107D01*
X514081Y277066D01*
X513988Y277028D01*
X513893Y276994D01*
X513798Y276964D01*
X513701Y276937D01*
X513603Y276914D01*
X513505Y276896D01*
X513405Y276881D01*
X513306Y276870D01*
X513205Y276863D01*
X513105Y276860D01*
X513005Y276861D01*
X512904Y276866D01*
X512805Y276875D01*
X512705Y276888D01*
X512606Y276905D01*
X512508Y276925D01*
X512410Y276950D01*
X512314Y276978D01*
X512219Y277010D01*
X512125Y277046D01*
X512033Y277086D01*
X511943Y277129D01*
X511854Y277176D01*
X511767Y277226D01*
X511682Y277279D01*
X511599Y277336D01*
X511519Y277396D01*
X511441Y277460D01*
X511366Y277526D01*
X511293Y277595D01*
X511223Y277667D01*
X511156Y277742D01*
X511092Y277819D01*
X511031Y277899D01*
X510973Y277981D01*
X510919Y278065D01*
X510868Y278152D01*
X510820Y278240D01*
X510776Y278330D01*
X510736Y278422D01*
X510699Y278516D01*
X510666Y278610D01*
X510637Y278706D01*
X510611Y278803D01*
X510589Y278901D01*
X510572Y279000D01*
X510558Y279100D01*
X510548Y279199D01*
X510542Y279300D01*
X510540Y279400D01*
D17*
X470535Y298450D02*
X470535Y303530D01*
X470537Y303641D01*
X470543Y303751D01*
X470552Y303862D01*
X470566Y303972D01*
X470583Y304081D01*
X470604Y304190D01*
X470629Y304298D01*
X470658Y304405D01*
X470690Y304511D01*
X470726Y304616D01*
X470766Y304719D01*
X470809Y304821D01*
X470856Y304922D01*
X470907Y305021D01*
X470960Y305118D01*
X471017Y305212D01*
X471078Y305305D01*
X471141Y305396D01*
X471208Y305485D01*
X471278Y305571D01*
X471351Y305654D01*
X471426Y305736D01*
X471504Y305814D01*
X471586Y305889D01*
X471669Y305962D01*
X471755Y306032D01*
X471844Y306099D01*
X471935Y306162D01*
X472028Y306223D01*
X472123Y306280D01*
X472219Y306333D01*
X472318Y306384D01*
X472419Y306431D01*
X472521Y306474D01*
X472624Y306514D01*
X472729Y306550D01*
X472835Y306582D01*
X472942Y306611D01*
X473050Y306636D01*
X473159Y306657D01*
X473268Y306674D01*
X473378Y306688D01*
X473489Y306697D01*
X473599Y306703D01*
X473710Y306705D01*
X473821Y306703D01*
X473931Y306697D01*
X474042Y306688D01*
X474152Y306674D01*
X474261Y306657D01*
X474370Y306636D01*
X474478Y306611D01*
X474585Y306582D01*
X474691Y306550D01*
X474796Y306514D01*
X474899Y306474D01*
X475001Y306431D01*
X475102Y306384D01*
X475201Y306333D01*
X475298Y306280D01*
X475392Y306223D01*
X475485Y306162D01*
X475576Y306099D01*
X475665Y306032D01*
X475751Y305962D01*
X475834Y305889D01*
X475916Y305814D01*
X475994Y305736D01*
X476069Y305654D01*
X476142Y305571D01*
X476212Y305485D01*
X476279Y305396D01*
X476342Y305305D01*
X476403Y305212D01*
X476460Y305118D01*
X476513Y305021D01*
X476564Y304922D01*
X476611Y304821D01*
X476654Y304719D01*
X476694Y304616D01*
X476730Y304511D01*
X476762Y304405D01*
X476791Y304298D01*
X476816Y304190D01*
X476837Y304081D01*
X476854Y303972D01*
X476868Y303862D01*
X476877Y303751D01*
X476883Y303641D01*
X476885Y303530D01*
X476885Y298450D01*
X476883Y298339D01*
X476877Y298229D01*
X476868Y298118D01*
X476854Y298008D01*
X476837Y297899D01*
X476816Y297790D01*
X476791Y297682D01*
X476762Y297575D01*
X476730Y297469D01*
X476694Y297364D01*
X476654Y297261D01*
X476611Y297159D01*
X476564Y297058D01*
X476513Y296959D01*
X476460Y296862D01*
X476403Y296768D01*
X476342Y296675D01*
X476279Y296584D01*
X476212Y296495D01*
X476142Y296409D01*
X476069Y296326D01*
X475994Y296244D01*
X475916Y296166D01*
X475834Y296091D01*
X475751Y296018D01*
X475665Y295948D01*
X475576Y295881D01*
X475485Y295818D01*
X475392Y295757D01*
X475297Y295700D01*
X475201Y295647D01*
X475102Y295596D01*
X475001Y295549D01*
X474899Y295506D01*
X474796Y295466D01*
X474691Y295430D01*
X474585Y295398D01*
X474478Y295369D01*
X474370Y295344D01*
X474261Y295323D01*
X474152Y295306D01*
X474042Y295292D01*
X473931Y295283D01*
X473821Y295277D01*
X473710Y295275D01*
X473599Y295277D01*
X473489Y295283D01*
X473378Y295292D01*
X473268Y295306D01*
X473159Y295323D01*
X473050Y295344D01*
X472942Y295369D01*
X472835Y295398D01*
X472729Y295430D01*
X472624Y295466D01*
X472521Y295506D01*
X472419Y295549D01*
X472318Y295596D01*
X472219Y295647D01*
X472123Y295700D01*
X472028Y295757D01*
X471935Y295818D01*
X471844Y295881D01*
X471755Y295948D01*
X471669Y296018D01*
X471586Y296091D01*
X471504Y296166D01*
X471426Y296244D01*
X471351Y296326D01*
X471278Y296409D01*
X471208Y296495D01*
X471141Y296584D01*
X471078Y296675D01*
X471017Y296768D01*
X470960Y296863D01*
X470907Y296959D01*
X470856Y297058D01*
X470809Y297159D01*
X470766Y297261D01*
X470726Y297364D01*
X470690Y297469D01*
X470658Y297575D01*
X470629Y297682D01*
X470604Y297790D01*
X470583Y297899D01*
X470566Y298008D01*
X470552Y298118D01*
X470543Y298229D01*
X470537Y298339D01*
X470535Y298450D01*
X475615Y297815D02*
X478155Y295275D01*
X481596Y304165D02*
X484771Y306705D01*
X484771Y295275D01*
X481596Y295275D02*
X487946Y295275D01*
D13*
X800100Y488950D02*
X800100Y501650D01*
X800100Y488950D02*
X793750Y482600D01*
X781050Y482600D02*
X774700Y488950D01*
X793750Y482600D02*
X800100Y476250D01*
X800100Y463550D01*
X793750Y457200D01*
X781050Y457200D02*
X774700Y463550D01*
X774700Y476250D01*
X781050Y482600D01*
X781050Y508000D02*
X793750Y508000D01*
X800100Y501650D01*
X781050Y508000D02*
X774700Y501650D01*
X774700Y488950D01*
X793750Y457200D02*
X800100Y450850D01*
X800100Y438150D01*
X793750Y431800D01*
X781050Y431800D02*
X774700Y438150D01*
X774700Y450850D01*
X781050Y457200D01*
X800100Y425450D02*
X800100Y412750D01*
X793750Y406400D01*
X781050Y406400D02*
X774700Y412750D01*
X793750Y406400D02*
X800100Y400050D01*
X800100Y387350D01*
X793750Y381000D01*
X781050Y381000D02*
X774700Y387350D01*
X774700Y400050D01*
X781050Y406400D01*
X800100Y425450D02*
X793750Y431800D01*
X781050Y431800D02*
X774700Y425450D01*
X774700Y412750D01*
X793750Y381000D02*
X800100Y374650D01*
X800100Y361950D01*
X793750Y355600D01*
X781050Y355600D02*
X774700Y361950D01*
X774700Y374650D01*
X781050Y381000D01*
X800100Y349250D02*
X800100Y336550D01*
X793750Y330200D01*
X781050Y330200D01*
X774700Y336550D01*
X793750Y355600D02*
X800100Y349250D01*
X781050Y355600D02*
X774700Y349250D01*
X774700Y336550D01*
D17*
X761365Y494665D02*
X758825Y497840D01*
X770255Y497840D01*
X770255Y494665D02*
X770255Y501015D01*
X804545Y339725D02*
X805815Y339725D01*
X804545Y339725D02*
X804545Y346075D01*
X815975Y342900D01*
X823595Y398526D02*
X823593Y398626D01*
X823587Y398725D01*
X823577Y398825D01*
X823564Y398923D01*
X823546Y399022D01*
X823525Y399119D01*
X823500Y399215D01*
X823471Y399311D01*
X823438Y399405D01*
X823402Y399498D01*
X823362Y399589D01*
X823318Y399679D01*
X823271Y399767D01*
X823221Y399853D01*
X823167Y399937D01*
X823110Y400019D01*
X823050Y400098D01*
X822986Y400176D01*
X822920Y400250D01*
X822851Y400322D01*
X822779Y400391D01*
X822705Y400457D01*
X822627Y400521D01*
X822548Y400581D01*
X822466Y400638D01*
X822382Y400692D01*
X822296Y400742D01*
X822208Y400789D01*
X822118Y400833D01*
X822027Y400873D01*
X821934Y400909D01*
X821840Y400942D01*
X821744Y400971D01*
X821648Y400996D01*
X821551Y401017D01*
X821452Y401035D01*
X821354Y401048D01*
X821254Y401058D01*
X821155Y401064D01*
X821055Y401066D01*
X823595Y398526D02*
X823593Y398385D01*
X823588Y398244D01*
X823578Y398103D01*
X823565Y397962D01*
X823549Y397822D01*
X823528Y397682D01*
X823504Y397543D01*
X823476Y397404D01*
X823445Y397267D01*
X823410Y397130D01*
X823372Y396994D01*
X823330Y396859D01*
X823284Y396726D01*
X823235Y396593D01*
X823182Y396462D01*
X823126Y396333D01*
X823067Y396204D01*
X823004Y396078D01*
X822938Y395953D01*
X822869Y395830D01*
X822796Y395709D01*
X822720Y395590D01*
X822641Y395472D01*
X822560Y395357D01*
X822475Y395245D01*
X822387Y395134D01*
X822296Y395026D01*
X822203Y394920D01*
X822106Y394817D01*
X822007Y394716D01*
X814705Y395034D02*
X814605Y395036D01*
X814506Y395042D01*
X814406Y395052D01*
X814308Y395065D01*
X814209Y395083D01*
X814112Y395104D01*
X814016Y395129D01*
X813920Y395158D01*
X813826Y395191D01*
X813733Y395227D01*
X813642Y395267D01*
X813552Y395311D01*
X813464Y395358D01*
X813378Y395408D01*
X813294Y395462D01*
X813212Y395519D01*
X813133Y395579D01*
X813055Y395643D01*
X812981Y395709D01*
X812909Y395778D01*
X812840Y395850D01*
X812774Y395924D01*
X812710Y396002D01*
X812650Y396081D01*
X812593Y396163D01*
X812539Y396247D01*
X812489Y396333D01*
X812442Y396421D01*
X812398Y396511D01*
X812358Y396602D01*
X812322Y396695D01*
X812289Y396789D01*
X812260Y396885D01*
X812235Y396981D01*
X812214Y397078D01*
X812196Y397177D01*
X812183Y397275D01*
X812173Y397375D01*
X812167Y397474D01*
X812165Y397574D01*
X812167Y397707D01*
X812172Y397840D01*
X812182Y397973D01*
X812195Y398106D01*
X812212Y398238D01*
X812232Y398370D01*
X812256Y398501D01*
X812284Y398631D01*
X812315Y398761D01*
X812350Y398889D01*
X812389Y399017D01*
X812431Y399143D01*
X812477Y399268D01*
X812526Y399392D01*
X812578Y399515D01*
X812634Y399636D01*
X812694Y399755D01*
X812756Y399873D01*
X812822Y399988D01*
X812891Y400102D01*
X812964Y400214D01*
X813039Y400324D01*
X813118Y400432D01*
X816928Y396303D02*
X816876Y396219D01*
X816821Y396136D01*
X816762Y396056D01*
X816701Y395978D01*
X816637Y395903D01*
X816569Y395830D01*
X816499Y395759D01*
X816427Y395692D01*
X816352Y395627D01*
X816274Y395565D01*
X816194Y395506D01*
X816112Y395450D01*
X816028Y395398D01*
X815942Y395349D01*
X815854Y395303D01*
X815764Y395260D01*
X815673Y395221D01*
X815580Y395186D01*
X815486Y395154D01*
X815391Y395126D01*
X815295Y395101D01*
X815198Y395081D01*
X815100Y395063D01*
X815002Y395050D01*
X814903Y395041D01*
X814804Y395035D01*
X814705Y395033D01*
X818832Y399796D02*
X818884Y399880D01*
X818939Y399963D01*
X818998Y400043D01*
X819059Y400121D01*
X819123Y400196D01*
X819191Y400269D01*
X819261Y400340D01*
X819333Y400407D01*
X819408Y400472D01*
X819486Y400534D01*
X819566Y400593D01*
X819648Y400649D01*
X819732Y400701D01*
X819818Y400750D01*
X819906Y400796D01*
X819996Y400839D01*
X820087Y400878D01*
X820180Y400913D01*
X820274Y400945D01*
X820369Y400973D01*
X820465Y400998D01*
X820562Y401018D01*
X820660Y401036D01*
X820758Y401049D01*
X820857Y401058D01*
X820956Y401064D01*
X821055Y401066D01*
X818833Y399796D02*
X816928Y396304D01*
X812165Y405130D02*
X823595Y408940D01*
X812165Y412750D01*
X814705Y417195D02*
X812165Y420370D01*
X823595Y420370D01*
X823595Y417195D02*
X823595Y423545D01*
D10*
X453456Y231648D02*
X450859Y231648D01*
X450760Y231650D01*
X450660Y231656D01*
X450561Y231665D01*
X450463Y231678D01*
X450365Y231695D01*
X450267Y231716D01*
X450171Y231741D01*
X450076Y231769D01*
X449982Y231801D01*
X449889Y231836D01*
X449797Y231875D01*
X449707Y231918D01*
X449619Y231963D01*
X449532Y232013D01*
X449448Y232065D01*
X449365Y232121D01*
X449285Y232179D01*
X449207Y232241D01*
X449132Y232306D01*
X449059Y232374D01*
X448989Y232444D01*
X448921Y232517D01*
X448856Y232592D01*
X448794Y232670D01*
X448736Y232750D01*
X448680Y232833D01*
X448628Y232917D01*
X448578Y233004D01*
X448533Y233092D01*
X448490Y233182D01*
X448451Y233274D01*
X448416Y233367D01*
X448384Y233461D01*
X448356Y233556D01*
X448331Y233652D01*
X448310Y233750D01*
X448293Y233848D01*
X448280Y233946D01*
X448271Y234045D01*
X448265Y234145D01*
X448263Y234244D01*
X448263Y240736D01*
X448265Y240835D01*
X448271Y240935D01*
X448280Y241034D01*
X448293Y241132D01*
X448310Y241230D01*
X448331Y241328D01*
X448356Y241424D01*
X448384Y241519D01*
X448416Y241613D01*
X448451Y241706D01*
X448490Y241798D01*
X448533Y241888D01*
X448578Y241976D01*
X448628Y242063D01*
X448680Y242147D01*
X448736Y242230D01*
X448794Y242310D01*
X448856Y242388D01*
X448921Y242463D01*
X448989Y242536D01*
X449059Y242606D01*
X449132Y242674D01*
X449207Y242739D01*
X449285Y242801D01*
X449365Y242859D01*
X449448Y242915D01*
X449532Y242967D01*
X449619Y243017D01*
X449707Y243062D01*
X449797Y243105D01*
X449889Y243144D01*
X449981Y243179D01*
X450076Y243211D01*
X450171Y243239D01*
X450267Y243264D01*
X450365Y243285D01*
X450463Y243302D01*
X450561Y243315D01*
X450660Y243324D01*
X450760Y243330D01*
X450859Y243332D01*
X453456Y243332D01*
X460417Y243332D02*
X457821Y234244D01*
X464312Y234244D01*
X462365Y236841D02*
X462365Y231648D01*
X469909Y254508D02*
X472506Y254508D01*
X469909Y254508D02*
X469810Y254510D01*
X469710Y254516D01*
X469611Y254525D01*
X469513Y254538D01*
X469415Y254555D01*
X469317Y254576D01*
X469221Y254601D01*
X469126Y254629D01*
X469032Y254661D01*
X468939Y254696D01*
X468847Y254735D01*
X468757Y254778D01*
X468669Y254823D01*
X468582Y254873D01*
X468498Y254925D01*
X468415Y254981D01*
X468335Y255039D01*
X468257Y255101D01*
X468182Y255166D01*
X468109Y255234D01*
X468039Y255304D01*
X467971Y255377D01*
X467906Y255452D01*
X467844Y255530D01*
X467786Y255610D01*
X467730Y255693D01*
X467678Y255777D01*
X467628Y255864D01*
X467583Y255952D01*
X467540Y256042D01*
X467501Y256134D01*
X467466Y256227D01*
X467434Y256321D01*
X467406Y256416D01*
X467381Y256512D01*
X467360Y256610D01*
X467343Y256708D01*
X467330Y256806D01*
X467321Y256905D01*
X467315Y257005D01*
X467313Y257104D01*
X467313Y263596D01*
X467315Y263695D01*
X467321Y263795D01*
X467330Y263894D01*
X467343Y263992D01*
X467360Y264090D01*
X467381Y264188D01*
X467406Y264284D01*
X467434Y264379D01*
X467466Y264473D01*
X467501Y264566D01*
X467540Y264658D01*
X467583Y264748D01*
X467628Y264836D01*
X467678Y264923D01*
X467730Y265007D01*
X467786Y265090D01*
X467844Y265170D01*
X467906Y265248D01*
X467971Y265323D01*
X468039Y265396D01*
X468109Y265466D01*
X468182Y265534D01*
X468257Y265599D01*
X468335Y265661D01*
X468415Y265719D01*
X468498Y265775D01*
X468582Y265827D01*
X468669Y265877D01*
X468757Y265922D01*
X468847Y265965D01*
X468939Y266004D01*
X469031Y266039D01*
X469126Y266071D01*
X469221Y266099D01*
X469317Y266124D01*
X469415Y266145D01*
X469513Y266162D01*
X469611Y266175D01*
X469710Y266184D01*
X469810Y266190D01*
X469909Y266192D01*
X472506Y266192D01*
X476871Y263596D02*
X480116Y266192D01*
X480116Y254508D01*
X476871Y254508D02*
X483362Y254508D01*
X488301Y260350D02*
X488304Y260580D01*
X488312Y260810D01*
X488326Y261039D01*
X488345Y261268D01*
X488370Y261497D01*
X488400Y261724D01*
X488435Y261952D01*
X488476Y262178D01*
X488522Y262403D01*
X488574Y262627D01*
X488631Y262849D01*
X488693Y263071D01*
X488761Y263290D01*
X488834Y263508D01*
X488912Y263725D01*
X488995Y263939D01*
X489083Y264151D01*
X489176Y264361D01*
X489275Y264569D01*
X489274Y264569D02*
X489307Y264659D01*
X489343Y264748D01*
X489383Y264836D01*
X489427Y264921D01*
X489474Y265005D01*
X489524Y265087D01*
X489578Y265167D01*
X489634Y265244D01*
X489694Y265320D01*
X489757Y265393D01*
X489822Y265463D01*
X489891Y265531D01*
X489962Y265595D01*
X490035Y265657D01*
X490111Y265716D01*
X490189Y265772D01*
X490270Y265825D01*
X490352Y265874D01*
X490436Y265920D01*
X490523Y265963D01*
X490610Y266002D01*
X490700Y266038D01*
X490790Y266070D01*
X490882Y266098D01*
X490975Y266123D01*
X491069Y266144D01*
X491163Y266161D01*
X491258Y266175D01*
X491354Y266184D01*
X491450Y266190D01*
X491546Y266192D01*
X491642Y266190D01*
X491738Y266184D01*
X491834Y266175D01*
X491929Y266161D01*
X492023Y266144D01*
X492117Y266123D01*
X492210Y266098D01*
X492302Y266070D01*
X492392Y266038D01*
X492482Y266002D01*
X492569Y265963D01*
X492656Y265920D01*
X492740Y265874D01*
X492822Y265825D01*
X492903Y265772D01*
X492981Y265716D01*
X493057Y265657D01*
X493130Y265595D01*
X493201Y265531D01*
X493270Y265463D01*
X493335Y265393D01*
X493398Y265320D01*
X493458Y265244D01*
X493514Y265167D01*
X493568Y265087D01*
X493618Y265005D01*
X493665Y264921D01*
X493709Y264836D01*
X493749Y264748D01*
X493785Y264659D01*
X493818Y264569D01*
X493819Y264569D02*
X493918Y264362D01*
X494011Y264152D01*
X494099Y263939D01*
X494182Y263725D01*
X494260Y263509D01*
X494333Y263291D01*
X494401Y263071D01*
X494463Y262850D01*
X494520Y262627D01*
X494572Y262403D01*
X494618Y262178D01*
X494659Y261952D01*
X494694Y261725D01*
X494724Y261497D01*
X494749Y261268D01*
X494768Y261039D01*
X494782Y260810D01*
X494790Y260580D01*
X494793Y260350D01*
X488301Y260350D02*
X488304Y260120D01*
X488312Y259890D01*
X488326Y259661D01*
X488345Y259432D01*
X488370Y259203D01*
X488400Y258975D01*
X488435Y258748D01*
X488476Y258522D01*
X488522Y258297D01*
X488574Y258073D01*
X488631Y257850D01*
X488693Y257629D01*
X488761Y257409D01*
X488834Y257191D01*
X488912Y256975D01*
X488995Y256761D01*
X489083Y256549D01*
X489176Y256338D01*
X489275Y256131D01*
X489274Y256131D02*
X489307Y256041D01*
X489343Y255952D01*
X489384Y255864D01*
X489427Y255779D01*
X489474Y255695D01*
X489524Y255613D01*
X489578Y255533D01*
X489634Y255456D01*
X489694Y255380D01*
X489757Y255307D01*
X489822Y255237D01*
X489891Y255169D01*
X489962Y255105D01*
X490035Y255043D01*
X490111Y254984D01*
X490189Y254928D01*
X490270Y254875D01*
X490352Y254826D01*
X490436Y254780D01*
X490523Y254737D01*
X490610Y254698D01*
X490700Y254662D01*
X490790Y254630D01*
X490882Y254602D01*
X490975Y254577D01*
X491069Y254556D01*
X491163Y254539D01*
X491258Y254525D01*
X491354Y254516D01*
X491450Y254510D01*
X491546Y254508D01*
X493818Y256131D02*
X493917Y256338D01*
X494010Y256549D01*
X494098Y256761D01*
X494181Y256975D01*
X494259Y257191D01*
X494332Y257409D01*
X494400Y257629D01*
X494462Y257850D01*
X494519Y258073D01*
X494571Y258297D01*
X494617Y258522D01*
X494658Y258748D01*
X494693Y258975D01*
X494723Y259203D01*
X494748Y259432D01*
X494767Y259661D01*
X494781Y259890D01*
X494789Y260120D01*
X494792Y260350D01*
X493818Y256131D02*
X493785Y256041D01*
X493749Y255952D01*
X493709Y255864D01*
X493665Y255779D01*
X493618Y255695D01*
X493568Y255613D01*
X493514Y255533D01*
X493458Y255456D01*
X493398Y255380D01*
X493335Y255307D01*
X493270Y255237D01*
X493201Y255169D01*
X493130Y255105D01*
X493057Y255043D01*
X492981Y254984D01*
X492903Y254928D01*
X492822Y254875D01*
X492740Y254826D01*
X492656Y254780D01*
X492569Y254737D01*
X492482Y254698D01*
X492392Y254662D01*
X492302Y254630D01*
X492210Y254602D01*
X492117Y254577D01*
X492023Y254556D01*
X491929Y254539D01*
X491834Y254525D01*
X491738Y254516D01*
X491642Y254510D01*
X491546Y254508D01*
X488950Y257104D02*
X494143Y263596D01*
X522665Y263652D02*
X522665Y251968D01*
X522665Y263652D02*
X525910Y263652D01*
X526023Y263650D01*
X526136Y263644D01*
X526249Y263634D01*
X526362Y263620D01*
X526474Y263603D01*
X526585Y263581D01*
X526695Y263556D01*
X526805Y263526D01*
X526913Y263493D01*
X527020Y263456D01*
X527126Y263416D01*
X527230Y263371D01*
X527333Y263323D01*
X527434Y263272D01*
X527533Y263217D01*
X527630Y263159D01*
X527725Y263097D01*
X527818Y263032D01*
X527908Y262964D01*
X527996Y262893D01*
X528082Y262818D01*
X528165Y262741D01*
X528245Y262661D01*
X528322Y262578D01*
X528397Y262492D01*
X528468Y262404D01*
X528536Y262314D01*
X528601Y262221D01*
X528663Y262126D01*
X528721Y262029D01*
X528776Y261930D01*
X528827Y261829D01*
X528875Y261726D01*
X528920Y261622D01*
X528960Y261516D01*
X528997Y261409D01*
X529030Y261301D01*
X529060Y261191D01*
X529085Y261081D01*
X529107Y260970D01*
X529124Y260858D01*
X529138Y260745D01*
X529148Y260632D01*
X529154Y260519D01*
X529156Y260406D01*
X529154Y260293D01*
X529148Y260180D01*
X529138Y260067D01*
X529124Y259954D01*
X529107Y259842D01*
X529085Y259731D01*
X529060Y259621D01*
X529030Y259511D01*
X528997Y259403D01*
X528960Y259296D01*
X528920Y259190D01*
X528875Y259086D01*
X528827Y258983D01*
X528776Y258882D01*
X528721Y258783D01*
X528663Y258686D01*
X528601Y258591D01*
X528536Y258498D01*
X528468Y258408D01*
X528397Y258320D01*
X528322Y258234D01*
X528245Y258151D01*
X528165Y258071D01*
X528082Y257994D01*
X527996Y257919D01*
X527908Y257848D01*
X527818Y257780D01*
X527725Y257715D01*
X527630Y257653D01*
X527533Y257595D01*
X527434Y257540D01*
X527333Y257489D01*
X527230Y257441D01*
X527126Y257396D01*
X527020Y257356D01*
X526913Y257319D01*
X526805Y257286D01*
X526695Y257256D01*
X526585Y257231D01*
X526474Y257209D01*
X526362Y257192D01*
X526249Y257178D01*
X526136Y257168D01*
X526023Y257162D01*
X525910Y257160D01*
X525910Y257161D02*
X522665Y257161D01*
X526559Y257161D02*
X529156Y251968D01*
X534021Y251968D02*
X537916Y251968D01*
X538015Y251970D01*
X538115Y251976D01*
X538214Y251985D01*
X538312Y251998D01*
X538410Y252015D01*
X538508Y252036D01*
X538604Y252061D01*
X538699Y252089D01*
X538793Y252121D01*
X538886Y252156D01*
X538978Y252195D01*
X539068Y252238D01*
X539156Y252283D01*
X539243Y252333D01*
X539327Y252385D01*
X539410Y252441D01*
X539490Y252499D01*
X539568Y252561D01*
X539643Y252626D01*
X539716Y252694D01*
X539786Y252764D01*
X539854Y252837D01*
X539919Y252912D01*
X539981Y252990D01*
X540039Y253070D01*
X540095Y253153D01*
X540147Y253237D01*
X540197Y253324D01*
X540242Y253412D01*
X540285Y253502D01*
X540324Y253594D01*
X540359Y253687D01*
X540391Y253781D01*
X540419Y253876D01*
X540444Y253972D01*
X540465Y254070D01*
X540482Y254168D01*
X540495Y254266D01*
X540504Y254365D01*
X540510Y254465D01*
X540512Y254564D01*
X540512Y255863D01*
X540510Y255962D01*
X540504Y256062D01*
X540495Y256161D01*
X540482Y256259D01*
X540465Y256357D01*
X540444Y256455D01*
X540419Y256551D01*
X540391Y256646D01*
X540359Y256740D01*
X540324Y256833D01*
X540285Y256925D01*
X540242Y257015D01*
X540197Y257103D01*
X540147Y257190D01*
X540095Y257274D01*
X540039Y257357D01*
X539981Y257437D01*
X539919Y257515D01*
X539854Y257590D01*
X539786Y257663D01*
X539716Y257733D01*
X539643Y257801D01*
X539568Y257866D01*
X539490Y257928D01*
X539410Y257986D01*
X539327Y258042D01*
X539243Y258094D01*
X539156Y258144D01*
X539068Y258189D01*
X538978Y258232D01*
X538886Y258271D01*
X538793Y258306D01*
X538699Y258338D01*
X538604Y258366D01*
X538508Y258391D01*
X538410Y258412D01*
X538312Y258429D01*
X538214Y258442D01*
X538115Y258451D01*
X538015Y258457D01*
X537916Y258459D01*
X534021Y258459D01*
X534021Y263652D01*
X540512Y263652D01*
D11*
X426466Y350520D02*
X426466Y386080D01*
X426466Y350520D02*
X360934Y350520D01*
X360934Y386080D01*
X426466Y386080D01*
D10*
X406392Y325628D02*
X404416Y325628D01*
X406392Y325628D02*
X406479Y325630D01*
X406567Y325636D01*
X406654Y325645D01*
X406740Y325659D01*
X406826Y325676D01*
X406910Y325697D01*
X406994Y325722D01*
X407077Y325751D01*
X407158Y325783D01*
X407238Y325818D01*
X407316Y325857D01*
X407393Y325900D01*
X407467Y325946D01*
X407539Y325995D01*
X407609Y326047D01*
X407677Y326103D01*
X407742Y326161D01*
X407805Y326222D01*
X407864Y326286D01*
X407921Y326353D01*
X407975Y326421D01*
X408026Y326493D01*
X408073Y326566D01*
X408118Y326641D01*
X408159Y326719D01*
X408196Y326798D01*
X408230Y326878D01*
X408260Y326960D01*
X408287Y327043D01*
X408310Y327128D01*
X408329Y327213D01*
X408344Y327299D01*
X408356Y327386D01*
X408364Y327473D01*
X408368Y327560D01*
X408368Y327648D01*
X408364Y327735D01*
X408356Y327822D01*
X408344Y327909D01*
X408329Y327995D01*
X408310Y328080D01*
X408287Y328165D01*
X408260Y328248D01*
X408230Y328330D01*
X408196Y328410D01*
X408159Y328489D01*
X408118Y328567D01*
X408073Y328642D01*
X408026Y328715D01*
X407975Y328787D01*
X407921Y328855D01*
X407864Y328922D01*
X407805Y328986D01*
X407742Y329047D01*
X407677Y329105D01*
X407609Y329161D01*
X407539Y329213D01*
X407467Y329262D01*
X407393Y329308D01*
X407316Y329351D01*
X407238Y329390D01*
X407158Y329425D01*
X407077Y329457D01*
X406994Y329486D01*
X406910Y329511D01*
X406826Y329532D01*
X406740Y329549D01*
X406654Y329563D01*
X406567Y329572D01*
X406479Y329578D01*
X406392Y329580D01*
X406787Y332740D02*
X404416Y332740D01*
X406787Y332740D02*
X406866Y332738D01*
X406944Y332732D01*
X407022Y332722D01*
X407100Y332709D01*
X407177Y332691D01*
X407253Y332670D01*
X407327Y332645D01*
X407401Y332616D01*
X407473Y332584D01*
X407543Y332548D01*
X407611Y332508D01*
X407677Y332465D01*
X407741Y332419D01*
X407803Y332370D01*
X407862Y332318D01*
X407918Y332263D01*
X407972Y332205D01*
X408022Y332145D01*
X408070Y332082D01*
X408114Y332017D01*
X408155Y331950D01*
X408193Y331881D01*
X408227Y331810D01*
X408258Y331737D01*
X408285Y331663D01*
X408308Y331588D01*
X408327Y331512D01*
X408343Y331434D01*
X408355Y331356D01*
X408363Y331278D01*
X408367Y331199D01*
X408367Y331121D01*
X408363Y331042D01*
X408355Y330964D01*
X408343Y330886D01*
X408327Y330808D01*
X408308Y330732D01*
X408285Y330657D01*
X408258Y330583D01*
X408227Y330510D01*
X408193Y330439D01*
X408155Y330370D01*
X408114Y330303D01*
X408070Y330238D01*
X408022Y330175D01*
X407972Y330115D01*
X407918Y330057D01*
X407862Y330002D01*
X407803Y329950D01*
X407741Y329901D01*
X407677Y329855D01*
X407611Y329812D01*
X407543Y329772D01*
X407473Y329736D01*
X407401Y329704D01*
X407327Y329675D01*
X407253Y329650D01*
X407177Y329629D01*
X407100Y329611D01*
X407022Y329598D01*
X406944Y329588D01*
X406866Y329582D01*
X406787Y329580D01*
X406787Y329579D02*
X405206Y329579D01*
X413258Y395788D02*
X414838Y401320D01*
X413258Y395788D02*
X417209Y395788D01*
X416024Y397369D02*
X416024Y394208D01*
X361658Y332740D02*
X359682Y331160D01*
X361658Y332740D02*
X361658Y325628D01*
X363633Y325628D02*
X359682Y325628D01*
X383475Y332646D02*
X383557Y332644D01*
X383639Y332638D01*
X383721Y332629D01*
X383802Y332616D01*
X383882Y332599D01*
X383962Y332578D01*
X384040Y332554D01*
X384117Y332526D01*
X384193Y332495D01*
X384268Y332460D01*
X384340Y332421D01*
X384411Y332380D01*
X384480Y332335D01*
X384546Y332287D01*
X384611Y332236D01*
X384673Y332182D01*
X384732Y332125D01*
X384789Y332066D01*
X384843Y332004D01*
X384894Y331939D01*
X384942Y331873D01*
X384987Y331804D01*
X385028Y331733D01*
X385067Y331661D01*
X385102Y331586D01*
X385133Y331510D01*
X385161Y331433D01*
X385185Y331355D01*
X385206Y331275D01*
X385223Y331195D01*
X385236Y331114D01*
X385245Y331032D01*
X385251Y330950D01*
X385253Y330868D01*
X383475Y332646D02*
X383382Y332644D01*
X383290Y332638D01*
X383198Y332629D01*
X383106Y332616D01*
X383015Y332599D01*
X382925Y332579D01*
X382835Y332555D01*
X382747Y332527D01*
X382659Y332495D01*
X382574Y332461D01*
X382489Y332422D01*
X382407Y332381D01*
X382326Y332336D01*
X382246Y332287D01*
X382169Y332236D01*
X382094Y332182D01*
X382022Y332124D01*
X381952Y332064D01*
X381884Y332000D01*
X381819Y331935D01*
X381756Y331866D01*
X381697Y331795D01*
X381640Y331722D01*
X381586Y331646D01*
X381536Y331569D01*
X381488Y331489D01*
X381444Y331408D01*
X381404Y331324D01*
X381366Y331240D01*
X381332Y331153D01*
X381302Y331066D01*
X384660Y329485D02*
X384721Y329546D01*
X384779Y329609D01*
X384834Y329675D01*
X384887Y329743D01*
X384936Y329814D01*
X384981Y329886D01*
X385024Y329961D01*
X385063Y330037D01*
X385099Y330116D01*
X385131Y330195D01*
X385159Y330276D01*
X385184Y330359D01*
X385205Y330442D01*
X385222Y330526D01*
X385236Y330611D01*
X385245Y330696D01*
X385251Y330782D01*
X385253Y330868D01*
X384660Y329485D02*
X381302Y325534D01*
X385253Y325534D01*
X382806Y371856D02*
X382806Y383540D01*
X381508Y371856D02*
X384104Y371856D01*
X384104Y383540D02*
X381508Y383540D01*
X391268Y371856D02*
X393864Y371856D01*
X391268Y371856D02*
X391169Y371858D01*
X391069Y371864D01*
X390970Y371873D01*
X390872Y371886D01*
X390774Y371903D01*
X390676Y371924D01*
X390580Y371949D01*
X390485Y371977D01*
X390391Y372009D01*
X390298Y372044D01*
X390206Y372083D01*
X390116Y372126D01*
X390028Y372171D01*
X389941Y372221D01*
X389857Y372273D01*
X389774Y372329D01*
X389694Y372387D01*
X389616Y372449D01*
X389541Y372514D01*
X389468Y372582D01*
X389398Y372652D01*
X389330Y372725D01*
X389265Y372800D01*
X389203Y372878D01*
X389145Y372958D01*
X389089Y373041D01*
X389037Y373125D01*
X388987Y373212D01*
X388942Y373300D01*
X388899Y373390D01*
X388860Y373482D01*
X388825Y373575D01*
X388793Y373669D01*
X388765Y373764D01*
X388740Y373860D01*
X388719Y373958D01*
X388702Y374056D01*
X388689Y374154D01*
X388680Y374253D01*
X388674Y374353D01*
X388672Y374452D01*
X388671Y374452D02*
X388671Y380944D01*
X388672Y380944D02*
X388674Y381043D01*
X388680Y381143D01*
X388689Y381242D01*
X388702Y381340D01*
X388719Y381438D01*
X388740Y381536D01*
X388765Y381632D01*
X388793Y381727D01*
X388825Y381821D01*
X388860Y381914D01*
X388899Y382006D01*
X388942Y382096D01*
X388987Y382184D01*
X389037Y382271D01*
X389089Y382355D01*
X389145Y382438D01*
X389203Y382518D01*
X389265Y382596D01*
X389330Y382671D01*
X389398Y382744D01*
X389468Y382814D01*
X389541Y382882D01*
X389616Y382947D01*
X389694Y383009D01*
X389774Y383067D01*
X389857Y383123D01*
X389941Y383175D01*
X390028Y383225D01*
X390116Y383270D01*
X390206Y383313D01*
X390298Y383352D01*
X390390Y383387D01*
X390485Y383419D01*
X390580Y383447D01*
X390676Y383472D01*
X390774Y383493D01*
X390872Y383510D01*
X390970Y383523D01*
X391069Y383532D01*
X391169Y383538D01*
X391268Y383540D01*
X393864Y383540D01*
X401800Y383540D02*
X401907Y383538D01*
X402013Y383532D01*
X402119Y383522D01*
X402225Y383509D01*
X402331Y383491D01*
X402435Y383470D01*
X402539Y383445D01*
X402642Y383416D01*
X402743Y383384D01*
X402843Y383347D01*
X402942Y383307D01*
X403040Y383264D01*
X403136Y383217D01*
X403230Y383166D01*
X403322Y383112D01*
X403412Y383055D01*
X403500Y382995D01*
X403585Y382931D01*
X403668Y382864D01*
X403749Y382794D01*
X403827Y382722D01*
X403903Y382646D01*
X403975Y382568D01*
X404045Y382487D01*
X404112Y382404D01*
X404176Y382319D01*
X404236Y382231D01*
X404293Y382141D01*
X404347Y382049D01*
X404398Y381955D01*
X404445Y381859D01*
X404488Y381761D01*
X404528Y381662D01*
X404565Y381562D01*
X404597Y381461D01*
X404626Y381358D01*
X404651Y381254D01*
X404672Y381150D01*
X404690Y381044D01*
X404703Y380938D01*
X404713Y380832D01*
X404719Y380726D01*
X404721Y380619D01*
X401800Y383540D02*
X401679Y383538D01*
X401558Y383532D01*
X401438Y383522D01*
X401317Y383509D01*
X401198Y383491D01*
X401078Y383470D01*
X400960Y383445D01*
X400843Y383416D01*
X400726Y383383D01*
X400611Y383347D01*
X400497Y383306D01*
X400384Y383263D01*
X400272Y383215D01*
X400163Y383164D01*
X400055Y383109D01*
X399948Y383051D01*
X399844Y382990D01*
X399742Y382925D01*
X399642Y382857D01*
X399544Y382786D01*
X399448Y382712D01*
X399355Y382635D01*
X399265Y382554D01*
X399177Y382471D01*
X399092Y382385D01*
X399009Y382296D01*
X398930Y382205D01*
X398853Y382111D01*
X398780Y382015D01*
X398710Y381917D01*
X398643Y381816D01*
X398579Y381713D01*
X398519Y381608D01*
X398462Y381501D01*
X398408Y381393D01*
X398358Y381283D01*
X398312Y381171D01*
X398269Y381058D01*
X398230Y380943D01*
X403747Y378347D02*
X403826Y378424D01*
X403902Y378505D01*
X403975Y378588D01*
X404045Y378673D01*
X404112Y378761D01*
X404176Y378851D01*
X404236Y378943D01*
X404293Y379038D01*
X404347Y379134D01*
X404398Y379232D01*
X404445Y379332D01*
X404489Y379434D01*
X404529Y379537D01*
X404565Y379641D01*
X404597Y379747D01*
X404626Y379853D01*
X404651Y379961D01*
X404673Y380069D01*
X404690Y380179D01*
X404704Y380288D01*
X404713Y380398D01*
X404719Y380509D01*
X404721Y380619D01*
X403747Y378347D02*
X398230Y371856D01*
X404721Y371856D01*
X170875Y549148D02*
X170875Y560832D01*
X174120Y560832D01*
X174233Y560830D01*
X174346Y560824D01*
X174459Y560814D01*
X174572Y560800D01*
X174684Y560783D01*
X174795Y560761D01*
X174905Y560736D01*
X175015Y560706D01*
X175123Y560673D01*
X175230Y560636D01*
X175336Y560596D01*
X175440Y560551D01*
X175543Y560503D01*
X175644Y560452D01*
X175743Y560397D01*
X175840Y560339D01*
X175935Y560277D01*
X176028Y560212D01*
X176118Y560144D01*
X176206Y560073D01*
X176292Y559998D01*
X176375Y559921D01*
X176455Y559841D01*
X176532Y559758D01*
X176607Y559672D01*
X176678Y559584D01*
X176746Y559494D01*
X176811Y559401D01*
X176873Y559306D01*
X176931Y559209D01*
X176986Y559110D01*
X177037Y559009D01*
X177085Y558906D01*
X177130Y558802D01*
X177170Y558696D01*
X177207Y558589D01*
X177240Y558481D01*
X177270Y558371D01*
X177295Y558261D01*
X177317Y558150D01*
X177334Y558038D01*
X177348Y557925D01*
X177358Y557812D01*
X177364Y557699D01*
X177366Y557586D01*
X177364Y557473D01*
X177358Y557360D01*
X177348Y557247D01*
X177334Y557134D01*
X177317Y557022D01*
X177295Y556911D01*
X177270Y556801D01*
X177240Y556691D01*
X177207Y556583D01*
X177170Y556476D01*
X177130Y556370D01*
X177085Y556266D01*
X177037Y556163D01*
X176986Y556062D01*
X176931Y555963D01*
X176873Y555866D01*
X176811Y555771D01*
X176746Y555678D01*
X176678Y555588D01*
X176607Y555500D01*
X176532Y555414D01*
X176455Y555331D01*
X176375Y555251D01*
X176292Y555174D01*
X176206Y555099D01*
X176118Y555028D01*
X176028Y554960D01*
X175935Y554895D01*
X175840Y554833D01*
X175743Y554775D01*
X175644Y554720D01*
X175543Y554669D01*
X175440Y554621D01*
X175336Y554576D01*
X175230Y554536D01*
X175123Y554499D01*
X175015Y554466D01*
X174905Y554436D01*
X174795Y554411D01*
X174684Y554389D01*
X174572Y554372D01*
X174459Y554358D01*
X174346Y554348D01*
X174233Y554342D01*
X174120Y554340D01*
X174120Y554341D02*
X170875Y554341D01*
X174769Y554341D02*
X177366Y549148D01*
X182231Y555639D02*
X186126Y555639D01*
X186225Y555637D01*
X186325Y555631D01*
X186424Y555622D01*
X186522Y555609D01*
X186620Y555592D01*
X186718Y555571D01*
X186814Y555546D01*
X186909Y555518D01*
X187003Y555486D01*
X187096Y555451D01*
X187188Y555412D01*
X187278Y555369D01*
X187366Y555324D01*
X187453Y555274D01*
X187537Y555222D01*
X187620Y555166D01*
X187700Y555108D01*
X187778Y555046D01*
X187853Y554981D01*
X187926Y554913D01*
X187996Y554843D01*
X188064Y554770D01*
X188129Y554695D01*
X188191Y554617D01*
X188249Y554537D01*
X188305Y554454D01*
X188357Y554370D01*
X188407Y554283D01*
X188452Y554195D01*
X188495Y554105D01*
X188534Y554013D01*
X188569Y553920D01*
X188601Y553826D01*
X188629Y553731D01*
X188654Y553635D01*
X188675Y553537D01*
X188692Y553439D01*
X188705Y553341D01*
X188714Y553242D01*
X188720Y553142D01*
X188722Y553043D01*
X188722Y552394D01*
X188720Y552281D01*
X188714Y552168D01*
X188704Y552055D01*
X188690Y551942D01*
X188673Y551830D01*
X188651Y551719D01*
X188626Y551609D01*
X188596Y551499D01*
X188563Y551391D01*
X188526Y551284D01*
X188486Y551178D01*
X188441Y551074D01*
X188393Y550971D01*
X188342Y550870D01*
X188287Y550771D01*
X188229Y550674D01*
X188167Y550579D01*
X188102Y550486D01*
X188034Y550396D01*
X187963Y550308D01*
X187888Y550222D01*
X187811Y550139D01*
X187731Y550059D01*
X187648Y549982D01*
X187562Y549907D01*
X187474Y549836D01*
X187384Y549768D01*
X187291Y549703D01*
X187196Y549641D01*
X187099Y549583D01*
X187000Y549528D01*
X186899Y549477D01*
X186796Y549429D01*
X186692Y549384D01*
X186586Y549344D01*
X186479Y549307D01*
X186371Y549274D01*
X186261Y549244D01*
X186151Y549219D01*
X186040Y549197D01*
X185928Y549180D01*
X185815Y549166D01*
X185702Y549156D01*
X185589Y549150D01*
X185476Y549148D01*
X185363Y549150D01*
X185250Y549156D01*
X185137Y549166D01*
X185024Y549180D01*
X184912Y549197D01*
X184801Y549219D01*
X184691Y549244D01*
X184581Y549274D01*
X184473Y549307D01*
X184366Y549344D01*
X184260Y549384D01*
X184156Y549429D01*
X184053Y549477D01*
X183952Y549528D01*
X183853Y549583D01*
X183756Y549641D01*
X183661Y549703D01*
X183568Y549768D01*
X183478Y549836D01*
X183390Y549907D01*
X183304Y549982D01*
X183221Y550059D01*
X183141Y550139D01*
X183064Y550222D01*
X182989Y550308D01*
X182918Y550396D01*
X182850Y550486D01*
X182785Y550579D01*
X182723Y550674D01*
X182665Y550771D01*
X182610Y550870D01*
X182559Y550971D01*
X182511Y551074D01*
X182466Y551178D01*
X182426Y551284D01*
X182389Y551391D01*
X182356Y551499D01*
X182326Y551609D01*
X182301Y551719D01*
X182279Y551830D01*
X182262Y551942D01*
X182248Y552055D01*
X182238Y552168D01*
X182232Y552281D01*
X182230Y552394D01*
X182231Y552394D02*
X182231Y555639D01*
X182233Y555782D01*
X182239Y555925D01*
X182249Y556068D01*
X182263Y556210D01*
X182280Y556352D01*
X182302Y556494D01*
X182327Y556635D01*
X182357Y556775D01*
X182390Y556914D01*
X182427Y557052D01*
X182468Y557189D01*
X182512Y557325D01*
X182561Y557460D01*
X182613Y557593D01*
X182668Y557725D01*
X182728Y557855D01*
X182791Y557984D01*
X182857Y558111D01*
X182927Y558235D01*
X183000Y558358D01*
X183077Y558479D01*
X183157Y558598D01*
X183240Y558714D01*
X183326Y558829D01*
X183415Y558940D01*
X183508Y559050D01*
X183603Y559156D01*
X183702Y559260D01*
X183803Y559361D01*
X183907Y559460D01*
X184013Y559555D01*
X184123Y559648D01*
X184234Y559737D01*
X184349Y559823D01*
X184465Y559906D01*
X184584Y559986D01*
X184705Y560063D01*
X184827Y560136D01*
X184952Y560206D01*
X185079Y560272D01*
X185208Y560335D01*
X185338Y560395D01*
X185470Y560450D01*
X185603Y560502D01*
X185738Y560551D01*
X185874Y560595D01*
X186011Y560636D01*
X186149Y560673D01*
X186288Y560706D01*
X186428Y560736D01*
X186569Y560761D01*
X186711Y560783D01*
X186853Y560800D01*
X186995Y560814D01*
X187138Y560824D01*
X187281Y560830D01*
X187424Y560832D01*
X166878Y492252D02*
X166878Y480568D01*
X166878Y492252D02*
X170124Y492252D01*
X170237Y492250D01*
X170350Y492244D01*
X170463Y492234D01*
X170576Y492220D01*
X170688Y492203D01*
X170799Y492181D01*
X170909Y492156D01*
X171019Y492126D01*
X171127Y492093D01*
X171234Y492056D01*
X171340Y492016D01*
X171444Y491971D01*
X171547Y491923D01*
X171648Y491872D01*
X171747Y491817D01*
X171844Y491759D01*
X171939Y491697D01*
X172032Y491632D01*
X172122Y491564D01*
X172210Y491493D01*
X172296Y491418D01*
X172379Y491341D01*
X172459Y491261D01*
X172536Y491178D01*
X172611Y491092D01*
X172682Y491004D01*
X172750Y490914D01*
X172815Y490821D01*
X172877Y490726D01*
X172935Y490629D01*
X172990Y490530D01*
X173041Y490429D01*
X173089Y490326D01*
X173134Y490222D01*
X173174Y490116D01*
X173211Y490009D01*
X173244Y489901D01*
X173274Y489791D01*
X173299Y489681D01*
X173321Y489570D01*
X173338Y489458D01*
X173352Y489345D01*
X173362Y489232D01*
X173368Y489119D01*
X173370Y489006D01*
X173368Y488893D01*
X173362Y488780D01*
X173352Y488667D01*
X173338Y488554D01*
X173321Y488442D01*
X173299Y488331D01*
X173274Y488221D01*
X173244Y488111D01*
X173211Y488003D01*
X173174Y487896D01*
X173134Y487790D01*
X173089Y487686D01*
X173041Y487583D01*
X172990Y487482D01*
X172935Y487383D01*
X172877Y487286D01*
X172815Y487191D01*
X172750Y487098D01*
X172682Y487008D01*
X172611Y486920D01*
X172536Y486834D01*
X172459Y486751D01*
X172379Y486671D01*
X172296Y486594D01*
X172210Y486519D01*
X172122Y486448D01*
X172032Y486380D01*
X171939Y486315D01*
X171844Y486253D01*
X171747Y486195D01*
X171648Y486140D01*
X171547Y486089D01*
X171444Y486041D01*
X171340Y485996D01*
X171234Y485956D01*
X171127Y485919D01*
X171019Y485886D01*
X170909Y485856D01*
X170799Y485831D01*
X170688Y485809D01*
X170576Y485792D01*
X170463Y485778D01*
X170350Y485768D01*
X170237Y485762D01*
X170124Y485760D01*
X170124Y485761D02*
X166878Y485761D01*
X170773Y485761D02*
X173369Y480568D01*
X178234Y489656D02*
X181480Y492252D01*
X181480Y480568D01*
X184725Y480568D02*
X178234Y480568D01*
X189664Y480568D02*
X192910Y480568D01*
X193023Y480570D01*
X193136Y480576D01*
X193249Y480586D01*
X193362Y480600D01*
X193474Y480617D01*
X193585Y480639D01*
X193695Y480664D01*
X193805Y480694D01*
X193913Y480727D01*
X194020Y480764D01*
X194126Y480804D01*
X194230Y480849D01*
X194333Y480897D01*
X194434Y480948D01*
X194533Y481003D01*
X194630Y481061D01*
X194725Y481123D01*
X194818Y481188D01*
X194908Y481256D01*
X194996Y481327D01*
X195082Y481402D01*
X195165Y481479D01*
X195245Y481559D01*
X195322Y481642D01*
X195397Y481728D01*
X195468Y481816D01*
X195536Y481906D01*
X195601Y481999D01*
X195663Y482094D01*
X195721Y482191D01*
X195776Y482290D01*
X195827Y482391D01*
X195875Y482494D01*
X195920Y482598D01*
X195960Y482704D01*
X195997Y482811D01*
X196030Y482919D01*
X196060Y483029D01*
X196085Y483139D01*
X196107Y483250D01*
X196124Y483362D01*
X196138Y483475D01*
X196148Y483588D01*
X196154Y483701D01*
X196156Y483814D01*
X196154Y483927D01*
X196148Y484040D01*
X196138Y484153D01*
X196124Y484266D01*
X196107Y484378D01*
X196085Y484489D01*
X196060Y484599D01*
X196030Y484709D01*
X195997Y484817D01*
X195960Y484924D01*
X195920Y485030D01*
X195875Y485134D01*
X195827Y485237D01*
X195776Y485338D01*
X195721Y485437D01*
X195663Y485534D01*
X195601Y485629D01*
X195536Y485722D01*
X195468Y485812D01*
X195397Y485900D01*
X195322Y485986D01*
X195245Y486069D01*
X195165Y486149D01*
X195082Y486226D01*
X194996Y486301D01*
X194908Y486372D01*
X194818Y486440D01*
X194725Y486505D01*
X194630Y486567D01*
X194533Y486625D01*
X194434Y486680D01*
X194333Y486731D01*
X194230Y486779D01*
X194126Y486824D01*
X194020Y486864D01*
X193913Y486901D01*
X193805Y486934D01*
X193695Y486964D01*
X193585Y486989D01*
X193474Y487011D01*
X193362Y487028D01*
X193249Y487042D01*
X193136Y487052D01*
X193023Y487058D01*
X192910Y487060D01*
X193559Y492252D02*
X189664Y492252D01*
X193559Y492252D02*
X193660Y492250D01*
X193760Y492244D01*
X193860Y492234D01*
X193960Y492221D01*
X194059Y492203D01*
X194158Y492182D01*
X194255Y492157D01*
X194352Y492128D01*
X194447Y492095D01*
X194541Y492059D01*
X194633Y492019D01*
X194724Y491976D01*
X194813Y491929D01*
X194900Y491879D01*
X194986Y491825D01*
X195069Y491768D01*
X195149Y491708D01*
X195228Y491645D01*
X195304Y491578D01*
X195377Y491509D01*
X195447Y491437D01*
X195515Y491363D01*
X195580Y491286D01*
X195641Y491206D01*
X195700Y491124D01*
X195755Y491040D01*
X195807Y490954D01*
X195856Y490866D01*
X195901Y490776D01*
X195943Y490684D01*
X195981Y490591D01*
X196015Y490496D01*
X196046Y490401D01*
X196073Y490304D01*
X196096Y490206D01*
X196116Y490107D01*
X196131Y490007D01*
X196143Y489907D01*
X196151Y489807D01*
X196155Y489706D01*
X196155Y489606D01*
X196151Y489505D01*
X196143Y489405D01*
X196131Y489305D01*
X196116Y489205D01*
X196096Y489106D01*
X196073Y489008D01*
X196046Y488911D01*
X196015Y488816D01*
X195981Y488721D01*
X195943Y488628D01*
X195901Y488536D01*
X195856Y488446D01*
X195807Y488358D01*
X195755Y488272D01*
X195700Y488188D01*
X195641Y488106D01*
X195580Y488026D01*
X195515Y487949D01*
X195447Y487875D01*
X195377Y487803D01*
X195304Y487734D01*
X195228Y487667D01*
X195149Y487604D01*
X195069Y487544D01*
X194986Y487487D01*
X194900Y487433D01*
X194813Y487383D01*
X194724Y487336D01*
X194633Y487293D01*
X194541Y487253D01*
X194447Y487217D01*
X194352Y487184D01*
X194255Y487155D01*
X194158Y487130D01*
X194059Y487109D01*
X193960Y487091D01*
X193860Y487078D01*
X193760Y487068D01*
X193660Y487062D01*
X193559Y487060D01*
X193559Y487059D02*
X190963Y487059D01*
X540445Y521208D02*
X540445Y532892D01*
X543690Y532892D01*
X543803Y532890D01*
X543916Y532884D01*
X544029Y532874D01*
X544142Y532860D01*
X544254Y532843D01*
X544365Y532821D01*
X544475Y532796D01*
X544585Y532766D01*
X544693Y532733D01*
X544800Y532696D01*
X544906Y532656D01*
X545010Y532611D01*
X545113Y532563D01*
X545214Y532512D01*
X545313Y532457D01*
X545410Y532399D01*
X545505Y532337D01*
X545598Y532272D01*
X545688Y532204D01*
X545776Y532133D01*
X545862Y532058D01*
X545945Y531981D01*
X546025Y531901D01*
X546102Y531818D01*
X546177Y531732D01*
X546248Y531644D01*
X546316Y531554D01*
X546381Y531461D01*
X546443Y531366D01*
X546501Y531269D01*
X546556Y531170D01*
X546607Y531069D01*
X546655Y530966D01*
X546700Y530862D01*
X546740Y530756D01*
X546777Y530649D01*
X546810Y530541D01*
X546840Y530431D01*
X546865Y530321D01*
X546887Y530210D01*
X546904Y530098D01*
X546918Y529985D01*
X546928Y529872D01*
X546934Y529759D01*
X546936Y529646D01*
X546934Y529533D01*
X546928Y529420D01*
X546918Y529307D01*
X546904Y529194D01*
X546887Y529082D01*
X546865Y528971D01*
X546840Y528861D01*
X546810Y528751D01*
X546777Y528643D01*
X546740Y528536D01*
X546700Y528430D01*
X546655Y528326D01*
X546607Y528223D01*
X546556Y528122D01*
X546501Y528023D01*
X546443Y527926D01*
X546381Y527831D01*
X546316Y527738D01*
X546248Y527648D01*
X546177Y527560D01*
X546102Y527474D01*
X546025Y527391D01*
X545945Y527311D01*
X545862Y527234D01*
X545776Y527159D01*
X545688Y527088D01*
X545598Y527020D01*
X545505Y526955D01*
X545410Y526893D01*
X545313Y526835D01*
X545214Y526780D01*
X545113Y526729D01*
X545010Y526681D01*
X544906Y526636D01*
X544800Y526596D01*
X544693Y526559D01*
X544585Y526526D01*
X544475Y526496D01*
X544365Y526471D01*
X544254Y526449D01*
X544142Y526432D01*
X544029Y526418D01*
X543916Y526408D01*
X543803Y526402D01*
X543690Y526400D01*
X543690Y526401D02*
X540445Y526401D01*
X544339Y526401D02*
X546936Y521208D01*
X551801Y521208D02*
X555046Y521208D01*
X555159Y521210D01*
X555272Y521216D01*
X555385Y521226D01*
X555498Y521240D01*
X555610Y521257D01*
X555721Y521279D01*
X555831Y521304D01*
X555941Y521334D01*
X556049Y521367D01*
X556156Y521404D01*
X556262Y521444D01*
X556366Y521489D01*
X556469Y521537D01*
X556570Y521588D01*
X556669Y521643D01*
X556766Y521701D01*
X556861Y521763D01*
X556954Y521828D01*
X557044Y521896D01*
X557132Y521967D01*
X557218Y522042D01*
X557301Y522119D01*
X557381Y522199D01*
X557458Y522282D01*
X557533Y522368D01*
X557604Y522456D01*
X557672Y522546D01*
X557737Y522639D01*
X557799Y522734D01*
X557857Y522831D01*
X557912Y522930D01*
X557963Y523031D01*
X558011Y523134D01*
X558056Y523238D01*
X558096Y523344D01*
X558133Y523451D01*
X558166Y523559D01*
X558196Y523669D01*
X558221Y523779D01*
X558243Y523890D01*
X558260Y524002D01*
X558274Y524115D01*
X558284Y524228D01*
X558290Y524341D01*
X558292Y524454D01*
X558290Y524567D01*
X558284Y524680D01*
X558274Y524793D01*
X558260Y524906D01*
X558243Y525018D01*
X558221Y525129D01*
X558196Y525239D01*
X558166Y525349D01*
X558133Y525457D01*
X558096Y525564D01*
X558056Y525670D01*
X558011Y525774D01*
X557963Y525877D01*
X557912Y525978D01*
X557857Y526077D01*
X557799Y526174D01*
X557737Y526269D01*
X557672Y526362D01*
X557604Y526452D01*
X557533Y526540D01*
X557458Y526626D01*
X557381Y526709D01*
X557301Y526789D01*
X557218Y526866D01*
X557132Y526941D01*
X557044Y527012D01*
X556954Y527080D01*
X556861Y527145D01*
X556766Y527207D01*
X556669Y527265D01*
X556570Y527320D01*
X556469Y527371D01*
X556366Y527419D01*
X556262Y527464D01*
X556156Y527504D01*
X556049Y527541D01*
X555941Y527574D01*
X555831Y527604D01*
X555721Y527629D01*
X555610Y527651D01*
X555498Y527668D01*
X555385Y527682D01*
X555272Y527692D01*
X555159Y527698D01*
X555046Y527700D01*
X555696Y532892D02*
X551801Y532892D01*
X555696Y532892D02*
X555797Y532890D01*
X555897Y532884D01*
X555997Y532874D01*
X556097Y532861D01*
X556196Y532843D01*
X556295Y532822D01*
X556392Y532797D01*
X556489Y532768D01*
X556584Y532735D01*
X556678Y532699D01*
X556770Y532659D01*
X556861Y532616D01*
X556950Y532569D01*
X557037Y532519D01*
X557123Y532465D01*
X557206Y532408D01*
X557286Y532348D01*
X557365Y532285D01*
X557441Y532218D01*
X557514Y532149D01*
X557584Y532077D01*
X557652Y532003D01*
X557717Y531926D01*
X557778Y531846D01*
X557837Y531764D01*
X557892Y531680D01*
X557944Y531594D01*
X557993Y531506D01*
X558038Y531416D01*
X558080Y531324D01*
X558118Y531231D01*
X558152Y531136D01*
X558183Y531041D01*
X558210Y530944D01*
X558233Y530846D01*
X558253Y530747D01*
X558268Y530647D01*
X558280Y530547D01*
X558288Y530447D01*
X558292Y530346D01*
X558292Y530246D01*
X558288Y530145D01*
X558280Y530045D01*
X558268Y529945D01*
X558253Y529845D01*
X558233Y529746D01*
X558210Y529648D01*
X558183Y529551D01*
X558152Y529456D01*
X558118Y529361D01*
X558080Y529268D01*
X558038Y529176D01*
X557993Y529086D01*
X557944Y528998D01*
X557892Y528912D01*
X557837Y528828D01*
X557778Y528746D01*
X557717Y528666D01*
X557652Y528589D01*
X557584Y528515D01*
X557514Y528443D01*
X557441Y528374D01*
X557365Y528307D01*
X557286Y528244D01*
X557206Y528184D01*
X557123Y528127D01*
X557037Y528073D01*
X556950Y528023D01*
X556861Y527976D01*
X556770Y527933D01*
X556678Y527893D01*
X556584Y527857D01*
X556489Y527824D01*
X556392Y527795D01*
X556295Y527770D01*
X556196Y527749D01*
X556097Y527731D01*
X555997Y527718D01*
X555897Y527708D01*
X555797Y527702D01*
X555696Y527700D01*
X555696Y527699D02*
X553099Y527699D01*
D13*
X501650Y558800D02*
X494030Y558800D01*
X472440Y558800D02*
X472444Y559112D01*
X472455Y559423D01*
X472474Y559734D01*
X472501Y560045D01*
X472536Y560355D01*
X472577Y560663D01*
X472627Y560971D01*
X472684Y561278D01*
X472749Y561583D01*
X472821Y561886D01*
X472900Y562187D01*
X472987Y562487D01*
X473081Y562784D01*
X473182Y563079D01*
X473291Y563371D01*
X473407Y563660D01*
X473530Y563947D01*
X473659Y564230D01*
X473796Y564510D01*
X473940Y564787D01*
X474090Y565060D01*
X474247Y565329D01*
X474410Y565594D01*
X474580Y565856D01*
X474757Y566113D01*
X474939Y566365D01*
X475128Y566613D01*
X475323Y566857D01*
X475523Y567095D01*
X475730Y567329D01*
X475942Y567557D01*
X476160Y567780D01*
X476383Y567998D01*
X476611Y568210D01*
X476845Y568417D01*
X477083Y568617D01*
X477327Y568812D01*
X477575Y569001D01*
X477827Y569183D01*
X478084Y569360D01*
X478346Y569530D01*
X478611Y569693D01*
X478880Y569850D01*
X479153Y570000D01*
X479430Y570144D01*
X479710Y570281D01*
X479993Y570410D01*
X480280Y570533D01*
X480569Y570649D01*
X480861Y570758D01*
X481156Y570859D01*
X481453Y570953D01*
X481753Y571040D01*
X482054Y571119D01*
X482357Y571191D01*
X482662Y571256D01*
X482969Y571313D01*
X483277Y571363D01*
X483585Y571404D01*
X483895Y571439D01*
X484206Y571466D01*
X484517Y571485D01*
X484828Y571496D01*
X485140Y571500D01*
X485452Y571496D01*
X485763Y571485D01*
X486074Y571466D01*
X486385Y571439D01*
X486695Y571404D01*
X487003Y571363D01*
X487311Y571313D01*
X487618Y571256D01*
X487923Y571191D01*
X488226Y571119D01*
X488527Y571040D01*
X488827Y570953D01*
X489124Y570859D01*
X489419Y570758D01*
X489711Y570649D01*
X490000Y570533D01*
X490287Y570410D01*
X490570Y570281D01*
X490850Y570144D01*
X491127Y570000D01*
X491400Y569850D01*
X491669Y569693D01*
X491934Y569530D01*
X492196Y569360D01*
X492453Y569183D01*
X492705Y569001D01*
X492953Y568812D01*
X493197Y568617D01*
X493435Y568417D01*
X493669Y568210D01*
X493897Y567998D01*
X494120Y567780D01*
X494338Y567557D01*
X494550Y567329D01*
X494757Y567095D01*
X494957Y566857D01*
X495152Y566613D01*
X495341Y566365D01*
X495523Y566113D01*
X495700Y565856D01*
X495870Y565594D01*
X496033Y565329D01*
X496190Y565060D01*
X496340Y564787D01*
X496484Y564510D01*
X496621Y564230D01*
X496750Y563947D01*
X496873Y563660D01*
X496989Y563371D01*
X497098Y563079D01*
X497199Y562784D01*
X497293Y562487D01*
X497380Y562187D01*
X497459Y561886D01*
X497531Y561583D01*
X497596Y561278D01*
X497653Y560971D01*
X497703Y560663D01*
X497744Y560355D01*
X497779Y560045D01*
X497806Y559734D01*
X497825Y559423D01*
X497836Y559112D01*
X497840Y558800D01*
X497836Y558488D01*
X497825Y558177D01*
X497806Y557866D01*
X497779Y557555D01*
X497744Y557245D01*
X497703Y556937D01*
X497653Y556629D01*
X497596Y556322D01*
X497531Y556017D01*
X497459Y555714D01*
X497380Y555413D01*
X497293Y555113D01*
X497199Y554816D01*
X497098Y554521D01*
X496989Y554229D01*
X496873Y553940D01*
X496750Y553653D01*
X496621Y553370D01*
X496484Y553090D01*
X496340Y552813D01*
X496190Y552540D01*
X496033Y552271D01*
X495870Y552006D01*
X495700Y551744D01*
X495523Y551487D01*
X495341Y551235D01*
X495152Y550987D01*
X494957Y550743D01*
X494757Y550505D01*
X494550Y550271D01*
X494338Y550043D01*
X494120Y549820D01*
X493897Y549602D01*
X493669Y549390D01*
X493435Y549183D01*
X493197Y548983D01*
X492953Y548788D01*
X492705Y548599D01*
X492453Y548417D01*
X492196Y548240D01*
X491934Y548070D01*
X491669Y547907D01*
X491400Y547750D01*
X491127Y547600D01*
X490850Y547456D01*
X490570Y547319D01*
X490287Y547190D01*
X490000Y547067D01*
X489711Y546951D01*
X489419Y546842D01*
X489124Y546741D01*
X488827Y546647D01*
X488527Y546560D01*
X488226Y546481D01*
X487923Y546409D01*
X487618Y546344D01*
X487311Y546287D01*
X487003Y546237D01*
X486695Y546196D01*
X486385Y546161D01*
X486074Y546134D01*
X485763Y546115D01*
X485452Y546104D01*
X485140Y546100D01*
X484828Y546104D01*
X484517Y546115D01*
X484206Y546134D01*
X483895Y546161D01*
X483585Y546196D01*
X483277Y546237D01*
X482969Y546287D01*
X482662Y546344D01*
X482357Y546409D01*
X482054Y546481D01*
X481753Y546560D01*
X481453Y546647D01*
X481156Y546741D01*
X480861Y546842D01*
X480569Y546951D01*
X480280Y547067D01*
X479993Y547190D01*
X479710Y547319D01*
X479430Y547456D01*
X479153Y547600D01*
X478880Y547750D01*
X478611Y547907D01*
X478346Y548070D01*
X478084Y548240D01*
X477827Y548417D01*
X477575Y548599D01*
X477327Y548788D01*
X477083Y548983D01*
X476845Y549183D01*
X476611Y549390D01*
X476383Y549602D01*
X476160Y549820D01*
X475942Y550043D01*
X475730Y550271D01*
X475523Y550505D01*
X475323Y550743D01*
X475128Y550987D01*
X474939Y551235D01*
X474757Y551487D01*
X474580Y551744D01*
X474410Y552006D01*
X474247Y552271D01*
X474090Y552540D01*
X473940Y552813D01*
X473796Y553090D01*
X473659Y553370D01*
X473530Y553653D01*
X473407Y553940D01*
X473291Y554229D01*
X473182Y554521D01*
X473081Y554816D01*
X472987Y555113D01*
X472900Y555413D01*
X472821Y555714D01*
X472749Y556017D01*
X472684Y556322D01*
X472627Y556629D01*
X472577Y556937D01*
X472536Y557245D01*
X472501Y557555D01*
X472474Y557866D01*
X472455Y558177D01*
X472444Y558488D01*
X472440Y558800D01*
D17*
X534035Y564515D02*
X534035Y575945D01*
X537210Y575945D01*
X537321Y575943D01*
X537431Y575937D01*
X537542Y575928D01*
X537652Y575914D01*
X537761Y575897D01*
X537870Y575876D01*
X537978Y575851D01*
X538085Y575822D01*
X538191Y575790D01*
X538296Y575754D01*
X538399Y575714D01*
X538501Y575671D01*
X538602Y575624D01*
X538701Y575573D01*
X538798Y575520D01*
X538892Y575463D01*
X538985Y575402D01*
X539076Y575339D01*
X539165Y575272D01*
X539251Y575202D01*
X539334Y575129D01*
X539416Y575054D01*
X539494Y574976D01*
X539569Y574894D01*
X539642Y574811D01*
X539712Y574725D01*
X539779Y574636D01*
X539842Y574545D01*
X539903Y574452D01*
X539960Y574357D01*
X540013Y574261D01*
X540064Y574162D01*
X540111Y574061D01*
X540154Y573959D01*
X540194Y573856D01*
X540230Y573751D01*
X540262Y573645D01*
X540291Y573538D01*
X540316Y573430D01*
X540337Y573321D01*
X540354Y573212D01*
X540368Y573102D01*
X540377Y572991D01*
X540383Y572881D01*
X540385Y572770D01*
X540383Y572659D01*
X540377Y572549D01*
X540368Y572438D01*
X540354Y572328D01*
X540337Y572219D01*
X540316Y572110D01*
X540291Y572002D01*
X540262Y571895D01*
X540230Y571789D01*
X540194Y571684D01*
X540154Y571581D01*
X540111Y571479D01*
X540064Y571378D01*
X540013Y571279D01*
X539960Y571183D01*
X539903Y571088D01*
X539842Y570995D01*
X539779Y570904D01*
X539712Y570815D01*
X539642Y570729D01*
X539569Y570646D01*
X539494Y570564D01*
X539416Y570486D01*
X539334Y570411D01*
X539251Y570338D01*
X539165Y570268D01*
X539076Y570201D01*
X538985Y570138D01*
X538892Y570077D01*
X538798Y570020D01*
X538701Y569967D01*
X538602Y569916D01*
X538501Y569869D01*
X538399Y569826D01*
X538296Y569786D01*
X538191Y569750D01*
X538085Y569718D01*
X537978Y569689D01*
X537870Y569664D01*
X537761Y569643D01*
X537652Y569626D01*
X537542Y569612D01*
X537431Y569603D01*
X537321Y569597D01*
X537210Y569595D01*
X534035Y569595D01*
X537845Y569595D02*
X540385Y564515D01*
X551733Y573088D02*
X551731Y573192D01*
X551725Y573297D01*
X551716Y573401D01*
X551703Y573504D01*
X551685Y573607D01*
X551665Y573709D01*
X551640Y573811D01*
X551612Y573911D01*
X551580Y574011D01*
X551544Y574109D01*
X551505Y574206D01*
X551463Y574301D01*
X551417Y574395D01*
X551367Y574487D01*
X551315Y574577D01*
X551259Y574665D01*
X551199Y574751D01*
X551137Y574835D01*
X551072Y574916D01*
X551004Y574995D01*
X550932Y575072D01*
X550859Y575145D01*
X550782Y575217D01*
X550703Y575285D01*
X550622Y575350D01*
X550538Y575412D01*
X550452Y575472D01*
X550364Y575528D01*
X550274Y575580D01*
X550182Y575630D01*
X550088Y575676D01*
X549993Y575718D01*
X549896Y575757D01*
X549798Y575793D01*
X549698Y575825D01*
X549598Y575853D01*
X549496Y575878D01*
X549394Y575898D01*
X549291Y575916D01*
X549188Y575929D01*
X549084Y575938D01*
X548979Y575944D01*
X548875Y575946D01*
X548875Y575945D02*
X548757Y575943D01*
X548638Y575937D01*
X548520Y575928D01*
X548403Y575915D01*
X548286Y575897D01*
X548169Y575877D01*
X548053Y575852D01*
X547938Y575824D01*
X547825Y575791D01*
X547712Y575756D01*
X547600Y575716D01*
X547490Y575674D01*
X547381Y575627D01*
X547273Y575577D01*
X547168Y575524D01*
X547064Y575467D01*
X546962Y575407D01*
X546862Y575344D01*
X546764Y575277D01*
X546668Y575208D01*
X546575Y575135D01*
X546484Y575059D01*
X546395Y574981D01*
X546309Y574899D01*
X546226Y574815D01*
X546145Y574729D01*
X546068Y574639D01*
X545993Y574548D01*
X545921Y574454D01*
X545852Y574357D01*
X545787Y574259D01*
X545724Y574158D01*
X545665Y574055D01*
X545609Y573951D01*
X545557Y573845D01*
X545508Y573737D01*
X545463Y573628D01*
X545421Y573517D01*
X545383Y573405D01*
X550780Y570866D02*
X550856Y570941D01*
X550931Y571020D01*
X551002Y571101D01*
X551071Y571185D01*
X551136Y571271D01*
X551198Y571359D01*
X551258Y571449D01*
X551314Y571541D01*
X551367Y571636D01*
X551416Y571732D01*
X551462Y571830D01*
X551505Y571929D01*
X551544Y572030D01*
X551579Y572132D01*
X551611Y572235D01*
X551639Y572339D01*
X551664Y572444D01*
X551685Y572551D01*
X551702Y572657D01*
X551715Y572764D01*
X551724Y572872D01*
X551730Y572980D01*
X551732Y573088D01*
X550780Y570865D02*
X545382Y564515D01*
X551732Y564515D01*
D10*
X394208Y561848D02*
X394208Y573532D01*
X397454Y573532D01*
X397567Y573530D01*
X397680Y573524D01*
X397793Y573514D01*
X397906Y573500D01*
X398018Y573483D01*
X398129Y573461D01*
X398239Y573436D01*
X398349Y573406D01*
X398457Y573373D01*
X398564Y573336D01*
X398670Y573296D01*
X398774Y573251D01*
X398877Y573203D01*
X398978Y573152D01*
X399077Y573097D01*
X399174Y573039D01*
X399269Y572977D01*
X399362Y572912D01*
X399452Y572844D01*
X399540Y572773D01*
X399626Y572698D01*
X399709Y572621D01*
X399789Y572541D01*
X399866Y572458D01*
X399941Y572372D01*
X400012Y572284D01*
X400080Y572194D01*
X400145Y572101D01*
X400207Y572006D01*
X400265Y571909D01*
X400320Y571810D01*
X400371Y571709D01*
X400419Y571606D01*
X400464Y571502D01*
X400504Y571396D01*
X400541Y571289D01*
X400574Y571181D01*
X400604Y571071D01*
X400629Y570961D01*
X400651Y570850D01*
X400668Y570738D01*
X400682Y570625D01*
X400692Y570512D01*
X400698Y570399D01*
X400700Y570286D01*
X400698Y570173D01*
X400692Y570060D01*
X400682Y569947D01*
X400668Y569834D01*
X400651Y569722D01*
X400629Y569611D01*
X400604Y569501D01*
X400574Y569391D01*
X400541Y569283D01*
X400504Y569176D01*
X400464Y569070D01*
X400419Y568966D01*
X400371Y568863D01*
X400320Y568762D01*
X400265Y568663D01*
X400207Y568566D01*
X400145Y568471D01*
X400080Y568378D01*
X400012Y568288D01*
X399941Y568200D01*
X399866Y568114D01*
X399789Y568031D01*
X399709Y567951D01*
X399626Y567874D01*
X399540Y567799D01*
X399452Y567728D01*
X399362Y567660D01*
X399269Y567595D01*
X399174Y567533D01*
X399077Y567475D01*
X398978Y567420D01*
X398877Y567369D01*
X398774Y567321D01*
X398670Y567276D01*
X398564Y567236D01*
X398457Y567199D01*
X398349Y567166D01*
X398239Y567136D01*
X398129Y567111D01*
X398018Y567089D01*
X397906Y567072D01*
X397793Y567058D01*
X397680Y567048D01*
X397567Y567042D01*
X397454Y567040D01*
X397454Y567041D02*
X394208Y567041D01*
X398103Y567041D02*
X400699Y561848D01*
X405564Y572234D02*
X405564Y573532D01*
X412055Y573532D01*
X408810Y561848D01*
D13*
X440690Y518160D02*
X448310Y518160D01*
X419100Y518160D02*
X419104Y518472D01*
X419115Y518783D01*
X419134Y519094D01*
X419161Y519405D01*
X419196Y519715D01*
X419237Y520023D01*
X419287Y520331D01*
X419344Y520638D01*
X419409Y520943D01*
X419481Y521246D01*
X419560Y521547D01*
X419647Y521847D01*
X419741Y522144D01*
X419842Y522439D01*
X419951Y522731D01*
X420067Y523020D01*
X420190Y523307D01*
X420319Y523590D01*
X420456Y523870D01*
X420600Y524147D01*
X420750Y524420D01*
X420907Y524689D01*
X421070Y524954D01*
X421240Y525216D01*
X421417Y525473D01*
X421599Y525725D01*
X421788Y525973D01*
X421983Y526217D01*
X422183Y526455D01*
X422390Y526689D01*
X422602Y526917D01*
X422820Y527140D01*
X423043Y527358D01*
X423271Y527570D01*
X423505Y527777D01*
X423743Y527977D01*
X423987Y528172D01*
X424235Y528361D01*
X424487Y528543D01*
X424744Y528720D01*
X425006Y528890D01*
X425271Y529053D01*
X425540Y529210D01*
X425813Y529360D01*
X426090Y529504D01*
X426370Y529641D01*
X426653Y529770D01*
X426940Y529893D01*
X427229Y530009D01*
X427521Y530118D01*
X427816Y530219D01*
X428113Y530313D01*
X428413Y530400D01*
X428714Y530479D01*
X429017Y530551D01*
X429322Y530616D01*
X429629Y530673D01*
X429937Y530723D01*
X430245Y530764D01*
X430555Y530799D01*
X430866Y530826D01*
X431177Y530845D01*
X431488Y530856D01*
X431800Y530860D01*
X432112Y530856D01*
X432423Y530845D01*
X432734Y530826D01*
X433045Y530799D01*
X433355Y530764D01*
X433663Y530723D01*
X433971Y530673D01*
X434278Y530616D01*
X434583Y530551D01*
X434886Y530479D01*
X435187Y530400D01*
X435487Y530313D01*
X435784Y530219D01*
X436079Y530118D01*
X436371Y530009D01*
X436660Y529893D01*
X436947Y529770D01*
X437230Y529641D01*
X437510Y529504D01*
X437787Y529360D01*
X438060Y529210D01*
X438329Y529053D01*
X438594Y528890D01*
X438856Y528720D01*
X439113Y528543D01*
X439365Y528361D01*
X439613Y528172D01*
X439857Y527977D01*
X440095Y527777D01*
X440329Y527570D01*
X440557Y527358D01*
X440780Y527140D01*
X440998Y526917D01*
X441210Y526689D01*
X441417Y526455D01*
X441617Y526217D01*
X441812Y525973D01*
X442001Y525725D01*
X442183Y525473D01*
X442360Y525216D01*
X442530Y524954D01*
X442693Y524689D01*
X442850Y524420D01*
X443000Y524147D01*
X443144Y523870D01*
X443281Y523590D01*
X443410Y523307D01*
X443533Y523020D01*
X443649Y522731D01*
X443758Y522439D01*
X443859Y522144D01*
X443953Y521847D01*
X444040Y521547D01*
X444119Y521246D01*
X444191Y520943D01*
X444256Y520638D01*
X444313Y520331D01*
X444363Y520023D01*
X444404Y519715D01*
X444439Y519405D01*
X444466Y519094D01*
X444485Y518783D01*
X444496Y518472D01*
X444500Y518160D01*
X444496Y517848D01*
X444485Y517537D01*
X444466Y517226D01*
X444439Y516915D01*
X444404Y516605D01*
X444363Y516297D01*
X444313Y515989D01*
X444256Y515682D01*
X444191Y515377D01*
X444119Y515074D01*
X444040Y514773D01*
X443953Y514473D01*
X443859Y514176D01*
X443758Y513881D01*
X443649Y513589D01*
X443533Y513300D01*
X443410Y513013D01*
X443281Y512730D01*
X443144Y512450D01*
X443000Y512173D01*
X442850Y511900D01*
X442693Y511631D01*
X442530Y511366D01*
X442360Y511104D01*
X442183Y510847D01*
X442001Y510595D01*
X441812Y510347D01*
X441617Y510103D01*
X441417Y509865D01*
X441210Y509631D01*
X440998Y509403D01*
X440780Y509180D01*
X440557Y508962D01*
X440329Y508750D01*
X440095Y508543D01*
X439857Y508343D01*
X439613Y508148D01*
X439365Y507959D01*
X439113Y507777D01*
X438856Y507600D01*
X438594Y507430D01*
X438329Y507267D01*
X438060Y507110D01*
X437787Y506960D01*
X437510Y506816D01*
X437230Y506679D01*
X436947Y506550D01*
X436660Y506427D01*
X436371Y506311D01*
X436079Y506202D01*
X435784Y506101D01*
X435487Y506007D01*
X435187Y505920D01*
X434886Y505841D01*
X434583Y505769D01*
X434278Y505704D01*
X433971Y505647D01*
X433663Y505597D01*
X433355Y505556D01*
X433045Y505521D01*
X432734Y505494D01*
X432423Y505475D01*
X432112Y505464D01*
X431800Y505460D01*
X431488Y505464D01*
X431177Y505475D01*
X430866Y505494D01*
X430555Y505521D01*
X430245Y505556D01*
X429937Y505597D01*
X429629Y505647D01*
X429322Y505704D01*
X429017Y505769D01*
X428714Y505841D01*
X428413Y505920D01*
X428113Y506007D01*
X427816Y506101D01*
X427521Y506202D01*
X427229Y506311D01*
X426940Y506427D01*
X426653Y506550D01*
X426370Y506679D01*
X426090Y506816D01*
X425813Y506960D01*
X425540Y507110D01*
X425271Y507267D01*
X425006Y507430D01*
X424744Y507600D01*
X424487Y507777D01*
X424235Y507959D01*
X423987Y508148D01*
X423743Y508343D01*
X423505Y508543D01*
X423271Y508750D01*
X423043Y508962D01*
X422820Y509180D01*
X422602Y509403D01*
X422390Y509631D01*
X422183Y509865D01*
X421983Y510103D01*
X421788Y510347D01*
X421599Y510595D01*
X421417Y510847D01*
X421240Y511104D01*
X421070Y511366D01*
X420907Y511631D01*
X420750Y511900D01*
X420600Y512173D01*
X420456Y512450D01*
X420319Y512730D01*
X420190Y513013D01*
X420067Y513300D01*
X419951Y513589D01*
X419842Y513881D01*
X419741Y514176D01*
X419647Y514473D01*
X419560Y514773D01*
X419481Y515074D01*
X419409Y515377D01*
X419344Y515682D01*
X419287Y515989D01*
X419237Y516297D01*
X419196Y516605D01*
X419161Y516915D01*
X419134Y517226D01*
X419115Y517537D01*
X419104Y517848D01*
X419100Y518160D01*
D17*
X445135Y534035D02*
X445135Y545465D01*
X448310Y545465D01*
X448421Y545463D01*
X448531Y545457D01*
X448642Y545448D01*
X448752Y545434D01*
X448861Y545417D01*
X448970Y545396D01*
X449078Y545371D01*
X449185Y545342D01*
X449291Y545310D01*
X449396Y545274D01*
X449499Y545234D01*
X449601Y545191D01*
X449702Y545144D01*
X449801Y545093D01*
X449898Y545040D01*
X449992Y544983D01*
X450085Y544922D01*
X450176Y544859D01*
X450265Y544792D01*
X450351Y544722D01*
X450434Y544649D01*
X450516Y544574D01*
X450594Y544496D01*
X450669Y544414D01*
X450742Y544331D01*
X450812Y544245D01*
X450879Y544156D01*
X450942Y544065D01*
X451003Y543972D01*
X451060Y543877D01*
X451113Y543781D01*
X451164Y543682D01*
X451211Y543581D01*
X451254Y543479D01*
X451294Y543376D01*
X451330Y543271D01*
X451362Y543165D01*
X451391Y543058D01*
X451416Y542950D01*
X451437Y542841D01*
X451454Y542732D01*
X451468Y542622D01*
X451477Y542511D01*
X451483Y542401D01*
X451485Y542290D01*
X451483Y542179D01*
X451477Y542069D01*
X451468Y541958D01*
X451454Y541848D01*
X451437Y541739D01*
X451416Y541630D01*
X451391Y541522D01*
X451362Y541415D01*
X451330Y541309D01*
X451294Y541204D01*
X451254Y541101D01*
X451211Y540999D01*
X451164Y540898D01*
X451113Y540799D01*
X451060Y540703D01*
X451003Y540608D01*
X450942Y540515D01*
X450879Y540424D01*
X450812Y540335D01*
X450742Y540249D01*
X450669Y540166D01*
X450594Y540084D01*
X450516Y540006D01*
X450434Y539931D01*
X450351Y539858D01*
X450265Y539788D01*
X450176Y539721D01*
X450085Y539658D01*
X449992Y539597D01*
X449898Y539540D01*
X449801Y539487D01*
X449702Y539436D01*
X449601Y539389D01*
X449499Y539346D01*
X449396Y539306D01*
X449291Y539270D01*
X449185Y539238D01*
X449078Y539209D01*
X448970Y539184D01*
X448861Y539163D01*
X448752Y539146D01*
X448642Y539132D01*
X448531Y539123D01*
X448421Y539117D01*
X448310Y539115D01*
X445135Y539115D01*
X448945Y539115D02*
X451485Y534035D01*
X456482Y542925D02*
X459657Y545465D01*
X459657Y534035D01*
X456482Y534035D02*
X462832Y534035D01*
X467912Y542925D02*
X471087Y545465D01*
X471087Y534035D01*
X467912Y534035D02*
X474262Y534035D01*
D10*
X361188Y531368D02*
X361188Y543052D01*
X364434Y543052D01*
X364547Y543050D01*
X364660Y543044D01*
X364773Y543034D01*
X364886Y543020D01*
X364998Y543003D01*
X365109Y542981D01*
X365219Y542956D01*
X365329Y542926D01*
X365437Y542893D01*
X365544Y542856D01*
X365650Y542816D01*
X365754Y542771D01*
X365857Y542723D01*
X365958Y542672D01*
X366057Y542617D01*
X366154Y542559D01*
X366249Y542497D01*
X366342Y542432D01*
X366432Y542364D01*
X366520Y542293D01*
X366606Y542218D01*
X366689Y542141D01*
X366769Y542061D01*
X366846Y541978D01*
X366921Y541892D01*
X366992Y541804D01*
X367060Y541714D01*
X367125Y541621D01*
X367187Y541526D01*
X367245Y541429D01*
X367300Y541330D01*
X367351Y541229D01*
X367399Y541126D01*
X367444Y541022D01*
X367484Y540916D01*
X367521Y540809D01*
X367554Y540701D01*
X367584Y540591D01*
X367609Y540481D01*
X367631Y540370D01*
X367648Y540258D01*
X367662Y540145D01*
X367672Y540032D01*
X367678Y539919D01*
X367680Y539806D01*
X367678Y539693D01*
X367672Y539580D01*
X367662Y539467D01*
X367648Y539354D01*
X367631Y539242D01*
X367609Y539131D01*
X367584Y539021D01*
X367554Y538911D01*
X367521Y538803D01*
X367484Y538696D01*
X367444Y538590D01*
X367399Y538486D01*
X367351Y538383D01*
X367300Y538282D01*
X367245Y538183D01*
X367187Y538086D01*
X367125Y537991D01*
X367060Y537898D01*
X366992Y537808D01*
X366921Y537720D01*
X366846Y537634D01*
X366769Y537551D01*
X366689Y537471D01*
X366606Y537394D01*
X366520Y537319D01*
X366432Y537248D01*
X366342Y537180D01*
X366249Y537115D01*
X366154Y537053D01*
X366057Y536995D01*
X365958Y536940D01*
X365857Y536889D01*
X365754Y536841D01*
X365650Y536796D01*
X365544Y536756D01*
X365437Y536719D01*
X365329Y536686D01*
X365219Y536656D01*
X365109Y536631D01*
X364998Y536609D01*
X364886Y536592D01*
X364773Y536578D01*
X364660Y536568D01*
X364547Y536562D01*
X364434Y536560D01*
X364434Y536561D02*
X361188Y536561D01*
X365083Y536561D02*
X367679Y531368D01*
X372544Y540456D02*
X375790Y543052D01*
X375790Y531368D01*
X379035Y531368D02*
X372544Y531368D01*
X387544Y543052D02*
X387651Y543050D01*
X387757Y543044D01*
X387863Y543034D01*
X387969Y543021D01*
X388075Y543003D01*
X388179Y542982D01*
X388283Y542957D01*
X388386Y542928D01*
X388487Y542896D01*
X388587Y542859D01*
X388686Y542819D01*
X388784Y542776D01*
X388880Y542729D01*
X388974Y542678D01*
X389066Y542624D01*
X389156Y542567D01*
X389244Y542507D01*
X389329Y542443D01*
X389412Y542376D01*
X389493Y542306D01*
X389571Y542234D01*
X389647Y542158D01*
X389719Y542080D01*
X389789Y541999D01*
X389856Y541916D01*
X389920Y541831D01*
X389980Y541743D01*
X390037Y541653D01*
X390091Y541561D01*
X390142Y541467D01*
X390189Y541371D01*
X390232Y541273D01*
X390272Y541174D01*
X390309Y541074D01*
X390341Y540973D01*
X390370Y540870D01*
X390395Y540766D01*
X390416Y540662D01*
X390434Y540556D01*
X390447Y540450D01*
X390457Y540344D01*
X390463Y540238D01*
X390465Y540131D01*
X387544Y543052D02*
X387423Y543050D01*
X387302Y543044D01*
X387182Y543034D01*
X387061Y543021D01*
X386942Y543003D01*
X386822Y542982D01*
X386704Y542957D01*
X386587Y542928D01*
X386470Y542895D01*
X386355Y542859D01*
X386241Y542818D01*
X386128Y542775D01*
X386016Y542727D01*
X385907Y542676D01*
X385799Y542621D01*
X385692Y542563D01*
X385588Y542502D01*
X385486Y542437D01*
X385386Y542369D01*
X385288Y542298D01*
X385192Y542224D01*
X385099Y542147D01*
X385009Y542066D01*
X384921Y541983D01*
X384836Y541897D01*
X384753Y541808D01*
X384674Y541717D01*
X384597Y541623D01*
X384524Y541527D01*
X384454Y541429D01*
X384387Y541328D01*
X384323Y541225D01*
X384263Y541120D01*
X384206Y541013D01*
X384152Y540905D01*
X384102Y540795D01*
X384056Y540683D01*
X384013Y540570D01*
X383974Y540455D01*
X389492Y537859D02*
X389571Y537936D01*
X389647Y538017D01*
X389720Y538100D01*
X389790Y538185D01*
X389857Y538273D01*
X389921Y538363D01*
X389981Y538455D01*
X390038Y538550D01*
X390092Y538646D01*
X390143Y538744D01*
X390190Y538844D01*
X390234Y538946D01*
X390274Y539049D01*
X390310Y539153D01*
X390342Y539259D01*
X390371Y539365D01*
X390396Y539473D01*
X390418Y539581D01*
X390435Y539691D01*
X390449Y539800D01*
X390458Y539910D01*
X390464Y540021D01*
X390466Y540131D01*
X389492Y537859D02*
X383974Y531368D01*
X390465Y531368D01*
D13*
X389890Y447040D02*
X402590Y447040D01*
X408940Y440690D01*
X408940Y427990D02*
X402590Y421640D01*
X408940Y440690D02*
X415290Y447040D01*
X427990Y447040D01*
X434340Y440690D01*
X434340Y427990D02*
X427990Y421640D01*
X415290Y421640D01*
X408940Y427990D01*
X383540Y427990D02*
X383540Y440690D01*
X389890Y447040D01*
X383540Y427990D02*
X389890Y421640D01*
X402590Y421640D01*
X434340Y440690D02*
X440690Y447040D01*
X453390Y447040D01*
X459740Y440690D01*
X459740Y427990D02*
X453390Y421640D01*
X440690Y421640D01*
X434340Y427990D01*
X466090Y447040D02*
X478790Y447040D01*
X485140Y440690D01*
X485140Y427990D01*
X478790Y421640D01*
X459740Y440690D02*
X466090Y447040D01*
X459740Y427990D02*
X466090Y421640D01*
X478790Y421640D01*
D17*
X375920Y440055D02*
X372745Y437515D01*
X375920Y440055D02*
X375920Y428625D01*
X372745Y428625D02*
X379095Y428625D01*
X488315Y431165D02*
X490855Y440055D01*
X488315Y431165D02*
X494665Y431165D01*
X492760Y433705D02*
X492760Y428625D01*
X390525Y454025D02*
X390523Y453925D01*
X390517Y453826D01*
X390507Y453726D01*
X390494Y453628D01*
X390476Y453529D01*
X390455Y453432D01*
X390430Y453336D01*
X390401Y453240D01*
X390368Y453146D01*
X390332Y453053D01*
X390292Y452962D01*
X390248Y452872D01*
X390201Y452784D01*
X390151Y452698D01*
X390097Y452614D01*
X390040Y452532D01*
X389980Y452453D01*
X389916Y452375D01*
X389850Y452301D01*
X389781Y452229D01*
X389709Y452160D01*
X389635Y452094D01*
X389557Y452030D01*
X389478Y451970D01*
X389396Y451913D01*
X389312Y451859D01*
X389226Y451809D01*
X389138Y451762D01*
X389048Y451718D01*
X388957Y451678D01*
X388864Y451642D01*
X388770Y451609D01*
X388674Y451580D01*
X388578Y451555D01*
X388481Y451534D01*
X388382Y451516D01*
X388284Y451503D01*
X388184Y451493D01*
X388085Y451487D01*
X387985Y451485D01*
X387844Y451487D01*
X387703Y451492D01*
X387562Y451502D01*
X387421Y451515D01*
X387281Y451531D01*
X387141Y451552D01*
X387002Y451576D01*
X386863Y451604D01*
X386726Y451635D01*
X386589Y451670D01*
X386453Y451708D01*
X386318Y451750D01*
X386185Y451796D01*
X386052Y451845D01*
X385921Y451898D01*
X385792Y451954D01*
X385663Y452013D01*
X385537Y452076D01*
X385412Y452142D01*
X385289Y452211D01*
X385168Y452284D01*
X385049Y452360D01*
X384931Y452439D01*
X384816Y452520D01*
X384704Y452605D01*
X384593Y452693D01*
X384485Y452784D01*
X384379Y452877D01*
X384276Y452974D01*
X384175Y453073D01*
X384493Y460375D02*
X384495Y460475D01*
X384501Y460574D01*
X384511Y460674D01*
X384524Y460772D01*
X384542Y460871D01*
X384563Y460968D01*
X384588Y461064D01*
X384617Y461160D01*
X384650Y461254D01*
X384686Y461347D01*
X384726Y461438D01*
X384770Y461528D01*
X384817Y461616D01*
X384867Y461702D01*
X384921Y461786D01*
X384978Y461868D01*
X385038Y461947D01*
X385102Y462025D01*
X385168Y462099D01*
X385237Y462171D01*
X385309Y462240D01*
X385383Y462306D01*
X385461Y462370D01*
X385540Y462430D01*
X385622Y462487D01*
X385706Y462541D01*
X385792Y462591D01*
X385880Y462638D01*
X385970Y462682D01*
X386061Y462722D01*
X386154Y462758D01*
X386248Y462791D01*
X386344Y462820D01*
X386440Y462845D01*
X386537Y462866D01*
X386636Y462884D01*
X386734Y462897D01*
X386834Y462907D01*
X386933Y462913D01*
X387033Y462915D01*
X387033Y462916D02*
X387166Y462914D01*
X387299Y462909D01*
X387432Y462899D01*
X387565Y462886D01*
X387697Y462869D01*
X387829Y462849D01*
X387960Y462825D01*
X388090Y462797D01*
X388220Y462766D01*
X388348Y462731D01*
X388476Y462692D01*
X388602Y462650D01*
X388727Y462604D01*
X388851Y462555D01*
X388974Y462503D01*
X389095Y462447D01*
X389214Y462387D01*
X389332Y462325D01*
X389447Y462259D01*
X389561Y462190D01*
X389673Y462117D01*
X389783Y462042D01*
X389891Y461963D01*
X385762Y458152D02*
X385678Y458204D01*
X385595Y458259D01*
X385515Y458318D01*
X385437Y458379D01*
X385362Y458443D01*
X385289Y458511D01*
X385218Y458581D01*
X385151Y458653D01*
X385086Y458728D01*
X385024Y458806D01*
X384965Y458886D01*
X384909Y458968D01*
X384857Y459052D01*
X384808Y459138D01*
X384762Y459226D01*
X384719Y459316D01*
X384680Y459407D01*
X384645Y459500D01*
X384613Y459594D01*
X384585Y459689D01*
X384560Y459785D01*
X384540Y459882D01*
X384522Y459980D01*
X384509Y460078D01*
X384500Y460177D01*
X384494Y460276D01*
X384492Y460375D01*
X389255Y456248D02*
X389339Y456196D01*
X389422Y456141D01*
X389502Y456082D01*
X389580Y456021D01*
X389655Y455957D01*
X389728Y455889D01*
X389799Y455819D01*
X389866Y455747D01*
X389931Y455672D01*
X389993Y455594D01*
X390052Y455514D01*
X390108Y455432D01*
X390160Y455348D01*
X390209Y455262D01*
X390255Y455174D01*
X390298Y455084D01*
X390337Y454993D01*
X390372Y454900D01*
X390404Y454806D01*
X390432Y454711D01*
X390457Y454615D01*
X390477Y454518D01*
X390495Y454420D01*
X390508Y454322D01*
X390517Y454223D01*
X390523Y454124D01*
X390525Y454025D01*
X389255Y456248D02*
X385763Y458153D01*
X394589Y462915D02*
X398399Y451485D01*
X402209Y462915D01*
X406654Y451485D02*
X410464Y451485D01*
X410564Y451487D01*
X410663Y451493D01*
X410763Y451503D01*
X410861Y451516D01*
X410960Y451534D01*
X411057Y451555D01*
X411153Y451580D01*
X411249Y451609D01*
X411343Y451642D01*
X411436Y451678D01*
X411527Y451718D01*
X411617Y451762D01*
X411705Y451809D01*
X411791Y451859D01*
X411875Y451913D01*
X411957Y451970D01*
X412036Y452030D01*
X412114Y452094D01*
X412188Y452160D01*
X412260Y452229D01*
X412329Y452301D01*
X412395Y452375D01*
X412459Y452453D01*
X412519Y452532D01*
X412576Y452614D01*
X412630Y452698D01*
X412680Y452784D01*
X412727Y452872D01*
X412771Y452962D01*
X412811Y453053D01*
X412847Y453146D01*
X412880Y453240D01*
X412909Y453336D01*
X412934Y453432D01*
X412955Y453529D01*
X412973Y453628D01*
X412986Y453726D01*
X412996Y453826D01*
X413002Y453925D01*
X413004Y454025D01*
X413004Y455295D01*
X413002Y455395D01*
X412996Y455494D01*
X412986Y455594D01*
X412973Y455692D01*
X412955Y455791D01*
X412934Y455888D01*
X412909Y455984D01*
X412880Y456080D01*
X412847Y456174D01*
X412811Y456267D01*
X412771Y456358D01*
X412727Y456448D01*
X412680Y456536D01*
X412630Y456622D01*
X412576Y456706D01*
X412519Y456788D01*
X412459Y456867D01*
X412395Y456945D01*
X412329Y457019D01*
X412260Y457091D01*
X412188Y457160D01*
X412114Y457226D01*
X412036Y457290D01*
X411957Y457350D01*
X411875Y457407D01*
X411791Y457461D01*
X411705Y457511D01*
X411617Y457558D01*
X411527Y457602D01*
X411436Y457642D01*
X411343Y457678D01*
X411249Y457711D01*
X411153Y457740D01*
X411057Y457765D01*
X410960Y457786D01*
X410861Y457804D01*
X410763Y457817D01*
X410663Y457827D01*
X410564Y457833D01*
X410464Y457835D01*
X406654Y457835D01*
X406654Y462915D01*
X413004Y462915D01*
D10*
X678688Y551688D02*
X678688Y563372D01*
X681934Y563372D01*
X682047Y563370D01*
X682160Y563364D01*
X682273Y563354D01*
X682386Y563340D01*
X682498Y563323D01*
X682609Y563301D01*
X682719Y563276D01*
X682829Y563246D01*
X682937Y563213D01*
X683044Y563176D01*
X683150Y563136D01*
X683254Y563091D01*
X683357Y563043D01*
X683458Y562992D01*
X683557Y562937D01*
X683654Y562879D01*
X683749Y562817D01*
X683842Y562752D01*
X683932Y562684D01*
X684020Y562613D01*
X684106Y562538D01*
X684189Y562461D01*
X684269Y562381D01*
X684346Y562298D01*
X684421Y562212D01*
X684492Y562124D01*
X684560Y562034D01*
X684625Y561941D01*
X684687Y561846D01*
X684745Y561749D01*
X684800Y561650D01*
X684851Y561549D01*
X684899Y561446D01*
X684944Y561342D01*
X684984Y561236D01*
X685021Y561129D01*
X685054Y561021D01*
X685084Y560911D01*
X685109Y560801D01*
X685131Y560690D01*
X685148Y560578D01*
X685162Y560465D01*
X685172Y560352D01*
X685178Y560239D01*
X685180Y560126D01*
X685178Y560013D01*
X685172Y559900D01*
X685162Y559787D01*
X685148Y559674D01*
X685131Y559562D01*
X685109Y559451D01*
X685084Y559341D01*
X685054Y559231D01*
X685021Y559123D01*
X684984Y559016D01*
X684944Y558910D01*
X684899Y558806D01*
X684851Y558703D01*
X684800Y558602D01*
X684745Y558503D01*
X684687Y558406D01*
X684625Y558311D01*
X684560Y558218D01*
X684492Y558128D01*
X684421Y558040D01*
X684346Y557954D01*
X684269Y557871D01*
X684189Y557791D01*
X684106Y557714D01*
X684020Y557639D01*
X683932Y557568D01*
X683842Y557500D01*
X683749Y557435D01*
X683654Y557373D01*
X683557Y557315D01*
X683458Y557260D01*
X683357Y557209D01*
X683254Y557161D01*
X683150Y557116D01*
X683044Y557076D01*
X682937Y557039D01*
X682829Y557006D01*
X682719Y556976D01*
X682609Y556951D01*
X682498Y556929D01*
X682386Y556912D01*
X682273Y556898D01*
X682160Y556888D01*
X682047Y556882D01*
X681934Y556880D01*
X681934Y556881D02*
X678688Y556881D01*
X682583Y556881D02*
X685179Y551688D01*
X690044Y560776D02*
X693290Y563372D01*
X693290Y551688D01*
X696535Y551688D02*
X690044Y551688D01*
D17*
X287020Y309880D02*
X287020Y233680D01*
X223520Y233680D01*
X223520Y309880D01*
X287020Y309880D01*
X741680Y312420D02*
X741680Y236220D01*
X741680Y312420D02*
X805180Y312420D01*
X805180Y236220D01*
X741680Y236220D01*
X561340Y243840D02*
X561340Y279978D01*
X590440Y279978D01*
X590440Y243840D01*
X561340Y243840D01*
X590403Y267085D02*
X577703Y279785D01*
D10*
X603945Y240792D02*
X603945Y229108D01*
X603945Y240792D02*
X607190Y240792D01*
X607303Y240790D01*
X607416Y240784D01*
X607529Y240774D01*
X607642Y240760D01*
X607754Y240743D01*
X607865Y240721D01*
X607975Y240696D01*
X608085Y240666D01*
X608193Y240633D01*
X608300Y240596D01*
X608406Y240556D01*
X608510Y240511D01*
X608613Y240463D01*
X608714Y240412D01*
X608813Y240357D01*
X608910Y240299D01*
X609005Y240237D01*
X609098Y240172D01*
X609188Y240104D01*
X609276Y240033D01*
X609362Y239958D01*
X609445Y239881D01*
X609525Y239801D01*
X609602Y239718D01*
X609677Y239632D01*
X609748Y239544D01*
X609816Y239454D01*
X609881Y239361D01*
X609943Y239266D01*
X610001Y239169D01*
X610056Y239070D01*
X610107Y238969D01*
X610155Y238866D01*
X610200Y238762D01*
X610240Y238656D01*
X610277Y238549D01*
X610310Y238441D01*
X610340Y238331D01*
X610365Y238221D01*
X610387Y238110D01*
X610404Y237998D01*
X610418Y237885D01*
X610428Y237772D01*
X610434Y237659D01*
X610436Y237546D01*
X610434Y237433D01*
X610428Y237320D01*
X610418Y237207D01*
X610404Y237094D01*
X610387Y236982D01*
X610365Y236871D01*
X610340Y236761D01*
X610310Y236651D01*
X610277Y236543D01*
X610240Y236436D01*
X610200Y236330D01*
X610155Y236226D01*
X610107Y236123D01*
X610056Y236022D01*
X610001Y235923D01*
X609943Y235826D01*
X609881Y235731D01*
X609816Y235638D01*
X609748Y235548D01*
X609677Y235460D01*
X609602Y235374D01*
X609525Y235291D01*
X609445Y235211D01*
X609362Y235134D01*
X609276Y235059D01*
X609188Y234988D01*
X609098Y234920D01*
X609005Y234855D01*
X608910Y234793D01*
X608813Y234735D01*
X608714Y234680D01*
X608613Y234629D01*
X608510Y234581D01*
X608406Y234536D01*
X608300Y234496D01*
X608193Y234459D01*
X608085Y234426D01*
X607975Y234396D01*
X607865Y234371D01*
X607754Y234349D01*
X607642Y234332D01*
X607529Y234318D01*
X607416Y234308D01*
X607303Y234302D01*
X607190Y234300D01*
X607190Y234301D02*
X603945Y234301D01*
X607839Y234301D02*
X610436Y229108D01*
X615301Y231704D02*
X617897Y240792D01*
X615301Y231704D02*
X621792Y231704D01*
X619845Y234301D02*
X619845Y229108D01*
M02*
