G04 EAGLE Gerber RS-274X export*
G75*
%MOMM*%
%FSLAX34Y34*%
%LPD*%
%INSilkscreen Bottom*%
%IPPOS*%
%AMOC8*
5,1,8,0,0,1.08239X$1,22.5*%
G01*
%ADD10C,0.152400*%
%ADD11C,0.076200*%
%ADD12C,0.127000*%
%ADD13C,0.254000*%
%ADD14R,0.508000X0.508000*%
%ADD15C,0.101600*%


D10*
X807720Y558800D02*
X807720Y553720D01*
X782320Y553720D02*
X782320Y558800D01*
X783590Y558800D01*
X783590Y553720D02*
X782320Y553720D01*
X806450Y553720D02*
X807720Y553720D01*
X807720Y558800D02*
X806450Y558800D01*
D11*
X807339Y571387D02*
X807339Y574661D01*
X807337Y574750D01*
X807331Y574839D01*
X807321Y574928D01*
X807308Y575016D01*
X807291Y575104D01*
X807269Y575191D01*
X807244Y575276D01*
X807216Y575361D01*
X807183Y575444D01*
X807147Y575526D01*
X807108Y575606D01*
X807065Y575684D01*
X807019Y575760D01*
X806969Y575835D01*
X806916Y575907D01*
X806860Y575976D01*
X806801Y576043D01*
X806740Y576108D01*
X806675Y576169D01*
X806608Y576228D01*
X806539Y576284D01*
X806467Y576337D01*
X806392Y576387D01*
X806316Y576433D01*
X806238Y576476D01*
X806158Y576515D01*
X806076Y576551D01*
X805993Y576584D01*
X805908Y576612D01*
X805823Y576637D01*
X805736Y576659D01*
X805648Y576676D01*
X805560Y576689D01*
X805471Y576699D01*
X805382Y576705D01*
X805293Y576707D01*
X805204Y576705D01*
X805115Y576699D01*
X805026Y576689D01*
X804938Y576676D01*
X804850Y576659D01*
X804763Y576637D01*
X804678Y576612D01*
X804593Y576584D01*
X804510Y576551D01*
X804428Y576515D01*
X804348Y576476D01*
X804270Y576433D01*
X804194Y576387D01*
X804119Y576337D01*
X804047Y576284D01*
X803978Y576228D01*
X803911Y576169D01*
X803846Y576108D01*
X803785Y576043D01*
X803726Y575976D01*
X803670Y575907D01*
X803617Y575835D01*
X803567Y575760D01*
X803521Y575684D01*
X803478Y575606D01*
X803439Y575526D01*
X803403Y575444D01*
X803370Y575361D01*
X803342Y575276D01*
X803317Y575191D01*
X803295Y575104D01*
X803278Y575016D01*
X803265Y574928D01*
X803255Y574839D01*
X803249Y574750D01*
X803247Y574661D01*
X803247Y571387D01*
X803249Y571298D01*
X803255Y571209D01*
X803265Y571120D01*
X803278Y571032D01*
X803295Y570944D01*
X803317Y570857D01*
X803342Y570772D01*
X803370Y570687D01*
X803403Y570604D01*
X803439Y570522D01*
X803478Y570442D01*
X803521Y570364D01*
X803567Y570288D01*
X803617Y570213D01*
X803670Y570141D01*
X803726Y570072D01*
X803785Y570005D01*
X803846Y569940D01*
X803911Y569879D01*
X803978Y569820D01*
X804047Y569764D01*
X804119Y569711D01*
X804194Y569661D01*
X804270Y569615D01*
X804348Y569572D01*
X804428Y569533D01*
X804510Y569497D01*
X804593Y569464D01*
X804678Y569436D01*
X804763Y569411D01*
X804850Y569389D01*
X804938Y569372D01*
X805026Y569359D01*
X805115Y569349D01*
X805204Y569343D01*
X805293Y569341D01*
X805382Y569343D01*
X805471Y569349D01*
X805560Y569359D01*
X805648Y569372D01*
X805736Y569389D01*
X805823Y569411D01*
X805908Y569436D01*
X805993Y569464D01*
X806076Y569497D01*
X806158Y569533D01*
X806238Y569572D01*
X806316Y569615D01*
X806392Y569661D01*
X806467Y569711D01*
X806539Y569764D01*
X806608Y569820D01*
X806675Y569879D01*
X806740Y569940D01*
X806801Y570005D01*
X806860Y570072D01*
X806916Y570141D01*
X806969Y570213D01*
X807019Y570288D01*
X807065Y570364D01*
X807108Y570442D01*
X807147Y570522D01*
X807183Y570604D01*
X807216Y570687D01*
X807244Y570772D01*
X807269Y570857D01*
X807291Y570944D01*
X807308Y571032D01*
X807321Y571120D01*
X807331Y571209D01*
X807337Y571298D01*
X807339Y571387D01*
X799662Y569341D02*
X799662Y576707D01*
X797616Y576707D01*
X797527Y576705D01*
X797438Y576699D01*
X797349Y576689D01*
X797261Y576676D01*
X797173Y576659D01*
X797086Y576637D01*
X797001Y576612D01*
X796916Y576584D01*
X796833Y576551D01*
X796751Y576515D01*
X796671Y576476D01*
X796593Y576433D01*
X796517Y576387D01*
X796442Y576337D01*
X796370Y576284D01*
X796301Y576228D01*
X796234Y576169D01*
X796169Y576108D01*
X796108Y576043D01*
X796049Y575976D01*
X795993Y575907D01*
X795940Y575835D01*
X795890Y575760D01*
X795844Y575684D01*
X795801Y575606D01*
X795762Y575526D01*
X795726Y575444D01*
X795693Y575361D01*
X795665Y575276D01*
X795640Y575191D01*
X795618Y575104D01*
X795601Y575016D01*
X795588Y574928D01*
X795578Y574839D01*
X795572Y574750D01*
X795570Y574661D01*
X795572Y574572D01*
X795578Y574483D01*
X795588Y574394D01*
X795601Y574306D01*
X795618Y574218D01*
X795640Y574131D01*
X795665Y574046D01*
X795693Y573961D01*
X795726Y573878D01*
X795762Y573796D01*
X795801Y573716D01*
X795844Y573638D01*
X795890Y573562D01*
X795940Y573487D01*
X795993Y573415D01*
X796049Y573346D01*
X796108Y573279D01*
X796169Y573214D01*
X796234Y573153D01*
X796301Y573094D01*
X796370Y573038D01*
X796442Y572985D01*
X796517Y572935D01*
X796593Y572889D01*
X796671Y572846D01*
X796751Y572807D01*
X796833Y572771D01*
X796916Y572738D01*
X797001Y572710D01*
X797086Y572685D01*
X797173Y572663D01*
X797261Y572646D01*
X797349Y572633D01*
X797438Y572623D01*
X797527Y572617D01*
X797616Y572615D01*
X799662Y572615D01*
X791150Y569341D02*
X791150Y576707D01*
X793196Y576707D02*
X789104Y576707D01*
X786290Y572206D02*
X781380Y572206D01*
D12*
X643255Y465455D02*
X643155Y465457D01*
X643056Y465463D01*
X642956Y465473D01*
X642858Y465486D01*
X642759Y465504D01*
X642662Y465525D01*
X642566Y465550D01*
X642470Y465579D01*
X642376Y465612D01*
X642283Y465648D01*
X642192Y465688D01*
X642102Y465732D01*
X642014Y465779D01*
X641928Y465829D01*
X641844Y465883D01*
X641762Y465940D01*
X641683Y466000D01*
X641605Y466064D01*
X641531Y466130D01*
X641459Y466199D01*
X641390Y466271D01*
X641324Y466345D01*
X641260Y466423D01*
X641200Y466502D01*
X641143Y466584D01*
X641089Y466668D01*
X641039Y466754D01*
X640992Y466842D01*
X640948Y466932D01*
X640908Y467023D01*
X640872Y467116D01*
X640839Y467210D01*
X640810Y467306D01*
X640785Y467402D01*
X640764Y467499D01*
X640746Y467598D01*
X640733Y467696D01*
X640723Y467796D01*
X640717Y467895D01*
X640715Y467995D01*
X643255Y465455D02*
X643396Y465457D01*
X643537Y465462D01*
X643678Y465472D01*
X643819Y465485D01*
X643959Y465501D01*
X644099Y465522D01*
X644238Y465546D01*
X644377Y465574D01*
X644514Y465605D01*
X644651Y465640D01*
X644787Y465678D01*
X644922Y465720D01*
X645055Y465766D01*
X645188Y465815D01*
X645319Y465868D01*
X645448Y465924D01*
X645577Y465983D01*
X645703Y466046D01*
X645828Y466112D01*
X645951Y466181D01*
X646072Y466254D01*
X646191Y466330D01*
X646309Y466409D01*
X646424Y466490D01*
X646536Y466575D01*
X646647Y466663D01*
X646755Y466754D01*
X646861Y466847D01*
X646964Y466944D01*
X647065Y467043D01*
X646748Y474345D02*
X646746Y474445D01*
X646740Y474544D01*
X646730Y474644D01*
X646717Y474742D01*
X646699Y474841D01*
X646678Y474938D01*
X646653Y475034D01*
X646624Y475130D01*
X646591Y475224D01*
X646555Y475317D01*
X646515Y475408D01*
X646471Y475498D01*
X646424Y475586D01*
X646374Y475672D01*
X646320Y475756D01*
X646263Y475838D01*
X646203Y475917D01*
X646139Y475995D01*
X646073Y476069D01*
X646004Y476141D01*
X645932Y476210D01*
X645858Y476276D01*
X645780Y476340D01*
X645701Y476400D01*
X645619Y476457D01*
X645535Y476511D01*
X645449Y476561D01*
X645361Y476608D01*
X645271Y476652D01*
X645180Y476692D01*
X645087Y476728D01*
X644993Y476761D01*
X644897Y476790D01*
X644801Y476815D01*
X644704Y476836D01*
X644605Y476854D01*
X644507Y476867D01*
X644407Y476877D01*
X644308Y476883D01*
X644208Y476885D01*
X644208Y476886D02*
X644075Y476884D01*
X643942Y476879D01*
X643809Y476869D01*
X643676Y476856D01*
X643544Y476839D01*
X643412Y476819D01*
X643281Y476795D01*
X643151Y476767D01*
X643021Y476736D01*
X642893Y476701D01*
X642765Y476662D01*
X642639Y476620D01*
X642514Y476574D01*
X642390Y476525D01*
X642267Y476473D01*
X642146Y476417D01*
X642027Y476357D01*
X641909Y476295D01*
X641794Y476229D01*
X641680Y476160D01*
X641568Y476087D01*
X641458Y476012D01*
X641350Y475933D01*
X645478Y472122D02*
X645562Y472174D01*
X645645Y472229D01*
X645725Y472288D01*
X645803Y472349D01*
X645878Y472413D01*
X645951Y472481D01*
X646022Y472551D01*
X646089Y472623D01*
X646154Y472698D01*
X646216Y472776D01*
X646275Y472856D01*
X646331Y472938D01*
X646383Y473022D01*
X646432Y473108D01*
X646478Y473196D01*
X646521Y473286D01*
X646560Y473377D01*
X646595Y473470D01*
X646627Y473564D01*
X646655Y473659D01*
X646680Y473755D01*
X646700Y473852D01*
X646718Y473950D01*
X646731Y474048D01*
X646740Y474147D01*
X646746Y474246D01*
X646748Y474345D01*
X641985Y470218D02*
X641901Y470166D01*
X641818Y470111D01*
X641738Y470052D01*
X641660Y469991D01*
X641585Y469927D01*
X641512Y469859D01*
X641441Y469789D01*
X641374Y469717D01*
X641309Y469642D01*
X641247Y469564D01*
X641188Y469484D01*
X641132Y469402D01*
X641080Y469318D01*
X641031Y469232D01*
X640985Y469144D01*
X640942Y469054D01*
X640903Y468963D01*
X640868Y468870D01*
X640836Y468776D01*
X640808Y468681D01*
X640783Y468585D01*
X640763Y468488D01*
X640745Y468390D01*
X640732Y468292D01*
X640723Y468193D01*
X640717Y468094D01*
X640715Y467995D01*
X641985Y470218D02*
X645478Y472123D01*
X635610Y465455D02*
X630530Y465455D01*
X635610Y465455D02*
X635610Y476885D01*
X630530Y476885D01*
X631800Y471805D02*
X635610Y471805D01*
X625729Y476885D02*
X625729Y465455D01*
X619379Y465455D02*
X625729Y476885D01*
X619379Y476885D02*
X619379Y465455D01*
X610489Y465455D02*
X610389Y465457D01*
X610290Y465463D01*
X610190Y465473D01*
X610092Y465486D01*
X609993Y465504D01*
X609896Y465525D01*
X609800Y465550D01*
X609704Y465579D01*
X609610Y465612D01*
X609517Y465648D01*
X609426Y465688D01*
X609336Y465732D01*
X609248Y465779D01*
X609162Y465829D01*
X609078Y465883D01*
X608996Y465940D01*
X608917Y466000D01*
X608839Y466064D01*
X608765Y466130D01*
X608693Y466199D01*
X608624Y466271D01*
X608558Y466345D01*
X608494Y466423D01*
X608434Y466502D01*
X608377Y466584D01*
X608323Y466668D01*
X608273Y466754D01*
X608226Y466842D01*
X608182Y466932D01*
X608142Y467023D01*
X608106Y467116D01*
X608073Y467210D01*
X608044Y467306D01*
X608019Y467402D01*
X607998Y467499D01*
X607980Y467598D01*
X607967Y467696D01*
X607957Y467796D01*
X607951Y467895D01*
X607949Y467995D01*
X610489Y465455D02*
X610630Y465457D01*
X610771Y465462D01*
X610912Y465472D01*
X611053Y465485D01*
X611193Y465501D01*
X611333Y465522D01*
X611472Y465546D01*
X611611Y465574D01*
X611748Y465605D01*
X611885Y465640D01*
X612021Y465678D01*
X612156Y465720D01*
X612289Y465766D01*
X612422Y465815D01*
X612553Y465868D01*
X612682Y465924D01*
X612811Y465983D01*
X612937Y466046D01*
X613062Y466112D01*
X613185Y466181D01*
X613306Y466254D01*
X613425Y466330D01*
X613543Y466409D01*
X613658Y466490D01*
X613770Y466575D01*
X613881Y466663D01*
X613989Y466754D01*
X614095Y466847D01*
X614198Y466944D01*
X614299Y467043D01*
X613982Y474345D02*
X613980Y474445D01*
X613974Y474544D01*
X613964Y474644D01*
X613951Y474742D01*
X613933Y474841D01*
X613912Y474938D01*
X613887Y475034D01*
X613858Y475130D01*
X613825Y475224D01*
X613789Y475317D01*
X613749Y475408D01*
X613705Y475498D01*
X613658Y475586D01*
X613608Y475672D01*
X613554Y475756D01*
X613497Y475838D01*
X613437Y475917D01*
X613373Y475995D01*
X613307Y476069D01*
X613238Y476141D01*
X613166Y476210D01*
X613092Y476276D01*
X613014Y476340D01*
X612935Y476400D01*
X612853Y476457D01*
X612769Y476511D01*
X612683Y476561D01*
X612595Y476608D01*
X612505Y476652D01*
X612414Y476692D01*
X612321Y476728D01*
X612227Y476761D01*
X612131Y476790D01*
X612035Y476815D01*
X611938Y476836D01*
X611839Y476854D01*
X611741Y476867D01*
X611641Y476877D01*
X611542Y476883D01*
X611442Y476885D01*
X611442Y476886D02*
X611309Y476884D01*
X611176Y476879D01*
X611043Y476869D01*
X610910Y476856D01*
X610778Y476839D01*
X610646Y476819D01*
X610515Y476795D01*
X610385Y476767D01*
X610255Y476736D01*
X610127Y476701D01*
X609999Y476662D01*
X609873Y476620D01*
X609748Y476574D01*
X609624Y476525D01*
X609501Y476473D01*
X609380Y476417D01*
X609261Y476357D01*
X609143Y476295D01*
X609028Y476229D01*
X608914Y476160D01*
X608802Y476087D01*
X608692Y476012D01*
X608584Y475933D01*
X612712Y472122D02*
X612796Y472174D01*
X612879Y472229D01*
X612959Y472288D01*
X613037Y472349D01*
X613112Y472413D01*
X613185Y472481D01*
X613256Y472551D01*
X613323Y472623D01*
X613388Y472698D01*
X613450Y472776D01*
X613509Y472856D01*
X613565Y472938D01*
X613617Y473022D01*
X613666Y473108D01*
X613712Y473196D01*
X613755Y473286D01*
X613794Y473377D01*
X613829Y473470D01*
X613861Y473564D01*
X613889Y473659D01*
X613914Y473755D01*
X613934Y473852D01*
X613952Y473950D01*
X613965Y474048D01*
X613974Y474147D01*
X613980Y474246D01*
X613982Y474345D01*
X609219Y470218D02*
X609135Y470166D01*
X609052Y470111D01*
X608972Y470052D01*
X608894Y469991D01*
X608819Y469927D01*
X608746Y469859D01*
X608675Y469789D01*
X608608Y469717D01*
X608543Y469642D01*
X608481Y469564D01*
X608422Y469484D01*
X608366Y469402D01*
X608314Y469318D01*
X608265Y469232D01*
X608219Y469144D01*
X608176Y469054D01*
X608137Y468963D01*
X608102Y468870D01*
X608070Y468776D01*
X608042Y468681D01*
X608017Y468585D01*
X607997Y468488D01*
X607979Y468390D01*
X607966Y468292D01*
X607957Y468193D01*
X607951Y468094D01*
X607949Y467995D01*
X609219Y470218D02*
X612712Y472123D01*
X603758Y464185D02*
X598678Y464185D01*
X593700Y465455D02*
X593700Y476885D01*
X593700Y465455D02*
X588620Y465455D01*
X583794Y465455D02*
X578714Y465455D01*
X583794Y465455D02*
X583794Y476885D01*
X578714Y476885D01*
X579984Y471805D02*
X583794Y471805D01*
X573913Y476885D02*
X573913Y465455D01*
X573913Y476885D02*
X570738Y476885D01*
X570627Y476883D01*
X570517Y476877D01*
X570406Y476868D01*
X570296Y476854D01*
X570187Y476837D01*
X570078Y476816D01*
X569970Y476791D01*
X569863Y476762D01*
X569757Y476730D01*
X569652Y476694D01*
X569549Y476654D01*
X569447Y476611D01*
X569346Y476564D01*
X569247Y476513D01*
X569151Y476460D01*
X569056Y476403D01*
X568963Y476342D01*
X568872Y476279D01*
X568783Y476212D01*
X568697Y476142D01*
X568614Y476069D01*
X568532Y475994D01*
X568454Y475916D01*
X568379Y475834D01*
X568306Y475751D01*
X568236Y475665D01*
X568169Y475576D01*
X568106Y475485D01*
X568045Y475392D01*
X567988Y475298D01*
X567935Y475201D01*
X567884Y475102D01*
X567837Y475001D01*
X567794Y474899D01*
X567754Y474796D01*
X567718Y474691D01*
X567686Y474585D01*
X567657Y474478D01*
X567632Y474370D01*
X567611Y474261D01*
X567594Y474152D01*
X567580Y474042D01*
X567571Y473931D01*
X567565Y473821D01*
X567563Y473710D01*
X567563Y468630D01*
X567565Y468519D01*
X567571Y468409D01*
X567580Y468298D01*
X567594Y468188D01*
X567611Y468079D01*
X567632Y467970D01*
X567657Y467862D01*
X567686Y467755D01*
X567718Y467649D01*
X567754Y467544D01*
X567794Y467441D01*
X567837Y467339D01*
X567884Y467238D01*
X567935Y467139D01*
X567988Y467043D01*
X568045Y466948D01*
X568106Y466855D01*
X568169Y466764D01*
X568236Y466675D01*
X568306Y466589D01*
X568379Y466506D01*
X568454Y466424D01*
X568532Y466346D01*
X568614Y466271D01*
X568697Y466198D01*
X568783Y466128D01*
X568872Y466061D01*
X568963Y465998D01*
X569056Y465937D01*
X569151Y465880D01*
X569247Y465827D01*
X569346Y465776D01*
X569447Y465729D01*
X569549Y465686D01*
X569652Y465646D01*
X569757Y465610D01*
X569863Y465578D01*
X569970Y465549D01*
X570078Y465524D01*
X570187Y465503D01*
X570296Y465486D01*
X570406Y465472D01*
X570517Y465463D01*
X570627Y465457D01*
X570738Y465455D01*
X573913Y465455D01*
D13*
X257302Y359410D02*
X257302Y351790D01*
X250698Y351790D02*
X250698Y359410D01*
D12*
X248920Y351155D02*
X241300Y362585D01*
X248920Y362585D02*
X241300Y351155D01*
X230505Y359728D02*
X230507Y359832D01*
X230513Y359937D01*
X230522Y360041D01*
X230535Y360144D01*
X230553Y360247D01*
X230573Y360349D01*
X230598Y360451D01*
X230626Y360551D01*
X230658Y360651D01*
X230694Y360749D01*
X230733Y360846D01*
X230775Y360941D01*
X230821Y361035D01*
X230871Y361127D01*
X230923Y361217D01*
X230979Y361305D01*
X231039Y361391D01*
X231101Y361475D01*
X231166Y361556D01*
X231234Y361635D01*
X231306Y361712D01*
X231379Y361785D01*
X231456Y361857D01*
X231535Y361925D01*
X231616Y361990D01*
X231700Y362052D01*
X231786Y362112D01*
X231874Y362168D01*
X231964Y362220D01*
X232056Y362270D01*
X232150Y362316D01*
X232245Y362358D01*
X232342Y362397D01*
X232440Y362433D01*
X232540Y362465D01*
X232640Y362493D01*
X232742Y362518D01*
X232844Y362538D01*
X232947Y362556D01*
X233050Y362569D01*
X233154Y362578D01*
X233259Y362584D01*
X233363Y362586D01*
X233363Y362585D02*
X233481Y362583D01*
X233600Y362577D01*
X233718Y362568D01*
X233835Y362555D01*
X233952Y362537D01*
X234069Y362517D01*
X234185Y362492D01*
X234300Y362464D01*
X234413Y362431D01*
X234526Y362396D01*
X234638Y362356D01*
X234748Y362314D01*
X234857Y362267D01*
X234965Y362217D01*
X235070Y362164D01*
X235174Y362107D01*
X235276Y362047D01*
X235376Y361984D01*
X235474Y361917D01*
X235570Y361848D01*
X235663Y361775D01*
X235754Y361699D01*
X235843Y361621D01*
X235929Y361539D01*
X236012Y361455D01*
X236093Y361369D01*
X236170Y361279D01*
X236245Y361188D01*
X236317Y361094D01*
X236386Y360997D01*
X236451Y360899D01*
X236514Y360798D01*
X236573Y360695D01*
X236629Y360591D01*
X236681Y360485D01*
X236730Y360377D01*
X236775Y360268D01*
X236817Y360157D01*
X236855Y360045D01*
X231457Y357506D02*
X231381Y357581D01*
X231306Y357660D01*
X231235Y357741D01*
X231166Y357825D01*
X231101Y357911D01*
X231039Y357999D01*
X230979Y358089D01*
X230923Y358181D01*
X230870Y358276D01*
X230821Y358372D01*
X230775Y358470D01*
X230732Y358569D01*
X230693Y358670D01*
X230658Y358772D01*
X230626Y358875D01*
X230598Y358979D01*
X230573Y359084D01*
X230552Y359191D01*
X230535Y359297D01*
X230522Y359404D01*
X230513Y359512D01*
X230507Y359620D01*
X230505Y359728D01*
X231458Y357505D02*
X236855Y351155D01*
X230505Y351155D01*
D10*
X647700Y330200D02*
X673100Y330200D01*
X673100Y482600D01*
X647700Y482600D01*
X647700Y330200D01*
X673100Y330200D02*
X679450Y330200D01*
X679450Y482600D01*
X673100Y482600D01*
D14*
X660400Y393700D03*
X660400Y368300D03*
X660400Y342900D03*
X660400Y419100D03*
X660400Y444500D03*
X660400Y469900D03*
D15*
X630992Y354217D02*
X630893Y354215D01*
X630793Y354209D01*
X630694Y354200D01*
X630596Y354187D01*
X630498Y354170D01*
X630400Y354149D01*
X630304Y354124D01*
X630209Y354096D01*
X630115Y354064D01*
X630022Y354029D01*
X629930Y353990D01*
X629840Y353947D01*
X629752Y353902D01*
X629665Y353852D01*
X629581Y353800D01*
X629498Y353744D01*
X629418Y353686D01*
X629340Y353624D01*
X629265Y353559D01*
X629192Y353491D01*
X629122Y353421D01*
X629054Y353348D01*
X628989Y353273D01*
X628927Y353195D01*
X628869Y353115D01*
X628813Y353032D01*
X628761Y352948D01*
X628711Y352861D01*
X628666Y352773D01*
X628623Y352683D01*
X628584Y352591D01*
X628549Y352498D01*
X628517Y352404D01*
X628489Y352309D01*
X628464Y352213D01*
X628443Y352115D01*
X628426Y352017D01*
X628413Y351919D01*
X628404Y351820D01*
X628398Y351720D01*
X628396Y351621D01*
X628398Y351477D01*
X628404Y351332D01*
X628413Y351188D01*
X628426Y351045D01*
X628443Y350901D01*
X628464Y350758D01*
X628489Y350616D01*
X628517Y350475D01*
X628549Y350334D01*
X628585Y350194D01*
X628624Y350055D01*
X628667Y349917D01*
X628714Y349781D01*
X628764Y349645D01*
X628818Y349511D01*
X628875Y349379D01*
X628936Y349248D01*
X629000Y349119D01*
X629068Y348991D01*
X629138Y348865D01*
X629213Y348741D01*
X629290Y348620D01*
X629371Y348500D01*
X629454Y348382D01*
X629541Y348267D01*
X629631Y348154D01*
X629724Y348043D01*
X629819Y347935D01*
X629918Y347829D01*
X630019Y347726D01*
X637484Y348051D02*
X637583Y348053D01*
X637683Y348059D01*
X637782Y348068D01*
X637880Y348081D01*
X637978Y348098D01*
X638076Y348119D01*
X638172Y348144D01*
X638267Y348172D01*
X638361Y348204D01*
X638454Y348239D01*
X638546Y348278D01*
X638636Y348321D01*
X638724Y348366D01*
X638811Y348416D01*
X638895Y348468D01*
X638978Y348524D01*
X639058Y348582D01*
X639136Y348644D01*
X639211Y348709D01*
X639284Y348777D01*
X639354Y348847D01*
X639422Y348920D01*
X639487Y348995D01*
X639549Y349073D01*
X639607Y349153D01*
X639663Y349236D01*
X639715Y349320D01*
X639765Y349407D01*
X639810Y349495D01*
X639853Y349585D01*
X639892Y349677D01*
X639927Y349770D01*
X639959Y349864D01*
X639987Y349959D01*
X640012Y350056D01*
X640033Y350153D01*
X640050Y350251D01*
X640063Y350349D01*
X640072Y350448D01*
X640078Y350548D01*
X640080Y350647D01*
X640078Y350783D01*
X640072Y350919D01*
X640063Y351055D01*
X640050Y351191D01*
X640032Y351326D01*
X640012Y351460D01*
X639987Y351594D01*
X639959Y351728D01*
X639926Y351860D01*
X639891Y351991D01*
X639851Y352122D01*
X639808Y352251D01*
X639762Y352379D01*
X639711Y352505D01*
X639658Y352631D01*
X639600Y352754D01*
X639540Y352876D01*
X639476Y352996D01*
X639408Y353115D01*
X639338Y353231D01*
X639264Y353345D01*
X639187Y353458D01*
X639106Y353568D01*
X635212Y349349D02*
X635265Y349263D01*
X635322Y349179D01*
X635381Y349097D01*
X635444Y349017D01*
X635510Y348940D01*
X635578Y348865D01*
X635650Y348793D01*
X635724Y348724D01*
X635801Y348658D01*
X635880Y348595D01*
X635962Y348535D01*
X636046Y348478D01*
X636132Y348424D01*
X636220Y348374D01*
X636310Y348327D01*
X636401Y348283D01*
X636495Y348244D01*
X636589Y348207D01*
X636685Y348175D01*
X636783Y348146D01*
X636881Y348121D01*
X636980Y348100D01*
X637080Y348082D01*
X637180Y348069D01*
X637281Y348059D01*
X637383Y348053D01*
X637484Y348051D01*
X633264Y352919D02*
X633211Y353005D01*
X633154Y353089D01*
X633095Y353171D01*
X633032Y353251D01*
X632966Y353328D01*
X632898Y353403D01*
X632826Y353475D01*
X632752Y353544D01*
X632675Y353610D01*
X632596Y353673D01*
X632514Y353733D01*
X632430Y353790D01*
X632344Y353844D01*
X632256Y353894D01*
X632166Y353941D01*
X632075Y353985D01*
X631981Y354024D01*
X631887Y354061D01*
X631791Y354093D01*
X631693Y354122D01*
X631595Y354147D01*
X631496Y354168D01*
X631396Y354186D01*
X631296Y354199D01*
X631195Y354209D01*
X631093Y354215D01*
X630992Y354217D01*
X633264Y352919D02*
X635212Y349349D01*
X640080Y359325D02*
X628396Y359325D01*
X640080Y359325D02*
X640080Y362571D01*
X640078Y362684D01*
X640072Y362797D01*
X640062Y362910D01*
X640048Y363023D01*
X640031Y363135D01*
X640009Y363246D01*
X639984Y363356D01*
X639954Y363466D01*
X639921Y363574D01*
X639884Y363681D01*
X639844Y363787D01*
X639799Y363891D01*
X639751Y363994D01*
X639700Y364095D01*
X639645Y364194D01*
X639587Y364291D01*
X639525Y364386D01*
X639460Y364479D01*
X639392Y364569D01*
X639321Y364657D01*
X639246Y364743D01*
X639169Y364826D01*
X639089Y364906D01*
X639006Y364983D01*
X638920Y365058D01*
X638832Y365129D01*
X638742Y365197D01*
X638649Y365262D01*
X638554Y365324D01*
X638457Y365382D01*
X638358Y365437D01*
X638257Y365488D01*
X638154Y365536D01*
X638050Y365581D01*
X637944Y365621D01*
X637837Y365658D01*
X637729Y365691D01*
X637619Y365721D01*
X637509Y365746D01*
X637398Y365768D01*
X637286Y365785D01*
X637173Y365799D01*
X637060Y365809D01*
X636947Y365815D01*
X636834Y365817D01*
X636721Y365815D01*
X636608Y365809D01*
X636495Y365799D01*
X636382Y365785D01*
X636270Y365768D01*
X636159Y365746D01*
X636049Y365721D01*
X635939Y365691D01*
X635831Y365658D01*
X635724Y365621D01*
X635618Y365581D01*
X635514Y365536D01*
X635411Y365488D01*
X635310Y365437D01*
X635211Y365382D01*
X635114Y365324D01*
X635019Y365262D01*
X634926Y365197D01*
X634836Y365129D01*
X634748Y365058D01*
X634662Y364983D01*
X634579Y364906D01*
X634499Y364826D01*
X634422Y364743D01*
X634347Y364657D01*
X634276Y364569D01*
X634208Y364479D01*
X634143Y364386D01*
X634081Y364291D01*
X634023Y364194D01*
X633968Y364095D01*
X633917Y363994D01*
X633869Y363891D01*
X633824Y363787D01*
X633784Y363681D01*
X633747Y363574D01*
X633714Y363466D01*
X633684Y363356D01*
X633659Y363246D01*
X633637Y363135D01*
X633620Y363023D01*
X633606Y362910D01*
X633596Y362797D01*
X633590Y362684D01*
X633588Y362571D01*
X633589Y362571D02*
X633589Y359325D01*
X628396Y371165D02*
X640080Y371165D01*
X628396Y369866D02*
X628396Y372463D01*
X640080Y372463D02*
X640080Y369866D01*
X627098Y376569D02*
X627098Y381762D01*
X628396Y386757D02*
X640080Y386757D01*
X640080Y390003D01*
X640078Y390116D01*
X640072Y390229D01*
X640062Y390342D01*
X640048Y390455D01*
X640031Y390567D01*
X640009Y390678D01*
X639984Y390788D01*
X639954Y390898D01*
X639921Y391006D01*
X639884Y391113D01*
X639844Y391219D01*
X639799Y391323D01*
X639751Y391426D01*
X639700Y391527D01*
X639645Y391626D01*
X639587Y391723D01*
X639525Y391818D01*
X639460Y391911D01*
X639392Y392001D01*
X639321Y392089D01*
X639246Y392175D01*
X639169Y392258D01*
X639089Y392338D01*
X639006Y392415D01*
X638920Y392490D01*
X638832Y392561D01*
X638742Y392629D01*
X638649Y392694D01*
X638554Y392756D01*
X638457Y392814D01*
X638358Y392869D01*
X638257Y392920D01*
X638154Y392968D01*
X638050Y393013D01*
X637944Y393053D01*
X637837Y393090D01*
X637729Y393123D01*
X637619Y393153D01*
X637509Y393178D01*
X637398Y393200D01*
X637286Y393217D01*
X637173Y393231D01*
X637060Y393241D01*
X636947Y393247D01*
X636834Y393249D01*
X636721Y393247D01*
X636608Y393241D01*
X636495Y393231D01*
X636382Y393217D01*
X636270Y393200D01*
X636159Y393178D01*
X636049Y393153D01*
X635939Y393123D01*
X635831Y393090D01*
X635724Y393053D01*
X635618Y393013D01*
X635514Y392968D01*
X635411Y392920D01*
X635310Y392869D01*
X635211Y392814D01*
X635114Y392756D01*
X635019Y392694D01*
X634926Y392629D01*
X634836Y392561D01*
X634748Y392490D01*
X634662Y392415D01*
X634579Y392338D01*
X634499Y392258D01*
X634422Y392175D01*
X634347Y392089D01*
X634276Y392001D01*
X634208Y391911D01*
X634143Y391818D01*
X634081Y391723D01*
X634023Y391626D01*
X633968Y391527D01*
X633917Y391426D01*
X633869Y391323D01*
X633824Y391219D01*
X633784Y391113D01*
X633747Y391006D01*
X633714Y390898D01*
X633684Y390788D01*
X633659Y390678D01*
X633637Y390567D01*
X633620Y390455D01*
X633606Y390342D01*
X633596Y390229D01*
X633590Y390116D01*
X633588Y390003D01*
X633589Y390003D02*
X633589Y386757D01*
X628396Y398092D02*
X640080Y398092D01*
X640080Y401337D01*
X640078Y401450D01*
X640072Y401563D01*
X640062Y401676D01*
X640048Y401789D01*
X640031Y401901D01*
X640009Y402012D01*
X639984Y402122D01*
X639954Y402232D01*
X639921Y402340D01*
X639884Y402447D01*
X639844Y402553D01*
X639799Y402657D01*
X639751Y402760D01*
X639700Y402861D01*
X639645Y402960D01*
X639587Y403057D01*
X639525Y403152D01*
X639460Y403245D01*
X639392Y403335D01*
X639321Y403423D01*
X639246Y403509D01*
X639169Y403592D01*
X639089Y403672D01*
X639006Y403749D01*
X638920Y403824D01*
X638832Y403895D01*
X638742Y403963D01*
X638649Y404028D01*
X638554Y404090D01*
X638457Y404148D01*
X638358Y404203D01*
X638257Y404254D01*
X638154Y404302D01*
X638050Y404347D01*
X637944Y404387D01*
X637837Y404424D01*
X637729Y404457D01*
X637619Y404487D01*
X637509Y404512D01*
X637398Y404534D01*
X637286Y404551D01*
X637173Y404565D01*
X637060Y404575D01*
X636947Y404581D01*
X636834Y404583D01*
X636721Y404581D01*
X636608Y404575D01*
X636495Y404565D01*
X636382Y404551D01*
X636270Y404534D01*
X636159Y404512D01*
X636049Y404487D01*
X635939Y404457D01*
X635831Y404424D01*
X635724Y404387D01*
X635618Y404347D01*
X635514Y404302D01*
X635411Y404254D01*
X635310Y404203D01*
X635211Y404148D01*
X635114Y404090D01*
X635019Y404028D01*
X634926Y403963D01*
X634836Y403895D01*
X634748Y403824D01*
X634662Y403749D01*
X634579Y403672D01*
X634499Y403592D01*
X634422Y403509D01*
X634347Y403423D01*
X634276Y403335D01*
X634208Y403245D01*
X634143Y403152D01*
X634081Y403057D01*
X634023Y402960D01*
X633968Y402861D01*
X633917Y402760D01*
X633869Y402657D01*
X633824Y402553D01*
X633784Y402447D01*
X633747Y402340D01*
X633714Y402232D01*
X633684Y402122D01*
X633659Y402012D01*
X633637Y401901D01*
X633620Y401789D01*
X633606Y401676D01*
X633596Y401563D01*
X633590Y401450D01*
X633588Y401337D01*
X633589Y401337D02*
X633589Y398092D01*
X633589Y401986D02*
X628396Y404583D01*
X631642Y409448D02*
X636834Y409448D01*
X636834Y409447D02*
X636947Y409449D01*
X637060Y409455D01*
X637173Y409465D01*
X637286Y409479D01*
X637398Y409496D01*
X637509Y409518D01*
X637619Y409543D01*
X637729Y409573D01*
X637837Y409606D01*
X637944Y409643D01*
X638050Y409683D01*
X638154Y409728D01*
X638257Y409776D01*
X638358Y409827D01*
X638457Y409882D01*
X638554Y409940D01*
X638649Y410002D01*
X638742Y410067D01*
X638832Y410135D01*
X638920Y410206D01*
X639006Y410281D01*
X639089Y410358D01*
X639169Y410438D01*
X639246Y410521D01*
X639321Y410607D01*
X639392Y410695D01*
X639460Y410785D01*
X639525Y410878D01*
X639587Y410973D01*
X639645Y411070D01*
X639700Y411169D01*
X639751Y411270D01*
X639799Y411373D01*
X639844Y411477D01*
X639884Y411583D01*
X639921Y411690D01*
X639954Y411798D01*
X639984Y411908D01*
X640009Y412018D01*
X640031Y412129D01*
X640048Y412241D01*
X640062Y412354D01*
X640072Y412467D01*
X640078Y412580D01*
X640080Y412693D01*
X640078Y412806D01*
X640072Y412919D01*
X640062Y413032D01*
X640048Y413145D01*
X640031Y413257D01*
X640009Y413368D01*
X639984Y413478D01*
X639954Y413588D01*
X639921Y413696D01*
X639884Y413803D01*
X639844Y413909D01*
X639799Y414013D01*
X639751Y414116D01*
X639700Y414217D01*
X639645Y414316D01*
X639587Y414413D01*
X639525Y414508D01*
X639460Y414601D01*
X639392Y414691D01*
X639321Y414779D01*
X639246Y414865D01*
X639169Y414948D01*
X639089Y415028D01*
X639006Y415105D01*
X638920Y415180D01*
X638832Y415251D01*
X638742Y415319D01*
X638649Y415384D01*
X638554Y415446D01*
X638457Y415504D01*
X638358Y415559D01*
X638257Y415610D01*
X638154Y415658D01*
X638050Y415703D01*
X637944Y415743D01*
X637837Y415780D01*
X637729Y415813D01*
X637619Y415843D01*
X637509Y415868D01*
X637398Y415890D01*
X637286Y415907D01*
X637173Y415921D01*
X637060Y415931D01*
X636947Y415937D01*
X636834Y415939D01*
X631642Y415939D01*
X631529Y415937D01*
X631416Y415931D01*
X631303Y415921D01*
X631190Y415907D01*
X631078Y415890D01*
X630967Y415868D01*
X630857Y415843D01*
X630747Y415813D01*
X630639Y415780D01*
X630532Y415743D01*
X630426Y415703D01*
X630322Y415658D01*
X630219Y415610D01*
X630118Y415559D01*
X630019Y415504D01*
X629922Y415446D01*
X629827Y415384D01*
X629734Y415319D01*
X629644Y415251D01*
X629556Y415180D01*
X629470Y415105D01*
X629387Y415028D01*
X629307Y414948D01*
X629230Y414865D01*
X629155Y414779D01*
X629084Y414691D01*
X629016Y414601D01*
X628951Y414508D01*
X628889Y414413D01*
X628831Y414316D01*
X628776Y414217D01*
X628725Y414116D01*
X628677Y414013D01*
X628632Y413909D01*
X628592Y413803D01*
X628555Y413696D01*
X628522Y413588D01*
X628492Y413478D01*
X628467Y413368D01*
X628445Y413257D01*
X628428Y413145D01*
X628414Y413032D01*
X628404Y412919D01*
X628398Y412806D01*
X628396Y412693D01*
X628398Y412580D01*
X628404Y412467D01*
X628414Y412354D01*
X628428Y412241D01*
X628445Y412129D01*
X628467Y412018D01*
X628492Y411908D01*
X628522Y411798D01*
X628555Y411690D01*
X628592Y411583D01*
X628632Y411477D01*
X628677Y411373D01*
X628725Y411270D01*
X628776Y411169D01*
X628831Y411070D01*
X628889Y410973D01*
X628951Y410878D01*
X629016Y410785D01*
X629084Y410695D01*
X629155Y410607D01*
X629230Y410521D01*
X629307Y410438D01*
X629387Y410358D01*
X629470Y410281D01*
X629556Y410206D01*
X629644Y410135D01*
X629734Y410067D01*
X629827Y410002D01*
X629922Y409940D01*
X630019Y409882D01*
X630118Y409827D01*
X630219Y409776D01*
X630322Y409728D01*
X630426Y409683D01*
X630532Y409643D01*
X630639Y409606D01*
X630747Y409573D01*
X630857Y409543D01*
X630967Y409518D01*
X631078Y409496D01*
X631190Y409479D01*
X631303Y409465D01*
X631416Y409455D01*
X631529Y409449D01*
X631642Y409447D01*
X634887Y425803D02*
X634887Y427750D01*
X628396Y427750D01*
X628396Y423855D01*
X628398Y423756D01*
X628404Y423656D01*
X628413Y423557D01*
X628426Y423459D01*
X628443Y423361D01*
X628464Y423263D01*
X628489Y423167D01*
X628517Y423072D01*
X628549Y422978D01*
X628584Y422885D01*
X628623Y422793D01*
X628666Y422703D01*
X628711Y422615D01*
X628761Y422528D01*
X628813Y422444D01*
X628869Y422361D01*
X628927Y422281D01*
X628989Y422203D01*
X629054Y422128D01*
X629122Y422055D01*
X629192Y421985D01*
X629265Y421917D01*
X629340Y421852D01*
X629418Y421790D01*
X629498Y421732D01*
X629581Y421676D01*
X629665Y421624D01*
X629752Y421574D01*
X629840Y421529D01*
X629930Y421486D01*
X630022Y421447D01*
X630115Y421412D01*
X630209Y421380D01*
X630304Y421352D01*
X630400Y421327D01*
X630498Y421306D01*
X630596Y421289D01*
X630694Y421276D01*
X630793Y421267D01*
X630893Y421261D01*
X630992Y421259D01*
X637484Y421259D01*
X637583Y421261D01*
X637683Y421267D01*
X637782Y421276D01*
X637880Y421289D01*
X637978Y421306D01*
X638076Y421327D01*
X638172Y421352D01*
X638267Y421380D01*
X638361Y421412D01*
X638454Y421447D01*
X638546Y421486D01*
X638636Y421529D01*
X638724Y421574D01*
X638811Y421624D01*
X638895Y421676D01*
X638978Y421732D01*
X639058Y421790D01*
X639136Y421852D01*
X639211Y421917D01*
X639284Y421985D01*
X639354Y422055D01*
X639422Y422128D01*
X639487Y422203D01*
X639549Y422281D01*
X639607Y422361D01*
X639663Y422444D01*
X639715Y422528D01*
X639765Y422615D01*
X639810Y422703D01*
X639853Y422793D01*
X639892Y422885D01*
X639927Y422977D01*
X639959Y423072D01*
X639987Y423167D01*
X640012Y423263D01*
X640033Y423361D01*
X640050Y423459D01*
X640063Y423557D01*
X640072Y423656D01*
X640078Y423756D01*
X640080Y423855D01*
X640080Y427750D01*
X640080Y433524D02*
X628396Y433524D01*
X640080Y433524D02*
X640080Y436770D01*
X640078Y436883D01*
X640072Y436996D01*
X640062Y437109D01*
X640048Y437222D01*
X640031Y437334D01*
X640009Y437445D01*
X639984Y437555D01*
X639954Y437665D01*
X639921Y437773D01*
X639884Y437880D01*
X639844Y437986D01*
X639799Y438090D01*
X639751Y438193D01*
X639700Y438294D01*
X639645Y438393D01*
X639587Y438490D01*
X639525Y438585D01*
X639460Y438678D01*
X639392Y438768D01*
X639321Y438856D01*
X639246Y438942D01*
X639169Y439025D01*
X639089Y439105D01*
X639006Y439182D01*
X638920Y439257D01*
X638832Y439328D01*
X638742Y439396D01*
X638649Y439461D01*
X638554Y439523D01*
X638457Y439581D01*
X638358Y439636D01*
X638257Y439687D01*
X638154Y439735D01*
X638050Y439780D01*
X637944Y439820D01*
X637837Y439857D01*
X637729Y439890D01*
X637619Y439920D01*
X637509Y439945D01*
X637398Y439967D01*
X637286Y439984D01*
X637173Y439998D01*
X637060Y440008D01*
X636947Y440014D01*
X636834Y440016D01*
X636721Y440014D01*
X636608Y440008D01*
X636495Y439998D01*
X636382Y439984D01*
X636270Y439967D01*
X636159Y439945D01*
X636049Y439920D01*
X635939Y439890D01*
X635831Y439857D01*
X635724Y439820D01*
X635618Y439780D01*
X635514Y439735D01*
X635411Y439687D01*
X635310Y439636D01*
X635211Y439581D01*
X635114Y439523D01*
X635019Y439461D01*
X634926Y439396D01*
X634836Y439328D01*
X634748Y439257D01*
X634662Y439182D01*
X634579Y439105D01*
X634499Y439025D01*
X634422Y438942D01*
X634347Y438856D01*
X634276Y438768D01*
X634208Y438678D01*
X634143Y438585D01*
X634081Y438490D01*
X634023Y438393D01*
X633968Y438294D01*
X633917Y438193D01*
X633869Y438090D01*
X633824Y437986D01*
X633784Y437880D01*
X633747Y437773D01*
X633714Y437665D01*
X633684Y437555D01*
X633659Y437445D01*
X633637Y437334D01*
X633620Y437222D01*
X633606Y437109D01*
X633596Y436996D01*
X633590Y436883D01*
X633588Y436770D01*
X633589Y436770D02*
X633589Y433524D01*
X633589Y437419D02*
X628396Y440016D01*
D10*
X336550Y520700D02*
X323850Y520700D01*
X317500Y514350D01*
X317500Y501650D02*
X323850Y495300D01*
X317500Y514350D02*
X311150Y520700D01*
X298450Y520700D01*
X292100Y514350D01*
X292100Y501650D02*
X298450Y495300D01*
X311150Y495300D01*
X317500Y501650D01*
X342900Y501650D02*
X342900Y514350D01*
X336550Y520700D01*
X342900Y501650D02*
X336550Y495300D01*
X323850Y495300D01*
X292100Y514350D02*
X285750Y520700D01*
X273050Y520700D01*
X266700Y514350D01*
X266700Y501650D02*
X273050Y495300D01*
X285750Y495300D01*
X292100Y501650D01*
X260350Y520700D02*
X247650Y520700D01*
X241300Y514350D01*
X241300Y501650D01*
X247650Y495300D01*
X266700Y514350D02*
X260350Y520700D01*
X266700Y501650D02*
X260350Y495300D01*
X247650Y495300D01*
D12*
X350520Y513715D02*
X353695Y511175D01*
X350520Y513715D02*
X350520Y502285D01*
X353695Y502285D02*
X347345Y502285D01*
X238125Y504825D02*
X235585Y513715D01*
X238125Y504825D02*
X231775Y504825D01*
X233680Y507365D02*
X233680Y502285D01*
X287655Y479425D02*
X287657Y479325D01*
X287663Y479226D01*
X287673Y479126D01*
X287686Y479028D01*
X287704Y478929D01*
X287725Y478832D01*
X287750Y478736D01*
X287779Y478640D01*
X287812Y478546D01*
X287848Y478453D01*
X287888Y478362D01*
X287932Y478272D01*
X287979Y478184D01*
X288029Y478098D01*
X288083Y478014D01*
X288140Y477932D01*
X288200Y477853D01*
X288264Y477775D01*
X288330Y477701D01*
X288399Y477629D01*
X288471Y477560D01*
X288545Y477494D01*
X288623Y477430D01*
X288702Y477370D01*
X288784Y477313D01*
X288868Y477259D01*
X288954Y477209D01*
X289042Y477162D01*
X289132Y477118D01*
X289223Y477078D01*
X289316Y477042D01*
X289410Y477009D01*
X289506Y476980D01*
X289602Y476955D01*
X289699Y476934D01*
X289798Y476916D01*
X289896Y476903D01*
X289996Y476893D01*
X290095Y476887D01*
X290195Y476885D01*
X290336Y476887D01*
X290477Y476892D01*
X290618Y476902D01*
X290759Y476915D01*
X290899Y476931D01*
X291039Y476952D01*
X291178Y476976D01*
X291317Y477004D01*
X291454Y477035D01*
X291591Y477070D01*
X291727Y477108D01*
X291862Y477150D01*
X291995Y477196D01*
X292128Y477245D01*
X292259Y477298D01*
X292388Y477354D01*
X292517Y477413D01*
X292643Y477476D01*
X292768Y477542D01*
X292891Y477611D01*
X293012Y477684D01*
X293131Y477760D01*
X293249Y477839D01*
X293364Y477920D01*
X293476Y478005D01*
X293587Y478093D01*
X293695Y478184D01*
X293801Y478277D01*
X293904Y478374D01*
X294005Y478473D01*
X293688Y485775D02*
X293686Y485875D01*
X293680Y485974D01*
X293670Y486074D01*
X293657Y486172D01*
X293639Y486271D01*
X293618Y486368D01*
X293593Y486464D01*
X293564Y486560D01*
X293531Y486654D01*
X293495Y486747D01*
X293455Y486838D01*
X293411Y486928D01*
X293364Y487016D01*
X293314Y487102D01*
X293260Y487186D01*
X293203Y487268D01*
X293143Y487347D01*
X293079Y487425D01*
X293013Y487499D01*
X292944Y487571D01*
X292872Y487640D01*
X292798Y487706D01*
X292720Y487770D01*
X292641Y487830D01*
X292559Y487887D01*
X292475Y487941D01*
X292389Y487991D01*
X292301Y488038D01*
X292211Y488082D01*
X292120Y488122D01*
X292027Y488158D01*
X291933Y488191D01*
X291837Y488220D01*
X291741Y488245D01*
X291644Y488266D01*
X291545Y488284D01*
X291447Y488297D01*
X291347Y488307D01*
X291248Y488313D01*
X291148Y488315D01*
X291148Y488316D02*
X291015Y488314D01*
X290882Y488309D01*
X290749Y488299D01*
X290616Y488286D01*
X290484Y488269D01*
X290352Y488249D01*
X290221Y488225D01*
X290091Y488197D01*
X289961Y488166D01*
X289833Y488131D01*
X289705Y488092D01*
X289579Y488050D01*
X289454Y488004D01*
X289330Y487955D01*
X289207Y487903D01*
X289086Y487847D01*
X288967Y487787D01*
X288849Y487725D01*
X288734Y487659D01*
X288620Y487590D01*
X288508Y487517D01*
X288398Y487442D01*
X288290Y487363D01*
X292418Y483552D02*
X292502Y483604D01*
X292585Y483659D01*
X292665Y483718D01*
X292743Y483779D01*
X292818Y483843D01*
X292891Y483911D01*
X292962Y483981D01*
X293029Y484053D01*
X293094Y484128D01*
X293156Y484206D01*
X293215Y484286D01*
X293271Y484368D01*
X293323Y484452D01*
X293372Y484538D01*
X293418Y484626D01*
X293461Y484716D01*
X293500Y484807D01*
X293535Y484900D01*
X293567Y484994D01*
X293595Y485089D01*
X293620Y485185D01*
X293640Y485282D01*
X293658Y485380D01*
X293671Y485478D01*
X293680Y485577D01*
X293686Y485676D01*
X293688Y485775D01*
X288925Y481648D02*
X288841Y481596D01*
X288758Y481541D01*
X288678Y481482D01*
X288600Y481421D01*
X288525Y481357D01*
X288452Y481289D01*
X288381Y481219D01*
X288314Y481147D01*
X288249Y481072D01*
X288187Y480994D01*
X288128Y480914D01*
X288072Y480832D01*
X288020Y480748D01*
X287971Y480662D01*
X287925Y480574D01*
X287882Y480484D01*
X287843Y480393D01*
X287808Y480300D01*
X287776Y480206D01*
X287748Y480111D01*
X287723Y480015D01*
X287703Y479918D01*
X287685Y479820D01*
X287672Y479722D01*
X287663Y479623D01*
X287657Y479524D01*
X287655Y479425D01*
X288925Y481648D02*
X292418Y483553D01*
X283591Y488315D02*
X279781Y476885D01*
X275971Y488315D01*
X268034Y488316D02*
X267930Y488314D01*
X267825Y488308D01*
X267721Y488299D01*
X267618Y488286D01*
X267515Y488268D01*
X267413Y488248D01*
X267311Y488223D01*
X267211Y488195D01*
X267111Y488163D01*
X267013Y488127D01*
X266916Y488088D01*
X266821Y488046D01*
X266727Y488000D01*
X266635Y487950D01*
X266545Y487898D01*
X266457Y487842D01*
X266371Y487782D01*
X266287Y487720D01*
X266206Y487655D01*
X266127Y487587D01*
X266050Y487515D01*
X265977Y487442D01*
X265905Y487365D01*
X265837Y487286D01*
X265772Y487205D01*
X265710Y487121D01*
X265650Y487035D01*
X265594Y486947D01*
X265542Y486857D01*
X265492Y486765D01*
X265446Y486671D01*
X265404Y486576D01*
X265365Y486479D01*
X265329Y486381D01*
X265297Y486281D01*
X265269Y486181D01*
X265244Y486079D01*
X265224Y485977D01*
X265206Y485874D01*
X265193Y485771D01*
X265184Y485667D01*
X265178Y485562D01*
X265176Y485458D01*
X268034Y488315D02*
X268152Y488313D01*
X268271Y488307D01*
X268389Y488298D01*
X268506Y488285D01*
X268623Y488267D01*
X268740Y488247D01*
X268856Y488222D01*
X268971Y488194D01*
X269084Y488161D01*
X269197Y488126D01*
X269309Y488086D01*
X269419Y488044D01*
X269528Y487997D01*
X269636Y487947D01*
X269741Y487894D01*
X269845Y487837D01*
X269947Y487777D01*
X270047Y487714D01*
X270145Y487647D01*
X270241Y487578D01*
X270334Y487505D01*
X270425Y487429D01*
X270514Y487351D01*
X270600Y487269D01*
X270683Y487185D01*
X270764Y487099D01*
X270841Y487009D01*
X270916Y486918D01*
X270988Y486824D01*
X271057Y486727D01*
X271122Y486629D01*
X271185Y486528D01*
X271244Y486425D01*
X271300Y486321D01*
X271352Y486215D01*
X271401Y486107D01*
X271446Y485998D01*
X271488Y485887D01*
X271526Y485775D01*
X266128Y483236D02*
X266052Y483311D01*
X265977Y483390D01*
X265906Y483471D01*
X265837Y483555D01*
X265772Y483641D01*
X265710Y483729D01*
X265650Y483819D01*
X265594Y483911D01*
X265541Y484006D01*
X265492Y484102D01*
X265446Y484200D01*
X265403Y484299D01*
X265364Y484400D01*
X265329Y484502D01*
X265297Y484605D01*
X265269Y484709D01*
X265244Y484814D01*
X265223Y484921D01*
X265206Y485027D01*
X265193Y485134D01*
X265184Y485242D01*
X265178Y485350D01*
X265176Y485458D01*
X266129Y483235D02*
X271526Y476885D01*
X265176Y476885D01*
D10*
X323850Y563880D02*
X336550Y563880D01*
X323850Y563880D02*
X317500Y557530D01*
X317500Y544830D02*
X323850Y538480D01*
X317500Y557530D02*
X311150Y563880D01*
X298450Y563880D01*
X292100Y557530D01*
X292100Y544830D02*
X298450Y538480D01*
X311150Y538480D01*
X317500Y544830D01*
X342900Y544830D02*
X342900Y557530D01*
X336550Y563880D01*
X342900Y544830D02*
X336550Y538480D01*
X323850Y538480D01*
X292100Y557530D02*
X285750Y563880D01*
X273050Y563880D01*
X266700Y557530D01*
X266700Y544830D02*
X273050Y538480D01*
X285750Y538480D01*
X292100Y544830D01*
X260350Y563880D02*
X247650Y563880D01*
X241300Y557530D01*
X241300Y544830D01*
X247650Y538480D01*
X266700Y557530D02*
X260350Y563880D01*
X266700Y544830D02*
X260350Y538480D01*
X247650Y538480D01*
D12*
X350520Y556895D02*
X353695Y554355D01*
X350520Y556895D02*
X350520Y545465D01*
X353695Y545465D02*
X347345Y545465D01*
X238125Y548005D02*
X235585Y556895D01*
X238125Y548005D02*
X231775Y548005D01*
X233680Y550545D02*
X233680Y545465D01*
X290195Y522605D02*
X290197Y522505D01*
X290203Y522406D01*
X290213Y522306D01*
X290226Y522208D01*
X290244Y522109D01*
X290265Y522012D01*
X290290Y521916D01*
X290319Y521820D01*
X290352Y521726D01*
X290388Y521633D01*
X290428Y521542D01*
X290472Y521452D01*
X290519Y521364D01*
X290569Y521278D01*
X290623Y521194D01*
X290680Y521112D01*
X290740Y521033D01*
X290804Y520955D01*
X290870Y520881D01*
X290939Y520809D01*
X291011Y520740D01*
X291085Y520674D01*
X291163Y520610D01*
X291242Y520550D01*
X291324Y520493D01*
X291408Y520439D01*
X291494Y520389D01*
X291582Y520342D01*
X291672Y520298D01*
X291763Y520258D01*
X291856Y520222D01*
X291950Y520189D01*
X292046Y520160D01*
X292142Y520135D01*
X292239Y520114D01*
X292338Y520096D01*
X292436Y520083D01*
X292536Y520073D01*
X292635Y520067D01*
X292735Y520065D01*
X292876Y520067D01*
X293017Y520072D01*
X293158Y520082D01*
X293299Y520095D01*
X293439Y520111D01*
X293579Y520132D01*
X293718Y520156D01*
X293857Y520184D01*
X293994Y520215D01*
X294131Y520250D01*
X294267Y520288D01*
X294402Y520330D01*
X294535Y520376D01*
X294668Y520425D01*
X294799Y520478D01*
X294928Y520534D01*
X295057Y520593D01*
X295183Y520656D01*
X295308Y520722D01*
X295431Y520791D01*
X295552Y520864D01*
X295671Y520940D01*
X295789Y521019D01*
X295904Y521100D01*
X296016Y521185D01*
X296127Y521273D01*
X296235Y521364D01*
X296341Y521457D01*
X296444Y521554D01*
X296545Y521653D01*
X296228Y528955D02*
X296226Y529055D01*
X296220Y529154D01*
X296210Y529254D01*
X296197Y529352D01*
X296179Y529451D01*
X296158Y529548D01*
X296133Y529644D01*
X296104Y529740D01*
X296071Y529834D01*
X296035Y529927D01*
X295995Y530018D01*
X295951Y530108D01*
X295904Y530196D01*
X295854Y530282D01*
X295800Y530366D01*
X295743Y530448D01*
X295683Y530527D01*
X295619Y530605D01*
X295553Y530679D01*
X295484Y530751D01*
X295412Y530820D01*
X295338Y530886D01*
X295260Y530950D01*
X295181Y531010D01*
X295099Y531067D01*
X295015Y531121D01*
X294929Y531171D01*
X294841Y531218D01*
X294751Y531262D01*
X294660Y531302D01*
X294567Y531338D01*
X294473Y531371D01*
X294377Y531400D01*
X294281Y531425D01*
X294184Y531446D01*
X294085Y531464D01*
X293987Y531477D01*
X293887Y531487D01*
X293788Y531493D01*
X293688Y531495D01*
X293688Y531496D02*
X293555Y531494D01*
X293422Y531489D01*
X293289Y531479D01*
X293156Y531466D01*
X293024Y531449D01*
X292892Y531429D01*
X292761Y531405D01*
X292631Y531377D01*
X292501Y531346D01*
X292373Y531311D01*
X292245Y531272D01*
X292119Y531230D01*
X291994Y531184D01*
X291870Y531135D01*
X291747Y531083D01*
X291626Y531027D01*
X291507Y530967D01*
X291389Y530905D01*
X291274Y530839D01*
X291160Y530770D01*
X291048Y530697D01*
X290938Y530622D01*
X290830Y530543D01*
X294958Y526732D02*
X295042Y526784D01*
X295125Y526839D01*
X295205Y526898D01*
X295283Y526959D01*
X295358Y527023D01*
X295431Y527091D01*
X295502Y527161D01*
X295569Y527233D01*
X295634Y527308D01*
X295696Y527386D01*
X295755Y527466D01*
X295811Y527548D01*
X295863Y527632D01*
X295912Y527718D01*
X295958Y527806D01*
X296001Y527896D01*
X296040Y527987D01*
X296075Y528080D01*
X296107Y528174D01*
X296135Y528269D01*
X296160Y528365D01*
X296180Y528462D01*
X296198Y528560D01*
X296211Y528658D01*
X296220Y528757D01*
X296226Y528856D01*
X296228Y528955D01*
X291465Y524828D02*
X291381Y524776D01*
X291298Y524721D01*
X291218Y524662D01*
X291140Y524601D01*
X291065Y524537D01*
X290992Y524469D01*
X290921Y524399D01*
X290854Y524327D01*
X290789Y524252D01*
X290727Y524174D01*
X290668Y524094D01*
X290612Y524012D01*
X290560Y523928D01*
X290511Y523842D01*
X290465Y523754D01*
X290422Y523664D01*
X290383Y523573D01*
X290348Y523480D01*
X290316Y523386D01*
X290288Y523291D01*
X290263Y523195D01*
X290243Y523098D01*
X290225Y523000D01*
X290212Y522902D01*
X290203Y522803D01*
X290197Y522704D01*
X290195Y522605D01*
X291465Y524828D02*
X294958Y526733D01*
X286131Y531495D02*
X282321Y520065D01*
X278511Y531495D01*
X271526Y531495D02*
X274066Y522605D01*
X267716Y522605D01*
X269621Y525145D02*
X269621Y520065D01*
D10*
X200660Y383540D02*
X180340Y383540D01*
X203200Y436880D02*
X203200Y457200D01*
X203200Y436880D02*
X200660Y434340D01*
X177800Y436880D02*
X177800Y457200D01*
X177800Y436880D02*
X180340Y434340D01*
X177800Y457200D02*
X180340Y459740D01*
X200660Y459740D02*
X203200Y457200D01*
X200660Y459740D02*
X180340Y459740D01*
X200660Y434340D02*
X203200Y431800D01*
X203200Y411480D01*
X200660Y408940D01*
X203200Y406400D01*
X203200Y386080D02*
X200660Y383540D01*
X203200Y386080D02*
X203200Y406400D01*
X177800Y431800D02*
X180340Y434340D01*
X177800Y411480D02*
X180340Y408940D01*
X177800Y406400D01*
X177800Y386080D02*
X180340Y383540D01*
X177800Y411480D02*
X177800Y431800D01*
X177800Y406400D02*
X177800Y386080D01*
D12*
X171182Y396875D02*
X173101Y399274D01*
X164465Y399274D01*
X164465Y396875D02*
X164465Y401673D01*
X173101Y424914D02*
X173099Y425006D01*
X173093Y425097D01*
X173084Y425188D01*
X173070Y425279D01*
X173053Y425369D01*
X173031Y425458D01*
X173006Y425546D01*
X172978Y425633D01*
X172945Y425719D01*
X172909Y425803D01*
X172870Y425886D01*
X172827Y425967D01*
X172780Y426046D01*
X172731Y426123D01*
X172678Y426198D01*
X172622Y426270D01*
X172563Y426340D01*
X172501Y426408D01*
X172436Y426473D01*
X172368Y426535D01*
X172298Y426594D01*
X172226Y426650D01*
X172151Y426703D01*
X172074Y426752D01*
X171995Y426799D01*
X171914Y426842D01*
X171831Y426881D01*
X171747Y426917D01*
X171661Y426950D01*
X171574Y426978D01*
X171486Y427003D01*
X171397Y427025D01*
X171307Y427042D01*
X171216Y427056D01*
X171125Y427065D01*
X171034Y427071D01*
X170942Y427073D01*
X173101Y424914D02*
X173099Y424811D01*
X173093Y424709D01*
X173084Y424607D01*
X173071Y424505D01*
X173054Y424404D01*
X173033Y424303D01*
X173009Y424204D01*
X172980Y424105D01*
X172949Y424008D01*
X172913Y423911D01*
X172875Y423816D01*
X172832Y423723D01*
X172786Y423631D01*
X172737Y423541D01*
X172685Y423453D01*
X172629Y423366D01*
X172570Y423282D01*
X172509Y423201D01*
X172444Y423121D01*
X172376Y423044D01*
X172305Y422969D01*
X172232Y422898D01*
X172156Y422829D01*
X172078Y422762D01*
X171997Y422699D01*
X171914Y422639D01*
X171829Y422582D01*
X171742Y422528D01*
X171652Y422477D01*
X171561Y422430D01*
X171469Y422386D01*
X171374Y422345D01*
X171279Y422308D01*
X171182Y422275D01*
X169263Y426353D02*
X169329Y426420D01*
X169398Y426484D01*
X169469Y426545D01*
X169543Y426603D01*
X169619Y426658D01*
X169697Y426710D01*
X169777Y426759D01*
X169859Y426805D01*
X169943Y426847D01*
X170029Y426886D01*
X170116Y426921D01*
X170204Y426952D01*
X170294Y426980D01*
X170384Y427005D01*
X170476Y427026D01*
X170568Y427043D01*
X170661Y427056D01*
X170754Y427065D01*
X170848Y427071D01*
X170942Y427073D01*
X169263Y426353D02*
X164465Y422275D01*
X164465Y427073D01*
X164465Y447675D02*
X164465Y450074D01*
X164467Y450171D01*
X164473Y450267D01*
X164482Y450363D01*
X164496Y450459D01*
X164513Y450554D01*
X164535Y450648D01*
X164560Y450741D01*
X164588Y450834D01*
X164621Y450925D01*
X164657Y451014D01*
X164697Y451102D01*
X164740Y451189D01*
X164786Y451274D01*
X164836Y451356D01*
X164890Y451437D01*
X164946Y451515D01*
X165006Y451591D01*
X165068Y451665D01*
X165134Y451736D01*
X165202Y451804D01*
X165273Y451870D01*
X165347Y451932D01*
X165423Y451992D01*
X165501Y452048D01*
X165582Y452102D01*
X165665Y452152D01*
X165749Y452198D01*
X165836Y452241D01*
X165924Y452281D01*
X166013Y452317D01*
X166104Y452350D01*
X166197Y452378D01*
X166290Y452403D01*
X166384Y452425D01*
X166479Y452442D01*
X166575Y452456D01*
X166671Y452465D01*
X166767Y452471D01*
X166864Y452473D01*
X166961Y452471D01*
X167057Y452465D01*
X167153Y452456D01*
X167249Y452442D01*
X167344Y452425D01*
X167438Y452403D01*
X167531Y452378D01*
X167624Y452350D01*
X167715Y452317D01*
X167804Y452281D01*
X167892Y452241D01*
X167979Y452198D01*
X168064Y452152D01*
X168146Y452102D01*
X168227Y452048D01*
X168305Y451992D01*
X168381Y451932D01*
X168455Y451870D01*
X168526Y451804D01*
X168594Y451736D01*
X168660Y451665D01*
X168722Y451591D01*
X168782Y451515D01*
X168838Y451437D01*
X168892Y451356D01*
X168942Y451274D01*
X168988Y451189D01*
X169031Y451102D01*
X169071Y451014D01*
X169107Y450925D01*
X169140Y450834D01*
X169168Y450741D01*
X169193Y450648D01*
X169215Y450554D01*
X169232Y450459D01*
X169246Y450363D01*
X169255Y450267D01*
X169261Y450171D01*
X169263Y450074D01*
X173101Y450554D02*
X173101Y447675D01*
X173101Y450554D02*
X173099Y450640D01*
X173093Y450726D01*
X173084Y450812D01*
X173070Y450897D01*
X173053Y450981D01*
X173032Y451065D01*
X173007Y451147D01*
X172979Y451228D01*
X172947Y451308D01*
X172911Y451387D01*
X172872Y451463D01*
X172829Y451538D01*
X172784Y451611D01*
X172735Y451682D01*
X172682Y451750D01*
X172627Y451817D01*
X172569Y451880D01*
X172508Y451941D01*
X172445Y451999D01*
X172378Y452054D01*
X172310Y452107D01*
X172239Y452156D01*
X172166Y452201D01*
X172091Y452244D01*
X172015Y452283D01*
X171936Y452319D01*
X171856Y452351D01*
X171775Y452379D01*
X171693Y452404D01*
X171609Y452425D01*
X171525Y452442D01*
X171440Y452456D01*
X171354Y452465D01*
X171268Y452471D01*
X171182Y452473D01*
X171096Y452471D01*
X171010Y452465D01*
X170924Y452456D01*
X170839Y452442D01*
X170755Y452425D01*
X170671Y452404D01*
X170589Y452379D01*
X170508Y452351D01*
X170428Y452319D01*
X170349Y452283D01*
X170273Y452244D01*
X170198Y452201D01*
X170125Y452156D01*
X170054Y452107D01*
X169986Y452054D01*
X169919Y451999D01*
X169856Y451941D01*
X169795Y451880D01*
X169737Y451817D01*
X169682Y451750D01*
X169629Y451682D01*
X169580Y451611D01*
X169535Y451538D01*
X169492Y451463D01*
X169453Y451387D01*
X169417Y451308D01*
X169385Y451228D01*
X169357Y451147D01*
X169332Y451065D01*
X169311Y450981D01*
X169294Y450897D01*
X169280Y450812D01*
X169271Y450726D01*
X169265Y450640D01*
X169263Y450554D01*
X169263Y448635D01*
X210185Y393065D02*
X210085Y393063D01*
X209986Y393057D01*
X209886Y393047D01*
X209788Y393034D01*
X209689Y393016D01*
X209592Y392995D01*
X209496Y392970D01*
X209400Y392941D01*
X209306Y392908D01*
X209213Y392872D01*
X209122Y392832D01*
X209032Y392788D01*
X208944Y392741D01*
X208858Y392691D01*
X208774Y392637D01*
X208692Y392580D01*
X208613Y392520D01*
X208535Y392456D01*
X208461Y392390D01*
X208389Y392321D01*
X208320Y392249D01*
X208254Y392175D01*
X208190Y392097D01*
X208130Y392018D01*
X208073Y391936D01*
X208019Y391852D01*
X207969Y391766D01*
X207922Y391678D01*
X207878Y391588D01*
X207838Y391497D01*
X207802Y391404D01*
X207769Y391310D01*
X207740Y391214D01*
X207715Y391118D01*
X207694Y391021D01*
X207676Y390922D01*
X207663Y390824D01*
X207653Y390724D01*
X207647Y390625D01*
X207645Y390525D01*
X207647Y390384D01*
X207652Y390243D01*
X207662Y390102D01*
X207675Y389961D01*
X207691Y389821D01*
X207712Y389681D01*
X207736Y389542D01*
X207764Y389403D01*
X207795Y389266D01*
X207830Y389129D01*
X207868Y388993D01*
X207910Y388858D01*
X207956Y388725D01*
X208005Y388592D01*
X208058Y388461D01*
X208114Y388332D01*
X208173Y388203D01*
X208236Y388077D01*
X208302Y387952D01*
X208371Y387829D01*
X208444Y387708D01*
X208520Y387589D01*
X208599Y387471D01*
X208680Y387356D01*
X208765Y387244D01*
X208853Y387133D01*
X208944Y387025D01*
X209037Y386919D01*
X209134Y386816D01*
X209233Y386715D01*
X216535Y387033D02*
X216635Y387035D01*
X216734Y387041D01*
X216834Y387051D01*
X216932Y387064D01*
X217031Y387082D01*
X217128Y387103D01*
X217224Y387128D01*
X217320Y387157D01*
X217414Y387190D01*
X217507Y387226D01*
X217598Y387266D01*
X217688Y387310D01*
X217776Y387357D01*
X217862Y387407D01*
X217946Y387461D01*
X218028Y387518D01*
X218107Y387578D01*
X218185Y387642D01*
X218259Y387708D01*
X218331Y387777D01*
X218400Y387849D01*
X218466Y387923D01*
X218530Y388001D01*
X218590Y388080D01*
X218647Y388162D01*
X218701Y388246D01*
X218751Y388332D01*
X218798Y388420D01*
X218842Y388510D01*
X218882Y388601D01*
X218918Y388694D01*
X218951Y388788D01*
X218980Y388884D01*
X219005Y388980D01*
X219026Y389077D01*
X219044Y389176D01*
X219057Y389274D01*
X219067Y389374D01*
X219073Y389473D01*
X219075Y389573D01*
X219076Y389573D02*
X219074Y389706D01*
X219069Y389839D01*
X219059Y389972D01*
X219046Y390105D01*
X219029Y390237D01*
X219009Y390369D01*
X218985Y390500D01*
X218957Y390630D01*
X218926Y390760D01*
X218891Y390888D01*
X218852Y391016D01*
X218810Y391142D01*
X218764Y391267D01*
X218715Y391391D01*
X218663Y391514D01*
X218607Y391635D01*
X218547Y391754D01*
X218485Y391872D01*
X218419Y391987D01*
X218350Y392101D01*
X218277Y392213D01*
X218202Y392323D01*
X218123Y392431D01*
X214312Y388302D02*
X214364Y388218D01*
X214419Y388135D01*
X214478Y388055D01*
X214539Y387977D01*
X214603Y387902D01*
X214671Y387829D01*
X214741Y387758D01*
X214813Y387691D01*
X214888Y387626D01*
X214966Y387564D01*
X215046Y387505D01*
X215128Y387449D01*
X215212Y387397D01*
X215298Y387348D01*
X215386Y387302D01*
X215476Y387259D01*
X215567Y387220D01*
X215660Y387185D01*
X215754Y387153D01*
X215849Y387125D01*
X215945Y387100D01*
X216042Y387080D01*
X216140Y387062D01*
X216238Y387049D01*
X216337Y387040D01*
X216436Y387034D01*
X216535Y387032D01*
X212408Y391795D02*
X212356Y391879D01*
X212301Y391962D01*
X212242Y392042D01*
X212181Y392120D01*
X212117Y392195D01*
X212049Y392268D01*
X211979Y392339D01*
X211907Y392406D01*
X211832Y392471D01*
X211754Y392533D01*
X211674Y392592D01*
X211592Y392648D01*
X211508Y392700D01*
X211422Y392749D01*
X211334Y392795D01*
X211244Y392838D01*
X211153Y392877D01*
X211060Y392912D01*
X210966Y392944D01*
X210871Y392972D01*
X210775Y392997D01*
X210678Y393017D01*
X210580Y393035D01*
X210482Y393048D01*
X210383Y393057D01*
X210284Y393063D01*
X210185Y393065D01*
X212408Y391795D02*
X214313Y388303D01*
X207645Y398170D02*
X207645Y403250D01*
X207645Y398170D02*
X219075Y398170D01*
X219075Y403250D01*
X213995Y401980D02*
X213995Y398170D01*
X219075Y408076D02*
X207645Y408076D01*
X207645Y413156D01*
X207645Y417982D02*
X207645Y423062D01*
X207645Y417982D02*
X219075Y417982D01*
X219075Y423062D01*
X213995Y421792D02*
X213995Y417982D01*
X207645Y429985D02*
X207645Y432525D01*
X207645Y429985D02*
X207647Y429885D01*
X207653Y429786D01*
X207663Y429686D01*
X207676Y429588D01*
X207694Y429489D01*
X207715Y429392D01*
X207740Y429296D01*
X207769Y429200D01*
X207802Y429106D01*
X207838Y429013D01*
X207878Y428922D01*
X207922Y428832D01*
X207969Y428744D01*
X208019Y428658D01*
X208073Y428574D01*
X208130Y428492D01*
X208190Y428413D01*
X208254Y428335D01*
X208320Y428261D01*
X208389Y428189D01*
X208461Y428120D01*
X208535Y428054D01*
X208613Y427990D01*
X208692Y427930D01*
X208774Y427873D01*
X208858Y427819D01*
X208944Y427769D01*
X209032Y427722D01*
X209122Y427678D01*
X209213Y427638D01*
X209306Y427602D01*
X209400Y427569D01*
X209496Y427540D01*
X209592Y427515D01*
X209689Y427494D01*
X209788Y427476D01*
X209886Y427463D01*
X209986Y427453D01*
X210085Y427447D01*
X210185Y427445D01*
X216535Y427445D01*
X216635Y427447D01*
X216734Y427453D01*
X216834Y427463D01*
X216932Y427476D01*
X217031Y427494D01*
X217128Y427515D01*
X217224Y427540D01*
X217320Y427569D01*
X217414Y427602D01*
X217507Y427638D01*
X217598Y427678D01*
X217688Y427722D01*
X217776Y427769D01*
X217862Y427819D01*
X217946Y427873D01*
X218028Y427930D01*
X218107Y427990D01*
X218185Y428054D01*
X218259Y428120D01*
X218331Y428189D01*
X218400Y428261D01*
X218466Y428335D01*
X218530Y428413D01*
X218590Y428492D01*
X218647Y428574D01*
X218701Y428658D01*
X218751Y428744D01*
X218798Y428832D01*
X218842Y428922D01*
X218882Y429013D01*
X218918Y429106D01*
X218951Y429200D01*
X218980Y429296D01*
X219005Y429392D01*
X219026Y429489D01*
X219044Y429588D01*
X219057Y429686D01*
X219067Y429786D01*
X219073Y429885D01*
X219075Y429985D01*
X219075Y432525D01*
X219075Y439420D02*
X207645Y439420D01*
X219075Y436245D02*
X219075Y442595D01*
M02*
