G04 EAGLE Gerber RS-274X export*
G75*
%MOMM*%
%FSLAX34Y34*%
%LPD*%
%INSolderpaste Top*%
%IPPOS*%
%AMOC8*
5,1,8,0,0,1.08239X$1,22.5*%
G01*
%ADD10R,1.500000X1.300000*%
%ADD11R,1.300000X1.500000*%
%ADD12R,1.400000X1.800000*%
%ADD13R,1.270000X0.558800*%
%ADD14R,0.558800X1.270000*%
%ADD15R,1.600000X1.300000*%
%ADD16R,1.270000X1.879600*%
%ADD17R,1.300000X1.600000*%
%ADD18R,1.219200X2.235200*%
%ADD19R,3.600000X2.200000*%
%ADD20R,1.270000X0.635000*%
%ADD21R,0.900000X1.200000*%


D10*
X444500Y400000D03*
X444500Y381000D03*
X342900Y374600D03*
X342900Y355600D03*
D11*
X374700Y254000D03*
X393700Y254000D03*
D10*
X457200Y342900D03*
X457200Y323900D03*
X622300Y463500D03*
X622300Y444500D03*
D12*
X385100Y304800D03*
X419100Y304800D03*
D13*
X490474Y409000D03*
X490474Y401000D03*
X490474Y393000D03*
X490474Y385000D03*
X490474Y377000D03*
X490474Y369000D03*
X490474Y361000D03*
X490474Y353000D03*
D14*
X505400Y338074D03*
X513400Y338074D03*
X521400Y338074D03*
X529400Y338074D03*
X537400Y338074D03*
X545400Y338074D03*
X553400Y338074D03*
X561400Y338074D03*
D13*
X576326Y353000D03*
X576326Y361000D03*
X576326Y369000D03*
X576326Y377000D03*
X576326Y385000D03*
X576326Y393000D03*
X576326Y401000D03*
X576326Y409000D03*
D14*
X561400Y423926D03*
X553400Y423926D03*
X545400Y423926D03*
X537400Y423926D03*
X529400Y423926D03*
X521400Y423926D03*
X513400Y423926D03*
X505400Y423926D03*
D15*
X723900Y365100D03*
X723900Y346100D03*
X723900Y396900D03*
X723900Y415900D03*
X723900Y466700D03*
X723900Y447700D03*
D10*
X647700Y314300D03*
X647700Y295300D03*
X673100Y314300D03*
X673100Y295300D03*
D16*
X454660Y264160D03*
X510540Y264160D03*
X510540Y294640D03*
X454660Y294640D03*
D10*
X431800Y244500D03*
X431800Y263500D03*
D11*
X504800Y241300D03*
X485800Y241300D03*
D17*
X528980Y241300D03*
X547980Y241300D03*
D18*
X370586Y337312D03*
X393700Y337312D03*
X416814Y337312D03*
D19*
X393700Y399290D03*
D10*
X215900Y539140D03*
X215900Y558140D03*
X218440Y504800D03*
X218440Y485800D03*
D15*
X561340Y473100D03*
X561340Y492100D03*
D17*
X424840Y556260D03*
X443840Y556260D03*
X381660Y518160D03*
X400660Y518160D03*
D15*
X657860Y532740D03*
X657860Y513740D03*
D20*
X299720Y297180D03*
X299720Y251680D03*
X215720Y297180D03*
X215720Y251680D03*
X728980Y248920D03*
X728980Y294420D03*
X812980Y248920D03*
X812980Y294420D03*
D21*
X582590Y275840D03*
X582590Y248340D03*
X568090Y248340D03*
X568090Y275840D03*
D15*
X609600Y249580D03*
X609600Y268580D03*
M02*
