G04 EAGLE Gerber RS-274X export*
G75*
%MOMM*%
%FSLAX34Y34*%
%LPD*%
%INSoldermask Top*%
%IPPOS*%
%AMOC8*
5,1,8,0,0,1.08239X$1,22.5*%
G01*
%ADD10R,1.703200X1.503200*%
%ADD11R,1.503200X1.703200*%
%ADD12R,1.603200X2.003200*%
%ADD13R,1.473200X0.762000*%
%ADD14R,0.762000X1.473200*%
%ADD15P,2.556822X8X202.500000*%
%ADD16C,1.524000*%
%ADD17C,2.298700*%
%ADD18R,1.803200X1.503200*%
%ADD19C,1.727200*%
%ADD20R,1.473200X2.082800*%
%ADD21R,1.503200X1.803200*%
%ADD22R,1.422400X2.438400*%
%ADD23R,3.803200X2.403200*%
%ADD24C,1.625600*%
%ADD25R,1.473200X0.838200*%
%ADD26R,1.103200X1.403200*%
%ADD27C,0.959600*%


D10*
X444500Y400000D03*
X444500Y381000D03*
X342900Y374600D03*
X342900Y355600D03*
D11*
X374700Y254000D03*
X393700Y254000D03*
D10*
X457200Y342900D03*
X457200Y323900D03*
X622300Y463500D03*
X622300Y444500D03*
D12*
X385100Y304800D03*
X419100Y304800D03*
D13*
X490474Y409000D03*
X490474Y401000D03*
X490474Y393000D03*
X490474Y385000D03*
X490474Y377000D03*
X490474Y369000D03*
X490474Y361000D03*
X490474Y353000D03*
D14*
X505400Y338074D03*
X513400Y338074D03*
X521400Y338074D03*
X529400Y338074D03*
X537400Y338074D03*
X545400Y338074D03*
X553400Y338074D03*
X561400Y338074D03*
D13*
X576326Y353000D03*
X576326Y361000D03*
X576326Y369000D03*
X576326Y377000D03*
X576326Y385000D03*
X576326Y393000D03*
X576326Y401000D03*
X576326Y409000D03*
D14*
X561400Y423926D03*
X553400Y423926D03*
X545400Y423926D03*
X537400Y423926D03*
X529400Y423926D03*
X521400Y423926D03*
X513400Y423926D03*
X505400Y423926D03*
D15*
X795020Y556260D03*
D16*
X616204Y535940D02*
X602996Y535940D01*
X602996Y510540D02*
X616204Y510540D01*
D17*
X264478Y330200D02*
X243523Y330200D01*
X243523Y381000D02*
X264478Y381000D01*
D18*
X723900Y365100D03*
X723900Y346100D03*
X723900Y396900D03*
X723900Y415900D03*
X723900Y466700D03*
X723900Y447700D03*
D10*
X647700Y314300D03*
X647700Y295300D03*
X673100Y314300D03*
X673100Y295300D03*
D19*
X668020Y342900D02*
X652780Y342900D01*
X652780Y368300D02*
X668020Y368300D01*
X668020Y393700D02*
X652780Y393700D01*
X652780Y419100D02*
X668020Y419100D01*
X668020Y444500D02*
X652780Y444500D01*
X652780Y469900D02*
X668020Y469900D01*
D20*
X454660Y264160D03*
X510540Y264160D03*
X510540Y294640D03*
X454660Y294640D03*
D19*
X779780Y495300D02*
X795020Y495300D01*
X795020Y469900D02*
X779780Y469900D01*
X779780Y444500D02*
X795020Y444500D01*
X795020Y419100D02*
X779780Y419100D01*
X779780Y393700D02*
X795020Y393700D01*
X795020Y368300D02*
X779780Y368300D01*
X779780Y342900D02*
X795020Y342900D01*
D10*
X431800Y244500D03*
X431800Y263500D03*
D11*
X504800Y241300D03*
X485800Y241300D03*
D21*
X528980Y241300D03*
X547980Y241300D03*
D22*
X370586Y337312D03*
X393700Y337312D03*
X416814Y337312D03*
D23*
X393700Y399290D03*
D19*
X330200Y500380D02*
X330200Y515620D01*
X304800Y515620D02*
X304800Y500380D01*
X279400Y500380D02*
X279400Y515620D01*
X254000Y515620D02*
X254000Y500380D01*
D10*
X215900Y539140D03*
X215900Y558140D03*
X218440Y504800D03*
X218440Y485800D03*
D19*
X330200Y543560D02*
X330200Y558800D01*
X304800Y558800D02*
X304800Y543560D01*
X279400Y543560D02*
X279400Y558800D01*
X254000Y558800D02*
X254000Y543560D01*
D18*
X561340Y473100D03*
X561340Y492100D03*
D16*
X485140Y552196D02*
X485140Y565404D01*
X510540Y565404D02*
X510540Y552196D01*
D21*
X424840Y556260D03*
X443840Y556260D03*
D16*
X431800Y524764D02*
X431800Y511556D01*
X457200Y511556D02*
X457200Y524764D01*
D21*
X381660Y518160D03*
X400660Y518160D03*
D19*
X396240Y441960D02*
X396240Y426720D01*
X421640Y426720D02*
X421640Y441960D01*
X447040Y441960D02*
X447040Y426720D01*
X472440Y426720D02*
X472440Y441960D01*
D24*
X197612Y396240D02*
X183388Y396240D01*
X183388Y421640D02*
X197612Y421640D01*
X197612Y447040D02*
X183388Y447040D01*
D18*
X657860Y532740D03*
X657860Y513740D03*
D25*
X299720Y297180D03*
X299720Y251680D03*
X215720Y297180D03*
X215720Y251680D03*
X728980Y248920D03*
X728980Y294420D03*
X812980Y248920D03*
X812980Y294420D03*
D26*
X582590Y275840D03*
X582590Y248340D03*
X568090Y248340D03*
X568090Y275840D03*
D18*
X609600Y249580D03*
X609600Y268580D03*
D27*
X576580Y454660D03*
X170180Y378460D03*
X292100Y327660D03*
X375920Y561340D03*
X635000Y490220D03*
X739140Y553720D03*
X353060Y403860D03*
X533400Y317500D03*
X330200Y248920D03*
X551180Y261620D03*
X535940Y299720D03*
X688340Y350520D03*
X701040Y462280D03*
X363220Y284480D03*
X480060Y510540D03*
X640080Y327660D03*
X530860Y406400D03*
X617220Y302260D03*
X746760Y485140D03*
X467360Y401320D03*
X292100Y454660D03*
X553720Y302260D03*
X695960Y281940D03*
M02*
