G04 EAGLE Gerber RS-274X export*
G75*
%MOMM*%
%FSLAX34Y34*%
%LPD*%
%INSoldermask Bottom*%
%IPPOS*%
%AMOC8*
5,1,8,0,0,1.08239X$1,22.5*%
G01*
%ADD10P,2.556822X8X202.500000*%
%ADD11C,1.524000*%
%ADD12C,2.298700*%
%ADD13C,1.727200*%
%ADD14C,1.625600*%
%ADD15C,0.959600*%


D10*
X795020Y556260D03*
D11*
X616204Y535940D02*
X602996Y535940D01*
X602996Y510540D02*
X616204Y510540D01*
D12*
X264478Y330200D02*
X243523Y330200D01*
X243523Y381000D02*
X264478Y381000D01*
D13*
X652780Y342900D02*
X668020Y342900D01*
X668020Y368300D02*
X652780Y368300D01*
X652780Y393700D02*
X668020Y393700D01*
X668020Y419100D02*
X652780Y419100D01*
X652780Y444500D02*
X668020Y444500D01*
X668020Y469900D02*
X652780Y469900D01*
X779780Y495300D02*
X795020Y495300D01*
X795020Y469900D02*
X779780Y469900D01*
X779780Y444500D02*
X795020Y444500D01*
X795020Y419100D02*
X779780Y419100D01*
X779780Y393700D02*
X795020Y393700D01*
X795020Y368300D02*
X779780Y368300D01*
X779780Y342900D02*
X795020Y342900D01*
X330200Y500380D02*
X330200Y515620D01*
X304800Y515620D02*
X304800Y500380D01*
X279400Y500380D02*
X279400Y515620D01*
X254000Y515620D02*
X254000Y500380D01*
X330200Y543560D02*
X330200Y558800D01*
X304800Y558800D02*
X304800Y543560D01*
X279400Y543560D02*
X279400Y558800D01*
X254000Y558800D02*
X254000Y543560D01*
D11*
X485140Y552196D02*
X485140Y565404D01*
X510540Y565404D02*
X510540Y552196D01*
X431800Y524764D02*
X431800Y511556D01*
X457200Y511556D02*
X457200Y524764D01*
D13*
X396240Y441960D02*
X396240Y426720D01*
X421640Y426720D02*
X421640Y441960D01*
X447040Y441960D02*
X447040Y426720D01*
X472440Y426720D02*
X472440Y441960D01*
D14*
X197612Y396240D02*
X183388Y396240D01*
X183388Y421640D02*
X197612Y421640D01*
X197612Y447040D02*
X183388Y447040D01*
D15*
X576580Y454660D03*
X170180Y378460D03*
X292100Y327660D03*
X375920Y561340D03*
X635000Y490220D03*
X739140Y553720D03*
X353060Y403860D03*
X533400Y317500D03*
X330200Y248920D03*
X551180Y261620D03*
X535940Y299720D03*
X688340Y350520D03*
X701040Y462280D03*
X363220Y284480D03*
X480060Y510540D03*
X640080Y327660D03*
X530860Y406400D03*
X617220Y302260D03*
X746760Y485140D03*
X467360Y401320D03*
X292100Y454660D03*
X553720Y302260D03*
X695960Y281940D03*
M02*
