M48
;GenerationSoftware,Autodesk,EAGLE,9.4.1*%
;CreationDate,2020-01-04T13:58:45Z*%
FMAT,2
ICI,OFF
METRIC,TZ,000.000
T6C0.350
T5C0.813
T4C0.914
T3C1.016
T2C1.397
%
G90
M71
T2
X25400Y38100
X25400Y33020
T3
X78740Y34290
X66040Y39370
X66040Y36830
X66040Y34290
X66040Y41910
X66040Y44450
X79502Y55626
X66040Y46990
X78740Y49530
X78740Y46990
X78740Y44450
X78740Y41910
X78740Y39370
X78740Y36830
X33020Y50800
X30480Y50800
X27940Y50800
X25400Y50800
X33020Y55118
X30480Y55118
X27940Y55118
X25400Y55118
X39624Y43434
X42164Y43434
X44704Y43434
X47244Y43434
T4
X19050Y44704
X19050Y39624
X19050Y42164
T5
X60960Y53594
X60960Y51054
X45720Y51816
X43180Y51816
X51054Y55880
X48514Y55880
T6
X57658Y45466
X17018Y37846
X29210Y32766
X37592Y56134
X63500Y49022
X73914Y55372
X35306Y40386
X53340Y31750
X33020Y24892
X55118Y26162
X53594Y29972
X68834Y35052
X70104Y46228
X36322Y28448
X48006Y51054
X64008Y32766
X53086Y40640
X61722Y30226
X74676Y48514
X46736Y40132
X29210Y45466
X55372Y30226
X69596Y28194
M30